G75*
%MOIN*%
%OFA0B0*%
%FSLAX25Y25*%
%IPPOS*%
%LPD*%
%AMOC8*
5,1,8,0,0,1.08239X$1,22.5*
%
%ADD10C,0.00100*%
%ADD11C,0.00800*%
%ADD12C,0.00300*%
%ADD13C,0.00400*%
%ADD14C,0.01000*%
%ADD15C,0.00600*%
%ADD16C,0.02000*%
%ADD17C,0.00500*%
%ADD18R,0.02000X0.23000*%
%ADD19R,0.09000X0.02000*%
%ADD20R,0.07000X0.02000*%
%ADD21R,0.05000X0.02000*%
%ADD22R,0.03000X0.02000*%
%ADD23R,0.01000X0.01000*%
%ADD24R,0.02000X0.03000*%
%ADD25R,0.02000X0.06500*%
%ADD26R,0.02000X0.04500*%
%ADD27R,0.02000X0.02000*%
%ADD28R,0.01500X0.02000*%
%ADD29R,0.03400X0.01600*%
%ADD30R,0.04331X0.01929*%
%ADD31R,0.02000X0.08000*%
%ADD32C,0.01200*%
%ADD33R,0.02953X0.06693*%
%ADD34R,0.04724X0.00787*%
%ADD35R,0.05906X0.02559*%
D10*
X0021500Y0021500D02*
X0021500Y0186500D01*
X0021502Y0186640D01*
X0021508Y0186780D01*
X0021518Y0186920D01*
X0021531Y0187060D01*
X0021549Y0187199D01*
X0021571Y0187338D01*
X0021596Y0187475D01*
X0021625Y0187613D01*
X0021658Y0187749D01*
X0021695Y0187884D01*
X0021736Y0188018D01*
X0021781Y0188151D01*
X0021829Y0188283D01*
X0021881Y0188413D01*
X0021936Y0188542D01*
X0021995Y0188669D01*
X0022058Y0188795D01*
X0022124Y0188919D01*
X0022193Y0189040D01*
X0022266Y0189160D01*
X0022343Y0189278D01*
X0022422Y0189393D01*
X0022505Y0189507D01*
X0022591Y0189617D01*
X0022680Y0189726D01*
X0022772Y0189832D01*
X0022867Y0189935D01*
X0022964Y0190036D01*
X0023065Y0190133D01*
X0023168Y0190228D01*
X0023274Y0190320D01*
X0023383Y0190409D01*
X0023493Y0190495D01*
X0023607Y0190578D01*
X0023722Y0190657D01*
X0023840Y0190734D01*
X0023960Y0190807D01*
X0024081Y0190876D01*
X0024205Y0190942D01*
X0024331Y0191005D01*
X0024458Y0191064D01*
X0024587Y0191119D01*
X0024717Y0191171D01*
X0024849Y0191219D01*
X0024982Y0191264D01*
X0025116Y0191305D01*
X0025251Y0191342D01*
X0025387Y0191375D01*
X0025525Y0191404D01*
X0025662Y0191429D01*
X0025801Y0191451D01*
X0025940Y0191469D01*
X0026080Y0191482D01*
X0026220Y0191492D01*
X0026360Y0191498D01*
X0026500Y0191500D01*
X0041500Y0191500D01*
X0041640Y0191498D01*
X0041780Y0191492D01*
X0041920Y0191482D01*
X0042060Y0191469D01*
X0042199Y0191451D01*
X0042338Y0191429D01*
X0042475Y0191404D01*
X0042613Y0191375D01*
X0042749Y0191342D01*
X0042884Y0191305D01*
X0043018Y0191264D01*
X0043151Y0191219D01*
X0043283Y0191171D01*
X0043413Y0191119D01*
X0043542Y0191064D01*
X0043669Y0191005D01*
X0043795Y0190942D01*
X0043919Y0190876D01*
X0044040Y0190807D01*
X0044160Y0190734D01*
X0044278Y0190657D01*
X0044393Y0190578D01*
X0044507Y0190495D01*
X0044617Y0190409D01*
X0044726Y0190320D01*
X0044832Y0190228D01*
X0044935Y0190133D01*
X0045036Y0190036D01*
X0045133Y0189935D01*
X0045228Y0189832D01*
X0045320Y0189726D01*
X0045409Y0189617D01*
X0045495Y0189507D01*
X0045578Y0189393D01*
X0045657Y0189278D01*
X0045734Y0189160D01*
X0045807Y0189040D01*
X0045876Y0188919D01*
X0045942Y0188795D01*
X0046005Y0188669D01*
X0046064Y0188542D01*
X0046119Y0188413D01*
X0046171Y0188283D01*
X0046219Y0188151D01*
X0046264Y0188018D01*
X0046305Y0187884D01*
X0046342Y0187749D01*
X0046375Y0187613D01*
X0046404Y0187475D01*
X0046429Y0187338D01*
X0046451Y0187199D01*
X0046469Y0187060D01*
X0046482Y0186920D01*
X0046492Y0186780D01*
X0046498Y0186640D01*
X0046500Y0186500D01*
X0046500Y0176500D01*
X0046502Y0176382D01*
X0046508Y0176265D01*
X0046517Y0176147D01*
X0046531Y0176030D01*
X0046548Y0175914D01*
X0046569Y0175798D01*
X0046594Y0175683D01*
X0046623Y0175568D01*
X0046655Y0175455D01*
X0046691Y0175343D01*
X0046731Y0175232D01*
X0046774Y0175122D01*
X0046821Y0175014D01*
X0046871Y0174908D01*
X0046925Y0174803D01*
X0046982Y0174700D01*
X0047043Y0174599D01*
X0047107Y0174500D01*
X0047174Y0174403D01*
X0047244Y0174308D01*
X0047317Y0174216D01*
X0047393Y0174126D01*
X0047472Y0174039D01*
X0047554Y0173954D01*
X0047639Y0173872D01*
X0047726Y0173793D01*
X0047816Y0173717D01*
X0047908Y0173644D01*
X0048003Y0173574D01*
X0048100Y0173507D01*
X0048199Y0173443D01*
X0048300Y0173382D01*
X0048403Y0173325D01*
X0048508Y0173271D01*
X0048614Y0173221D01*
X0048722Y0173174D01*
X0048832Y0173131D01*
X0048943Y0173091D01*
X0049055Y0173055D01*
X0049168Y0173023D01*
X0049283Y0172994D01*
X0049398Y0172969D01*
X0049514Y0172948D01*
X0049630Y0172931D01*
X0049747Y0172917D01*
X0049865Y0172908D01*
X0049982Y0172902D01*
X0050100Y0172900D01*
X0096400Y0172900D01*
X0096511Y0172902D01*
X0096621Y0172908D01*
X0096731Y0172918D01*
X0096841Y0172932D01*
X0096950Y0172949D01*
X0097059Y0172971D01*
X0097167Y0172996D01*
X0097273Y0173026D01*
X0097379Y0173059D01*
X0097483Y0173095D01*
X0097586Y0173136D01*
X0097688Y0173180D01*
X0097788Y0173228D01*
X0097886Y0173279D01*
X0097982Y0173334D01*
X0098076Y0173392D01*
X0098168Y0173454D01*
X0098258Y0173518D01*
X0098345Y0173586D01*
X0098430Y0173657D01*
X0098512Y0173731D01*
X0098592Y0173808D01*
X0098669Y0173888D01*
X0098743Y0173970D01*
X0098814Y0174055D01*
X0098882Y0174142D01*
X0098946Y0174232D01*
X0099008Y0174324D01*
X0099066Y0174418D01*
X0099121Y0174514D01*
X0099172Y0174612D01*
X0099220Y0174712D01*
X0099264Y0174814D01*
X0099305Y0174917D01*
X0099341Y0175021D01*
X0099374Y0175127D01*
X0099404Y0175233D01*
X0099429Y0175341D01*
X0099451Y0175450D01*
X0099468Y0175559D01*
X0099482Y0175669D01*
X0099492Y0175779D01*
X0099498Y0175889D01*
X0099500Y0176000D01*
X0099500Y0187600D01*
X0099502Y0187723D01*
X0099508Y0187845D01*
X0099517Y0187967D01*
X0099531Y0188089D01*
X0099548Y0188210D01*
X0099569Y0188331D01*
X0099594Y0188451D01*
X0099623Y0188570D01*
X0099655Y0188688D01*
X0099691Y0188805D01*
X0099731Y0188921D01*
X0099774Y0189036D01*
X0099821Y0189149D01*
X0099871Y0189261D01*
X0099925Y0189371D01*
X0099982Y0189479D01*
X0100043Y0189585D01*
X0100107Y0189690D01*
X0100174Y0189792D01*
X0100245Y0189892D01*
X0100318Y0189990D01*
X0100395Y0190086D01*
X0100475Y0190179D01*
X0100557Y0190270D01*
X0100642Y0190358D01*
X0100730Y0190443D01*
X0100821Y0190525D01*
X0100914Y0190605D01*
X0101010Y0190682D01*
X0101108Y0190755D01*
X0101208Y0190826D01*
X0101310Y0190893D01*
X0101415Y0190957D01*
X0101521Y0191018D01*
X0101629Y0191075D01*
X0101739Y0191129D01*
X0101851Y0191179D01*
X0101964Y0191226D01*
X0102079Y0191269D01*
X0102195Y0191309D01*
X0102312Y0191345D01*
X0102430Y0191377D01*
X0102549Y0191406D01*
X0102669Y0191431D01*
X0102790Y0191452D01*
X0102911Y0191469D01*
X0103033Y0191483D01*
X0103155Y0191492D01*
X0103277Y0191498D01*
X0103400Y0191500D01*
X0166500Y0191500D01*
X0166640Y0191498D01*
X0166780Y0191492D01*
X0166920Y0191482D01*
X0167060Y0191469D01*
X0167199Y0191451D01*
X0167338Y0191429D01*
X0167475Y0191404D01*
X0167613Y0191375D01*
X0167749Y0191342D01*
X0167884Y0191305D01*
X0168018Y0191264D01*
X0168151Y0191219D01*
X0168283Y0191171D01*
X0168413Y0191119D01*
X0168542Y0191064D01*
X0168669Y0191005D01*
X0168795Y0190942D01*
X0168919Y0190876D01*
X0169040Y0190807D01*
X0169160Y0190734D01*
X0169278Y0190657D01*
X0169393Y0190578D01*
X0169507Y0190495D01*
X0169617Y0190409D01*
X0169726Y0190320D01*
X0169832Y0190228D01*
X0169935Y0190133D01*
X0170036Y0190036D01*
X0170133Y0189935D01*
X0170228Y0189832D01*
X0170320Y0189726D01*
X0170409Y0189617D01*
X0170495Y0189507D01*
X0170578Y0189393D01*
X0170657Y0189278D01*
X0170734Y0189160D01*
X0170807Y0189040D01*
X0170876Y0188919D01*
X0170942Y0188795D01*
X0171005Y0188669D01*
X0171064Y0188542D01*
X0171119Y0188413D01*
X0171171Y0188283D01*
X0171219Y0188151D01*
X0171264Y0188018D01*
X0171305Y0187884D01*
X0171342Y0187749D01*
X0171375Y0187613D01*
X0171404Y0187475D01*
X0171429Y0187338D01*
X0171451Y0187199D01*
X0171469Y0187060D01*
X0171482Y0186920D01*
X0171492Y0186780D01*
X0171498Y0186640D01*
X0171500Y0186500D01*
X0171500Y0021500D01*
X0171498Y0021360D01*
X0171492Y0021220D01*
X0171482Y0021080D01*
X0171469Y0020940D01*
X0171451Y0020801D01*
X0171429Y0020662D01*
X0171404Y0020525D01*
X0171375Y0020387D01*
X0171342Y0020251D01*
X0171305Y0020116D01*
X0171264Y0019982D01*
X0171219Y0019849D01*
X0171171Y0019717D01*
X0171119Y0019587D01*
X0171064Y0019458D01*
X0171005Y0019331D01*
X0170942Y0019205D01*
X0170876Y0019081D01*
X0170807Y0018960D01*
X0170734Y0018840D01*
X0170657Y0018722D01*
X0170578Y0018607D01*
X0170495Y0018493D01*
X0170409Y0018383D01*
X0170320Y0018274D01*
X0170228Y0018168D01*
X0170133Y0018065D01*
X0170036Y0017964D01*
X0169935Y0017867D01*
X0169832Y0017772D01*
X0169726Y0017680D01*
X0169617Y0017591D01*
X0169507Y0017505D01*
X0169393Y0017422D01*
X0169278Y0017343D01*
X0169160Y0017266D01*
X0169040Y0017193D01*
X0168919Y0017124D01*
X0168795Y0017058D01*
X0168669Y0016995D01*
X0168542Y0016936D01*
X0168413Y0016881D01*
X0168283Y0016829D01*
X0168151Y0016781D01*
X0168018Y0016736D01*
X0167884Y0016695D01*
X0167749Y0016658D01*
X0167613Y0016625D01*
X0167475Y0016596D01*
X0167338Y0016571D01*
X0167199Y0016549D01*
X0167060Y0016531D01*
X0166920Y0016518D01*
X0166780Y0016508D01*
X0166640Y0016502D01*
X0166500Y0016500D01*
X0026500Y0016500D01*
X0026360Y0016502D01*
X0026220Y0016508D01*
X0026080Y0016518D01*
X0025940Y0016531D01*
X0025801Y0016549D01*
X0025662Y0016571D01*
X0025525Y0016596D01*
X0025387Y0016625D01*
X0025251Y0016658D01*
X0025116Y0016695D01*
X0024982Y0016736D01*
X0024849Y0016781D01*
X0024717Y0016829D01*
X0024587Y0016881D01*
X0024458Y0016936D01*
X0024331Y0016995D01*
X0024205Y0017058D01*
X0024081Y0017124D01*
X0023960Y0017193D01*
X0023840Y0017266D01*
X0023722Y0017343D01*
X0023607Y0017422D01*
X0023493Y0017505D01*
X0023383Y0017591D01*
X0023274Y0017680D01*
X0023168Y0017772D01*
X0023065Y0017867D01*
X0022964Y0017964D01*
X0022867Y0018065D01*
X0022772Y0018168D01*
X0022680Y0018274D01*
X0022591Y0018383D01*
X0022505Y0018493D01*
X0022422Y0018607D01*
X0022343Y0018722D01*
X0022266Y0018840D01*
X0022193Y0018960D01*
X0022124Y0019081D01*
X0022058Y0019205D01*
X0021995Y0019331D01*
X0021936Y0019458D01*
X0021881Y0019587D01*
X0021829Y0019717D01*
X0021781Y0019849D01*
X0021736Y0019982D01*
X0021695Y0020116D01*
X0021658Y0020251D01*
X0021625Y0020387D01*
X0021596Y0020525D01*
X0021571Y0020662D01*
X0021549Y0020801D01*
X0021531Y0020940D01*
X0021518Y0021080D01*
X0021508Y0021220D01*
X0021502Y0021360D01*
X0021500Y0021500D01*
X0147883Y0174750D02*
X0148383Y0174750D01*
X0148383Y0175583D01*
X0148133Y0175583D01*
X0147550Y0175917D02*
X0147552Y0175952D01*
X0147557Y0175986D01*
X0147566Y0176020D01*
X0147579Y0176052D01*
X0147595Y0176083D01*
X0147614Y0176113D01*
X0147636Y0176140D01*
X0147660Y0176164D01*
X0147687Y0176186D01*
X0147716Y0176205D01*
X0147748Y0176221D01*
X0147780Y0176234D01*
X0147814Y0176243D01*
X0147848Y0176248D01*
X0147883Y0176250D01*
X0148383Y0176250D01*
X0149086Y0176250D02*
X0149919Y0174750D01*
X0149919Y0176250D01*
X0150622Y0176250D02*
X0151039Y0176250D01*
X0151077Y0176248D01*
X0151116Y0176243D01*
X0151153Y0176234D01*
X0151190Y0176222D01*
X0151225Y0176206D01*
X0151259Y0176188D01*
X0151290Y0176166D01*
X0151320Y0176141D01*
X0151347Y0176114D01*
X0151372Y0176084D01*
X0151394Y0176053D01*
X0151412Y0176019D01*
X0151428Y0175984D01*
X0151440Y0175947D01*
X0151449Y0175910D01*
X0151454Y0175871D01*
X0151456Y0175833D01*
X0151455Y0175833D02*
X0151455Y0175167D01*
X0151456Y0175167D02*
X0151454Y0175129D01*
X0151449Y0175090D01*
X0151440Y0175053D01*
X0151428Y0175016D01*
X0151412Y0174981D01*
X0151394Y0174947D01*
X0151372Y0174916D01*
X0151347Y0174886D01*
X0151320Y0174859D01*
X0151290Y0174834D01*
X0151259Y0174812D01*
X0151225Y0174794D01*
X0151190Y0174778D01*
X0151153Y0174766D01*
X0151116Y0174757D01*
X0151077Y0174752D01*
X0151039Y0174750D01*
X0150622Y0174750D01*
X0150622Y0176250D01*
X0149086Y0176250D02*
X0149086Y0174750D01*
X0147883Y0174750D02*
X0147848Y0174752D01*
X0147814Y0174757D01*
X0147780Y0174766D01*
X0147748Y0174779D01*
X0147717Y0174795D01*
X0147687Y0174814D01*
X0147660Y0174836D01*
X0147636Y0174860D01*
X0147614Y0174887D01*
X0147595Y0174917D01*
X0147579Y0174948D01*
X0147566Y0174980D01*
X0147557Y0175014D01*
X0147552Y0175048D01*
X0147550Y0175083D01*
X0147550Y0175917D01*
X0147850Y0182050D02*
X0147850Y0183550D01*
X0148267Y0183550D01*
X0148307Y0183548D01*
X0148346Y0183542D01*
X0148384Y0183533D01*
X0148422Y0183520D01*
X0148458Y0183504D01*
X0148492Y0183484D01*
X0148525Y0183461D01*
X0148555Y0183435D01*
X0148582Y0183406D01*
X0148607Y0183375D01*
X0148628Y0183342D01*
X0148646Y0183306D01*
X0148661Y0183269D01*
X0148672Y0183231D01*
X0148680Y0183192D01*
X0148684Y0183153D01*
X0148684Y0183113D01*
X0148680Y0183074D01*
X0148672Y0183035D01*
X0148661Y0182997D01*
X0148646Y0182960D01*
X0148628Y0182925D01*
X0148607Y0182891D01*
X0148582Y0182860D01*
X0148555Y0182831D01*
X0148525Y0182805D01*
X0148492Y0182782D01*
X0148458Y0182762D01*
X0148422Y0182746D01*
X0148384Y0182733D01*
X0148346Y0182724D01*
X0148307Y0182718D01*
X0148267Y0182716D01*
X0148267Y0182717D02*
X0147850Y0182717D01*
X0148350Y0182717D02*
X0148683Y0182050D01*
X0149901Y0182675D02*
X0149930Y0182656D01*
X0149958Y0182633D01*
X0149982Y0182608D01*
X0150004Y0182581D01*
X0150023Y0182551D01*
X0150039Y0182520D01*
X0150052Y0182487D01*
X0150061Y0182453D01*
X0150066Y0182418D01*
X0150068Y0182383D01*
X0150067Y0182383D02*
X0150065Y0182348D01*
X0150060Y0182314D01*
X0150051Y0182280D01*
X0150038Y0182248D01*
X0150022Y0182217D01*
X0150003Y0182187D01*
X0149981Y0182160D01*
X0149957Y0182136D01*
X0149930Y0182114D01*
X0149901Y0182095D01*
X0149869Y0182079D01*
X0149837Y0182066D01*
X0149803Y0182057D01*
X0149769Y0182052D01*
X0149734Y0182050D01*
X0149900Y0182675D02*
X0149442Y0182925D01*
X0149609Y0183550D02*
X0149654Y0183548D01*
X0149698Y0183544D01*
X0149742Y0183536D01*
X0149785Y0183525D01*
X0149828Y0183510D01*
X0149869Y0183493D01*
X0149909Y0183473D01*
X0149947Y0183451D01*
X0149984Y0183425D01*
X0149442Y0182925D02*
X0149413Y0182944D01*
X0149385Y0182967D01*
X0149361Y0182992D01*
X0149339Y0183019D01*
X0149320Y0183049D01*
X0149304Y0183080D01*
X0149291Y0183113D01*
X0149282Y0183147D01*
X0149277Y0183182D01*
X0149275Y0183217D01*
X0149276Y0183217D02*
X0149278Y0183252D01*
X0149283Y0183286D01*
X0149292Y0183320D01*
X0149305Y0183352D01*
X0149321Y0183384D01*
X0149340Y0183413D01*
X0149362Y0183440D01*
X0149386Y0183464D01*
X0149413Y0183486D01*
X0149443Y0183505D01*
X0149474Y0183521D01*
X0149506Y0183534D01*
X0149540Y0183543D01*
X0149574Y0183548D01*
X0149609Y0183550D01*
X0149234Y0182258D02*
X0149271Y0182224D01*
X0149310Y0182192D01*
X0149352Y0182163D01*
X0149395Y0182137D01*
X0149440Y0182114D01*
X0149487Y0182095D01*
X0149535Y0182079D01*
X0149584Y0182066D01*
X0149633Y0182057D01*
X0149684Y0182052D01*
X0149734Y0182050D01*
X0150946Y0182050D02*
X0150946Y0183550D01*
X0150530Y0183550D02*
X0151363Y0183550D01*
X0154758Y0182925D02*
X0155217Y0182675D01*
X0155050Y0182050D02*
X0155000Y0182052D01*
X0154949Y0182057D01*
X0154900Y0182066D01*
X0154851Y0182079D01*
X0154803Y0182095D01*
X0154756Y0182114D01*
X0154711Y0182137D01*
X0154668Y0182163D01*
X0154626Y0182192D01*
X0154587Y0182224D01*
X0154550Y0182258D01*
X0155217Y0182675D02*
X0155246Y0182656D01*
X0155274Y0182633D01*
X0155298Y0182608D01*
X0155320Y0182581D01*
X0155339Y0182551D01*
X0155355Y0182520D01*
X0155368Y0182487D01*
X0155377Y0182453D01*
X0155382Y0182418D01*
X0155384Y0182383D01*
X0155383Y0182383D02*
X0155381Y0182348D01*
X0155376Y0182314D01*
X0155367Y0182280D01*
X0155354Y0182248D01*
X0155338Y0182217D01*
X0155319Y0182187D01*
X0155297Y0182160D01*
X0155273Y0182136D01*
X0155246Y0182114D01*
X0155217Y0182095D01*
X0155185Y0182079D01*
X0155153Y0182066D01*
X0155119Y0182057D01*
X0155085Y0182052D01*
X0155050Y0182050D01*
X0155300Y0183425D02*
X0155263Y0183451D01*
X0155225Y0183473D01*
X0155185Y0183493D01*
X0155144Y0183510D01*
X0155101Y0183525D01*
X0155058Y0183536D01*
X0155014Y0183544D01*
X0154970Y0183548D01*
X0154925Y0183550D01*
X0154890Y0183548D01*
X0154856Y0183543D01*
X0154822Y0183534D01*
X0154790Y0183521D01*
X0154759Y0183505D01*
X0154729Y0183486D01*
X0154702Y0183464D01*
X0154678Y0183440D01*
X0154656Y0183413D01*
X0154637Y0183384D01*
X0154621Y0183352D01*
X0154608Y0183320D01*
X0154599Y0183286D01*
X0154594Y0183252D01*
X0154592Y0183217D01*
X0154591Y0183217D02*
X0154593Y0183182D01*
X0154598Y0183147D01*
X0154607Y0183113D01*
X0154620Y0183080D01*
X0154636Y0183049D01*
X0154655Y0183019D01*
X0154677Y0182992D01*
X0154701Y0182967D01*
X0154729Y0182944D01*
X0154758Y0182925D01*
X0155938Y0183217D02*
X0155938Y0182383D01*
X0155939Y0182383D02*
X0155941Y0182348D01*
X0155946Y0182314D01*
X0155955Y0182280D01*
X0155968Y0182248D01*
X0155984Y0182217D01*
X0156003Y0182187D01*
X0156025Y0182160D01*
X0156049Y0182136D01*
X0156076Y0182114D01*
X0156106Y0182095D01*
X0156137Y0182079D01*
X0156169Y0182066D01*
X0156203Y0182057D01*
X0156237Y0182052D01*
X0156272Y0182050D01*
X0156605Y0182050D01*
X0157209Y0182050D02*
X0157209Y0183550D01*
X0156605Y0183550D02*
X0156272Y0183550D01*
X0156237Y0183548D01*
X0156203Y0183543D01*
X0156169Y0183534D01*
X0156137Y0183521D01*
X0156105Y0183505D01*
X0156076Y0183486D01*
X0156049Y0183464D01*
X0156025Y0183440D01*
X0156003Y0183413D01*
X0155984Y0183383D01*
X0155968Y0183352D01*
X0155955Y0183320D01*
X0155946Y0183286D01*
X0155941Y0183252D01*
X0155939Y0183217D01*
X0157209Y0182633D02*
X0158042Y0183550D01*
X0157542Y0182967D02*
X0158042Y0182050D01*
X0160650Y0182050D02*
X0160650Y0183550D01*
X0161150Y0182717D01*
X0161650Y0183550D01*
X0161650Y0182050D01*
X0162279Y0182050D02*
X0162613Y0182050D01*
X0162446Y0182050D02*
X0162446Y0183550D01*
X0162279Y0183550D02*
X0162613Y0183550D01*
X0163175Y0183217D02*
X0163177Y0183252D01*
X0163182Y0183286D01*
X0163191Y0183320D01*
X0163204Y0183352D01*
X0163220Y0183384D01*
X0163239Y0183413D01*
X0163261Y0183440D01*
X0163285Y0183464D01*
X0163312Y0183486D01*
X0163342Y0183505D01*
X0163373Y0183521D01*
X0163405Y0183534D01*
X0163439Y0183543D01*
X0163473Y0183548D01*
X0163508Y0183550D01*
X0163174Y0183217D02*
X0163176Y0183182D01*
X0163181Y0183147D01*
X0163190Y0183113D01*
X0163203Y0183080D01*
X0163219Y0183049D01*
X0163238Y0183019D01*
X0163260Y0182992D01*
X0163284Y0182967D01*
X0163312Y0182944D01*
X0163341Y0182925D01*
X0163342Y0182925D02*
X0163800Y0182675D01*
X0163633Y0182050D02*
X0163583Y0182052D01*
X0163532Y0182057D01*
X0163483Y0182066D01*
X0163434Y0182079D01*
X0163386Y0182095D01*
X0163339Y0182114D01*
X0163294Y0182137D01*
X0163251Y0182163D01*
X0163209Y0182192D01*
X0163170Y0182224D01*
X0163133Y0182258D01*
X0163800Y0182675D02*
X0163829Y0182656D01*
X0163857Y0182633D01*
X0163881Y0182608D01*
X0163903Y0182581D01*
X0163922Y0182551D01*
X0163938Y0182520D01*
X0163951Y0182487D01*
X0163960Y0182453D01*
X0163965Y0182418D01*
X0163967Y0182383D01*
X0163966Y0182383D02*
X0163964Y0182348D01*
X0163959Y0182314D01*
X0163950Y0182280D01*
X0163937Y0182248D01*
X0163921Y0182217D01*
X0163902Y0182187D01*
X0163880Y0182160D01*
X0163856Y0182136D01*
X0163829Y0182114D01*
X0163800Y0182095D01*
X0163768Y0182079D01*
X0163736Y0182066D01*
X0163702Y0182057D01*
X0163668Y0182052D01*
X0163633Y0182050D01*
X0163883Y0183425D02*
X0163846Y0183451D01*
X0163808Y0183473D01*
X0163768Y0183493D01*
X0163727Y0183510D01*
X0163684Y0183525D01*
X0163641Y0183536D01*
X0163597Y0183544D01*
X0163553Y0183548D01*
X0163508Y0183550D01*
X0164525Y0183133D02*
X0164525Y0182467D01*
X0164527Y0182427D01*
X0164533Y0182388D01*
X0164542Y0182350D01*
X0164555Y0182312D01*
X0164571Y0182276D01*
X0164591Y0182242D01*
X0164614Y0182209D01*
X0164640Y0182179D01*
X0164669Y0182152D01*
X0164700Y0182127D01*
X0164734Y0182106D01*
X0164769Y0182088D01*
X0164806Y0182073D01*
X0164844Y0182062D01*
X0164883Y0182054D01*
X0164922Y0182050D01*
X0164962Y0182050D01*
X0165001Y0182054D01*
X0165040Y0182062D01*
X0165078Y0182073D01*
X0165115Y0182088D01*
X0165151Y0182106D01*
X0165184Y0182127D01*
X0165215Y0182152D01*
X0165244Y0182179D01*
X0165270Y0182209D01*
X0165293Y0182242D01*
X0165313Y0182276D01*
X0165329Y0182312D01*
X0165342Y0182350D01*
X0165351Y0182388D01*
X0165357Y0182427D01*
X0165359Y0182467D01*
X0165359Y0183133D01*
X0165357Y0183173D01*
X0165351Y0183212D01*
X0165342Y0183250D01*
X0165329Y0183288D01*
X0165313Y0183324D01*
X0165293Y0183358D01*
X0165270Y0183391D01*
X0165244Y0183421D01*
X0165215Y0183448D01*
X0165184Y0183473D01*
X0165151Y0183494D01*
X0165115Y0183512D01*
X0165078Y0183527D01*
X0165040Y0183538D01*
X0165001Y0183546D01*
X0164962Y0183550D01*
X0164922Y0183550D01*
X0164883Y0183546D01*
X0164844Y0183538D01*
X0164806Y0183527D01*
X0164769Y0183512D01*
X0164734Y0183494D01*
X0164700Y0183473D01*
X0164669Y0183448D01*
X0164640Y0183421D01*
X0164614Y0183391D01*
X0164591Y0183358D01*
X0164571Y0183324D01*
X0164555Y0183288D01*
X0164542Y0183250D01*
X0164533Y0183212D01*
X0164527Y0183173D01*
X0164525Y0183133D01*
X0164126Y0176150D02*
X0164626Y0174650D01*
X0165126Y0176150D01*
X0163603Y0176150D02*
X0162769Y0176150D01*
X0162769Y0175483D01*
X0163269Y0175483D01*
X0163304Y0175481D01*
X0163338Y0175476D01*
X0163372Y0175467D01*
X0163404Y0175454D01*
X0163436Y0175438D01*
X0163465Y0175419D01*
X0163492Y0175397D01*
X0163516Y0175373D01*
X0163538Y0175346D01*
X0163557Y0175317D01*
X0163573Y0175285D01*
X0163586Y0175253D01*
X0163595Y0175219D01*
X0163600Y0175185D01*
X0163602Y0175150D01*
X0163603Y0175150D02*
X0163603Y0174983D01*
X0163602Y0174983D02*
X0163600Y0174948D01*
X0163595Y0174914D01*
X0163586Y0174880D01*
X0163573Y0174848D01*
X0163557Y0174817D01*
X0163538Y0174787D01*
X0163516Y0174760D01*
X0163492Y0174736D01*
X0163465Y0174714D01*
X0163436Y0174695D01*
X0163404Y0174679D01*
X0163372Y0174666D01*
X0163338Y0174657D01*
X0163304Y0174652D01*
X0163269Y0174650D01*
X0162769Y0174650D01*
X0162150Y0175233D02*
X0161150Y0175233D01*
X0161650Y0174733D02*
X0161650Y0175733D01*
X0158497Y0176150D02*
X0158163Y0176150D01*
X0158330Y0176150D02*
X0158330Y0174650D01*
X0158163Y0174650D02*
X0158497Y0174650D01*
X0157476Y0175275D02*
X0157018Y0175525D01*
X0157184Y0176150D02*
X0157229Y0176148D01*
X0157273Y0176144D01*
X0157317Y0176136D01*
X0157360Y0176125D01*
X0157403Y0176110D01*
X0157444Y0176093D01*
X0157484Y0176073D01*
X0157522Y0176051D01*
X0157559Y0176025D01*
X0157018Y0175525D02*
X0156989Y0175544D01*
X0156961Y0175567D01*
X0156937Y0175592D01*
X0156915Y0175619D01*
X0156896Y0175649D01*
X0156880Y0175680D01*
X0156867Y0175713D01*
X0156858Y0175747D01*
X0156853Y0175782D01*
X0156851Y0175817D01*
X0156853Y0175852D01*
X0156858Y0175886D01*
X0156867Y0175920D01*
X0156880Y0175952D01*
X0156896Y0175984D01*
X0156915Y0176013D01*
X0156937Y0176040D01*
X0156961Y0176064D01*
X0156988Y0176086D01*
X0157018Y0176105D01*
X0157049Y0176121D01*
X0157081Y0176134D01*
X0157115Y0176143D01*
X0157149Y0176148D01*
X0157184Y0176150D01*
X0156809Y0174858D02*
X0156846Y0174824D01*
X0156885Y0174792D01*
X0156927Y0174763D01*
X0156970Y0174737D01*
X0157015Y0174714D01*
X0157062Y0174695D01*
X0157110Y0174679D01*
X0157159Y0174666D01*
X0157208Y0174657D01*
X0157259Y0174652D01*
X0157309Y0174650D01*
X0157344Y0174652D01*
X0157378Y0174657D01*
X0157412Y0174666D01*
X0157444Y0174679D01*
X0157476Y0174695D01*
X0157505Y0174714D01*
X0157532Y0174736D01*
X0157556Y0174760D01*
X0157578Y0174787D01*
X0157597Y0174817D01*
X0157613Y0174848D01*
X0157626Y0174880D01*
X0157635Y0174914D01*
X0157640Y0174948D01*
X0157642Y0174983D01*
X0157643Y0174983D02*
X0157641Y0175018D01*
X0157636Y0175053D01*
X0157627Y0175087D01*
X0157614Y0175120D01*
X0157598Y0175151D01*
X0157579Y0175181D01*
X0157557Y0175208D01*
X0157533Y0175233D01*
X0157505Y0175256D01*
X0157476Y0175275D01*
X0156251Y0175067D02*
X0156251Y0175733D01*
X0156249Y0175773D01*
X0156243Y0175812D01*
X0156234Y0175850D01*
X0156221Y0175888D01*
X0156205Y0175924D01*
X0156185Y0175958D01*
X0156162Y0175991D01*
X0156136Y0176021D01*
X0156107Y0176048D01*
X0156076Y0176073D01*
X0156043Y0176094D01*
X0156007Y0176112D01*
X0155970Y0176127D01*
X0155932Y0176138D01*
X0155893Y0176146D01*
X0155854Y0176150D01*
X0155814Y0176150D01*
X0155775Y0176146D01*
X0155736Y0176138D01*
X0155698Y0176127D01*
X0155661Y0176112D01*
X0155626Y0176094D01*
X0155592Y0176073D01*
X0155561Y0176048D01*
X0155532Y0176021D01*
X0155506Y0175991D01*
X0155483Y0175958D01*
X0155463Y0175924D01*
X0155447Y0175888D01*
X0155434Y0175850D01*
X0155425Y0175812D01*
X0155419Y0175773D01*
X0155417Y0175733D01*
X0155417Y0175067D01*
X0155419Y0175027D01*
X0155425Y0174988D01*
X0155434Y0174950D01*
X0155447Y0174912D01*
X0155463Y0174876D01*
X0155483Y0174842D01*
X0155506Y0174809D01*
X0155532Y0174779D01*
X0155561Y0174752D01*
X0155592Y0174727D01*
X0155626Y0174706D01*
X0155661Y0174688D01*
X0155698Y0174673D01*
X0155736Y0174662D01*
X0155775Y0174654D01*
X0155814Y0174650D01*
X0155854Y0174650D01*
X0155893Y0174654D01*
X0155932Y0174662D01*
X0155970Y0174673D01*
X0156007Y0174688D01*
X0156043Y0174706D01*
X0156076Y0174727D01*
X0156107Y0174752D01*
X0156136Y0174779D01*
X0156162Y0174809D01*
X0156185Y0174842D01*
X0156205Y0174876D01*
X0156221Y0174912D01*
X0156234Y0174950D01*
X0156243Y0174988D01*
X0156249Y0175027D01*
X0156251Y0175067D01*
X0154750Y0174650D02*
X0154750Y0176150D01*
X0154250Y0175317D01*
X0153750Y0176150D01*
X0153750Y0174650D01*
D11*
X0152900Y0171600D02*
X0152900Y0186300D01*
X0146500Y0186500D02*
X0146500Y0179200D01*
X0166500Y0179200D01*
X0166500Y0186500D01*
X0159800Y0186500D01*
X0159800Y0171500D01*
X0166500Y0171500D01*
X0166500Y0179200D01*
X0159800Y0186500D02*
X0146500Y0186500D01*
X0143700Y0187000D02*
X0143700Y0172000D01*
X0141200Y0169500D01*
X0136200Y0169500D01*
X0133700Y0172000D01*
X0133700Y0187000D01*
X0131200Y0189500D01*
X0126200Y0189500D01*
X0123700Y0187000D01*
X0123700Y0172000D01*
X0121200Y0169500D01*
X0116200Y0169500D01*
X0113700Y0172000D01*
X0113700Y0187000D01*
X0116200Y0189500D01*
X0121200Y0189500D01*
X0123700Y0187000D01*
X0133700Y0187000D02*
X0136200Y0189500D01*
X0141200Y0189500D01*
X0143700Y0187000D01*
X0141200Y0190819D02*
X0136200Y0190819D01*
X0146500Y0179200D02*
X0146500Y0171500D01*
X0159800Y0171500D01*
X0133700Y0172000D02*
X0131200Y0169500D01*
X0126200Y0169500D01*
X0123700Y0172000D01*
X0134020Y0115949D02*
X0134020Y0097051D01*
X0147012Y0097051D01*
X0147012Y0115949D01*
X0148980Y0115949D01*
X0148980Y0097051D01*
X0147012Y0097051D01*
X0147012Y0115949D02*
X0134020Y0115949D01*
X0038900Y0172400D02*
X0036400Y0169900D01*
X0031400Y0169900D01*
X0028900Y0172400D01*
X0028900Y0177400D01*
X0031400Y0179900D01*
X0028900Y0182400D01*
X0028900Y0187400D01*
X0031400Y0189900D01*
X0036400Y0189900D01*
X0038900Y0187400D01*
X0038900Y0182400D01*
X0036400Y0179900D01*
X0038900Y0177400D01*
X0038900Y0172400D01*
D12*
X0040339Y0169808D02*
X0041950Y0168439D01*
X0041950Y0170050D01*
X0039694Y0168439D02*
X0039639Y0168459D01*
X0039585Y0168482D01*
X0039533Y0168509D01*
X0039483Y0168539D01*
X0039434Y0168571D01*
X0039388Y0168607D01*
X0039344Y0168646D01*
X0039303Y0168687D01*
X0039264Y0168731D01*
X0039228Y0168777D01*
X0039195Y0168826D01*
X0039165Y0168876D01*
X0039139Y0168928D01*
X0039115Y0168982D01*
X0039096Y0169037D01*
X0039079Y0169093D01*
X0039067Y0169150D01*
X0039057Y0169208D01*
X0039052Y0169266D01*
X0039050Y0169325D01*
X0039052Y0169377D01*
X0039057Y0169428D01*
X0039067Y0169479D01*
X0039079Y0169529D01*
X0039096Y0169578D01*
X0039116Y0169626D01*
X0039139Y0169672D01*
X0039165Y0169717D01*
X0039195Y0169759D01*
X0039227Y0169800D01*
X0039262Y0169838D01*
X0039300Y0169873D01*
X0039341Y0169905D01*
X0039383Y0169935D01*
X0039428Y0169961D01*
X0039474Y0169984D01*
X0039522Y0170004D01*
X0039571Y0170021D01*
X0039621Y0170033D01*
X0039672Y0170043D01*
X0039723Y0170048D01*
X0039775Y0170050D01*
X0039828Y0170048D01*
X0039880Y0170043D01*
X0039932Y0170034D01*
X0039983Y0170022D01*
X0040033Y0170006D01*
X0040082Y0169987D01*
X0040129Y0169965D01*
X0040175Y0169939D01*
X0040220Y0169911D01*
X0040262Y0169879D01*
X0040302Y0169845D01*
X0040339Y0169808D01*
X0041306Y0167087D02*
X0039050Y0167087D01*
X0041306Y0167086D02*
X0041354Y0167084D01*
X0041402Y0167079D01*
X0041449Y0167070D01*
X0041496Y0167057D01*
X0041541Y0167041D01*
X0041585Y0167022D01*
X0041628Y0167000D01*
X0041669Y0166974D01*
X0041708Y0166945D01*
X0041744Y0166914D01*
X0041778Y0166880D01*
X0041809Y0166844D01*
X0041838Y0166805D01*
X0041864Y0166764D01*
X0041886Y0166721D01*
X0041905Y0166677D01*
X0041921Y0166632D01*
X0041934Y0166585D01*
X0041943Y0166538D01*
X0041948Y0166490D01*
X0041950Y0166442D01*
X0041950Y0166120D01*
X0025850Y0164850D02*
X0024239Y0163883D01*
X0025850Y0162917D01*
X0022950Y0162917D01*
X0022950Y0161614D02*
X0022950Y0160969D01*
X0022950Y0161291D02*
X0025850Y0161291D01*
X0025850Y0160969D02*
X0025850Y0161614D01*
X0024642Y0159486D02*
X0024158Y0158600D01*
X0022950Y0158922D02*
X0022952Y0158994D01*
X0022958Y0159065D01*
X0022967Y0159136D01*
X0022980Y0159206D01*
X0022997Y0159276D01*
X0023017Y0159345D01*
X0023041Y0159412D01*
X0023069Y0159478D01*
X0023100Y0159543D01*
X0023134Y0159606D01*
X0023172Y0159667D01*
X0023213Y0159726D01*
X0023256Y0159782D01*
X0023303Y0159837D01*
X0023353Y0159888D01*
X0024157Y0158600D02*
X0024131Y0158559D01*
X0024102Y0158520D01*
X0024070Y0158484D01*
X0024036Y0158450D01*
X0023999Y0158418D01*
X0023960Y0158390D01*
X0023918Y0158364D01*
X0023876Y0158342D01*
X0023831Y0158322D01*
X0023785Y0158307D01*
X0023738Y0158294D01*
X0023691Y0158285D01*
X0023642Y0158280D01*
X0023594Y0158278D01*
X0023546Y0158280D01*
X0023498Y0158285D01*
X0023451Y0158294D01*
X0023404Y0158307D01*
X0023359Y0158323D01*
X0023315Y0158342D01*
X0023272Y0158364D01*
X0023231Y0158390D01*
X0023192Y0158419D01*
X0023156Y0158450D01*
X0023122Y0158484D01*
X0023090Y0158520D01*
X0023062Y0158559D01*
X0023036Y0158600D01*
X0023014Y0158643D01*
X0022995Y0158687D01*
X0022979Y0158732D01*
X0022966Y0158779D01*
X0022957Y0158826D01*
X0022952Y0158874D01*
X0022950Y0158922D01*
X0025608Y0158439D02*
X0025646Y0158492D01*
X0025680Y0158547D01*
X0025712Y0158603D01*
X0025741Y0158662D01*
X0025766Y0158721D01*
X0025788Y0158782D01*
X0025807Y0158844D01*
X0025822Y0158907D01*
X0025834Y0158970D01*
X0025843Y0159035D01*
X0025848Y0159099D01*
X0025850Y0159164D01*
X0025848Y0159212D01*
X0025843Y0159260D01*
X0025834Y0159307D01*
X0025821Y0159354D01*
X0025805Y0159399D01*
X0025786Y0159443D01*
X0025764Y0159486D01*
X0025738Y0159527D01*
X0025709Y0159566D01*
X0025678Y0159602D01*
X0025644Y0159636D01*
X0025608Y0159667D01*
X0025569Y0159696D01*
X0025528Y0159722D01*
X0025485Y0159744D01*
X0025441Y0159763D01*
X0025396Y0159779D01*
X0025349Y0159792D01*
X0025302Y0159801D01*
X0025254Y0159806D01*
X0025206Y0159808D01*
X0025206Y0159809D02*
X0025157Y0159807D01*
X0025109Y0159802D01*
X0025061Y0159793D01*
X0025015Y0159780D01*
X0024969Y0159764D01*
X0024924Y0159745D01*
X0024881Y0159723D01*
X0024840Y0159697D01*
X0024801Y0159668D01*
X0024764Y0159637D01*
X0024729Y0159603D01*
X0024697Y0159566D01*
X0024668Y0159527D01*
X0024642Y0159487D01*
X0025044Y0157105D02*
X0023756Y0157105D01*
X0023701Y0157103D01*
X0023646Y0157097D01*
X0023592Y0157088D01*
X0023539Y0157075D01*
X0023486Y0157058D01*
X0023435Y0157038D01*
X0023385Y0157015D01*
X0023337Y0156988D01*
X0023291Y0156957D01*
X0023247Y0156924D01*
X0023206Y0156888D01*
X0023167Y0156849D01*
X0023131Y0156808D01*
X0023098Y0156764D01*
X0023067Y0156718D01*
X0023040Y0156670D01*
X0023017Y0156620D01*
X0022997Y0156569D01*
X0022980Y0156516D01*
X0022967Y0156463D01*
X0022958Y0156409D01*
X0022952Y0156354D01*
X0022950Y0156299D01*
X0022952Y0156244D01*
X0022958Y0156189D01*
X0022967Y0156135D01*
X0022980Y0156082D01*
X0022997Y0156029D01*
X0023017Y0155978D01*
X0023040Y0155928D01*
X0023067Y0155880D01*
X0023098Y0155834D01*
X0023131Y0155790D01*
X0023167Y0155749D01*
X0023206Y0155710D01*
X0023247Y0155674D01*
X0023291Y0155641D01*
X0023337Y0155610D01*
X0023385Y0155583D01*
X0023435Y0155560D01*
X0023486Y0155540D01*
X0023539Y0155523D01*
X0023592Y0155510D01*
X0023646Y0155501D01*
X0023701Y0155495D01*
X0023756Y0155493D01*
X0023756Y0155494D02*
X0025044Y0155494D01*
X0025044Y0155493D02*
X0025099Y0155495D01*
X0025154Y0155501D01*
X0025208Y0155510D01*
X0025261Y0155523D01*
X0025314Y0155540D01*
X0025365Y0155560D01*
X0025415Y0155583D01*
X0025463Y0155610D01*
X0025509Y0155641D01*
X0025553Y0155674D01*
X0025594Y0155710D01*
X0025633Y0155749D01*
X0025669Y0155790D01*
X0025702Y0155834D01*
X0025733Y0155880D01*
X0025760Y0155928D01*
X0025783Y0155978D01*
X0025803Y0156029D01*
X0025820Y0156082D01*
X0025833Y0156135D01*
X0025842Y0156189D01*
X0025848Y0156244D01*
X0025850Y0156299D01*
X0025848Y0156354D01*
X0025842Y0156409D01*
X0025833Y0156463D01*
X0025820Y0156516D01*
X0025803Y0156569D01*
X0025783Y0156620D01*
X0025760Y0156670D01*
X0025733Y0156718D01*
X0025702Y0156764D01*
X0025669Y0156808D01*
X0025633Y0156849D01*
X0025594Y0156888D01*
X0025553Y0156924D01*
X0025509Y0156957D01*
X0025463Y0156988D01*
X0025415Y0157015D01*
X0025365Y0157038D01*
X0025314Y0157058D01*
X0025261Y0157075D01*
X0025208Y0157088D01*
X0025154Y0157097D01*
X0025099Y0157103D01*
X0025044Y0157105D01*
X0025306Y0152550D02*
X0023694Y0152550D01*
X0023646Y0152548D01*
X0023598Y0152543D01*
X0023551Y0152534D01*
X0023504Y0152521D01*
X0023459Y0152505D01*
X0023415Y0152486D01*
X0023372Y0152464D01*
X0023331Y0152438D01*
X0023292Y0152409D01*
X0023256Y0152378D01*
X0023222Y0152344D01*
X0023191Y0152308D01*
X0023162Y0152269D01*
X0023136Y0152228D01*
X0023114Y0152185D01*
X0023095Y0152141D01*
X0023079Y0152096D01*
X0023066Y0152049D01*
X0023057Y0152002D01*
X0023052Y0151954D01*
X0023050Y0151906D01*
X0023050Y0151261D01*
X0024257Y0148948D02*
X0024231Y0148907D01*
X0024202Y0148868D01*
X0024170Y0148832D01*
X0024136Y0148798D01*
X0024099Y0148766D01*
X0024060Y0148738D01*
X0024018Y0148712D01*
X0023976Y0148690D01*
X0023931Y0148670D01*
X0023885Y0148655D01*
X0023838Y0148642D01*
X0023791Y0148633D01*
X0023742Y0148628D01*
X0023694Y0148626D01*
X0023646Y0148628D01*
X0023598Y0148633D01*
X0023551Y0148642D01*
X0023504Y0148655D01*
X0023459Y0148671D01*
X0023415Y0148690D01*
X0023372Y0148712D01*
X0023331Y0148738D01*
X0023292Y0148767D01*
X0023256Y0148798D01*
X0023222Y0148832D01*
X0023190Y0148868D01*
X0023162Y0148907D01*
X0023136Y0148948D01*
X0023114Y0148991D01*
X0023095Y0149035D01*
X0023079Y0149080D01*
X0023066Y0149127D01*
X0023057Y0149174D01*
X0023052Y0149222D01*
X0023050Y0149270D01*
X0024258Y0148948D02*
X0024742Y0149834D01*
X0025950Y0149512D02*
X0025948Y0149447D01*
X0025943Y0149383D01*
X0025934Y0149318D01*
X0025922Y0149255D01*
X0025907Y0149192D01*
X0025888Y0149130D01*
X0025866Y0149069D01*
X0025841Y0149010D01*
X0025812Y0148951D01*
X0025780Y0148895D01*
X0025746Y0148840D01*
X0025708Y0148787D01*
X0024742Y0149835D02*
X0024768Y0149875D01*
X0024797Y0149914D01*
X0024829Y0149951D01*
X0024864Y0149985D01*
X0024901Y0150016D01*
X0024940Y0150045D01*
X0024981Y0150071D01*
X0025024Y0150093D01*
X0025069Y0150112D01*
X0025115Y0150128D01*
X0025161Y0150141D01*
X0025209Y0150150D01*
X0025257Y0150155D01*
X0025306Y0150157D01*
X0025306Y0150156D02*
X0025354Y0150154D01*
X0025402Y0150149D01*
X0025449Y0150140D01*
X0025496Y0150127D01*
X0025541Y0150111D01*
X0025585Y0150092D01*
X0025628Y0150070D01*
X0025669Y0150044D01*
X0025708Y0150015D01*
X0025744Y0149984D01*
X0025778Y0149950D01*
X0025809Y0149914D01*
X0025838Y0149875D01*
X0025864Y0149834D01*
X0025886Y0149791D01*
X0025905Y0149747D01*
X0025921Y0149702D01*
X0025934Y0149655D01*
X0025943Y0149608D01*
X0025948Y0149560D01*
X0025950Y0149512D01*
X0023453Y0150236D02*
X0023403Y0150185D01*
X0023356Y0150130D01*
X0023313Y0150074D01*
X0023272Y0150015D01*
X0023234Y0149954D01*
X0023200Y0149891D01*
X0023169Y0149826D01*
X0023141Y0149760D01*
X0023117Y0149693D01*
X0023097Y0149624D01*
X0023080Y0149554D01*
X0023067Y0149484D01*
X0023058Y0149413D01*
X0023052Y0149342D01*
X0023050Y0149270D01*
X0025950Y0151906D02*
X0025948Y0151954D01*
X0025943Y0152002D01*
X0025934Y0152049D01*
X0025921Y0152096D01*
X0025905Y0152141D01*
X0025886Y0152185D01*
X0025864Y0152228D01*
X0025838Y0152269D01*
X0025809Y0152308D01*
X0025778Y0152344D01*
X0025744Y0152378D01*
X0025708Y0152409D01*
X0025669Y0152438D01*
X0025628Y0152464D01*
X0025585Y0152486D01*
X0025541Y0152505D01*
X0025496Y0152521D01*
X0025449Y0152534D01*
X0025402Y0152543D01*
X0025354Y0152548D01*
X0025306Y0152550D01*
X0025950Y0151906D02*
X0025950Y0151261D01*
X0025306Y0144150D02*
X0023694Y0144150D01*
X0023646Y0144148D01*
X0023598Y0144143D01*
X0023551Y0144134D01*
X0023504Y0144121D01*
X0023459Y0144105D01*
X0023415Y0144086D01*
X0023372Y0144064D01*
X0023331Y0144038D01*
X0023292Y0144009D01*
X0023256Y0143978D01*
X0023222Y0143944D01*
X0023191Y0143908D01*
X0023162Y0143869D01*
X0023136Y0143828D01*
X0023114Y0143785D01*
X0023095Y0143741D01*
X0023079Y0143696D01*
X0023066Y0143649D01*
X0023057Y0143602D01*
X0023052Y0143554D01*
X0023050Y0143506D01*
X0023050Y0142861D01*
X0023050Y0141639D02*
X0023050Y0140350D01*
X0023050Y0139103D02*
X0025950Y0139103D01*
X0024822Y0138458D02*
X0023050Y0137491D01*
X0024178Y0139103D02*
X0025950Y0137491D01*
X0025950Y0135150D02*
X0024339Y0134183D01*
X0025950Y0133217D01*
X0023050Y0133217D01*
X0023856Y0131821D02*
X0025144Y0131821D01*
X0025199Y0131819D01*
X0025254Y0131813D01*
X0025308Y0131804D01*
X0025361Y0131791D01*
X0025414Y0131774D01*
X0025465Y0131754D01*
X0025515Y0131731D01*
X0025563Y0131704D01*
X0025609Y0131673D01*
X0025653Y0131640D01*
X0025694Y0131604D01*
X0025733Y0131565D01*
X0025769Y0131524D01*
X0025802Y0131480D01*
X0025833Y0131434D01*
X0025860Y0131386D01*
X0025883Y0131336D01*
X0025903Y0131285D01*
X0025920Y0131232D01*
X0025933Y0131179D01*
X0025942Y0131125D01*
X0025948Y0131070D01*
X0025950Y0131015D01*
X0025948Y0130960D01*
X0025942Y0130905D01*
X0025933Y0130851D01*
X0025920Y0130798D01*
X0025903Y0130745D01*
X0025883Y0130694D01*
X0025860Y0130644D01*
X0025833Y0130596D01*
X0025802Y0130550D01*
X0025769Y0130506D01*
X0025733Y0130465D01*
X0025694Y0130426D01*
X0025653Y0130390D01*
X0025609Y0130357D01*
X0025563Y0130326D01*
X0025515Y0130299D01*
X0025465Y0130276D01*
X0025414Y0130256D01*
X0025361Y0130239D01*
X0025308Y0130226D01*
X0025254Y0130217D01*
X0025199Y0130211D01*
X0025144Y0130209D01*
X0025144Y0130210D02*
X0023856Y0130210D01*
X0023856Y0130209D02*
X0023801Y0130211D01*
X0023746Y0130217D01*
X0023692Y0130226D01*
X0023639Y0130239D01*
X0023586Y0130256D01*
X0023535Y0130276D01*
X0023485Y0130299D01*
X0023437Y0130326D01*
X0023391Y0130357D01*
X0023347Y0130390D01*
X0023306Y0130426D01*
X0023267Y0130465D01*
X0023231Y0130506D01*
X0023198Y0130550D01*
X0023167Y0130596D01*
X0023140Y0130644D01*
X0023117Y0130694D01*
X0023097Y0130745D01*
X0023080Y0130798D01*
X0023067Y0130851D01*
X0023058Y0130905D01*
X0023052Y0130960D01*
X0023050Y0131015D01*
X0023052Y0131070D01*
X0023058Y0131125D01*
X0023067Y0131179D01*
X0023080Y0131232D01*
X0023097Y0131285D01*
X0023117Y0131336D01*
X0023140Y0131386D01*
X0023167Y0131434D01*
X0023198Y0131480D01*
X0023231Y0131524D01*
X0023267Y0131565D01*
X0023306Y0131604D01*
X0023347Y0131640D01*
X0023391Y0131673D01*
X0023437Y0131704D01*
X0023485Y0131731D01*
X0023535Y0131754D01*
X0023586Y0131774D01*
X0023639Y0131791D01*
X0023692Y0131804D01*
X0023746Y0131813D01*
X0023801Y0131819D01*
X0023856Y0131821D01*
X0024742Y0128634D02*
X0024258Y0127748D01*
X0023050Y0128070D02*
X0023052Y0128142D01*
X0023058Y0128213D01*
X0023067Y0128284D01*
X0023080Y0128354D01*
X0023097Y0128424D01*
X0023117Y0128493D01*
X0023141Y0128560D01*
X0023169Y0128626D01*
X0023200Y0128691D01*
X0023234Y0128754D01*
X0023272Y0128815D01*
X0023313Y0128874D01*
X0023356Y0128930D01*
X0023403Y0128985D01*
X0023453Y0129036D01*
X0024257Y0127748D02*
X0024231Y0127707D01*
X0024202Y0127668D01*
X0024170Y0127632D01*
X0024136Y0127598D01*
X0024099Y0127566D01*
X0024060Y0127538D01*
X0024018Y0127512D01*
X0023976Y0127490D01*
X0023931Y0127470D01*
X0023885Y0127455D01*
X0023838Y0127442D01*
X0023791Y0127433D01*
X0023742Y0127428D01*
X0023694Y0127426D01*
X0023646Y0127428D01*
X0023598Y0127433D01*
X0023551Y0127442D01*
X0023504Y0127455D01*
X0023459Y0127471D01*
X0023415Y0127490D01*
X0023372Y0127512D01*
X0023331Y0127538D01*
X0023292Y0127567D01*
X0023256Y0127598D01*
X0023222Y0127632D01*
X0023190Y0127668D01*
X0023162Y0127707D01*
X0023136Y0127748D01*
X0023114Y0127791D01*
X0023095Y0127835D01*
X0023079Y0127880D01*
X0023066Y0127927D01*
X0023057Y0127974D01*
X0023052Y0128022D01*
X0023050Y0128070D01*
X0025708Y0127587D02*
X0025746Y0127640D01*
X0025780Y0127695D01*
X0025812Y0127751D01*
X0025841Y0127810D01*
X0025866Y0127869D01*
X0025888Y0127930D01*
X0025907Y0127992D01*
X0025922Y0128055D01*
X0025934Y0128118D01*
X0025943Y0128183D01*
X0025948Y0128247D01*
X0025950Y0128312D01*
X0025948Y0128360D01*
X0025943Y0128408D01*
X0025934Y0128455D01*
X0025921Y0128502D01*
X0025905Y0128547D01*
X0025886Y0128591D01*
X0025864Y0128634D01*
X0025838Y0128675D01*
X0025809Y0128714D01*
X0025778Y0128750D01*
X0025744Y0128784D01*
X0025708Y0128815D01*
X0025669Y0128844D01*
X0025628Y0128870D01*
X0025585Y0128892D01*
X0025541Y0128911D01*
X0025496Y0128927D01*
X0025449Y0128940D01*
X0025402Y0128949D01*
X0025354Y0128954D01*
X0025306Y0128956D01*
X0025306Y0128957D02*
X0025257Y0128955D01*
X0025209Y0128950D01*
X0025161Y0128941D01*
X0025115Y0128928D01*
X0025069Y0128912D01*
X0025024Y0128893D01*
X0024981Y0128871D01*
X0024940Y0128845D01*
X0024901Y0128816D01*
X0024864Y0128785D01*
X0024829Y0128751D01*
X0024797Y0128714D01*
X0024768Y0128675D01*
X0024742Y0128635D01*
X0025950Y0126346D02*
X0025950Y0125701D01*
X0025950Y0126023D02*
X0023050Y0126023D01*
X0023050Y0125701D02*
X0023050Y0126346D01*
X0024178Y0123450D02*
X0024178Y0121517D01*
X0023211Y0122483D02*
X0025144Y0122483D01*
X0024661Y0120217D02*
X0025950Y0120217D01*
X0025950Y0118606D01*
X0025950Y0117498D02*
X0023050Y0116531D01*
X0025950Y0115565D01*
X0025306Y0113250D02*
X0023694Y0113250D01*
X0023646Y0113248D01*
X0023598Y0113243D01*
X0023551Y0113234D01*
X0023504Y0113221D01*
X0023459Y0113205D01*
X0023415Y0113186D01*
X0023372Y0113164D01*
X0023331Y0113138D01*
X0023292Y0113109D01*
X0023256Y0113078D01*
X0023222Y0113044D01*
X0023191Y0113008D01*
X0023162Y0112969D01*
X0023136Y0112928D01*
X0023114Y0112885D01*
X0023095Y0112841D01*
X0023079Y0112796D01*
X0023066Y0112749D01*
X0023057Y0112702D01*
X0023052Y0112654D01*
X0023050Y0112606D01*
X0023050Y0111639D01*
X0024661Y0111639D01*
X0024661Y0112122D01*
X0025306Y0113250D02*
X0025354Y0113248D01*
X0025402Y0113243D01*
X0025449Y0113234D01*
X0025496Y0113221D01*
X0025541Y0113205D01*
X0025585Y0113186D01*
X0025628Y0113164D01*
X0025669Y0113138D01*
X0025708Y0113109D01*
X0025744Y0113078D01*
X0025778Y0113044D01*
X0025809Y0113008D01*
X0025838Y0112969D01*
X0025864Y0112928D01*
X0025886Y0112885D01*
X0025905Y0112841D01*
X0025921Y0112796D01*
X0025934Y0112749D01*
X0025943Y0112702D01*
X0025948Y0112654D01*
X0025950Y0112606D01*
X0025950Y0111639D01*
X0025950Y0110178D02*
X0023050Y0108567D01*
X0025950Y0108567D01*
X0025950Y0107106D02*
X0023050Y0107106D01*
X0023050Y0106300D01*
X0023052Y0106245D01*
X0023058Y0106190D01*
X0023067Y0106136D01*
X0023080Y0106083D01*
X0023097Y0106030D01*
X0023117Y0105979D01*
X0023140Y0105929D01*
X0023167Y0105881D01*
X0023198Y0105835D01*
X0023231Y0105791D01*
X0023267Y0105750D01*
X0023306Y0105711D01*
X0023347Y0105675D01*
X0023391Y0105642D01*
X0023437Y0105611D01*
X0023485Y0105584D01*
X0023535Y0105561D01*
X0023586Y0105541D01*
X0023639Y0105524D01*
X0023692Y0105511D01*
X0023746Y0105502D01*
X0023801Y0105496D01*
X0023856Y0105494D01*
X0023856Y0105495D02*
X0025144Y0105495D01*
X0025144Y0105494D02*
X0025199Y0105496D01*
X0025254Y0105502D01*
X0025308Y0105511D01*
X0025361Y0105524D01*
X0025414Y0105541D01*
X0025465Y0105561D01*
X0025515Y0105584D01*
X0025563Y0105611D01*
X0025609Y0105642D01*
X0025653Y0105675D01*
X0025694Y0105711D01*
X0025733Y0105750D01*
X0025769Y0105791D01*
X0025802Y0105835D01*
X0025833Y0105881D01*
X0025860Y0105929D01*
X0025883Y0105979D01*
X0025903Y0106030D01*
X0025920Y0106083D01*
X0025933Y0106136D01*
X0025942Y0106190D01*
X0025948Y0106245D01*
X0025950Y0106300D01*
X0025950Y0107106D01*
X0025950Y0110178D02*
X0023050Y0110178D01*
X0023694Y0118606D02*
X0024017Y0118606D01*
X0024065Y0118608D01*
X0024113Y0118613D01*
X0024160Y0118622D01*
X0024207Y0118635D01*
X0024252Y0118651D01*
X0024296Y0118670D01*
X0024339Y0118692D01*
X0024380Y0118718D01*
X0024419Y0118747D01*
X0024455Y0118778D01*
X0024489Y0118812D01*
X0024521Y0118848D01*
X0024549Y0118887D01*
X0024575Y0118928D01*
X0024597Y0118971D01*
X0024616Y0119015D01*
X0024632Y0119060D01*
X0024645Y0119107D01*
X0024654Y0119154D01*
X0024659Y0119202D01*
X0024661Y0119250D01*
X0024661Y0120217D01*
X0023050Y0119250D02*
X0023052Y0119199D01*
X0023058Y0119149D01*
X0023068Y0119100D01*
X0023082Y0119051D01*
X0023099Y0119004D01*
X0023120Y0118958D01*
X0023145Y0118914D01*
X0023173Y0118871D01*
X0023204Y0118832D01*
X0023239Y0118795D01*
X0023276Y0118760D01*
X0023315Y0118729D01*
X0023357Y0118701D01*
X0023402Y0118676D01*
X0023448Y0118655D01*
X0023495Y0118638D01*
X0023544Y0118624D01*
X0023593Y0118614D01*
X0023643Y0118608D01*
X0023694Y0118606D01*
X0023050Y0119250D02*
X0023050Y0120217D01*
X0023050Y0135150D02*
X0025950Y0135150D01*
X0025950Y0141639D02*
X0023050Y0141639D01*
X0025306Y0144150D02*
X0025354Y0144148D01*
X0025402Y0144143D01*
X0025449Y0144134D01*
X0025496Y0144121D01*
X0025541Y0144105D01*
X0025585Y0144086D01*
X0025628Y0144064D01*
X0025669Y0144038D01*
X0025708Y0144009D01*
X0025744Y0143978D01*
X0025778Y0143944D01*
X0025809Y0143908D01*
X0025838Y0143869D01*
X0025864Y0143828D01*
X0025886Y0143785D01*
X0025905Y0143741D01*
X0025921Y0143696D01*
X0025934Y0143649D01*
X0025943Y0143602D01*
X0025948Y0143554D01*
X0025950Y0143506D01*
X0025950Y0142861D01*
X0025850Y0164850D02*
X0022950Y0164850D01*
X0022950Y0176852D02*
X0025850Y0176852D01*
X0024239Y0177819D01*
X0025850Y0178785D01*
X0022950Y0178785D01*
X0022950Y0180033D02*
X0022950Y0180677D01*
X0022952Y0180725D01*
X0022957Y0180773D01*
X0022966Y0180820D01*
X0022979Y0180867D01*
X0022995Y0180912D01*
X0023014Y0180956D01*
X0023036Y0180999D01*
X0023062Y0181040D01*
X0023091Y0181079D01*
X0023122Y0181115D01*
X0023156Y0181149D01*
X0023192Y0181180D01*
X0023231Y0181209D01*
X0023272Y0181235D01*
X0023315Y0181257D01*
X0023359Y0181276D01*
X0023404Y0181292D01*
X0023451Y0181305D01*
X0023498Y0181314D01*
X0023546Y0181319D01*
X0023594Y0181321D01*
X0025206Y0181321D01*
X0025254Y0181319D01*
X0025302Y0181314D01*
X0025349Y0181305D01*
X0025396Y0181292D01*
X0025441Y0181276D01*
X0025485Y0181257D01*
X0025528Y0181235D01*
X0025569Y0181209D01*
X0025608Y0181180D01*
X0025644Y0181149D01*
X0025678Y0181115D01*
X0025709Y0181079D01*
X0025738Y0181040D01*
X0025764Y0180999D01*
X0025786Y0180956D01*
X0025805Y0180912D01*
X0025821Y0180867D01*
X0025834Y0180820D01*
X0025843Y0180773D01*
X0025848Y0180725D01*
X0025850Y0180677D01*
X0025850Y0180033D01*
X0025850Y0183244D02*
X0025850Y0184050D01*
X0022950Y0184050D01*
X0024239Y0184050D02*
X0024239Y0183244D01*
X0024238Y0183244D02*
X0024240Y0183189D01*
X0024246Y0183134D01*
X0024255Y0183080D01*
X0024268Y0183027D01*
X0024285Y0182974D01*
X0024305Y0182923D01*
X0024328Y0182873D01*
X0024355Y0182825D01*
X0024386Y0182779D01*
X0024419Y0182735D01*
X0024455Y0182694D01*
X0024494Y0182655D01*
X0024535Y0182619D01*
X0024579Y0182586D01*
X0024625Y0182555D01*
X0024673Y0182528D01*
X0024723Y0182505D01*
X0024774Y0182485D01*
X0024827Y0182468D01*
X0024880Y0182455D01*
X0024934Y0182446D01*
X0024989Y0182440D01*
X0025044Y0182438D01*
X0025099Y0182440D01*
X0025154Y0182446D01*
X0025208Y0182455D01*
X0025261Y0182468D01*
X0025314Y0182485D01*
X0025365Y0182505D01*
X0025415Y0182528D01*
X0025463Y0182555D01*
X0025509Y0182586D01*
X0025553Y0182619D01*
X0025594Y0182655D01*
X0025633Y0182694D01*
X0025669Y0182735D01*
X0025702Y0182779D01*
X0025733Y0182825D01*
X0025760Y0182873D01*
X0025783Y0182923D01*
X0025803Y0182974D01*
X0025820Y0183027D01*
X0025833Y0183080D01*
X0025842Y0183134D01*
X0025848Y0183189D01*
X0025850Y0183244D01*
X0039250Y0105706D02*
X0039250Y0104739D01*
X0039250Y0105706D02*
X0039252Y0105755D01*
X0039258Y0105804D01*
X0039267Y0105853D01*
X0039280Y0105900D01*
X0039297Y0105947D01*
X0039317Y0105992D01*
X0039340Y0106035D01*
X0039367Y0106077D01*
X0039397Y0106116D01*
X0039430Y0106153D01*
X0039466Y0106187D01*
X0039504Y0106218D01*
X0039544Y0106247D01*
X0039586Y0106272D01*
X0039631Y0106294D01*
X0039676Y0106312D01*
X0039723Y0106327D01*
X0039771Y0106338D01*
X0039820Y0106346D01*
X0039869Y0106350D01*
X0039919Y0106350D01*
X0039968Y0106346D01*
X0040017Y0106338D01*
X0040065Y0106327D01*
X0040112Y0106312D01*
X0040157Y0106294D01*
X0040202Y0106272D01*
X0040244Y0106247D01*
X0040284Y0106218D01*
X0040322Y0106187D01*
X0040358Y0106153D01*
X0040391Y0106116D01*
X0040421Y0106077D01*
X0040448Y0106035D01*
X0040471Y0105992D01*
X0040491Y0105947D01*
X0040508Y0105900D01*
X0040521Y0105853D01*
X0040530Y0105804D01*
X0040536Y0105755D01*
X0040538Y0105706D01*
X0040539Y0105706D02*
X0040539Y0105061D01*
X0040538Y0105544D02*
X0040540Y0105599D01*
X0040546Y0105654D01*
X0040555Y0105708D01*
X0040568Y0105761D01*
X0040585Y0105814D01*
X0040605Y0105865D01*
X0040628Y0105915D01*
X0040655Y0105963D01*
X0040686Y0106009D01*
X0040719Y0106053D01*
X0040755Y0106094D01*
X0040794Y0106133D01*
X0040835Y0106169D01*
X0040879Y0106202D01*
X0040925Y0106233D01*
X0040973Y0106260D01*
X0041023Y0106283D01*
X0041074Y0106303D01*
X0041127Y0106320D01*
X0041180Y0106333D01*
X0041234Y0106342D01*
X0041289Y0106348D01*
X0041344Y0106350D01*
X0041399Y0106348D01*
X0041454Y0106342D01*
X0041508Y0106333D01*
X0041561Y0106320D01*
X0041614Y0106303D01*
X0041665Y0106283D01*
X0041715Y0106260D01*
X0041763Y0106233D01*
X0041809Y0106202D01*
X0041853Y0106169D01*
X0041894Y0106133D01*
X0041933Y0106094D01*
X0041969Y0106053D01*
X0042002Y0106009D01*
X0042033Y0105963D01*
X0042060Y0105915D01*
X0042083Y0105865D01*
X0042103Y0105814D01*
X0042120Y0105761D01*
X0042133Y0105708D01*
X0042142Y0105654D01*
X0042148Y0105599D01*
X0042150Y0105544D01*
X0042150Y0104739D01*
X0041506Y0103387D02*
X0039250Y0103387D01*
X0041506Y0103386D02*
X0041554Y0103384D01*
X0041602Y0103379D01*
X0041649Y0103370D01*
X0041696Y0103357D01*
X0041741Y0103341D01*
X0041785Y0103322D01*
X0041828Y0103300D01*
X0041869Y0103274D01*
X0041908Y0103245D01*
X0041944Y0103214D01*
X0041978Y0103180D01*
X0042009Y0103144D01*
X0042038Y0103105D01*
X0042064Y0103064D01*
X0042086Y0103021D01*
X0042105Y0102977D01*
X0042121Y0102932D01*
X0042134Y0102885D01*
X0042143Y0102838D01*
X0042148Y0102790D01*
X0042150Y0102742D01*
X0042150Y0102420D01*
X0038786Y0075380D02*
X0038704Y0075342D01*
X0038621Y0075307D01*
X0038536Y0075275D01*
X0038451Y0075246D01*
X0038364Y0075221D01*
X0038276Y0075199D01*
X0038188Y0075181D01*
X0038099Y0075165D01*
X0038009Y0075153D01*
X0037920Y0075145D01*
X0037829Y0075140D01*
X0037739Y0075138D01*
X0037739Y0076749D02*
X0037649Y0076747D01*
X0037558Y0076742D01*
X0037469Y0076734D01*
X0037379Y0076722D01*
X0037290Y0076706D01*
X0037202Y0076688D01*
X0037114Y0076666D01*
X0037027Y0076641D01*
X0036942Y0076612D01*
X0036857Y0076580D01*
X0036774Y0076545D01*
X0036692Y0076507D01*
X0036933Y0076588D02*
X0038544Y0075299D01*
X0039188Y0075944D02*
X0039186Y0075990D01*
X0039181Y0076036D01*
X0039172Y0076081D01*
X0039160Y0076126D01*
X0039144Y0076169D01*
X0039125Y0076211D01*
X0039102Y0076252D01*
X0039077Y0076290D01*
X0039049Y0076327D01*
X0039018Y0076361D01*
X0038984Y0076393D01*
X0038948Y0076422D01*
X0038910Y0076448D01*
X0038870Y0076471D01*
X0038828Y0076491D01*
X0038785Y0076508D01*
X0039188Y0075944D02*
X0039186Y0075898D01*
X0039181Y0075852D01*
X0039172Y0075807D01*
X0039160Y0075762D01*
X0039144Y0075719D01*
X0039125Y0075677D01*
X0039102Y0075636D01*
X0039077Y0075598D01*
X0039049Y0075561D01*
X0039018Y0075527D01*
X0038984Y0075495D01*
X0038948Y0075466D01*
X0038910Y0075440D01*
X0038870Y0075417D01*
X0038828Y0075397D01*
X0038785Y0075380D01*
X0038786Y0076507D02*
X0038704Y0076545D01*
X0038621Y0076580D01*
X0038536Y0076612D01*
X0038451Y0076641D01*
X0038364Y0076666D01*
X0038276Y0076688D01*
X0038188Y0076706D01*
X0038099Y0076722D01*
X0038009Y0076734D01*
X0037920Y0076742D01*
X0037829Y0076747D01*
X0037739Y0076749D01*
X0037739Y0075138D02*
X0037649Y0075140D01*
X0037558Y0075145D01*
X0037469Y0075153D01*
X0037379Y0075165D01*
X0037290Y0075181D01*
X0037202Y0075199D01*
X0037114Y0075221D01*
X0037027Y0075246D01*
X0036942Y0075275D01*
X0036857Y0075307D01*
X0036774Y0075342D01*
X0036692Y0075380D01*
X0036289Y0075944D02*
X0036291Y0075990D01*
X0036296Y0076036D01*
X0036305Y0076081D01*
X0036317Y0076126D01*
X0036333Y0076169D01*
X0036352Y0076211D01*
X0036375Y0076252D01*
X0036400Y0076290D01*
X0036428Y0076327D01*
X0036459Y0076361D01*
X0036493Y0076393D01*
X0036529Y0076422D01*
X0036567Y0076448D01*
X0036607Y0076471D01*
X0036649Y0076491D01*
X0036692Y0076508D01*
X0036289Y0075944D02*
X0036291Y0075898D01*
X0036296Y0075852D01*
X0036305Y0075807D01*
X0036317Y0075762D01*
X0036333Y0075719D01*
X0036352Y0075677D01*
X0036375Y0075636D01*
X0036400Y0075598D01*
X0036428Y0075561D01*
X0036459Y0075527D01*
X0036493Y0075495D01*
X0036529Y0075466D01*
X0036567Y0075440D01*
X0036607Y0075417D01*
X0036649Y0075397D01*
X0036692Y0075380D01*
X0039189Y0073869D02*
X0039189Y0072258D01*
X0039189Y0073064D02*
X0036289Y0073064D01*
X0036933Y0072258D01*
X0036289Y0071138D02*
X0036289Y0070493D01*
X0036291Y0070442D01*
X0036297Y0070392D01*
X0036307Y0070343D01*
X0036321Y0070294D01*
X0036338Y0070247D01*
X0036359Y0070201D01*
X0036384Y0070156D01*
X0036412Y0070114D01*
X0036443Y0070075D01*
X0036478Y0070038D01*
X0036515Y0070003D01*
X0036554Y0069972D01*
X0036597Y0069944D01*
X0036641Y0069919D01*
X0036687Y0069898D01*
X0036734Y0069881D01*
X0036783Y0069867D01*
X0036832Y0069857D01*
X0036882Y0069851D01*
X0036933Y0069849D01*
X0038544Y0069849D01*
X0038592Y0069851D01*
X0038640Y0069856D01*
X0038687Y0069865D01*
X0038734Y0069878D01*
X0038779Y0069894D01*
X0038823Y0069913D01*
X0038866Y0069935D01*
X0038907Y0069961D01*
X0038946Y0069990D01*
X0038982Y0070021D01*
X0039016Y0070055D01*
X0039047Y0070091D01*
X0039076Y0070130D01*
X0039102Y0070171D01*
X0039124Y0070214D01*
X0039143Y0070258D01*
X0039159Y0070303D01*
X0039172Y0070350D01*
X0039181Y0070397D01*
X0039186Y0070445D01*
X0039188Y0070493D01*
X0039189Y0070493D02*
X0039189Y0071138D01*
X0039739Y0066308D02*
X0041350Y0064939D01*
X0041350Y0066550D01*
X0039094Y0064939D02*
X0039039Y0064959D01*
X0038985Y0064982D01*
X0038933Y0065009D01*
X0038883Y0065039D01*
X0038834Y0065071D01*
X0038788Y0065107D01*
X0038744Y0065146D01*
X0038703Y0065187D01*
X0038664Y0065231D01*
X0038628Y0065277D01*
X0038595Y0065326D01*
X0038565Y0065376D01*
X0038539Y0065428D01*
X0038515Y0065482D01*
X0038496Y0065537D01*
X0038479Y0065593D01*
X0038467Y0065650D01*
X0038457Y0065708D01*
X0038452Y0065766D01*
X0038450Y0065825D01*
X0038452Y0065877D01*
X0038457Y0065928D01*
X0038467Y0065979D01*
X0038479Y0066029D01*
X0038496Y0066078D01*
X0038516Y0066126D01*
X0038539Y0066172D01*
X0038565Y0066217D01*
X0038595Y0066259D01*
X0038627Y0066300D01*
X0038662Y0066338D01*
X0038700Y0066373D01*
X0038741Y0066405D01*
X0038783Y0066435D01*
X0038828Y0066461D01*
X0038874Y0066484D01*
X0038922Y0066504D01*
X0038971Y0066521D01*
X0039021Y0066533D01*
X0039072Y0066543D01*
X0039123Y0066548D01*
X0039175Y0066550D01*
X0039228Y0066548D01*
X0039280Y0066543D01*
X0039332Y0066534D01*
X0039383Y0066522D01*
X0039433Y0066506D01*
X0039482Y0066487D01*
X0039529Y0066465D01*
X0039575Y0066439D01*
X0039620Y0066411D01*
X0039662Y0066379D01*
X0039702Y0066345D01*
X0039739Y0066308D01*
X0041350Y0063690D02*
X0040061Y0063046D01*
X0040061Y0062885D02*
X0040061Y0062079D01*
X0040062Y0062885D02*
X0040060Y0062940D01*
X0040054Y0062995D01*
X0040045Y0063049D01*
X0040032Y0063102D01*
X0040015Y0063155D01*
X0039995Y0063206D01*
X0039972Y0063256D01*
X0039945Y0063304D01*
X0039914Y0063350D01*
X0039881Y0063394D01*
X0039845Y0063435D01*
X0039806Y0063474D01*
X0039765Y0063510D01*
X0039721Y0063543D01*
X0039675Y0063574D01*
X0039627Y0063601D01*
X0039577Y0063624D01*
X0039526Y0063644D01*
X0039473Y0063661D01*
X0039420Y0063674D01*
X0039366Y0063683D01*
X0039311Y0063689D01*
X0039256Y0063691D01*
X0039201Y0063689D01*
X0039146Y0063683D01*
X0039092Y0063674D01*
X0039039Y0063661D01*
X0038986Y0063644D01*
X0038935Y0063624D01*
X0038885Y0063601D01*
X0038837Y0063574D01*
X0038791Y0063543D01*
X0038747Y0063510D01*
X0038706Y0063474D01*
X0038667Y0063435D01*
X0038631Y0063394D01*
X0038598Y0063350D01*
X0038567Y0063304D01*
X0038540Y0063256D01*
X0038517Y0063206D01*
X0038497Y0063155D01*
X0038480Y0063102D01*
X0038467Y0063049D01*
X0038458Y0062995D01*
X0038452Y0062940D01*
X0038450Y0062885D01*
X0038450Y0062079D01*
X0041350Y0062079D01*
X0048750Y0060450D02*
X0050361Y0060450D01*
X0049556Y0060450D02*
X0049556Y0057550D01*
X0051438Y0057550D02*
X0053049Y0057550D01*
X0052244Y0057550D02*
X0052244Y0060450D01*
X0051438Y0059806D01*
X0039311Y0052045D02*
X0039311Y0051240D01*
X0039312Y0052045D02*
X0039310Y0052100D01*
X0039304Y0052155D01*
X0039295Y0052209D01*
X0039282Y0052262D01*
X0039265Y0052315D01*
X0039245Y0052366D01*
X0039222Y0052416D01*
X0039195Y0052464D01*
X0039164Y0052510D01*
X0039131Y0052554D01*
X0039095Y0052595D01*
X0039056Y0052634D01*
X0039015Y0052670D01*
X0038971Y0052703D01*
X0038925Y0052734D01*
X0038877Y0052761D01*
X0038827Y0052784D01*
X0038776Y0052804D01*
X0038723Y0052821D01*
X0038670Y0052834D01*
X0038616Y0052843D01*
X0038561Y0052849D01*
X0038506Y0052851D01*
X0038451Y0052849D01*
X0038396Y0052843D01*
X0038342Y0052834D01*
X0038289Y0052821D01*
X0038236Y0052804D01*
X0038185Y0052784D01*
X0038135Y0052761D01*
X0038087Y0052734D01*
X0038041Y0052703D01*
X0037997Y0052670D01*
X0037956Y0052634D01*
X0037917Y0052595D01*
X0037881Y0052554D01*
X0037848Y0052510D01*
X0037817Y0052464D01*
X0037790Y0052416D01*
X0037767Y0052366D01*
X0037747Y0052315D01*
X0037730Y0052262D01*
X0037717Y0052209D01*
X0037708Y0052155D01*
X0037702Y0052100D01*
X0037700Y0052045D01*
X0037700Y0052207D02*
X0037700Y0051562D01*
X0037700Y0052207D02*
X0037698Y0052256D01*
X0037692Y0052305D01*
X0037683Y0052354D01*
X0037670Y0052401D01*
X0037653Y0052448D01*
X0037633Y0052493D01*
X0037610Y0052536D01*
X0037583Y0052578D01*
X0037553Y0052617D01*
X0037520Y0052654D01*
X0037484Y0052688D01*
X0037446Y0052719D01*
X0037406Y0052748D01*
X0037364Y0052773D01*
X0037319Y0052795D01*
X0037274Y0052813D01*
X0037227Y0052828D01*
X0037179Y0052839D01*
X0037130Y0052847D01*
X0037081Y0052851D01*
X0037031Y0052851D01*
X0036982Y0052847D01*
X0036933Y0052839D01*
X0036885Y0052828D01*
X0036838Y0052813D01*
X0036793Y0052795D01*
X0036748Y0052773D01*
X0036706Y0052748D01*
X0036666Y0052719D01*
X0036628Y0052688D01*
X0036592Y0052654D01*
X0036559Y0052617D01*
X0036529Y0052578D01*
X0036502Y0052536D01*
X0036479Y0052493D01*
X0036459Y0052448D01*
X0036442Y0052401D01*
X0036429Y0052354D01*
X0036420Y0052305D01*
X0036414Y0052256D01*
X0036412Y0052207D01*
X0036411Y0052207D02*
X0036411Y0051240D01*
X0036411Y0049165D02*
X0039311Y0049165D01*
X0039311Y0048360D02*
X0039311Y0049971D01*
X0039311Y0047240D02*
X0039311Y0046595D01*
X0039309Y0046547D01*
X0039304Y0046499D01*
X0039295Y0046452D01*
X0039282Y0046405D01*
X0039266Y0046360D01*
X0039247Y0046316D01*
X0039225Y0046273D01*
X0039199Y0046232D01*
X0039170Y0046193D01*
X0039139Y0046157D01*
X0039105Y0046123D01*
X0039069Y0046092D01*
X0039030Y0046063D01*
X0038989Y0046037D01*
X0038946Y0046015D01*
X0038902Y0045996D01*
X0038857Y0045980D01*
X0038810Y0045967D01*
X0038763Y0045958D01*
X0038715Y0045953D01*
X0038667Y0045951D01*
X0037056Y0045951D01*
X0037005Y0045953D01*
X0036955Y0045959D01*
X0036906Y0045969D01*
X0036857Y0045983D01*
X0036810Y0046000D01*
X0036764Y0046021D01*
X0036720Y0046046D01*
X0036677Y0046074D01*
X0036638Y0046105D01*
X0036601Y0046140D01*
X0036566Y0046177D01*
X0036535Y0046216D01*
X0036507Y0046258D01*
X0036482Y0046303D01*
X0036461Y0046349D01*
X0036444Y0046396D01*
X0036430Y0046445D01*
X0036420Y0046494D01*
X0036414Y0046544D01*
X0036412Y0046595D01*
X0036411Y0046595D02*
X0036411Y0047240D01*
X0037056Y0048360D02*
X0036411Y0049165D01*
X0112655Y0093514D02*
X0113111Y0093058D01*
X0112656Y0093514D02*
X0112623Y0093549D01*
X0112593Y0093587D01*
X0112566Y0093626D01*
X0112542Y0093668D01*
X0112521Y0093711D01*
X0112503Y0093756D01*
X0112489Y0093802D01*
X0112478Y0093849D01*
X0112471Y0093897D01*
X0112467Y0093945D01*
X0112467Y0093993D01*
X0112471Y0094041D01*
X0112478Y0094089D01*
X0112489Y0094136D01*
X0112503Y0094182D01*
X0112521Y0094227D01*
X0112542Y0094270D01*
X0112566Y0094312D01*
X0112593Y0094351D01*
X0112623Y0094389D01*
X0112656Y0094424D01*
X0112655Y0094425D02*
X0113794Y0095564D01*
X0113795Y0095564D02*
X0113832Y0095599D01*
X0113871Y0095630D01*
X0113914Y0095658D01*
X0113958Y0095683D01*
X0114004Y0095704D01*
X0114051Y0095721D01*
X0114100Y0095735D01*
X0114149Y0095745D01*
X0114199Y0095751D01*
X0114250Y0095753D01*
X0114301Y0095751D01*
X0114351Y0095745D01*
X0114400Y0095735D01*
X0114449Y0095721D01*
X0114496Y0095704D01*
X0114542Y0095683D01*
X0114586Y0095658D01*
X0114629Y0095630D01*
X0114668Y0095599D01*
X0114705Y0095564D01*
X0114706Y0095564D02*
X0115161Y0095109D01*
X0116011Y0092436D02*
X0116064Y0092437D01*
X0116116Y0092441D01*
X0116168Y0092448D01*
X0116219Y0092459D01*
X0116270Y0092474D01*
X0116319Y0092492D01*
X0116367Y0092513D01*
X0116414Y0092537D01*
X0116459Y0092565D01*
X0116502Y0092595D01*
X0116542Y0092628D01*
X0116581Y0092664D01*
X0116011Y0092437D02*
X0113903Y0092266D01*
X0115042Y0091127D01*
X0117192Y0089546D02*
X0117277Y0089577D01*
X0117361Y0089612D01*
X0117443Y0089649D01*
X0117524Y0089689D01*
X0117603Y0089733D01*
X0117680Y0089779D01*
X0117756Y0089828D01*
X0117830Y0089881D01*
X0117901Y0089935D01*
X0117971Y0089993D01*
X0118038Y0090053D01*
X0118103Y0090116D01*
X0116965Y0091255D02*
X0117030Y0091318D01*
X0117097Y0091378D01*
X0117167Y0091435D01*
X0117239Y0091490D01*
X0117313Y0091542D01*
X0117388Y0091592D01*
X0117466Y0091638D01*
X0117545Y0091682D01*
X0117626Y0091722D01*
X0117708Y0091759D01*
X0117792Y0091794D01*
X0117876Y0091825D01*
X0118559Y0091710D02*
X0118591Y0091677D01*
X0118619Y0091640D01*
X0118645Y0091602D01*
X0118668Y0091562D01*
X0118687Y0091520D01*
X0118704Y0091477D01*
X0118717Y0091432D01*
X0118726Y0091387D01*
X0118732Y0091341D01*
X0118734Y0091295D01*
X0118733Y0091249D01*
X0118728Y0091203D01*
X0118719Y0091157D01*
X0118707Y0091113D01*
X0118692Y0091069D01*
X0118673Y0091027D01*
X0118560Y0090799D02*
X0116509Y0090571D01*
X0116510Y0089660D02*
X0116543Y0089628D01*
X0116580Y0089600D01*
X0116618Y0089574D01*
X0116658Y0089551D01*
X0116700Y0089532D01*
X0116743Y0089515D01*
X0116788Y0089502D01*
X0116833Y0089493D01*
X0116879Y0089487D01*
X0116925Y0089485D01*
X0116971Y0089486D01*
X0117017Y0089491D01*
X0117063Y0089500D01*
X0117107Y0089512D01*
X0117151Y0089527D01*
X0117193Y0089546D01*
X0116510Y0089660D02*
X0116478Y0089693D01*
X0116450Y0089730D01*
X0116424Y0089768D01*
X0116401Y0089808D01*
X0116382Y0089850D01*
X0116365Y0089893D01*
X0116352Y0089938D01*
X0116343Y0089983D01*
X0116337Y0090029D01*
X0116335Y0090075D01*
X0116336Y0090121D01*
X0116341Y0090167D01*
X0116350Y0090213D01*
X0116362Y0090257D01*
X0116377Y0090301D01*
X0116396Y0090343D01*
X0118104Y0090116D02*
X0118167Y0090181D01*
X0118227Y0090248D01*
X0118285Y0090318D01*
X0118339Y0090389D01*
X0118392Y0090463D01*
X0118441Y0090539D01*
X0118487Y0090616D01*
X0118531Y0090696D01*
X0118571Y0090776D01*
X0118609Y0090859D01*
X0118643Y0090942D01*
X0118674Y0091027D01*
X0118559Y0091710D02*
X0118526Y0091742D01*
X0118489Y0091770D01*
X0118451Y0091796D01*
X0118411Y0091819D01*
X0118369Y0091838D01*
X0118326Y0091855D01*
X0118281Y0091868D01*
X0118236Y0091877D01*
X0118190Y0091883D01*
X0118144Y0091885D01*
X0118098Y0091884D01*
X0118052Y0091879D01*
X0118006Y0091870D01*
X0117962Y0091858D01*
X0117918Y0091843D01*
X0117876Y0091824D01*
X0116581Y0092664D02*
X0116616Y0092702D01*
X0116648Y0092743D01*
X0116678Y0092785D01*
X0116704Y0092830D01*
X0116727Y0092876D01*
X0116747Y0092924D01*
X0116764Y0092973D01*
X0116776Y0093023D01*
X0116786Y0093074D01*
X0116791Y0093125D01*
X0116793Y0093177D01*
X0116791Y0093229D01*
X0116786Y0093280D01*
X0116776Y0093331D01*
X0116764Y0093381D01*
X0116747Y0093430D01*
X0116727Y0093478D01*
X0116704Y0093524D01*
X0116678Y0093569D01*
X0116648Y0093611D01*
X0116616Y0093652D01*
X0116581Y0093690D01*
X0116580Y0093689D02*
X0116538Y0093729D01*
X0116493Y0093767D01*
X0116445Y0093801D01*
X0116396Y0093832D01*
X0116344Y0093861D01*
X0116291Y0093886D01*
X0116237Y0093907D01*
X0116181Y0093925D01*
X0116125Y0093940D01*
X0116067Y0093951D01*
X0116009Y0093958D01*
X0115951Y0093962D01*
X0115892Y0093962D01*
X0115834Y0093958D01*
X0115776Y0093950D01*
X0115718Y0093939D01*
X0115662Y0093925D01*
X0115606Y0093907D01*
X0115552Y0093885D01*
X0115499Y0093860D01*
X0116965Y0091255D02*
X0116902Y0091190D01*
X0116842Y0091123D01*
X0116785Y0091053D01*
X0116730Y0090981D01*
X0116678Y0090907D01*
X0116628Y0090832D01*
X0116582Y0090754D01*
X0116538Y0090675D01*
X0116498Y0090594D01*
X0116461Y0090512D01*
X0116426Y0090428D01*
X0116395Y0090344D01*
X0116694Y0083250D02*
X0117339Y0083250D01*
X0116694Y0083250D02*
X0116643Y0083248D01*
X0116593Y0083242D01*
X0116544Y0083232D01*
X0116495Y0083218D01*
X0116448Y0083201D01*
X0116402Y0083180D01*
X0116358Y0083155D01*
X0116315Y0083127D01*
X0116276Y0083096D01*
X0116239Y0083061D01*
X0116204Y0083024D01*
X0116173Y0082985D01*
X0116145Y0082942D01*
X0116120Y0082898D01*
X0116099Y0082852D01*
X0116082Y0082805D01*
X0116068Y0082756D01*
X0116058Y0082707D01*
X0116052Y0082657D01*
X0116050Y0082606D01*
X0116050Y0080994D01*
X0116052Y0080946D01*
X0116057Y0080898D01*
X0116066Y0080851D01*
X0116079Y0080804D01*
X0116095Y0080759D01*
X0116114Y0080715D01*
X0116136Y0080672D01*
X0116162Y0080631D01*
X0116191Y0080592D01*
X0116222Y0080556D01*
X0116256Y0080522D01*
X0116292Y0080491D01*
X0116331Y0080462D01*
X0116372Y0080436D01*
X0116415Y0080414D01*
X0116459Y0080395D01*
X0116504Y0080379D01*
X0116551Y0080366D01*
X0116598Y0080357D01*
X0116646Y0080352D01*
X0116694Y0080350D01*
X0117339Y0080350D01*
X0118459Y0080350D02*
X0119828Y0081961D01*
X0119345Y0083250D02*
X0119286Y0083248D01*
X0119228Y0083243D01*
X0119170Y0083233D01*
X0119113Y0083221D01*
X0119057Y0083204D01*
X0119002Y0083185D01*
X0118948Y0083161D01*
X0118896Y0083135D01*
X0118846Y0083105D01*
X0118797Y0083072D01*
X0118751Y0083036D01*
X0118707Y0082997D01*
X0118666Y0082956D01*
X0118627Y0082912D01*
X0118591Y0082866D01*
X0118559Y0082817D01*
X0118529Y0082767D01*
X0118502Y0082715D01*
X0118479Y0082661D01*
X0118459Y0082606D01*
X0119828Y0081961D02*
X0119865Y0081998D01*
X0119899Y0082038D01*
X0119931Y0082080D01*
X0119959Y0082125D01*
X0119985Y0082171D01*
X0120007Y0082218D01*
X0120026Y0082267D01*
X0120042Y0082317D01*
X0120054Y0082368D01*
X0120063Y0082420D01*
X0120068Y0082472D01*
X0120070Y0082525D01*
X0120068Y0082577D01*
X0120063Y0082628D01*
X0120053Y0082679D01*
X0120041Y0082729D01*
X0120024Y0082778D01*
X0120004Y0082826D01*
X0119981Y0082872D01*
X0119955Y0082917D01*
X0119925Y0082959D01*
X0119893Y0083000D01*
X0119858Y0083038D01*
X0119820Y0083073D01*
X0119779Y0083105D01*
X0119737Y0083135D01*
X0119692Y0083161D01*
X0119646Y0083184D01*
X0119598Y0083204D01*
X0119549Y0083221D01*
X0119499Y0083233D01*
X0119448Y0083243D01*
X0119397Y0083248D01*
X0119345Y0083250D01*
X0122708Y0081961D02*
X0122745Y0081998D01*
X0122779Y0082038D01*
X0122811Y0082080D01*
X0122839Y0082125D01*
X0122865Y0082171D01*
X0122887Y0082218D01*
X0122906Y0082267D01*
X0122922Y0082317D01*
X0122934Y0082368D01*
X0122943Y0082420D01*
X0122948Y0082472D01*
X0122950Y0082525D01*
X0122708Y0081961D02*
X0121339Y0080350D01*
X0122950Y0080350D01*
X0121339Y0082606D02*
X0121359Y0082661D01*
X0121382Y0082715D01*
X0121409Y0082767D01*
X0121439Y0082817D01*
X0121471Y0082866D01*
X0121507Y0082912D01*
X0121546Y0082956D01*
X0121587Y0082997D01*
X0121631Y0083036D01*
X0121677Y0083072D01*
X0121726Y0083105D01*
X0121776Y0083135D01*
X0121828Y0083161D01*
X0121882Y0083185D01*
X0121937Y0083204D01*
X0121993Y0083221D01*
X0122050Y0083233D01*
X0122108Y0083243D01*
X0122166Y0083248D01*
X0122225Y0083250D01*
X0122277Y0083248D01*
X0122328Y0083243D01*
X0122379Y0083233D01*
X0122429Y0083221D01*
X0122478Y0083204D01*
X0122526Y0083184D01*
X0122572Y0083161D01*
X0122617Y0083135D01*
X0122659Y0083105D01*
X0122700Y0083073D01*
X0122738Y0083038D01*
X0122773Y0083000D01*
X0122805Y0082959D01*
X0122835Y0082917D01*
X0122861Y0082872D01*
X0122884Y0082826D01*
X0122904Y0082778D01*
X0122921Y0082729D01*
X0122933Y0082679D01*
X0122943Y0082628D01*
X0122948Y0082577D01*
X0122950Y0082525D01*
X0120070Y0080350D02*
X0118459Y0080350D01*
X0134694Y0062550D02*
X0135339Y0062550D01*
X0134694Y0062550D02*
X0134643Y0062548D01*
X0134593Y0062542D01*
X0134544Y0062532D01*
X0134495Y0062518D01*
X0134448Y0062501D01*
X0134402Y0062480D01*
X0134358Y0062455D01*
X0134315Y0062427D01*
X0134276Y0062396D01*
X0134239Y0062361D01*
X0134204Y0062324D01*
X0134173Y0062285D01*
X0134145Y0062242D01*
X0134120Y0062198D01*
X0134099Y0062152D01*
X0134082Y0062105D01*
X0134068Y0062056D01*
X0134058Y0062007D01*
X0134052Y0061957D01*
X0134050Y0061906D01*
X0134050Y0060294D01*
X0134052Y0060246D01*
X0134057Y0060198D01*
X0134066Y0060151D01*
X0134079Y0060104D01*
X0134095Y0060059D01*
X0134114Y0060015D01*
X0134136Y0059972D01*
X0134162Y0059931D01*
X0134191Y0059892D01*
X0134222Y0059856D01*
X0134256Y0059822D01*
X0134292Y0059791D01*
X0134331Y0059762D01*
X0134372Y0059736D01*
X0134415Y0059714D01*
X0134459Y0059695D01*
X0134504Y0059679D01*
X0134551Y0059666D01*
X0134598Y0059657D01*
X0134646Y0059652D01*
X0134694Y0059650D01*
X0135339Y0059650D01*
X0136459Y0059650D02*
X0138070Y0059650D01*
X0139339Y0059650D02*
X0140950Y0059650D01*
X0140144Y0059650D02*
X0140144Y0062550D01*
X0139339Y0061906D01*
X0137828Y0061261D02*
X0136459Y0059650D01*
X0136459Y0061906D02*
X0136479Y0061961D01*
X0136502Y0062015D01*
X0136529Y0062067D01*
X0136559Y0062117D01*
X0136591Y0062166D01*
X0136627Y0062212D01*
X0136666Y0062256D01*
X0136707Y0062297D01*
X0136751Y0062336D01*
X0136797Y0062372D01*
X0136846Y0062405D01*
X0136896Y0062435D01*
X0136948Y0062461D01*
X0137002Y0062485D01*
X0137057Y0062504D01*
X0137113Y0062521D01*
X0137170Y0062533D01*
X0137228Y0062543D01*
X0137286Y0062548D01*
X0137345Y0062550D01*
X0137397Y0062548D01*
X0137448Y0062543D01*
X0137499Y0062533D01*
X0137549Y0062521D01*
X0137598Y0062504D01*
X0137646Y0062484D01*
X0137692Y0062461D01*
X0137737Y0062435D01*
X0137779Y0062405D01*
X0137820Y0062373D01*
X0137858Y0062338D01*
X0137893Y0062300D01*
X0137925Y0062259D01*
X0137955Y0062217D01*
X0137981Y0062172D01*
X0138004Y0062126D01*
X0138024Y0062078D01*
X0138041Y0062029D01*
X0138053Y0061979D01*
X0138063Y0061928D01*
X0138068Y0061877D01*
X0138070Y0061825D01*
X0138068Y0061772D01*
X0138063Y0061720D01*
X0138054Y0061668D01*
X0138042Y0061617D01*
X0138026Y0061567D01*
X0138007Y0061518D01*
X0137985Y0061471D01*
X0137959Y0061425D01*
X0137931Y0061380D01*
X0137899Y0061338D01*
X0137865Y0061298D01*
X0137828Y0061261D01*
X0168889Y0063320D02*
X0168921Y0063415D01*
X0168950Y0063511D01*
X0168975Y0063609D01*
X0168996Y0063707D01*
X0169014Y0063806D01*
X0169029Y0063905D01*
X0169039Y0064005D01*
X0169046Y0064106D01*
X0169050Y0064206D01*
X0169049Y0064246D01*
X0169043Y0064286D01*
X0169035Y0064325D01*
X0169022Y0064363D01*
X0169006Y0064399D01*
X0168986Y0064434D01*
X0168963Y0064467D01*
X0168937Y0064497D01*
X0168909Y0064525D01*
X0168878Y0064550D01*
X0168844Y0064572D01*
X0168809Y0064591D01*
X0168772Y0064606D01*
X0168733Y0064617D01*
X0168694Y0064625D01*
X0168654Y0064629D01*
X0168615Y0064630D01*
X0168575Y0064626D01*
X0168535Y0064619D01*
X0168497Y0064608D01*
X0168460Y0064593D01*
X0168424Y0064575D01*
X0168390Y0064553D01*
X0168359Y0064529D01*
X0168330Y0064501D01*
X0168304Y0064471D01*
X0168281Y0064438D01*
X0168261Y0064404D01*
X0168244Y0064367D01*
X0167922Y0063562D01*
X0167905Y0063525D01*
X0167885Y0063491D01*
X0167862Y0063458D01*
X0167836Y0063428D01*
X0167807Y0063400D01*
X0167776Y0063376D01*
X0167742Y0063354D01*
X0167706Y0063336D01*
X0167669Y0063321D01*
X0167631Y0063310D01*
X0167591Y0063303D01*
X0167551Y0063299D01*
X0167512Y0063300D01*
X0167472Y0063304D01*
X0167433Y0063312D01*
X0167394Y0063323D01*
X0167357Y0063338D01*
X0167322Y0063357D01*
X0167288Y0063379D01*
X0167257Y0063404D01*
X0167229Y0063432D01*
X0167203Y0063462D01*
X0167180Y0063495D01*
X0167160Y0063530D01*
X0167144Y0063566D01*
X0167131Y0063604D01*
X0167123Y0063643D01*
X0167117Y0063683D01*
X0167116Y0063723D01*
X0167117Y0062147D02*
X0169050Y0061664D01*
X0167761Y0061180D01*
X0169050Y0060697D01*
X0167117Y0060214D01*
X0167761Y0059041D02*
X0168406Y0059041D01*
X0168455Y0059039D01*
X0168504Y0059033D01*
X0168553Y0059024D01*
X0168600Y0059011D01*
X0168647Y0058994D01*
X0168692Y0058974D01*
X0168735Y0058951D01*
X0168777Y0058924D01*
X0168816Y0058894D01*
X0168853Y0058861D01*
X0168887Y0058825D01*
X0168918Y0058787D01*
X0168947Y0058747D01*
X0168972Y0058705D01*
X0168994Y0058660D01*
X0169012Y0058615D01*
X0169027Y0058568D01*
X0169038Y0058520D01*
X0169046Y0058471D01*
X0169050Y0058422D01*
X0169050Y0058372D01*
X0169046Y0058323D01*
X0169038Y0058274D01*
X0169027Y0058226D01*
X0169012Y0058179D01*
X0168994Y0058134D01*
X0168972Y0058089D01*
X0168947Y0058047D01*
X0168918Y0058007D01*
X0168887Y0057969D01*
X0168853Y0057933D01*
X0168816Y0057900D01*
X0168777Y0057870D01*
X0168735Y0057843D01*
X0168692Y0057820D01*
X0168647Y0057800D01*
X0168600Y0057783D01*
X0168553Y0057770D01*
X0168504Y0057761D01*
X0168455Y0057755D01*
X0168406Y0057753D01*
X0168406Y0057752D02*
X0167761Y0057752D01*
X0167761Y0057753D02*
X0167712Y0057755D01*
X0167663Y0057761D01*
X0167614Y0057770D01*
X0167567Y0057783D01*
X0167520Y0057800D01*
X0167475Y0057820D01*
X0167432Y0057843D01*
X0167390Y0057870D01*
X0167351Y0057900D01*
X0167314Y0057933D01*
X0167280Y0057969D01*
X0167249Y0058007D01*
X0167220Y0058047D01*
X0167195Y0058089D01*
X0167173Y0058134D01*
X0167155Y0058179D01*
X0167140Y0058226D01*
X0167129Y0058274D01*
X0167121Y0058323D01*
X0167117Y0058372D01*
X0167117Y0058422D01*
X0167121Y0058471D01*
X0167129Y0058520D01*
X0167140Y0058568D01*
X0167155Y0058615D01*
X0167173Y0058660D01*
X0167195Y0058705D01*
X0167220Y0058747D01*
X0167249Y0058787D01*
X0167280Y0058825D01*
X0167314Y0058861D01*
X0167351Y0058894D01*
X0167390Y0058924D01*
X0167432Y0058951D01*
X0167475Y0058974D01*
X0167520Y0058994D01*
X0167567Y0059011D01*
X0167614Y0059024D01*
X0167663Y0059033D01*
X0167712Y0059039D01*
X0167761Y0059041D01*
X0167600Y0056561D02*
X0168567Y0056561D01*
X0168609Y0056559D01*
X0168651Y0056554D01*
X0168692Y0056545D01*
X0168732Y0056532D01*
X0168771Y0056516D01*
X0168809Y0056496D01*
X0168844Y0056474D01*
X0168877Y0056448D01*
X0168909Y0056420D01*
X0168937Y0056388D01*
X0168963Y0056355D01*
X0168985Y0056320D01*
X0169005Y0056282D01*
X0169021Y0056243D01*
X0169034Y0056203D01*
X0169043Y0056162D01*
X0169048Y0056120D01*
X0169050Y0056078D01*
X0169050Y0055272D01*
X0166150Y0055272D01*
X0167117Y0055272D02*
X0167117Y0056078D01*
X0167119Y0056120D01*
X0167124Y0056162D01*
X0167133Y0056203D01*
X0167146Y0056243D01*
X0167162Y0056282D01*
X0167182Y0056320D01*
X0167204Y0056355D01*
X0167230Y0056388D01*
X0167258Y0056420D01*
X0167290Y0056448D01*
X0167323Y0056474D01*
X0167359Y0056496D01*
X0167396Y0056516D01*
X0167435Y0056532D01*
X0167475Y0056545D01*
X0167516Y0056554D01*
X0167558Y0056559D01*
X0167600Y0056561D01*
X0167117Y0053857D02*
X0169050Y0053857D01*
X0169050Y0053051D01*
X0169048Y0053009D01*
X0169043Y0052967D01*
X0169034Y0052926D01*
X0169021Y0052886D01*
X0169005Y0052847D01*
X0168985Y0052810D01*
X0168963Y0052774D01*
X0168937Y0052741D01*
X0168909Y0052709D01*
X0168877Y0052681D01*
X0168844Y0052655D01*
X0168809Y0052633D01*
X0168771Y0052613D01*
X0168732Y0052597D01*
X0168692Y0052584D01*
X0168651Y0052575D01*
X0168609Y0052570D01*
X0168567Y0052568D01*
X0167117Y0052568D01*
X0167117Y0051398D02*
X0168083Y0050109D01*
X0167681Y0050673D02*
X0169050Y0051398D01*
X0169050Y0050109D02*
X0166150Y0050109D01*
X0167600Y0048657D02*
X0169050Y0048657D01*
X0169050Y0047932D01*
X0169048Y0047885D01*
X0169042Y0047839D01*
X0169033Y0047794D01*
X0169019Y0047749D01*
X0169002Y0047705D01*
X0168982Y0047664D01*
X0168958Y0047624D01*
X0168931Y0047586D01*
X0168901Y0047550D01*
X0168868Y0047517D01*
X0168832Y0047487D01*
X0168794Y0047460D01*
X0168754Y0047436D01*
X0168713Y0047416D01*
X0168669Y0047399D01*
X0168624Y0047385D01*
X0168579Y0047376D01*
X0168533Y0047370D01*
X0168486Y0047368D01*
X0168439Y0047370D01*
X0168393Y0047376D01*
X0168348Y0047385D01*
X0168303Y0047399D01*
X0168259Y0047416D01*
X0168218Y0047436D01*
X0168178Y0047460D01*
X0168140Y0047487D01*
X0168104Y0047517D01*
X0168071Y0047550D01*
X0168041Y0047586D01*
X0168014Y0047624D01*
X0167990Y0047664D01*
X0167970Y0047705D01*
X0167953Y0047749D01*
X0167939Y0047794D01*
X0167930Y0047839D01*
X0167924Y0047885D01*
X0167922Y0047932D01*
X0167922Y0048657D01*
X0167600Y0048657D02*
X0167558Y0048655D01*
X0167516Y0048650D01*
X0167475Y0048641D01*
X0167435Y0048628D01*
X0167396Y0048612D01*
X0167359Y0048592D01*
X0167323Y0048570D01*
X0167290Y0048544D01*
X0167258Y0048516D01*
X0167230Y0048484D01*
X0167204Y0048451D01*
X0167182Y0048416D01*
X0167162Y0048378D01*
X0167146Y0048339D01*
X0167133Y0048299D01*
X0167124Y0048258D01*
X0167119Y0048216D01*
X0167117Y0048174D01*
X0167117Y0047529D01*
X0167117Y0046151D02*
X0169533Y0046151D01*
X0169533Y0046150D02*
X0169575Y0046148D01*
X0169617Y0046143D01*
X0169658Y0046134D01*
X0169698Y0046121D01*
X0169737Y0046105D01*
X0169775Y0046085D01*
X0169810Y0046063D01*
X0169843Y0046037D01*
X0169875Y0046009D01*
X0169903Y0045977D01*
X0169929Y0045944D01*
X0169951Y0045909D01*
X0169971Y0045871D01*
X0169987Y0045832D01*
X0170000Y0045792D01*
X0170009Y0045751D01*
X0170014Y0045709D01*
X0170016Y0045667D01*
X0170017Y0045667D02*
X0170017Y0045506D01*
X0169050Y0045133D02*
X0169050Y0044972D01*
X0168889Y0044972D01*
X0168889Y0045133D01*
X0169050Y0045133D01*
X0169050Y0043715D02*
X0167600Y0043715D01*
X0167558Y0043713D01*
X0167516Y0043708D01*
X0167475Y0043699D01*
X0167435Y0043686D01*
X0167396Y0043670D01*
X0167359Y0043650D01*
X0167323Y0043628D01*
X0167290Y0043602D01*
X0167258Y0043574D01*
X0167230Y0043542D01*
X0167204Y0043509D01*
X0167182Y0043474D01*
X0167162Y0043436D01*
X0167146Y0043397D01*
X0167133Y0043357D01*
X0167124Y0043316D01*
X0167119Y0043274D01*
X0167117Y0043232D01*
X0167117Y0041782D01*
X0169050Y0041782D01*
X0169050Y0042749D02*
X0167117Y0042749D01*
X0166311Y0046070D02*
X0166311Y0046231D01*
X0166150Y0046231D01*
X0166150Y0046070D01*
X0166311Y0046070D01*
X0168889Y0040525D02*
X0169050Y0040525D01*
X0169050Y0040364D01*
X0168889Y0040364D01*
X0168889Y0040525D01*
X0169533Y0039239D02*
X0167117Y0039239D01*
X0166311Y0039319D02*
X0166311Y0039158D01*
X0166150Y0039158D01*
X0166150Y0039319D01*
X0166311Y0039319D01*
X0167600Y0038001D02*
X0169050Y0038001D01*
X0169050Y0037276D01*
X0169048Y0037229D01*
X0169042Y0037183D01*
X0169033Y0037138D01*
X0169019Y0037093D01*
X0169002Y0037049D01*
X0168982Y0037008D01*
X0168958Y0036968D01*
X0168931Y0036930D01*
X0168901Y0036894D01*
X0168868Y0036861D01*
X0168832Y0036831D01*
X0168794Y0036804D01*
X0168754Y0036780D01*
X0168713Y0036760D01*
X0168669Y0036743D01*
X0168624Y0036729D01*
X0168579Y0036720D01*
X0168533Y0036714D01*
X0168486Y0036712D01*
X0168439Y0036714D01*
X0168393Y0036720D01*
X0168348Y0036729D01*
X0168303Y0036743D01*
X0168259Y0036760D01*
X0168218Y0036780D01*
X0168178Y0036804D01*
X0168140Y0036831D01*
X0168104Y0036861D01*
X0168071Y0036894D01*
X0168041Y0036930D01*
X0168014Y0036968D01*
X0167990Y0037008D01*
X0167970Y0037049D01*
X0167953Y0037093D01*
X0167939Y0037138D01*
X0167930Y0037183D01*
X0167924Y0037229D01*
X0167922Y0037276D01*
X0167922Y0038001D01*
X0167600Y0038001D02*
X0167558Y0037999D01*
X0167516Y0037994D01*
X0167475Y0037985D01*
X0167435Y0037972D01*
X0167396Y0037956D01*
X0167359Y0037936D01*
X0167323Y0037914D01*
X0167290Y0037888D01*
X0167258Y0037860D01*
X0167230Y0037828D01*
X0167204Y0037795D01*
X0167182Y0037760D01*
X0167162Y0037722D01*
X0167146Y0037683D01*
X0167133Y0037643D01*
X0167124Y0037602D01*
X0167119Y0037560D01*
X0167117Y0037518D01*
X0167117Y0036873D01*
X0168567Y0035225D02*
X0168609Y0035227D01*
X0168651Y0035232D01*
X0168692Y0035241D01*
X0168732Y0035254D01*
X0168771Y0035270D01*
X0168809Y0035290D01*
X0168844Y0035312D01*
X0168877Y0035338D01*
X0168909Y0035366D01*
X0168937Y0035398D01*
X0168963Y0035431D01*
X0168985Y0035467D01*
X0169005Y0035504D01*
X0169021Y0035543D01*
X0169034Y0035583D01*
X0169043Y0035624D01*
X0169048Y0035666D01*
X0169050Y0035708D01*
X0168567Y0035225D02*
X0166150Y0035225D01*
X0167761Y0033985D02*
X0168406Y0033985D01*
X0168455Y0033983D01*
X0168504Y0033977D01*
X0168553Y0033968D01*
X0168600Y0033955D01*
X0168647Y0033938D01*
X0168692Y0033918D01*
X0168735Y0033895D01*
X0168777Y0033868D01*
X0168816Y0033838D01*
X0168853Y0033805D01*
X0168887Y0033769D01*
X0168918Y0033731D01*
X0168947Y0033691D01*
X0168972Y0033649D01*
X0168994Y0033604D01*
X0169012Y0033559D01*
X0169027Y0033512D01*
X0169038Y0033464D01*
X0169046Y0033415D01*
X0169050Y0033366D01*
X0169050Y0033316D01*
X0169046Y0033267D01*
X0169038Y0033218D01*
X0169027Y0033170D01*
X0169012Y0033123D01*
X0168994Y0033078D01*
X0168972Y0033033D01*
X0168947Y0032991D01*
X0168918Y0032951D01*
X0168887Y0032913D01*
X0168853Y0032877D01*
X0168816Y0032844D01*
X0168777Y0032814D01*
X0168735Y0032787D01*
X0168692Y0032764D01*
X0168647Y0032744D01*
X0168600Y0032727D01*
X0168553Y0032714D01*
X0168504Y0032705D01*
X0168455Y0032699D01*
X0168406Y0032697D01*
X0168406Y0032696D02*
X0167761Y0032696D01*
X0167761Y0032697D02*
X0167712Y0032699D01*
X0167663Y0032705D01*
X0167614Y0032714D01*
X0167567Y0032727D01*
X0167520Y0032744D01*
X0167475Y0032764D01*
X0167432Y0032787D01*
X0167390Y0032814D01*
X0167351Y0032844D01*
X0167314Y0032877D01*
X0167280Y0032913D01*
X0167249Y0032951D01*
X0167220Y0032991D01*
X0167195Y0033033D01*
X0167173Y0033078D01*
X0167155Y0033123D01*
X0167140Y0033170D01*
X0167129Y0033218D01*
X0167121Y0033267D01*
X0167117Y0033316D01*
X0167117Y0033366D01*
X0167121Y0033415D01*
X0167129Y0033464D01*
X0167140Y0033512D01*
X0167155Y0033559D01*
X0167173Y0033604D01*
X0167195Y0033649D01*
X0167220Y0033691D01*
X0167249Y0033731D01*
X0167280Y0033769D01*
X0167314Y0033805D01*
X0167351Y0033838D01*
X0167390Y0033868D01*
X0167432Y0033895D01*
X0167475Y0033918D01*
X0167520Y0033938D01*
X0167567Y0033955D01*
X0167614Y0033968D01*
X0167663Y0033977D01*
X0167712Y0033983D01*
X0167761Y0033985D01*
X0167117Y0031622D02*
X0168083Y0030333D01*
X0167681Y0030897D02*
X0169050Y0031622D01*
X0169050Y0030333D02*
X0166150Y0030333D01*
X0166150Y0029101D02*
X0166311Y0029101D01*
X0166311Y0028940D01*
X0166150Y0028940D01*
X0166150Y0029101D01*
X0167117Y0029021D02*
X0169050Y0029021D01*
X0169050Y0027683D02*
X0167600Y0027683D01*
X0167558Y0027681D01*
X0167516Y0027676D01*
X0167475Y0027667D01*
X0167435Y0027654D01*
X0167396Y0027638D01*
X0167359Y0027618D01*
X0167323Y0027596D01*
X0167290Y0027570D01*
X0167258Y0027542D01*
X0167230Y0027510D01*
X0167204Y0027477D01*
X0167182Y0027442D01*
X0167162Y0027404D01*
X0167146Y0027365D01*
X0167133Y0027325D01*
X0167124Y0027284D01*
X0167119Y0027242D01*
X0167117Y0027200D01*
X0167117Y0025750D01*
X0169050Y0025750D01*
X0169050Y0026717D02*
X0167117Y0026717D01*
X0170017Y0038594D02*
X0170017Y0038755D01*
X0170016Y0038755D02*
X0170014Y0038797D01*
X0170009Y0038839D01*
X0170000Y0038880D01*
X0169987Y0038920D01*
X0169971Y0038959D01*
X0169951Y0038997D01*
X0169929Y0039032D01*
X0169903Y0039065D01*
X0169875Y0039097D01*
X0169843Y0039125D01*
X0169810Y0039151D01*
X0169775Y0039173D01*
X0169737Y0039193D01*
X0169698Y0039209D01*
X0169658Y0039222D01*
X0169617Y0039231D01*
X0169575Y0039236D01*
X0169533Y0039238D01*
X0167116Y0063723D02*
X0167119Y0063806D01*
X0167126Y0063889D01*
X0167137Y0063971D01*
X0167151Y0064053D01*
X0167169Y0064134D01*
X0167191Y0064215D01*
X0167216Y0064294D01*
X0167245Y0064372D01*
X0167277Y0064448D01*
X0168083Y0065949D02*
X0167117Y0067238D01*
X0167681Y0066513D02*
X0169050Y0067238D01*
X0169050Y0068284D02*
X0167117Y0068284D01*
X0166311Y0068204D02*
X0166311Y0068365D01*
X0166150Y0068365D01*
X0166150Y0068204D01*
X0166311Y0068204D01*
X0166956Y0069684D02*
X0168325Y0069684D01*
X0168083Y0070489D02*
X0167117Y0070489D01*
X0167075Y0070491D01*
X0167033Y0070496D01*
X0166992Y0070505D01*
X0166952Y0070518D01*
X0166913Y0070534D01*
X0166876Y0070554D01*
X0166840Y0070576D01*
X0166807Y0070602D01*
X0166775Y0070630D01*
X0166747Y0070662D01*
X0166721Y0070695D01*
X0166699Y0070731D01*
X0166679Y0070768D01*
X0166663Y0070807D01*
X0166650Y0070847D01*
X0166641Y0070888D01*
X0166636Y0070930D01*
X0166634Y0070972D01*
X0166633Y0070972D02*
X0166633Y0071456D01*
X0168164Y0071456D01*
X0168202Y0071458D01*
X0168240Y0071463D01*
X0168278Y0071472D01*
X0168314Y0071485D01*
X0168349Y0071501D01*
X0168382Y0071520D01*
X0168413Y0071542D01*
X0168442Y0071567D01*
X0168469Y0071595D01*
X0168492Y0071625D01*
X0168513Y0071658D01*
X0168531Y0071692D01*
X0168545Y0071727D01*
X0168556Y0071764D01*
X0168563Y0071802D01*
X0168567Y0071840D01*
X0168567Y0071878D01*
X0168563Y0071916D01*
X0168556Y0071954D01*
X0168545Y0071991D01*
X0168531Y0072026D01*
X0168513Y0072061D01*
X0168492Y0072093D01*
X0168469Y0072123D01*
X0168442Y0072151D01*
X0168413Y0072176D01*
X0168382Y0072198D01*
X0168349Y0072217D01*
X0168314Y0072233D01*
X0168278Y0072246D01*
X0168240Y0072255D01*
X0168202Y0072260D01*
X0168164Y0072262D01*
X0168164Y0072261D02*
X0166956Y0072261D01*
X0166885Y0072259D01*
X0166814Y0072253D01*
X0166744Y0072243D01*
X0166674Y0072230D01*
X0166605Y0072212D01*
X0166537Y0072191D01*
X0166471Y0072166D01*
X0166406Y0072138D01*
X0166343Y0072106D01*
X0166281Y0072070D01*
X0166222Y0072031D01*
X0166164Y0071989D01*
X0166109Y0071944D01*
X0166057Y0071896D01*
X0166008Y0071845D01*
X0165961Y0071791D01*
X0165917Y0071735D01*
X0165877Y0071677D01*
X0165840Y0071617D01*
X0165806Y0071554D01*
X0165776Y0071490D01*
X0165749Y0071424D01*
X0165726Y0071357D01*
X0165706Y0071288D01*
X0165691Y0071219D01*
X0165679Y0071149D01*
X0165671Y0071078D01*
X0165667Y0071008D01*
X0165667Y0070936D01*
X0165671Y0070866D01*
X0165679Y0070795D01*
X0165691Y0070725D01*
X0165706Y0070656D01*
X0165726Y0070587D01*
X0165749Y0070520D01*
X0165776Y0070454D01*
X0165806Y0070390D01*
X0165840Y0070328D01*
X0165877Y0070267D01*
X0165917Y0070209D01*
X0165961Y0070153D01*
X0166008Y0070099D01*
X0166057Y0070048D01*
X0166109Y0070000D01*
X0166164Y0069955D01*
X0166222Y0069913D01*
X0166281Y0069874D01*
X0166343Y0069838D01*
X0166406Y0069806D01*
X0166471Y0069778D01*
X0166537Y0069753D01*
X0166605Y0069732D01*
X0166674Y0069714D01*
X0166744Y0069701D01*
X0166814Y0069691D01*
X0166885Y0069685D01*
X0166956Y0069683D01*
X0168083Y0070489D02*
X0168125Y0070491D01*
X0168167Y0070496D01*
X0168208Y0070505D01*
X0168248Y0070518D01*
X0168287Y0070534D01*
X0168325Y0070554D01*
X0168360Y0070576D01*
X0168393Y0070602D01*
X0168425Y0070630D01*
X0168453Y0070662D01*
X0168479Y0070695D01*
X0168501Y0070731D01*
X0168521Y0070768D01*
X0168537Y0070807D01*
X0168550Y0070847D01*
X0168559Y0070888D01*
X0168564Y0070930D01*
X0168566Y0070972D01*
X0168564Y0071014D01*
X0168559Y0071056D01*
X0168550Y0071097D01*
X0168537Y0071137D01*
X0168521Y0071176D01*
X0168501Y0071214D01*
X0168479Y0071249D01*
X0168453Y0071282D01*
X0168425Y0071314D01*
X0168393Y0071342D01*
X0168360Y0071368D01*
X0168325Y0071390D01*
X0168287Y0071410D01*
X0168248Y0071426D01*
X0168208Y0071439D01*
X0168167Y0071448D01*
X0168125Y0071453D01*
X0168083Y0071455D01*
X0169533Y0070812D02*
X0169527Y0070745D01*
X0169516Y0070678D01*
X0169502Y0070612D01*
X0169485Y0070547D01*
X0169464Y0070483D01*
X0169439Y0070420D01*
X0169411Y0070359D01*
X0169380Y0070300D01*
X0169345Y0070242D01*
X0169307Y0070186D01*
X0169266Y0070133D01*
X0169222Y0070082D01*
X0169176Y0070033D01*
X0169126Y0069987D01*
X0169075Y0069944D01*
X0169021Y0069904D01*
X0168964Y0069867D01*
X0168906Y0069833D01*
X0168846Y0069802D01*
X0168785Y0069775D01*
X0168722Y0069751D01*
X0168657Y0069731D01*
X0168592Y0069714D01*
X0168526Y0069701D01*
X0168459Y0069691D01*
X0168392Y0069686D01*
X0168325Y0069684D01*
X0169050Y0065949D02*
X0166150Y0065949D01*
X0167600Y0073672D02*
X0168567Y0073672D01*
X0168609Y0073674D01*
X0168651Y0073679D01*
X0168692Y0073688D01*
X0168732Y0073701D01*
X0168771Y0073717D01*
X0168809Y0073737D01*
X0168844Y0073759D01*
X0168877Y0073785D01*
X0168909Y0073813D01*
X0168937Y0073845D01*
X0168963Y0073878D01*
X0168985Y0073914D01*
X0169005Y0073951D01*
X0169021Y0073990D01*
X0169034Y0074030D01*
X0169043Y0074071D01*
X0169048Y0074113D01*
X0169050Y0074155D01*
X0169050Y0074961D01*
X0169533Y0074961D02*
X0167117Y0074961D01*
X0167117Y0074155D01*
X0167119Y0074113D01*
X0167124Y0074071D01*
X0167133Y0074030D01*
X0167146Y0073990D01*
X0167162Y0073951D01*
X0167182Y0073914D01*
X0167204Y0073878D01*
X0167230Y0073845D01*
X0167258Y0073813D01*
X0167290Y0073785D01*
X0167323Y0073759D01*
X0167359Y0073737D01*
X0167396Y0073717D01*
X0167435Y0073701D01*
X0167475Y0073688D01*
X0167516Y0073679D01*
X0167558Y0073674D01*
X0167600Y0073672D01*
X0169533Y0074960D02*
X0169575Y0074958D01*
X0169617Y0074953D01*
X0169658Y0074944D01*
X0169698Y0074931D01*
X0169737Y0074915D01*
X0169775Y0074895D01*
X0169810Y0074873D01*
X0169843Y0074847D01*
X0169875Y0074819D01*
X0169903Y0074787D01*
X0169929Y0074754D01*
X0169951Y0074719D01*
X0169971Y0074681D01*
X0169987Y0074642D01*
X0170000Y0074602D01*
X0170009Y0074561D01*
X0170014Y0074519D01*
X0170016Y0074477D01*
X0170017Y0074477D02*
X0170017Y0073833D01*
X0169050Y0076438D02*
X0167117Y0076438D01*
X0167117Y0077888D01*
X0167119Y0077930D01*
X0167124Y0077972D01*
X0167133Y0078013D01*
X0167146Y0078053D01*
X0167162Y0078092D01*
X0167182Y0078130D01*
X0167204Y0078165D01*
X0167230Y0078198D01*
X0167258Y0078230D01*
X0167290Y0078258D01*
X0167323Y0078284D01*
X0167359Y0078306D01*
X0167396Y0078326D01*
X0167435Y0078342D01*
X0167475Y0078355D01*
X0167516Y0078364D01*
X0167558Y0078369D01*
X0167600Y0078371D01*
X0169050Y0078371D01*
X0169050Y0077404D02*
X0167117Y0077404D01*
X0167117Y0079881D02*
X0167117Y0080525D01*
X0167119Y0080567D01*
X0167124Y0080609D01*
X0167133Y0080650D01*
X0167146Y0080690D01*
X0167162Y0080729D01*
X0167182Y0080767D01*
X0167204Y0080802D01*
X0167230Y0080835D01*
X0167258Y0080867D01*
X0167290Y0080895D01*
X0167323Y0080921D01*
X0167359Y0080943D01*
X0167396Y0080963D01*
X0167435Y0080979D01*
X0167475Y0080992D01*
X0167516Y0081001D01*
X0167558Y0081006D01*
X0167600Y0081008D01*
X0167600Y0081009D02*
X0169050Y0081009D01*
X0169050Y0080284D01*
X0169048Y0080237D01*
X0169042Y0080191D01*
X0169033Y0080146D01*
X0169019Y0080101D01*
X0169002Y0080057D01*
X0168982Y0080016D01*
X0168958Y0079976D01*
X0168931Y0079938D01*
X0168901Y0079902D01*
X0168868Y0079869D01*
X0168832Y0079839D01*
X0168794Y0079812D01*
X0168754Y0079788D01*
X0168713Y0079768D01*
X0168669Y0079751D01*
X0168624Y0079737D01*
X0168579Y0079728D01*
X0168533Y0079722D01*
X0168486Y0079720D01*
X0168439Y0079722D01*
X0168393Y0079728D01*
X0168348Y0079737D01*
X0168303Y0079751D01*
X0168259Y0079768D01*
X0168218Y0079788D01*
X0168178Y0079812D01*
X0168140Y0079839D01*
X0168104Y0079869D01*
X0168071Y0079902D01*
X0168041Y0079938D01*
X0168014Y0079976D01*
X0167990Y0080016D01*
X0167970Y0080057D01*
X0167953Y0080101D01*
X0167939Y0080146D01*
X0167930Y0080191D01*
X0167924Y0080237D01*
X0167922Y0080284D01*
X0167922Y0081009D01*
X0167117Y0082300D02*
X0169050Y0082300D01*
X0168567Y0083513D02*
X0166150Y0083513D01*
X0166150Y0082381D02*
X0166311Y0082381D01*
X0166311Y0082220D01*
X0166150Y0082220D01*
X0166150Y0082381D01*
X0168567Y0083513D02*
X0168609Y0083515D01*
X0168651Y0083520D01*
X0168692Y0083529D01*
X0168732Y0083542D01*
X0168771Y0083558D01*
X0168809Y0083578D01*
X0168844Y0083600D01*
X0168877Y0083626D01*
X0168909Y0083654D01*
X0168937Y0083686D01*
X0168963Y0083719D01*
X0168985Y0083755D01*
X0169005Y0083792D01*
X0169021Y0083831D01*
X0169034Y0083871D01*
X0169043Y0083912D01*
X0169048Y0083954D01*
X0169050Y0083996D01*
X0169050Y0084908D02*
X0169050Y0085069D01*
X0168889Y0085069D01*
X0168889Y0084908D01*
X0169050Y0084908D01*
X0168567Y0086172D02*
X0167600Y0086172D01*
X0167558Y0086174D01*
X0167516Y0086179D01*
X0167475Y0086188D01*
X0167435Y0086201D01*
X0167396Y0086217D01*
X0167359Y0086237D01*
X0167323Y0086259D01*
X0167290Y0086285D01*
X0167258Y0086313D01*
X0167230Y0086345D01*
X0167204Y0086378D01*
X0167182Y0086414D01*
X0167162Y0086451D01*
X0167146Y0086490D01*
X0167133Y0086530D01*
X0167124Y0086571D01*
X0167119Y0086613D01*
X0167117Y0086655D01*
X0167117Y0087299D01*
X0167761Y0088376D02*
X0168406Y0088376D01*
X0168455Y0088378D01*
X0168504Y0088384D01*
X0168553Y0088393D01*
X0168600Y0088406D01*
X0168647Y0088423D01*
X0168692Y0088443D01*
X0168735Y0088466D01*
X0168777Y0088493D01*
X0168816Y0088523D01*
X0168853Y0088556D01*
X0168887Y0088592D01*
X0168918Y0088630D01*
X0168947Y0088670D01*
X0168972Y0088712D01*
X0168994Y0088757D01*
X0169012Y0088802D01*
X0169027Y0088849D01*
X0169038Y0088897D01*
X0169046Y0088946D01*
X0169050Y0088995D01*
X0169050Y0089045D01*
X0169046Y0089094D01*
X0169038Y0089143D01*
X0169027Y0089191D01*
X0169012Y0089238D01*
X0168994Y0089283D01*
X0168972Y0089328D01*
X0168947Y0089370D01*
X0168918Y0089410D01*
X0168887Y0089448D01*
X0168853Y0089484D01*
X0168816Y0089517D01*
X0168777Y0089547D01*
X0168735Y0089574D01*
X0168692Y0089597D01*
X0168647Y0089617D01*
X0168600Y0089634D01*
X0168553Y0089647D01*
X0168504Y0089656D01*
X0168455Y0089662D01*
X0168406Y0089664D01*
X0168406Y0089665D02*
X0167761Y0089665D01*
X0167761Y0089664D02*
X0167712Y0089662D01*
X0167663Y0089656D01*
X0167614Y0089647D01*
X0167567Y0089634D01*
X0167520Y0089617D01*
X0167475Y0089597D01*
X0167432Y0089574D01*
X0167390Y0089547D01*
X0167351Y0089517D01*
X0167314Y0089484D01*
X0167280Y0089448D01*
X0167249Y0089410D01*
X0167220Y0089370D01*
X0167195Y0089328D01*
X0167173Y0089283D01*
X0167155Y0089238D01*
X0167140Y0089191D01*
X0167129Y0089143D01*
X0167121Y0089094D01*
X0167117Y0089045D01*
X0167117Y0088995D01*
X0167121Y0088946D01*
X0167129Y0088897D01*
X0167140Y0088849D01*
X0167155Y0088802D01*
X0167173Y0088757D01*
X0167195Y0088712D01*
X0167220Y0088670D01*
X0167249Y0088630D01*
X0167280Y0088592D01*
X0167314Y0088556D01*
X0167351Y0088523D01*
X0167390Y0088493D01*
X0167432Y0088466D01*
X0167475Y0088443D01*
X0167520Y0088423D01*
X0167567Y0088406D01*
X0167614Y0088393D01*
X0167663Y0088384D01*
X0167712Y0088378D01*
X0167761Y0088376D01*
X0169050Y0087299D02*
X0169050Y0086655D01*
X0169048Y0086613D01*
X0169043Y0086571D01*
X0169034Y0086530D01*
X0169021Y0086490D01*
X0169005Y0086451D01*
X0168985Y0086414D01*
X0168963Y0086378D01*
X0168937Y0086345D01*
X0168909Y0086313D01*
X0168877Y0086285D01*
X0168844Y0086259D01*
X0168809Y0086237D01*
X0168771Y0086217D01*
X0168732Y0086201D01*
X0168692Y0086188D01*
X0168651Y0086179D01*
X0168609Y0086174D01*
X0168567Y0086172D01*
X0169050Y0091030D02*
X0167117Y0091030D01*
X0167117Y0092480D01*
X0167119Y0092522D01*
X0167124Y0092564D01*
X0167133Y0092605D01*
X0167146Y0092645D01*
X0167162Y0092684D01*
X0167182Y0092722D01*
X0167204Y0092757D01*
X0167230Y0092790D01*
X0167258Y0092822D01*
X0167290Y0092850D01*
X0167323Y0092876D01*
X0167359Y0092898D01*
X0167396Y0092918D01*
X0167435Y0092934D01*
X0167475Y0092947D01*
X0167516Y0092956D01*
X0167558Y0092961D01*
X0167600Y0092963D01*
X0169050Y0092963D01*
X0169050Y0091996D02*
X0167117Y0091996D01*
X0130634Y0133550D02*
X0129023Y0133550D01*
X0130393Y0135161D01*
X0129909Y0136450D02*
X0129850Y0136448D01*
X0129792Y0136443D01*
X0129734Y0136433D01*
X0129677Y0136421D01*
X0129621Y0136404D01*
X0129566Y0136385D01*
X0129512Y0136361D01*
X0129460Y0136335D01*
X0129410Y0136305D01*
X0129361Y0136272D01*
X0129315Y0136236D01*
X0129271Y0136197D01*
X0129230Y0136156D01*
X0129191Y0136112D01*
X0129155Y0136066D01*
X0129123Y0136017D01*
X0129093Y0135967D01*
X0129066Y0135915D01*
X0129043Y0135861D01*
X0129023Y0135806D01*
X0130392Y0135161D02*
X0130429Y0135198D01*
X0130463Y0135238D01*
X0130495Y0135280D01*
X0130523Y0135325D01*
X0130549Y0135371D01*
X0130571Y0135418D01*
X0130590Y0135467D01*
X0130606Y0135517D01*
X0130618Y0135568D01*
X0130627Y0135620D01*
X0130632Y0135672D01*
X0130634Y0135725D01*
X0130632Y0135777D01*
X0130627Y0135828D01*
X0130617Y0135879D01*
X0130605Y0135929D01*
X0130588Y0135978D01*
X0130568Y0136026D01*
X0130545Y0136072D01*
X0130519Y0136117D01*
X0130489Y0136159D01*
X0130457Y0136200D01*
X0130422Y0136238D01*
X0130384Y0136273D01*
X0130343Y0136305D01*
X0130301Y0136335D01*
X0130256Y0136361D01*
X0130210Y0136384D01*
X0130162Y0136404D01*
X0130113Y0136421D01*
X0130063Y0136433D01*
X0130012Y0136443D01*
X0129961Y0136448D01*
X0129909Y0136450D01*
X0127881Y0133228D02*
X0126592Y0133228D01*
X0125450Y0134194D02*
X0125450Y0134517D01*
X0125448Y0134565D01*
X0125443Y0134613D01*
X0125434Y0134660D01*
X0125421Y0134707D01*
X0125405Y0134752D01*
X0125386Y0134796D01*
X0125364Y0134839D01*
X0125338Y0134880D01*
X0125309Y0134919D01*
X0125278Y0134955D01*
X0125244Y0134989D01*
X0125208Y0135020D01*
X0125169Y0135049D01*
X0125128Y0135075D01*
X0125085Y0135097D01*
X0125041Y0135116D01*
X0124996Y0135132D01*
X0124949Y0135145D01*
X0124902Y0135154D01*
X0124854Y0135159D01*
X0124806Y0135161D01*
X0123839Y0135161D01*
X0123839Y0136450D01*
X0125450Y0136450D01*
X0125450Y0134194D02*
X0125448Y0134146D01*
X0125443Y0134098D01*
X0125434Y0134051D01*
X0125421Y0134004D01*
X0125405Y0133959D01*
X0125386Y0133915D01*
X0125364Y0133872D01*
X0125338Y0133831D01*
X0125309Y0133792D01*
X0125278Y0133756D01*
X0125244Y0133722D01*
X0125208Y0133691D01*
X0125169Y0133662D01*
X0125128Y0133636D01*
X0125085Y0133614D01*
X0125041Y0133595D01*
X0124996Y0133579D01*
X0124949Y0133566D01*
X0124902Y0133557D01*
X0124854Y0133552D01*
X0124806Y0133550D01*
X0123839Y0133550D01*
X0122570Y0133550D02*
X0120959Y0133550D01*
X0121765Y0133550D02*
X0121765Y0136450D01*
X0120959Y0135806D01*
X0119839Y0136450D02*
X0119194Y0136450D01*
X0119143Y0136448D01*
X0119093Y0136442D01*
X0119044Y0136432D01*
X0118995Y0136418D01*
X0118948Y0136401D01*
X0118902Y0136380D01*
X0118858Y0136355D01*
X0118815Y0136327D01*
X0118776Y0136296D01*
X0118739Y0136261D01*
X0118704Y0136224D01*
X0118673Y0136185D01*
X0118645Y0136142D01*
X0118620Y0136098D01*
X0118599Y0136052D01*
X0118582Y0136005D01*
X0118568Y0135956D01*
X0118558Y0135907D01*
X0118552Y0135857D01*
X0118550Y0135806D01*
X0118550Y0134194D01*
X0118552Y0134146D01*
X0118557Y0134098D01*
X0118566Y0134051D01*
X0118579Y0134004D01*
X0118595Y0133959D01*
X0118614Y0133915D01*
X0118636Y0133872D01*
X0118662Y0133831D01*
X0118691Y0133792D01*
X0118722Y0133756D01*
X0118756Y0133722D01*
X0118792Y0133691D01*
X0118831Y0133662D01*
X0118872Y0133636D01*
X0118915Y0133614D01*
X0118959Y0133595D01*
X0119004Y0133579D01*
X0119051Y0133566D01*
X0119098Y0133557D01*
X0119146Y0133552D01*
X0119194Y0133550D01*
X0119839Y0133550D01*
X0113450Y0134194D02*
X0113450Y0134517D01*
X0113448Y0134565D01*
X0113443Y0134613D01*
X0113434Y0134660D01*
X0113421Y0134707D01*
X0113405Y0134752D01*
X0113386Y0134796D01*
X0113364Y0134839D01*
X0113338Y0134880D01*
X0113309Y0134919D01*
X0113278Y0134955D01*
X0113244Y0134989D01*
X0113208Y0135020D01*
X0113169Y0135049D01*
X0113128Y0135075D01*
X0113085Y0135097D01*
X0113041Y0135116D01*
X0112996Y0135132D01*
X0112949Y0135145D01*
X0112902Y0135154D01*
X0112854Y0135159D01*
X0112806Y0135161D01*
X0111839Y0135161D01*
X0111839Y0136450D01*
X0113450Y0136450D01*
X0113450Y0134194D02*
X0113448Y0134146D01*
X0113443Y0134098D01*
X0113434Y0134051D01*
X0113421Y0134004D01*
X0113405Y0133959D01*
X0113386Y0133915D01*
X0113364Y0133872D01*
X0113338Y0133831D01*
X0113309Y0133792D01*
X0113278Y0133756D01*
X0113244Y0133722D01*
X0113208Y0133691D01*
X0113169Y0133662D01*
X0113128Y0133636D01*
X0113085Y0133614D01*
X0113041Y0133595D01*
X0112996Y0133579D01*
X0112949Y0133566D01*
X0112902Y0133557D01*
X0112854Y0133552D01*
X0112806Y0133550D01*
X0111839Y0133550D01*
X0110570Y0133550D02*
X0108959Y0133550D01*
X0109765Y0133550D02*
X0109765Y0136450D01*
X0108959Y0135806D01*
X0107839Y0136450D02*
X0107194Y0136450D01*
X0107143Y0136448D01*
X0107093Y0136442D01*
X0107044Y0136432D01*
X0106995Y0136418D01*
X0106948Y0136401D01*
X0106902Y0136380D01*
X0106858Y0136355D01*
X0106815Y0136327D01*
X0106776Y0136296D01*
X0106739Y0136261D01*
X0106704Y0136224D01*
X0106673Y0136185D01*
X0106645Y0136142D01*
X0106620Y0136098D01*
X0106599Y0136052D01*
X0106582Y0136005D01*
X0106568Y0135956D01*
X0106558Y0135907D01*
X0106552Y0135857D01*
X0106550Y0135806D01*
X0106550Y0134194D01*
X0106552Y0134146D01*
X0106557Y0134098D01*
X0106566Y0134051D01*
X0106579Y0134004D01*
X0106595Y0133959D01*
X0106614Y0133915D01*
X0106636Y0133872D01*
X0106662Y0133831D01*
X0106691Y0133792D01*
X0106722Y0133756D01*
X0106756Y0133722D01*
X0106792Y0133691D01*
X0106831Y0133662D01*
X0106872Y0133636D01*
X0106915Y0133614D01*
X0106959Y0133595D01*
X0107004Y0133579D01*
X0107051Y0133566D01*
X0107098Y0133557D01*
X0107146Y0133552D01*
X0107194Y0133550D01*
X0107839Y0133550D01*
X0107739Y0154250D02*
X0107094Y0154250D01*
X0107046Y0154252D01*
X0106998Y0154257D01*
X0106951Y0154266D01*
X0106904Y0154279D01*
X0106859Y0154295D01*
X0106815Y0154314D01*
X0106772Y0154336D01*
X0106731Y0154362D01*
X0106692Y0154391D01*
X0106656Y0154422D01*
X0106622Y0154456D01*
X0106591Y0154492D01*
X0106562Y0154531D01*
X0106536Y0154572D01*
X0106514Y0154615D01*
X0106495Y0154659D01*
X0106479Y0154704D01*
X0106466Y0154751D01*
X0106457Y0154798D01*
X0106452Y0154846D01*
X0106450Y0154894D01*
X0106450Y0156506D01*
X0106452Y0156557D01*
X0106458Y0156607D01*
X0106468Y0156656D01*
X0106482Y0156705D01*
X0106499Y0156752D01*
X0106520Y0156798D01*
X0106545Y0156842D01*
X0106573Y0156885D01*
X0106604Y0156924D01*
X0106639Y0156961D01*
X0106676Y0156996D01*
X0106715Y0157027D01*
X0106758Y0157055D01*
X0106802Y0157080D01*
X0106848Y0157101D01*
X0106895Y0157118D01*
X0106944Y0157132D01*
X0106993Y0157142D01*
X0107043Y0157148D01*
X0107094Y0157150D01*
X0107739Y0157150D01*
X0108859Y0156506D02*
X0109665Y0157150D01*
X0109665Y0154250D01*
X0110470Y0154250D02*
X0108859Y0154250D01*
X0111739Y0155056D02*
X0111739Y0155861D01*
X0112706Y0155861D01*
X0111739Y0155861D02*
X0111741Y0155931D01*
X0111747Y0156000D01*
X0111756Y0156070D01*
X0111769Y0156138D01*
X0111786Y0156206D01*
X0111806Y0156273D01*
X0111831Y0156338D01*
X0111858Y0156402D01*
X0111889Y0156465D01*
X0111924Y0156526D01*
X0111961Y0156584D01*
X0112002Y0156641D01*
X0112046Y0156695D01*
X0112092Y0156747D01*
X0112142Y0156797D01*
X0112194Y0156843D01*
X0112248Y0156887D01*
X0112305Y0156928D01*
X0112363Y0156965D01*
X0112424Y0157000D01*
X0112487Y0157031D01*
X0112551Y0157058D01*
X0112616Y0157083D01*
X0112683Y0157103D01*
X0112751Y0157120D01*
X0112819Y0157133D01*
X0112889Y0157142D01*
X0112958Y0157148D01*
X0113028Y0157150D01*
X0113350Y0155217D02*
X0113350Y0155056D01*
X0113350Y0155217D02*
X0113348Y0155265D01*
X0113343Y0155313D01*
X0113334Y0155360D01*
X0113321Y0155407D01*
X0113305Y0155452D01*
X0113286Y0155496D01*
X0113264Y0155539D01*
X0113238Y0155580D01*
X0113209Y0155619D01*
X0113178Y0155655D01*
X0113144Y0155689D01*
X0113108Y0155720D01*
X0113069Y0155749D01*
X0113028Y0155775D01*
X0112985Y0155797D01*
X0112941Y0155816D01*
X0112896Y0155832D01*
X0112849Y0155845D01*
X0112802Y0155854D01*
X0112754Y0155859D01*
X0112706Y0155861D01*
X0113351Y0155056D02*
X0113349Y0155001D01*
X0113343Y0154946D01*
X0113334Y0154892D01*
X0113321Y0154839D01*
X0113304Y0154786D01*
X0113284Y0154735D01*
X0113261Y0154685D01*
X0113234Y0154637D01*
X0113203Y0154591D01*
X0113170Y0154547D01*
X0113134Y0154506D01*
X0113095Y0154467D01*
X0113054Y0154431D01*
X0113010Y0154398D01*
X0112964Y0154367D01*
X0112916Y0154340D01*
X0112866Y0154317D01*
X0112815Y0154297D01*
X0112762Y0154280D01*
X0112709Y0154267D01*
X0112655Y0154258D01*
X0112600Y0154252D01*
X0112545Y0154250D01*
X0112490Y0154252D01*
X0112435Y0154258D01*
X0112381Y0154267D01*
X0112328Y0154280D01*
X0112275Y0154297D01*
X0112224Y0154317D01*
X0112174Y0154340D01*
X0112126Y0154367D01*
X0112080Y0154398D01*
X0112036Y0154431D01*
X0111995Y0154467D01*
X0111956Y0154506D01*
X0111920Y0154547D01*
X0111887Y0154591D01*
X0111856Y0154637D01*
X0111829Y0154685D01*
X0111806Y0154735D01*
X0111786Y0154786D01*
X0111769Y0154839D01*
X0111756Y0154892D01*
X0111747Y0154946D01*
X0111741Y0155001D01*
X0111739Y0155056D01*
X0118550Y0154894D02*
X0118550Y0156506D01*
X0118552Y0156557D01*
X0118558Y0156607D01*
X0118568Y0156656D01*
X0118582Y0156705D01*
X0118599Y0156752D01*
X0118620Y0156798D01*
X0118645Y0156842D01*
X0118673Y0156885D01*
X0118704Y0156924D01*
X0118739Y0156961D01*
X0118776Y0156996D01*
X0118815Y0157027D01*
X0118858Y0157055D01*
X0118902Y0157080D01*
X0118948Y0157101D01*
X0118995Y0157118D01*
X0119044Y0157132D01*
X0119093Y0157142D01*
X0119143Y0157148D01*
X0119194Y0157150D01*
X0119839Y0157150D01*
X0120959Y0156506D02*
X0121765Y0157150D01*
X0121765Y0154250D01*
X0122570Y0154250D02*
X0120959Y0154250D01*
X0119839Y0154250D02*
X0119194Y0154250D01*
X0119146Y0154252D01*
X0119098Y0154257D01*
X0119051Y0154266D01*
X0119004Y0154279D01*
X0118959Y0154295D01*
X0118915Y0154314D01*
X0118872Y0154336D01*
X0118831Y0154362D01*
X0118792Y0154391D01*
X0118756Y0154422D01*
X0118722Y0154456D01*
X0118691Y0154492D01*
X0118662Y0154531D01*
X0118636Y0154572D01*
X0118614Y0154615D01*
X0118595Y0154659D01*
X0118579Y0154704D01*
X0118566Y0154751D01*
X0118557Y0154798D01*
X0118552Y0154846D01*
X0118550Y0154894D01*
X0123839Y0155056D02*
X0123839Y0155861D01*
X0124806Y0155861D01*
X0123839Y0155861D02*
X0123841Y0155931D01*
X0123847Y0156000D01*
X0123856Y0156070D01*
X0123869Y0156138D01*
X0123886Y0156206D01*
X0123906Y0156273D01*
X0123931Y0156338D01*
X0123958Y0156402D01*
X0123989Y0156465D01*
X0124024Y0156526D01*
X0124061Y0156584D01*
X0124102Y0156641D01*
X0124146Y0156695D01*
X0124192Y0156747D01*
X0124242Y0156797D01*
X0124294Y0156843D01*
X0124348Y0156887D01*
X0124405Y0156928D01*
X0124463Y0156965D01*
X0124524Y0157000D01*
X0124587Y0157031D01*
X0124651Y0157058D01*
X0124716Y0157083D01*
X0124783Y0157103D01*
X0124851Y0157120D01*
X0124919Y0157133D01*
X0124989Y0157142D01*
X0125058Y0157148D01*
X0125128Y0157150D01*
X0125450Y0155217D02*
X0125450Y0155056D01*
X0125450Y0155217D02*
X0125448Y0155265D01*
X0125443Y0155313D01*
X0125434Y0155360D01*
X0125421Y0155407D01*
X0125405Y0155452D01*
X0125386Y0155496D01*
X0125364Y0155539D01*
X0125338Y0155580D01*
X0125309Y0155619D01*
X0125278Y0155655D01*
X0125244Y0155689D01*
X0125208Y0155720D01*
X0125169Y0155749D01*
X0125128Y0155775D01*
X0125085Y0155797D01*
X0125041Y0155816D01*
X0124996Y0155832D01*
X0124949Y0155845D01*
X0124902Y0155854D01*
X0124854Y0155859D01*
X0124806Y0155861D01*
X0125451Y0155056D02*
X0125449Y0155001D01*
X0125443Y0154946D01*
X0125434Y0154892D01*
X0125421Y0154839D01*
X0125404Y0154786D01*
X0125384Y0154735D01*
X0125361Y0154685D01*
X0125334Y0154637D01*
X0125303Y0154591D01*
X0125270Y0154547D01*
X0125234Y0154506D01*
X0125195Y0154467D01*
X0125154Y0154431D01*
X0125110Y0154398D01*
X0125064Y0154367D01*
X0125016Y0154340D01*
X0124966Y0154317D01*
X0124915Y0154297D01*
X0124862Y0154280D01*
X0124809Y0154267D01*
X0124755Y0154258D01*
X0124700Y0154252D01*
X0124645Y0154250D01*
X0124590Y0154252D01*
X0124535Y0154258D01*
X0124481Y0154267D01*
X0124428Y0154280D01*
X0124375Y0154297D01*
X0124324Y0154317D01*
X0124274Y0154340D01*
X0124226Y0154367D01*
X0124180Y0154398D01*
X0124136Y0154431D01*
X0124095Y0154467D01*
X0124056Y0154506D01*
X0124020Y0154547D01*
X0123987Y0154591D01*
X0123956Y0154637D01*
X0123929Y0154685D01*
X0123906Y0154735D01*
X0123886Y0154786D01*
X0123869Y0154839D01*
X0123856Y0154892D01*
X0123847Y0154946D01*
X0123841Y0155001D01*
X0123839Y0155056D01*
X0126592Y0153928D02*
X0127881Y0153928D01*
X0129023Y0154250D02*
X0130634Y0154250D01*
X0129023Y0154250D02*
X0130393Y0155861D01*
X0129909Y0157150D02*
X0129850Y0157148D01*
X0129792Y0157143D01*
X0129734Y0157133D01*
X0129677Y0157121D01*
X0129621Y0157104D01*
X0129566Y0157085D01*
X0129512Y0157061D01*
X0129460Y0157035D01*
X0129410Y0157005D01*
X0129361Y0156972D01*
X0129315Y0156936D01*
X0129271Y0156897D01*
X0129230Y0156856D01*
X0129191Y0156812D01*
X0129155Y0156766D01*
X0129123Y0156717D01*
X0129093Y0156667D01*
X0129066Y0156615D01*
X0129043Y0156561D01*
X0129023Y0156506D01*
X0130392Y0155861D02*
X0130429Y0155898D01*
X0130463Y0155938D01*
X0130495Y0155980D01*
X0130523Y0156025D01*
X0130549Y0156071D01*
X0130571Y0156118D01*
X0130590Y0156167D01*
X0130606Y0156217D01*
X0130618Y0156268D01*
X0130627Y0156320D01*
X0130632Y0156372D01*
X0130634Y0156425D01*
X0130632Y0156477D01*
X0130627Y0156528D01*
X0130617Y0156579D01*
X0130605Y0156629D01*
X0130588Y0156678D01*
X0130568Y0156726D01*
X0130545Y0156772D01*
X0130519Y0156817D01*
X0130489Y0156859D01*
X0130457Y0156900D01*
X0130422Y0156938D01*
X0130384Y0156973D01*
X0130343Y0157005D01*
X0130301Y0157035D01*
X0130256Y0157061D01*
X0130210Y0157084D01*
X0130162Y0157104D01*
X0130113Y0157121D01*
X0130063Y0157133D01*
X0130012Y0157143D01*
X0129961Y0157148D01*
X0129909Y0157150D01*
X0137050Y0164594D02*
X0137050Y0166206D01*
X0137052Y0166257D01*
X0137058Y0166307D01*
X0137068Y0166356D01*
X0137082Y0166405D01*
X0137099Y0166452D01*
X0137120Y0166498D01*
X0137145Y0166542D01*
X0137173Y0166585D01*
X0137204Y0166624D01*
X0137239Y0166661D01*
X0137276Y0166696D01*
X0137315Y0166727D01*
X0137358Y0166755D01*
X0137402Y0166780D01*
X0137448Y0166801D01*
X0137495Y0166818D01*
X0137544Y0166832D01*
X0137593Y0166842D01*
X0137643Y0166848D01*
X0137694Y0166850D01*
X0138339Y0166850D01*
X0139459Y0166206D02*
X0140265Y0166850D01*
X0140265Y0163950D01*
X0141070Y0163950D02*
X0139459Y0163950D01*
X0138339Y0163950D02*
X0137694Y0163950D01*
X0137646Y0163952D01*
X0137598Y0163957D01*
X0137551Y0163966D01*
X0137504Y0163979D01*
X0137459Y0163995D01*
X0137415Y0164014D01*
X0137372Y0164036D01*
X0137331Y0164062D01*
X0137292Y0164091D01*
X0137256Y0164122D01*
X0137222Y0164156D01*
X0137191Y0164192D01*
X0137162Y0164231D01*
X0137136Y0164272D01*
X0137114Y0164315D01*
X0137095Y0164359D01*
X0137079Y0164404D01*
X0137066Y0164451D01*
X0137057Y0164498D01*
X0137052Y0164546D01*
X0137050Y0164594D01*
X0142339Y0163950D02*
X0143950Y0163950D01*
X0142339Y0163950D02*
X0143709Y0165561D01*
X0143225Y0166850D02*
X0143166Y0166848D01*
X0143108Y0166843D01*
X0143050Y0166833D01*
X0142993Y0166821D01*
X0142937Y0166804D01*
X0142882Y0166785D01*
X0142828Y0166761D01*
X0142776Y0166735D01*
X0142726Y0166705D01*
X0142677Y0166672D01*
X0142631Y0166636D01*
X0142587Y0166597D01*
X0142546Y0166556D01*
X0142507Y0166512D01*
X0142471Y0166466D01*
X0142439Y0166417D01*
X0142409Y0166367D01*
X0142382Y0166315D01*
X0142359Y0166261D01*
X0142339Y0166206D01*
X0143708Y0165561D02*
X0143745Y0165598D01*
X0143779Y0165638D01*
X0143811Y0165680D01*
X0143839Y0165725D01*
X0143865Y0165771D01*
X0143887Y0165818D01*
X0143906Y0165867D01*
X0143922Y0165917D01*
X0143934Y0165968D01*
X0143943Y0166020D01*
X0143948Y0166072D01*
X0143950Y0166125D01*
X0143948Y0166177D01*
X0143943Y0166228D01*
X0143933Y0166279D01*
X0143921Y0166329D01*
X0143904Y0166378D01*
X0143884Y0166426D01*
X0143861Y0166472D01*
X0143835Y0166517D01*
X0143805Y0166559D01*
X0143773Y0166600D01*
X0143738Y0166638D01*
X0143700Y0166673D01*
X0143659Y0166705D01*
X0143617Y0166735D01*
X0143572Y0166761D01*
X0143526Y0166784D01*
X0143478Y0166804D01*
X0143429Y0166821D01*
X0143379Y0166833D01*
X0143328Y0166843D01*
X0143277Y0166848D01*
X0143225Y0166850D01*
X0149050Y0166206D02*
X0149050Y0164594D01*
X0149052Y0164546D01*
X0149057Y0164498D01*
X0149066Y0164451D01*
X0149079Y0164404D01*
X0149095Y0164359D01*
X0149114Y0164315D01*
X0149136Y0164272D01*
X0149162Y0164231D01*
X0149191Y0164192D01*
X0149222Y0164156D01*
X0149256Y0164122D01*
X0149292Y0164091D01*
X0149331Y0164062D01*
X0149372Y0164036D01*
X0149415Y0164014D01*
X0149459Y0163995D01*
X0149504Y0163979D01*
X0149551Y0163966D01*
X0149598Y0163957D01*
X0149646Y0163952D01*
X0149694Y0163950D01*
X0150339Y0163950D01*
X0151459Y0163950D02*
X0153070Y0163950D01*
X0152265Y0163950D02*
X0152265Y0166850D01*
X0151459Y0166206D01*
X0150339Y0166850D02*
X0149694Y0166850D01*
X0149643Y0166848D01*
X0149593Y0166842D01*
X0149544Y0166832D01*
X0149495Y0166818D01*
X0149448Y0166801D01*
X0149402Y0166780D01*
X0149358Y0166755D01*
X0149315Y0166727D01*
X0149276Y0166696D01*
X0149239Y0166661D01*
X0149204Y0166624D01*
X0149173Y0166585D01*
X0149145Y0166542D01*
X0149120Y0166498D01*
X0149099Y0166452D01*
X0149082Y0166405D01*
X0149068Y0166356D01*
X0149058Y0166307D01*
X0149052Y0166257D01*
X0149050Y0166206D01*
X0154339Y0163950D02*
X0155950Y0163950D01*
X0157092Y0163628D02*
X0158381Y0163628D01*
X0159523Y0163950D02*
X0161134Y0163950D01*
X0159523Y0163950D02*
X0160893Y0165561D01*
X0160409Y0166850D02*
X0160350Y0166848D01*
X0160292Y0166843D01*
X0160234Y0166833D01*
X0160177Y0166821D01*
X0160121Y0166804D01*
X0160066Y0166785D01*
X0160012Y0166761D01*
X0159960Y0166735D01*
X0159910Y0166705D01*
X0159861Y0166672D01*
X0159815Y0166636D01*
X0159771Y0166597D01*
X0159730Y0166556D01*
X0159691Y0166512D01*
X0159655Y0166466D01*
X0159623Y0166417D01*
X0159593Y0166367D01*
X0159566Y0166315D01*
X0159543Y0166261D01*
X0159523Y0166206D01*
X0160892Y0165561D02*
X0160929Y0165598D01*
X0160963Y0165638D01*
X0160995Y0165680D01*
X0161023Y0165725D01*
X0161049Y0165771D01*
X0161071Y0165818D01*
X0161090Y0165867D01*
X0161106Y0165917D01*
X0161118Y0165968D01*
X0161127Y0166020D01*
X0161132Y0166072D01*
X0161134Y0166125D01*
X0161132Y0166177D01*
X0161127Y0166228D01*
X0161117Y0166279D01*
X0161105Y0166329D01*
X0161088Y0166378D01*
X0161068Y0166426D01*
X0161045Y0166472D01*
X0161019Y0166517D01*
X0160989Y0166559D01*
X0160957Y0166600D01*
X0160922Y0166638D01*
X0160884Y0166673D01*
X0160843Y0166705D01*
X0160801Y0166735D01*
X0160756Y0166761D01*
X0160710Y0166784D01*
X0160662Y0166804D01*
X0160613Y0166821D01*
X0160563Y0166833D01*
X0160512Y0166843D01*
X0160461Y0166848D01*
X0160409Y0166850D01*
X0155709Y0165561D02*
X0154339Y0163950D01*
X0154339Y0166206D02*
X0154359Y0166261D01*
X0154382Y0166315D01*
X0154409Y0166367D01*
X0154439Y0166417D01*
X0154471Y0166466D01*
X0154507Y0166512D01*
X0154546Y0166556D01*
X0154587Y0166597D01*
X0154631Y0166636D01*
X0154677Y0166672D01*
X0154726Y0166705D01*
X0154776Y0166735D01*
X0154828Y0166761D01*
X0154882Y0166785D01*
X0154937Y0166804D01*
X0154993Y0166821D01*
X0155050Y0166833D01*
X0155108Y0166843D01*
X0155166Y0166848D01*
X0155225Y0166850D01*
X0155277Y0166848D01*
X0155328Y0166843D01*
X0155379Y0166833D01*
X0155429Y0166821D01*
X0155478Y0166804D01*
X0155526Y0166784D01*
X0155572Y0166761D01*
X0155617Y0166735D01*
X0155659Y0166705D01*
X0155700Y0166673D01*
X0155738Y0166638D01*
X0155773Y0166600D01*
X0155805Y0166559D01*
X0155835Y0166517D01*
X0155861Y0166472D01*
X0155884Y0166426D01*
X0155904Y0166378D01*
X0155921Y0166329D01*
X0155933Y0166279D01*
X0155943Y0166228D01*
X0155948Y0166177D01*
X0155950Y0166125D01*
X0155948Y0166072D01*
X0155943Y0166020D01*
X0155934Y0165968D01*
X0155922Y0165917D01*
X0155906Y0165867D01*
X0155887Y0165818D01*
X0155865Y0165771D01*
X0155839Y0165725D01*
X0155811Y0165680D01*
X0155779Y0165638D01*
X0155745Y0165598D01*
X0155708Y0165561D01*
X0155245Y0146850D02*
X0155245Y0143950D01*
X0156050Y0143950D02*
X0154439Y0143950D01*
X0153170Y0143950D02*
X0151559Y0143950D01*
X0152365Y0143950D02*
X0152365Y0146850D01*
X0151559Y0146206D01*
X0150439Y0146850D02*
X0149794Y0146850D01*
X0149743Y0146848D01*
X0149693Y0146842D01*
X0149644Y0146832D01*
X0149595Y0146818D01*
X0149548Y0146801D01*
X0149502Y0146780D01*
X0149458Y0146755D01*
X0149415Y0146727D01*
X0149376Y0146696D01*
X0149339Y0146661D01*
X0149304Y0146624D01*
X0149273Y0146585D01*
X0149245Y0146542D01*
X0149220Y0146498D01*
X0149199Y0146452D01*
X0149182Y0146405D01*
X0149168Y0146356D01*
X0149158Y0146307D01*
X0149152Y0146257D01*
X0149150Y0146206D01*
X0149150Y0144594D01*
X0149152Y0144546D01*
X0149157Y0144498D01*
X0149166Y0144451D01*
X0149179Y0144404D01*
X0149195Y0144359D01*
X0149214Y0144315D01*
X0149236Y0144272D01*
X0149262Y0144231D01*
X0149291Y0144192D01*
X0149322Y0144156D01*
X0149356Y0144122D01*
X0149392Y0144091D01*
X0149431Y0144062D01*
X0149472Y0144036D01*
X0149515Y0144014D01*
X0149559Y0143995D01*
X0149604Y0143979D01*
X0149651Y0143966D01*
X0149698Y0143957D01*
X0149746Y0143952D01*
X0149794Y0143950D01*
X0150439Y0143950D01*
X0154439Y0146206D02*
X0155245Y0146850D01*
X0157192Y0143628D02*
X0158481Y0143628D01*
X0159623Y0143950D02*
X0161234Y0143950D01*
X0159623Y0143950D02*
X0160993Y0145561D01*
X0160509Y0146850D02*
X0160450Y0146848D01*
X0160392Y0146843D01*
X0160334Y0146833D01*
X0160277Y0146821D01*
X0160221Y0146804D01*
X0160166Y0146785D01*
X0160112Y0146761D01*
X0160060Y0146735D01*
X0160010Y0146705D01*
X0159961Y0146672D01*
X0159915Y0146636D01*
X0159871Y0146597D01*
X0159830Y0146556D01*
X0159791Y0146512D01*
X0159755Y0146466D01*
X0159723Y0146417D01*
X0159693Y0146367D01*
X0159666Y0146315D01*
X0159643Y0146261D01*
X0159623Y0146206D01*
X0160992Y0145561D02*
X0161029Y0145598D01*
X0161063Y0145638D01*
X0161095Y0145680D01*
X0161123Y0145725D01*
X0161149Y0145771D01*
X0161171Y0145818D01*
X0161190Y0145867D01*
X0161206Y0145917D01*
X0161218Y0145968D01*
X0161227Y0146020D01*
X0161232Y0146072D01*
X0161234Y0146125D01*
X0161232Y0146177D01*
X0161227Y0146228D01*
X0161217Y0146279D01*
X0161205Y0146329D01*
X0161188Y0146378D01*
X0161168Y0146426D01*
X0161145Y0146472D01*
X0161119Y0146517D01*
X0161089Y0146559D01*
X0161057Y0146600D01*
X0161022Y0146638D01*
X0160984Y0146673D01*
X0160943Y0146705D01*
X0160901Y0146735D01*
X0160856Y0146761D01*
X0160810Y0146784D01*
X0160762Y0146804D01*
X0160713Y0146821D01*
X0160663Y0146833D01*
X0160612Y0146843D01*
X0160561Y0146848D01*
X0160509Y0146850D01*
X0144050Y0143850D02*
X0142439Y0143850D01*
X0143245Y0143850D02*
X0143245Y0146750D01*
X0142439Y0146106D01*
X0140365Y0146750D02*
X0140365Y0143850D01*
X0141170Y0143850D02*
X0139559Y0143850D01*
X0138439Y0143850D02*
X0137794Y0143850D01*
X0137746Y0143852D01*
X0137698Y0143857D01*
X0137651Y0143866D01*
X0137604Y0143879D01*
X0137559Y0143895D01*
X0137515Y0143914D01*
X0137472Y0143936D01*
X0137431Y0143962D01*
X0137392Y0143991D01*
X0137356Y0144022D01*
X0137322Y0144056D01*
X0137291Y0144092D01*
X0137262Y0144131D01*
X0137236Y0144172D01*
X0137214Y0144215D01*
X0137195Y0144259D01*
X0137179Y0144304D01*
X0137166Y0144351D01*
X0137157Y0144398D01*
X0137152Y0144446D01*
X0137150Y0144494D01*
X0137150Y0146106D01*
X0137152Y0146157D01*
X0137158Y0146207D01*
X0137168Y0146256D01*
X0137182Y0146305D01*
X0137199Y0146352D01*
X0137220Y0146398D01*
X0137245Y0146442D01*
X0137273Y0146485D01*
X0137304Y0146524D01*
X0137339Y0146561D01*
X0137376Y0146596D01*
X0137415Y0146627D01*
X0137458Y0146655D01*
X0137502Y0146680D01*
X0137548Y0146701D01*
X0137595Y0146718D01*
X0137644Y0146732D01*
X0137693Y0146742D01*
X0137743Y0146748D01*
X0137794Y0146750D01*
X0138439Y0146750D01*
X0139559Y0146106D02*
X0140365Y0146750D01*
D13*
X0145801Y0142098D02*
X0153399Y0142098D01*
X0153399Y0135902D02*
X0145801Y0135902D01*
X0144667Y0122800D02*
X0143644Y0119222D01*
X0146200Y0119222D01*
X0145433Y0120244D02*
X0145433Y0118200D01*
X0141926Y0118200D02*
X0140904Y0118200D01*
X0140842Y0118202D01*
X0140781Y0118207D01*
X0140720Y0118217D01*
X0140659Y0118230D01*
X0140600Y0118246D01*
X0140542Y0118266D01*
X0140485Y0118290D01*
X0140429Y0118317D01*
X0140375Y0118347D01*
X0140323Y0118381D01*
X0140274Y0118417D01*
X0140226Y0118457D01*
X0140181Y0118499D01*
X0140139Y0118544D01*
X0140099Y0118592D01*
X0140063Y0118641D01*
X0140029Y0118693D01*
X0139999Y0118747D01*
X0139972Y0118803D01*
X0139948Y0118860D01*
X0139928Y0118918D01*
X0139912Y0118977D01*
X0139899Y0119038D01*
X0139889Y0119099D01*
X0139884Y0119160D01*
X0139882Y0119222D01*
X0139881Y0119222D02*
X0139881Y0121778D01*
X0139882Y0121778D02*
X0139884Y0121840D01*
X0139889Y0121901D01*
X0139899Y0121962D01*
X0139912Y0122023D01*
X0139928Y0122082D01*
X0139948Y0122140D01*
X0139972Y0122197D01*
X0139999Y0122253D01*
X0140029Y0122307D01*
X0140063Y0122359D01*
X0140099Y0122408D01*
X0140139Y0122456D01*
X0140181Y0122501D01*
X0140226Y0122543D01*
X0140274Y0122582D01*
X0140323Y0122619D01*
X0140375Y0122653D01*
X0140429Y0122683D01*
X0140485Y0122710D01*
X0140542Y0122734D01*
X0140600Y0122754D01*
X0140659Y0122770D01*
X0140720Y0122783D01*
X0140781Y0122793D01*
X0140842Y0122798D01*
X0140904Y0122800D01*
X0141926Y0122800D01*
X0138083Y0122800D02*
X0137061Y0122800D01*
X0137572Y0122800D02*
X0137572Y0118200D01*
X0137061Y0118200D02*
X0138083Y0118200D01*
X0122899Y0125902D02*
X0115301Y0125902D01*
X0115301Y0132098D02*
X0122899Y0132098D01*
X0122799Y0146302D02*
X0115201Y0146302D01*
X0115201Y0152498D02*
X0122799Y0152498D01*
X0145801Y0156102D02*
X0153399Y0156102D01*
X0153399Y0162298D02*
X0145801Y0162298D01*
X0122705Y0077378D02*
X0120661Y0074822D01*
X0121683Y0073800D02*
X0121742Y0073802D01*
X0121800Y0073807D01*
X0121858Y0073816D01*
X0121915Y0073829D01*
X0121972Y0073845D01*
X0122027Y0073865D01*
X0122081Y0073888D01*
X0122133Y0073914D01*
X0122184Y0073944D01*
X0122233Y0073976D01*
X0122280Y0074012D01*
X0122324Y0074050D01*
X0122366Y0074091D01*
X0122405Y0074135D01*
X0122442Y0074181D01*
X0122475Y0074229D01*
X0122506Y0074279D01*
X0122533Y0074331D01*
X0122557Y0074384D01*
X0122578Y0074439D01*
X0121683Y0073800D02*
X0121624Y0073802D01*
X0121566Y0073807D01*
X0121508Y0073816D01*
X0121451Y0073829D01*
X0121394Y0073845D01*
X0121339Y0073865D01*
X0121285Y0073888D01*
X0121233Y0073914D01*
X0121182Y0073944D01*
X0121133Y0073976D01*
X0121086Y0074012D01*
X0121042Y0074050D01*
X0121000Y0074091D01*
X0120961Y0074135D01*
X0120924Y0074181D01*
X0120891Y0074229D01*
X0120860Y0074279D01*
X0120833Y0074331D01*
X0120809Y0074384D01*
X0120788Y0074439D01*
X0118661Y0074056D02*
X0118661Y0073800D01*
X0118405Y0073800D01*
X0118405Y0074056D01*
X0118661Y0074056D01*
X0116661Y0073800D02*
X0114105Y0073800D01*
X0115383Y0073800D02*
X0115383Y0078400D01*
X0114105Y0077378D01*
X0110555Y0076867D02*
X0109533Y0073800D01*
X0108511Y0076867D01*
X0104587Y0078400D02*
X0103565Y0078400D01*
X0103503Y0078398D01*
X0103442Y0078393D01*
X0103381Y0078383D01*
X0103320Y0078370D01*
X0103261Y0078354D01*
X0103203Y0078334D01*
X0103146Y0078310D01*
X0103090Y0078283D01*
X0103036Y0078253D01*
X0102984Y0078219D01*
X0102935Y0078182D01*
X0102887Y0078143D01*
X0102842Y0078101D01*
X0102800Y0078056D01*
X0102760Y0078008D01*
X0102724Y0077959D01*
X0102690Y0077907D01*
X0102660Y0077853D01*
X0102633Y0077797D01*
X0102609Y0077740D01*
X0102589Y0077682D01*
X0102573Y0077623D01*
X0102560Y0077562D01*
X0102550Y0077501D01*
X0102545Y0077440D01*
X0102543Y0077378D01*
X0102542Y0077378D02*
X0102542Y0074822D01*
X0102543Y0074822D02*
X0102545Y0074760D01*
X0102550Y0074699D01*
X0102560Y0074638D01*
X0102573Y0074577D01*
X0102589Y0074518D01*
X0102609Y0074460D01*
X0102633Y0074403D01*
X0102660Y0074347D01*
X0102690Y0074293D01*
X0102724Y0074241D01*
X0102760Y0074192D01*
X0102800Y0074144D01*
X0102842Y0074099D01*
X0102887Y0074057D01*
X0102935Y0074017D01*
X0102984Y0073981D01*
X0103036Y0073947D01*
X0103090Y0073917D01*
X0103146Y0073890D01*
X0103203Y0073866D01*
X0103261Y0073846D01*
X0103320Y0073830D01*
X0103381Y0073817D01*
X0103442Y0073807D01*
X0103503Y0073802D01*
X0103565Y0073800D01*
X0104587Y0073800D01*
X0100461Y0075078D02*
X0100461Y0077122D01*
X0100459Y0077191D01*
X0100454Y0077260D01*
X0100444Y0077329D01*
X0100431Y0077397D01*
X0100414Y0077464D01*
X0100394Y0077530D01*
X0100370Y0077595D01*
X0100343Y0077659D01*
X0100312Y0077721D01*
X0100278Y0077781D01*
X0100241Y0077839D01*
X0100200Y0077895D01*
X0100157Y0077949D01*
X0100111Y0078001D01*
X0100062Y0078050D01*
X0100010Y0078096D01*
X0099956Y0078139D01*
X0099900Y0078180D01*
X0099842Y0078217D01*
X0099782Y0078251D01*
X0099720Y0078282D01*
X0099656Y0078309D01*
X0099591Y0078333D01*
X0099525Y0078353D01*
X0099458Y0078370D01*
X0099390Y0078383D01*
X0099321Y0078393D01*
X0099252Y0078398D01*
X0099183Y0078400D01*
X0097905Y0078400D01*
X0097905Y0073800D01*
X0099183Y0073800D01*
X0099252Y0073802D01*
X0099321Y0073807D01*
X0099390Y0073817D01*
X0099458Y0073830D01*
X0099525Y0073847D01*
X0099591Y0073867D01*
X0099656Y0073891D01*
X0099720Y0073918D01*
X0099782Y0073949D01*
X0099842Y0073983D01*
X0099900Y0074020D01*
X0099956Y0074061D01*
X0100010Y0074104D01*
X0100062Y0074150D01*
X0100111Y0074199D01*
X0100157Y0074251D01*
X0100200Y0074305D01*
X0100241Y0074361D01*
X0100278Y0074419D01*
X0100312Y0074479D01*
X0100343Y0074541D01*
X0100370Y0074605D01*
X0100394Y0074670D01*
X0100414Y0074736D01*
X0100431Y0074803D01*
X0100444Y0074871D01*
X0100454Y0074940D01*
X0100459Y0075009D01*
X0100461Y0075078D01*
X0096037Y0073800D02*
X0095015Y0073800D01*
X0094953Y0073802D01*
X0094892Y0073807D01*
X0094831Y0073817D01*
X0094770Y0073830D01*
X0094711Y0073846D01*
X0094653Y0073866D01*
X0094596Y0073890D01*
X0094540Y0073917D01*
X0094486Y0073947D01*
X0094434Y0073981D01*
X0094385Y0074017D01*
X0094337Y0074057D01*
X0094292Y0074099D01*
X0094250Y0074144D01*
X0094210Y0074192D01*
X0094174Y0074241D01*
X0094140Y0074293D01*
X0094110Y0074347D01*
X0094083Y0074403D01*
X0094059Y0074460D01*
X0094039Y0074518D01*
X0094023Y0074577D01*
X0094010Y0074638D01*
X0094000Y0074699D01*
X0093995Y0074760D01*
X0093993Y0074822D01*
X0093992Y0074822D02*
X0093992Y0077378D01*
X0093993Y0077378D02*
X0093995Y0077440D01*
X0094000Y0077501D01*
X0094010Y0077562D01*
X0094023Y0077623D01*
X0094039Y0077682D01*
X0094059Y0077740D01*
X0094083Y0077797D01*
X0094110Y0077853D01*
X0094140Y0077907D01*
X0094174Y0077959D01*
X0094210Y0078008D01*
X0094250Y0078056D01*
X0094292Y0078101D01*
X0094337Y0078143D01*
X0094385Y0078182D01*
X0094434Y0078219D01*
X0094486Y0078253D01*
X0094540Y0078283D01*
X0094596Y0078310D01*
X0094653Y0078334D01*
X0094711Y0078354D01*
X0094770Y0078370D01*
X0094831Y0078383D01*
X0094892Y0078393D01*
X0094953Y0078398D01*
X0095015Y0078400D01*
X0096037Y0078400D01*
X0089555Y0076100D02*
X0089555Y0073800D01*
X0087511Y0073800D02*
X0087511Y0078400D01*
X0087511Y0076867D02*
X0088789Y0076867D01*
X0088844Y0076865D01*
X0088898Y0076859D01*
X0088952Y0076849D01*
X0089005Y0076836D01*
X0089057Y0076819D01*
X0089108Y0076798D01*
X0089157Y0076773D01*
X0089204Y0076745D01*
X0089249Y0076714D01*
X0089291Y0076680D01*
X0089331Y0076642D01*
X0089369Y0076602D01*
X0089403Y0076560D01*
X0089434Y0076515D01*
X0089462Y0076468D01*
X0089487Y0076419D01*
X0089508Y0076368D01*
X0089525Y0076316D01*
X0089538Y0076263D01*
X0089548Y0076209D01*
X0089554Y0076155D01*
X0089556Y0076100D01*
X0085664Y0076867D02*
X0084130Y0076867D01*
X0084641Y0078400D02*
X0084641Y0074567D01*
X0084643Y0074512D01*
X0084649Y0074458D01*
X0084659Y0074404D01*
X0084672Y0074351D01*
X0084689Y0074299D01*
X0084710Y0074248D01*
X0084735Y0074199D01*
X0084763Y0074152D01*
X0084794Y0074107D01*
X0084828Y0074065D01*
X0084866Y0074025D01*
X0084906Y0073987D01*
X0084948Y0073953D01*
X0084993Y0073922D01*
X0085040Y0073894D01*
X0085089Y0073869D01*
X0085140Y0073848D01*
X0085192Y0073831D01*
X0085245Y0073818D01*
X0085299Y0073808D01*
X0085353Y0073802D01*
X0085408Y0073800D01*
X0085664Y0073800D01*
X0082655Y0074822D02*
X0082655Y0075844D01*
X0082653Y0075907D01*
X0082647Y0075970D01*
X0082638Y0076032D01*
X0082624Y0076093D01*
X0082607Y0076154D01*
X0082586Y0076213D01*
X0082561Y0076271D01*
X0082533Y0076328D01*
X0082502Y0076382D01*
X0082467Y0076434D01*
X0082429Y0076485D01*
X0082388Y0076533D01*
X0082344Y0076578D01*
X0082298Y0076620D01*
X0082249Y0076660D01*
X0082198Y0076696D01*
X0082144Y0076729D01*
X0082089Y0076759D01*
X0082031Y0076785D01*
X0081973Y0076808D01*
X0081913Y0076827D01*
X0081852Y0076842D01*
X0081790Y0076854D01*
X0081727Y0076862D01*
X0081664Y0076866D01*
X0081602Y0076866D01*
X0081539Y0076862D01*
X0081476Y0076854D01*
X0081414Y0076842D01*
X0081353Y0076827D01*
X0081293Y0076808D01*
X0081235Y0076785D01*
X0081177Y0076759D01*
X0081122Y0076729D01*
X0081068Y0076696D01*
X0081017Y0076660D01*
X0080968Y0076620D01*
X0080922Y0076578D01*
X0080878Y0076533D01*
X0080837Y0076485D01*
X0080799Y0076434D01*
X0080764Y0076382D01*
X0080733Y0076328D01*
X0080705Y0076271D01*
X0080680Y0076213D01*
X0080659Y0076154D01*
X0080642Y0076093D01*
X0080628Y0076032D01*
X0080619Y0075970D01*
X0080613Y0075907D01*
X0080611Y0075844D01*
X0080611Y0074822D01*
X0080613Y0074759D01*
X0080619Y0074696D01*
X0080628Y0074634D01*
X0080642Y0074573D01*
X0080659Y0074512D01*
X0080680Y0074453D01*
X0080705Y0074395D01*
X0080733Y0074338D01*
X0080764Y0074284D01*
X0080799Y0074232D01*
X0080837Y0074181D01*
X0080878Y0074133D01*
X0080922Y0074088D01*
X0080968Y0074046D01*
X0081017Y0074006D01*
X0081068Y0073970D01*
X0081122Y0073937D01*
X0081177Y0073907D01*
X0081235Y0073881D01*
X0081293Y0073858D01*
X0081353Y0073839D01*
X0081414Y0073824D01*
X0081476Y0073812D01*
X0081539Y0073804D01*
X0081602Y0073800D01*
X0081664Y0073800D01*
X0081727Y0073804D01*
X0081790Y0073812D01*
X0081852Y0073824D01*
X0081913Y0073839D01*
X0081973Y0073858D01*
X0082031Y0073881D01*
X0082089Y0073907D01*
X0082144Y0073937D01*
X0082198Y0073970D01*
X0082249Y0074006D01*
X0082298Y0074046D01*
X0082344Y0074088D01*
X0082388Y0074133D01*
X0082429Y0074181D01*
X0082467Y0074232D01*
X0082502Y0074284D01*
X0082533Y0074338D01*
X0082561Y0074395D01*
X0082586Y0074453D01*
X0082607Y0074512D01*
X0082624Y0074573D01*
X0082638Y0074634D01*
X0082647Y0074696D01*
X0082653Y0074759D01*
X0082655Y0074822D01*
X0078755Y0074822D02*
X0078755Y0075844D01*
X0078753Y0075907D01*
X0078747Y0075970D01*
X0078738Y0076032D01*
X0078724Y0076093D01*
X0078707Y0076154D01*
X0078686Y0076213D01*
X0078661Y0076271D01*
X0078633Y0076328D01*
X0078602Y0076382D01*
X0078567Y0076434D01*
X0078529Y0076485D01*
X0078488Y0076533D01*
X0078444Y0076578D01*
X0078398Y0076620D01*
X0078349Y0076660D01*
X0078298Y0076696D01*
X0078244Y0076729D01*
X0078189Y0076759D01*
X0078131Y0076785D01*
X0078073Y0076808D01*
X0078013Y0076827D01*
X0077952Y0076842D01*
X0077890Y0076854D01*
X0077827Y0076862D01*
X0077764Y0076866D01*
X0077702Y0076866D01*
X0077639Y0076862D01*
X0077576Y0076854D01*
X0077514Y0076842D01*
X0077453Y0076827D01*
X0077393Y0076808D01*
X0077335Y0076785D01*
X0077277Y0076759D01*
X0077222Y0076729D01*
X0077168Y0076696D01*
X0077117Y0076660D01*
X0077068Y0076620D01*
X0077022Y0076578D01*
X0076978Y0076533D01*
X0076937Y0076485D01*
X0076899Y0076434D01*
X0076864Y0076382D01*
X0076833Y0076328D01*
X0076805Y0076271D01*
X0076780Y0076213D01*
X0076759Y0076154D01*
X0076742Y0076093D01*
X0076728Y0076032D01*
X0076719Y0075970D01*
X0076713Y0075907D01*
X0076711Y0075844D01*
X0076711Y0074822D01*
X0076713Y0074759D01*
X0076719Y0074696D01*
X0076728Y0074634D01*
X0076742Y0074573D01*
X0076759Y0074512D01*
X0076780Y0074453D01*
X0076805Y0074395D01*
X0076833Y0074338D01*
X0076864Y0074284D01*
X0076899Y0074232D01*
X0076937Y0074181D01*
X0076978Y0074133D01*
X0077022Y0074088D01*
X0077068Y0074046D01*
X0077117Y0074006D01*
X0077168Y0073970D01*
X0077222Y0073937D01*
X0077277Y0073907D01*
X0077335Y0073881D01*
X0077393Y0073858D01*
X0077453Y0073839D01*
X0077514Y0073824D01*
X0077576Y0073812D01*
X0077639Y0073804D01*
X0077702Y0073800D01*
X0077764Y0073800D01*
X0077827Y0073804D01*
X0077890Y0073812D01*
X0077952Y0073824D01*
X0078013Y0073839D01*
X0078073Y0073858D01*
X0078131Y0073881D01*
X0078189Y0073907D01*
X0078244Y0073937D01*
X0078298Y0073970D01*
X0078349Y0074006D01*
X0078398Y0074046D01*
X0078444Y0074088D01*
X0078488Y0074133D01*
X0078529Y0074181D01*
X0078567Y0074232D01*
X0078602Y0074284D01*
X0078633Y0074338D01*
X0078661Y0074395D01*
X0078686Y0074453D01*
X0078707Y0074512D01*
X0078724Y0074573D01*
X0078738Y0074634D01*
X0078747Y0074696D01*
X0078753Y0074759D01*
X0078755Y0074822D01*
X0075014Y0073800D02*
X0074758Y0073800D01*
X0074703Y0073802D01*
X0074649Y0073808D01*
X0074595Y0073818D01*
X0074542Y0073831D01*
X0074490Y0073848D01*
X0074439Y0073869D01*
X0074390Y0073894D01*
X0074343Y0073922D01*
X0074298Y0073953D01*
X0074256Y0073987D01*
X0074216Y0074025D01*
X0074178Y0074065D01*
X0074144Y0074107D01*
X0074113Y0074152D01*
X0074085Y0074199D01*
X0074060Y0074248D01*
X0074039Y0074299D01*
X0074022Y0074351D01*
X0074009Y0074404D01*
X0073999Y0074458D01*
X0073993Y0074512D01*
X0073991Y0074567D01*
X0073991Y0078400D01*
X0073480Y0076867D02*
X0075014Y0076867D01*
X0072005Y0075844D02*
X0072005Y0075333D01*
X0069961Y0075333D01*
X0069961Y0075844D02*
X0069961Y0074567D01*
X0069963Y0074512D01*
X0069969Y0074458D01*
X0069979Y0074404D01*
X0069992Y0074351D01*
X0070009Y0074299D01*
X0070030Y0074248D01*
X0070055Y0074199D01*
X0070083Y0074152D01*
X0070114Y0074107D01*
X0070148Y0074065D01*
X0070186Y0074025D01*
X0070226Y0073987D01*
X0070268Y0073953D01*
X0070313Y0073922D01*
X0070360Y0073894D01*
X0070409Y0073869D01*
X0070460Y0073848D01*
X0070512Y0073831D01*
X0070565Y0073818D01*
X0070619Y0073808D01*
X0070673Y0073802D01*
X0070728Y0073800D01*
X0072005Y0073800D01*
X0072005Y0075844D02*
X0072003Y0075907D01*
X0071997Y0075970D01*
X0071988Y0076032D01*
X0071974Y0076093D01*
X0071957Y0076154D01*
X0071936Y0076213D01*
X0071911Y0076271D01*
X0071883Y0076328D01*
X0071852Y0076382D01*
X0071817Y0076434D01*
X0071779Y0076485D01*
X0071738Y0076533D01*
X0071694Y0076578D01*
X0071648Y0076620D01*
X0071599Y0076660D01*
X0071548Y0076696D01*
X0071494Y0076729D01*
X0071439Y0076759D01*
X0071381Y0076785D01*
X0071323Y0076808D01*
X0071263Y0076827D01*
X0071202Y0076842D01*
X0071140Y0076854D01*
X0071077Y0076862D01*
X0071014Y0076866D01*
X0070952Y0076866D01*
X0070889Y0076862D01*
X0070826Y0076854D01*
X0070764Y0076842D01*
X0070703Y0076827D01*
X0070643Y0076808D01*
X0070585Y0076785D01*
X0070527Y0076759D01*
X0070472Y0076729D01*
X0070418Y0076696D01*
X0070367Y0076660D01*
X0070318Y0076620D01*
X0070272Y0076578D01*
X0070228Y0076533D01*
X0070187Y0076485D01*
X0070149Y0076434D01*
X0070114Y0076382D01*
X0070083Y0076328D01*
X0070055Y0076271D01*
X0070030Y0076213D01*
X0070009Y0076154D01*
X0069992Y0076093D01*
X0069978Y0076032D01*
X0069969Y0075970D01*
X0069963Y0075907D01*
X0069961Y0075844D01*
X0067955Y0076867D02*
X0067955Y0073800D01*
X0066678Y0073800D01*
X0066623Y0073802D01*
X0066569Y0073808D01*
X0066515Y0073818D01*
X0066462Y0073831D01*
X0066410Y0073848D01*
X0066359Y0073869D01*
X0066310Y0073894D01*
X0066263Y0073922D01*
X0066218Y0073953D01*
X0066176Y0073987D01*
X0066136Y0074025D01*
X0066098Y0074065D01*
X0066064Y0074107D01*
X0066033Y0074152D01*
X0066005Y0074199D01*
X0065980Y0074248D01*
X0065959Y0074299D01*
X0065942Y0074351D01*
X0065929Y0074404D01*
X0065919Y0074458D01*
X0065913Y0074512D01*
X0065911Y0074567D01*
X0065911Y0076867D01*
X0063420Y0074567D02*
X0063422Y0074512D01*
X0063428Y0074458D01*
X0063438Y0074404D01*
X0063451Y0074351D01*
X0063468Y0074299D01*
X0063489Y0074248D01*
X0063514Y0074199D01*
X0063542Y0074152D01*
X0063573Y0074107D01*
X0063607Y0074065D01*
X0063645Y0074025D01*
X0063685Y0073987D01*
X0063727Y0073953D01*
X0063772Y0073922D01*
X0063819Y0073894D01*
X0063868Y0073869D01*
X0063919Y0073848D01*
X0063971Y0073831D01*
X0064024Y0073818D01*
X0064078Y0073808D01*
X0064132Y0073802D01*
X0064187Y0073800D01*
X0063420Y0074567D02*
X0063420Y0078400D01*
X0060400Y0078400D02*
X0059122Y0078400D01*
X0059122Y0073800D01*
X0060400Y0073800D01*
X0060470Y0073802D01*
X0060541Y0073808D01*
X0060610Y0073817D01*
X0060679Y0073831D01*
X0060748Y0073848D01*
X0060815Y0073869D01*
X0060881Y0073894D01*
X0060945Y0073922D01*
X0061008Y0073954D01*
X0061069Y0073989D01*
X0061128Y0074028D01*
X0061185Y0074069D01*
X0061239Y0074114D01*
X0061291Y0074162D01*
X0061340Y0074212D01*
X0061387Y0074266D01*
X0061430Y0074321D01*
X0061470Y0074379D01*
X0061507Y0074439D01*
X0061540Y0074501D01*
X0061570Y0074565D01*
X0061597Y0074630D01*
X0061620Y0074696D01*
X0061639Y0074764D01*
X0061654Y0074833D01*
X0061666Y0074902D01*
X0061674Y0074972D01*
X0061678Y0075043D01*
X0061678Y0075113D01*
X0061674Y0075184D01*
X0061666Y0075254D01*
X0061654Y0075323D01*
X0061639Y0075392D01*
X0061620Y0075460D01*
X0061597Y0075526D01*
X0061570Y0075591D01*
X0061540Y0075655D01*
X0061507Y0075717D01*
X0061470Y0075777D01*
X0061430Y0075835D01*
X0061387Y0075890D01*
X0061340Y0075944D01*
X0061291Y0075994D01*
X0061239Y0076042D01*
X0061185Y0076087D01*
X0061128Y0076128D01*
X0061069Y0076167D01*
X0061008Y0076202D01*
X0060945Y0076234D01*
X0060881Y0076262D01*
X0060815Y0076287D01*
X0060748Y0076308D01*
X0060679Y0076325D01*
X0060610Y0076339D01*
X0060541Y0076348D01*
X0060470Y0076354D01*
X0060400Y0076356D01*
X0059122Y0076356D01*
X0060400Y0076356D02*
X0060463Y0076358D01*
X0060526Y0076364D01*
X0060588Y0076373D01*
X0060649Y0076387D01*
X0060710Y0076404D01*
X0060769Y0076425D01*
X0060827Y0076450D01*
X0060884Y0076478D01*
X0060938Y0076509D01*
X0060990Y0076544D01*
X0061041Y0076582D01*
X0061089Y0076623D01*
X0061134Y0076667D01*
X0061176Y0076713D01*
X0061216Y0076762D01*
X0061252Y0076813D01*
X0061285Y0076867D01*
X0061315Y0076922D01*
X0061341Y0076980D01*
X0061364Y0077038D01*
X0061383Y0077098D01*
X0061398Y0077159D01*
X0061410Y0077221D01*
X0061418Y0077284D01*
X0061422Y0077347D01*
X0061422Y0077409D01*
X0061418Y0077472D01*
X0061410Y0077535D01*
X0061398Y0077597D01*
X0061383Y0077658D01*
X0061364Y0077718D01*
X0061341Y0077776D01*
X0061315Y0077834D01*
X0061285Y0077889D01*
X0061252Y0077943D01*
X0061216Y0077994D01*
X0061176Y0078043D01*
X0061134Y0078089D01*
X0061089Y0078133D01*
X0061041Y0078174D01*
X0060990Y0078212D01*
X0060938Y0078247D01*
X0060884Y0078278D01*
X0060827Y0078306D01*
X0060769Y0078331D01*
X0060710Y0078352D01*
X0060649Y0078369D01*
X0060588Y0078383D01*
X0060526Y0078392D01*
X0060463Y0078398D01*
X0060400Y0078400D01*
X0054761Y0078400D02*
X0054761Y0078144D01*
X0054506Y0078144D01*
X0054506Y0078400D01*
X0054761Y0078400D01*
X0054633Y0076867D02*
X0054633Y0073800D01*
X0052632Y0073800D02*
X0052632Y0078400D01*
X0052632Y0076867D02*
X0051355Y0076867D01*
X0051300Y0076865D01*
X0051246Y0076859D01*
X0051192Y0076849D01*
X0051139Y0076836D01*
X0051087Y0076819D01*
X0051036Y0076798D01*
X0050987Y0076773D01*
X0050940Y0076745D01*
X0050895Y0076714D01*
X0050853Y0076680D01*
X0050813Y0076642D01*
X0050775Y0076602D01*
X0050741Y0076560D01*
X0050710Y0076515D01*
X0050682Y0076468D01*
X0050657Y0076419D01*
X0050636Y0076368D01*
X0050619Y0076316D01*
X0050606Y0076263D01*
X0050596Y0076209D01*
X0050590Y0076155D01*
X0050588Y0076100D01*
X0050588Y0074567D01*
X0050590Y0074512D01*
X0050596Y0074458D01*
X0050606Y0074404D01*
X0050619Y0074351D01*
X0050636Y0074299D01*
X0050657Y0074248D01*
X0050682Y0074199D01*
X0050710Y0074152D01*
X0050741Y0074107D01*
X0050775Y0074065D01*
X0050813Y0074025D01*
X0050853Y0073987D01*
X0050895Y0073953D01*
X0050940Y0073922D01*
X0050987Y0073894D01*
X0051036Y0073869D01*
X0051087Y0073848D01*
X0051139Y0073831D01*
X0051192Y0073818D01*
X0051246Y0073808D01*
X0051300Y0073802D01*
X0051355Y0073800D01*
X0052632Y0073800D01*
X0048606Y0073800D02*
X0048606Y0076867D01*
X0046561Y0076867D02*
X0046561Y0074567D01*
X0046563Y0074512D01*
X0046569Y0074458D01*
X0046579Y0074404D01*
X0046592Y0074351D01*
X0046609Y0074299D01*
X0046630Y0074248D01*
X0046655Y0074199D01*
X0046683Y0074152D01*
X0046714Y0074107D01*
X0046748Y0074065D01*
X0046786Y0074025D01*
X0046826Y0073987D01*
X0046868Y0073953D01*
X0046913Y0073922D01*
X0046960Y0073894D01*
X0047009Y0073869D01*
X0047060Y0073848D01*
X0047112Y0073831D01*
X0047165Y0073818D01*
X0047219Y0073808D01*
X0047273Y0073802D01*
X0047328Y0073800D01*
X0048606Y0073800D01*
X0044767Y0073800D02*
X0043233Y0078400D01*
X0041700Y0073800D01*
X0042083Y0074950D02*
X0044383Y0074950D01*
X0034453Y0072209D02*
X0028547Y0072209D01*
X0028547Y0060791D01*
X0034453Y0060791D01*
X0034453Y0072209D01*
X0034453Y0047209D02*
X0028547Y0047209D01*
X0028547Y0035791D01*
X0034453Y0035791D01*
X0034453Y0047209D01*
X0040818Y0039161D02*
X0044418Y0039161D01*
X0044418Y0038161D02*
X0044418Y0040161D01*
X0041618Y0038161D02*
X0040818Y0039161D01*
X0040818Y0036761D02*
X0044418Y0035561D01*
X0040818Y0034361D01*
X0042318Y0031581D02*
X0042287Y0031533D01*
X0042254Y0031488D01*
X0042218Y0031445D01*
X0042178Y0031405D01*
X0042136Y0031368D01*
X0042092Y0031334D01*
X0042045Y0031302D01*
X0041996Y0031274D01*
X0041946Y0031250D01*
X0041893Y0031229D01*
X0041840Y0031212D01*
X0041785Y0031198D01*
X0041730Y0031189D01*
X0041674Y0031183D01*
X0041618Y0031181D01*
X0041563Y0031183D01*
X0041509Y0031188D01*
X0041455Y0031198D01*
X0041402Y0031211D01*
X0041350Y0031227D01*
X0041299Y0031247D01*
X0041250Y0031271D01*
X0041202Y0031297D01*
X0041157Y0031327D01*
X0041113Y0031360D01*
X0041072Y0031396D01*
X0041033Y0031435D01*
X0040997Y0031476D01*
X0040964Y0031520D01*
X0040934Y0031565D01*
X0040908Y0031613D01*
X0040884Y0031662D01*
X0040864Y0031713D01*
X0040848Y0031765D01*
X0040835Y0031818D01*
X0040825Y0031872D01*
X0040820Y0031926D01*
X0040818Y0031981D01*
X0040820Y0032055D01*
X0040825Y0032129D01*
X0040835Y0032203D01*
X0040847Y0032276D01*
X0040864Y0032348D01*
X0040884Y0032420D01*
X0040907Y0032490D01*
X0040934Y0032560D01*
X0040964Y0032627D01*
X0040998Y0032694D01*
X0041035Y0032758D01*
X0041075Y0032821D01*
X0041118Y0032881D01*
X0043918Y0031081D02*
X0043972Y0031138D01*
X0044024Y0031197D01*
X0044073Y0031258D01*
X0044119Y0031321D01*
X0044162Y0031387D01*
X0044202Y0031455D01*
X0044239Y0031524D01*
X0044272Y0031595D01*
X0044303Y0031667D01*
X0044329Y0031741D01*
X0044353Y0031816D01*
X0044373Y0031892D01*
X0044389Y0031969D01*
X0044402Y0032046D01*
X0044411Y0032124D01*
X0044416Y0032203D01*
X0044418Y0032281D01*
X0044416Y0032336D01*
X0044411Y0032390D01*
X0044401Y0032444D01*
X0044388Y0032497D01*
X0044372Y0032549D01*
X0044352Y0032600D01*
X0044328Y0032649D01*
X0044302Y0032697D01*
X0044272Y0032742D01*
X0044239Y0032786D01*
X0044203Y0032827D01*
X0044164Y0032866D01*
X0044123Y0032902D01*
X0044079Y0032935D01*
X0044034Y0032965D01*
X0043986Y0032991D01*
X0043937Y0033015D01*
X0043886Y0033035D01*
X0043834Y0033051D01*
X0043781Y0033064D01*
X0043727Y0033074D01*
X0043673Y0033079D01*
X0043618Y0033081D01*
X0042918Y0032681D02*
X0042318Y0031581D01*
X0042918Y0032680D02*
X0042949Y0032728D01*
X0042982Y0032773D01*
X0043018Y0032816D01*
X0043058Y0032856D01*
X0043100Y0032893D01*
X0043144Y0032927D01*
X0043191Y0032959D01*
X0043240Y0032987D01*
X0043290Y0033011D01*
X0043343Y0033032D01*
X0043396Y0033049D01*
X0043451Y0033063D01*
X0043506Y0033072D01*
X0043562Y0033078D01*
X0043618Y0033080D01*
X0112105Y0073800D02*
X0112361Y0073800D01*
X0112361Y0074056D01*
X0112105Y0074056D01*
X0112105Y0073800D01*
X0122578Y0074439D02*
X0122626Y0074543D01*
X0122672Y0074648D01*
X0122714Y0074754D01*
X0122753Y0074862D01*
X0122789Y0074971D01*
X0122821Y0075081D01*
X0122851Y0075192D01*
X0122876Y0075304D01*
X0122899Y0075416D01*
X0122918Y0075529D01*
X0122933Y0075643D01*
X0122945Y0075757D01*
X0122954Y0075871D01*
X0122959Y0075985D01*
X0122961Y0076100D01*
X0120405Y0076100D02*
X0120407Y0076215D01*
X0120412Y0076329D01*
X0120421Y0076443D01*
X0120433Y0076557D01*
X0120448Y0076671D01*
X0120467Y0076784D01*
X0120490Y0076896D01*
X0120515Y0077008D01*
X0120545Y0077119D01*
X0120577Y0077229D01*
X0120613Y0077338D01*
X0120652Y0077446D01*
X0120694Y0077552D01*
X0120740Y0077657D01*
X0120788Y0077761D01*
X0121683Y0078400D02*
X0121742Y0078398D01*
X0121800Y0078393D01*
X0121858Y0078384D01*
X0121915Y0078371D01*
X0121972Y0078355D01*
X0122027Y0078335D01*
X0122081Y0078312D01*
X0122133Y0078286D01*
X0122184Y0078256D01*
X0122233Y0078224D01*
X0122280Y0078188D01*
X0122324Y0078150D01*
X0122366Y0078109D01*
X0122405Y0078065D01*
X0122442Y0078019D01*
X0122475Y0077971D01*
X0122506Y0077921D01*
X0122533Y0077869D01*
X0122557Y0077816D01*
X0122578Y0077761D01*
X0121683Y0078400D02*
X0121624Y0078398D01*
X0121566Y0078393D01*
X0121508Y0078384D01*
X0121451Y0078371D01*
X0121394Y0078355D01*
X0121339Y0078335D01*
X0121285Y0078312D01*
X0121233Y0078286D01*
X0121182Y0078256D01*
X0121133Y0078224D01*
X0121086Y0078188D01*
X0121042Y0078150D01*
X0121000Y0078109D01*
X0120961Y0078065D01*
X0120924Y0078019D01*
X0120891Y0077971D01*
X0120860Y0077921D01*
X0120833Y0077869D01*
X0120809Y0077816D01*
X0120788Y0077761D01*
X0122578Y0077761D02*
X0122626Y0077657D01*
X0122672Y0077552D01*
X0122714Y0077446D01*
X0122753Y0077338D01*
X0122789Y0077229D01*
X0122821Y0077119D01*
X0122851Y0077008D01*
X0122876Y0076896D01*
X0122899Y0076784D01*
X0122918Y0076671D01*
X0122933Y0076557D01*
X0122945Y0076443D01*
X0122954Y0076329D01*
X0122959Y0076215D01*
X0122961Y0076100D01*
X0120405Y0076100D02*
X0120407Y0075985D01*
X0120412Y0075871D01*
X0120421Y0075757D01*
X0120433Y0075643D01*
X0120448Y0075529D01*
X0120467Y0075416D01*
X0120490Y0075304D01*
X0120515Y0075192D01*
X0120545Y0075081D01*
X0120577Y0074971D01*
X0120613Y0074862D01*
X0120652Y0074754D01*
X0120694Y0074648D01*
X0120740Y0074543D01*
X0120788Y0074439D01*
D14*
X0126461Y0031382D02*
X0131461Y0021382D01*
X0121461Y0021382D01*
X0126461Y0031382D01*
D15*
X0146461Y0018382D02*
X0146461Y0053382D01*
X0141961Y0053382D01*
X0141961Y0055882D01*
X0137961Y0055882D01*
X0137961Y0053382D01*
X0128961Y0053382D01*
X0123961Y0053382D01*
X0118961Y0053382D01*
X0113961Y0053382D01*
X0108961Y0053382D01*
X0103961Y0053382D01*
X0098961Y0053382D01*
X0093961Y0053382D01*
X0088961Y0053382D01*
X0083961Y0053382D01*
X0079961Y0053382D01*
X0078961Y0053382D01*
X0073961Y0053382D01*
X0069961Y0053382D01*
X0062961Y0053382D01*
X0054961Y0053382D01*
X0054961Y0055882D01*
X0050961Y0055882D01*
X0050961Y0053382D01*
X0054961Y0053382D01*
X0050961Y0053382D02*
X0046461Y0053382D01*
X0046461Y0018382D01*
X0079961Y0018382D01*
X0079961Y0046882D01*
X0079961Y0053382D01*
X0079961Y0046882D02*
X0074461Y0046882D01*
X0074461Y0043882D01*
X0068461Y0043882D01*
X0068461Y0046882D01*
X0062961Y0046882D01*
X0062961Y0053382D01*
X0062961Y0046882D02*
X0062961Y0018382D01*
X0067461Y0018382D02*
X0067461Y0022382D01*
X0075461Y0022382D01*
X0075461Y0018382D01*
X0079961Y0018382D02*
X0087961Y0018382D01*
X0087961Y0043882D01*
X0087961Y0047882D01*
X0104961Y0047882D01*
X0104961Y0043882D01*
X0087961Y0043882D01*
X0074461Y0043882D02*
X0074461Y0037882D01*
X0074459Y0037774D01*
X0074453Y0037666D01*
X0074443Y0037558D01*
X0074430Y0037450D01*
X0074412Y0037343D01*
X0074391Y0037237D01*
X0074366Y0037132D01*
X0074337Y0037027D01*
X0074304Y0036924D01*
X0074268Y0036822D01*
X0074227Y0036721D01*
X0074184Y0036622D01*
X0074136Y0036525D01*
X0074086Y0036429D01*
X0074032Y0036335D01*
X0073974Y0036244D01*
X0073913Y0036154D01*
X0073849Y0036066D01*
X0073782Y0035981D01*
X0073712Y0035899D01*
X0073639Y0035819D01*
X0073563Y0035742D01*
X0073484Y0035667D01*
X0073403Y0035596D01*
X0073319Y0035527D01*
X0073233Y0035461D01*
X0073145Y0035399D01*
X0073054Y0035340D01*
X0072961Y0035284D01*
X0072866Y0035231D01*
X0072770Y0035182D01*
X0072671Y0035137D01*
X0072571Y0035095D01*
X0072470Y0035057D01*
X0072367Y0035022D01*
X0072264Y0034991D01*
X0072159Y0034964D01*
X0072053Y0034941D01*
X0071946Y0034922D01*
X0071839Y0034906D01*
X0071731Y0034894D01*
X0071623Y0034886D01*
X0071515Y0034882D01*
X0071407Y0034882D01*
X0071299Y0034886D01*
X0071191Y0034894D01*
X0071083Y0034906D01*
X0070976Y0034922D01*
X0070869Y0034941D01*
X0070763Y0034964D01*
X0070658Y0034991D01*
X0070555Y0035022D01*
X0070452Y0035057D01*
X0070351Y0035095D01*
X0070251Y0035137D01*
X0070152Y0035182D01*
X0070056Y0035231D01*
X0069961Y0035284D01*
X0069868Y0035340D01*
X0069777Y0035399D01*
X0069689Y0035461D01*
X0069603Y0035527D01*
X0069519Y0035596D01*
X0069438Y0035667D01*
X0069359Y0035742D01*
X0069283Y0035819D01*
X0069210Y0035899D01*
X0069140Y0035981D01*
X0069073Y0036066D01*
X0069009Y0036154D01*
X0068948Y0036244D01*
X0068890Y0036335D01*
X0068836Y0036429D01*
X0068786Y0036525D01*
X0068738Y0036622D01*
X0068695Y0036721D01*
X0068654Y0036822D01*
X0068618Y0036924D01*
X0068585Y0037027D01*
X0068556Y0037132D01*
X0068531Y0037237D01*
X0068510Y0037343D01*
X0068492Y0037450D01*
X0068479Y0037558D01*
X0068469Y0037666D01*
X0068463Y0037774D01*
X0068461Y0037882D01*
X0068461Y0043882D01*
X0059961Y0043882D02*
X0059961Y0028882D01*
X0048961Y0028882D01*
X0048961Y0043882D01*
X0059961Y0043882D01*
X0057161Y0040182D02*
X0054761Y0040182D01*
X0055961Y0041082D02*
X0055961Y0038082D01*
X0051761Y0039282D01*
X0051761Y0034193D02*
X0057161Y0034193D01*
X0057161Y0032693D02*
X0057161Y0035693D01*
X0052961Y0032693D02*
X0051761Y0034193D01*
X0050400Y0062000D02*
X0050400Y0065000D01*
X0061800Y0065000D01*
X0061800Y0062000D01*
X0050400Y0062000D01*
X0045902Y0062299D02*
X0045902Y0065701D01*
X0043098Y0065701D02*
X0043098Y0062299D01*
X0087961Y0018382D02*
X0104961Y0018382D01*
X0146461Y0018382D01*
X0141961Y0053382D02*
X0137961Y0053382D01*
X0144600Y0068800D02*
X0148100Y0068800D01*
X0140600Y0068800D02*
X0140603Y0069045D01*
X0140612Y0069291D01*
X0140627Y0069536D01*
X0140648Y0069780D01*
X0140675Y0070024D01*
X0140708Y0070267D01*
X0140747Y0070510D01*
X0140792Y0070751D01*
X0140843Y0070991D01*
X0140900Y0071230D01*
X0140962Y0071467D01*
X0141031Y0071703D01*
X0141105Y0071937D01*
X0141185Y0072169D01*
X0141270Y0072399D01*
X0141361Y0072627D01*
X0141458Y0072852D01*
X0141560Y0073076D01*
X0141668Y0073296D01*
X0141781Y0073514D01*
X0141899Y0073729D01*
X0142023Y0073941D01*
X0142151Y0074150D01*
X0142285Y0074356D01*
X0142424Y0074558D01*
X0142568Y0074757D01*
X0142717Y0074952D01*
X0142870Y0075144D01*
X0143028Y0075332D01*
X0143190Y0075516D01*
X0143358Y0075695D01*
X0143529Y0075871D01*
X0143705Y0076042D01*
X0143884Y0076210D01*
X0144068Y0076372D01*
X0144256Y0076530D01*
X0144448Y0076683D01*
X0144643Y0076832D01*
X0144842Y0076976D01*
X0145044Y0077115D01*
X0145250Y0077249D01*
X0145459Y0077377D01*
X0145671Y0077501D01*
X0145886Y0077619D01*
X0146104Y0077732D01*
X0146324Y0077840D01*
X0146548Y0077942D01*
X0146773Y0078039D01*
X0147001Y0078130D01*
X0147231Y0078215D01*
X0147463Y0078295D01*
X0147697Y0078369D01*
X0147933Y0078438D01*
X0148170Y0078500D01*
X0148409Y0078557D01*
X0148649Y0078608D01*
X0148890Y0078653D01*
X0149133Y0078692D01*
X0149376Y0078725D01*
X0149620Y0078752D01*
X0149864Y0078773D01*
X0150109Y0078788D01*
X0150355Y0078797D01*
X0150600Y0078800D01*
X0150845Y0078797D01*
X0151091Y0078788D01*
X0151336Y0078773D01*
X0151580Y0078752D01*
X0151824Y0078725D01*
X0152067Y0078692D01*
X0152310Y0078653D01*
X0152551Y0078608D01*
X0152791Y0078557D01*
X0153030Y0078500D01*
X0153267Y0078438D01*
X0153503Y0078369D01*
X0153737Y0078295D01*
X0153969Y0078215D01*
X0154199Y0078130D01*
X0154427Y0078039D01*
X0154652Y0077942D01*
X0154876Y0077840D01*
X0155096Y0077732D01*
X0155314Y0077619D01*
X0155529Y0077501D01*
X0155741Y0077377D01*
X0155950Y0077249D01*
X0156156Y0077115D01*
X0156358Y0076976D01*
X0156557Y0076832D01*
X0156752Y0076683D01*
X0156944Y0076530D01*
X0157132Y0076372D01*
X0157316Y0076210D01*
X0157495Y0076042D01*
X0157671Y0075871D01*
X0157842Y0075695D01*
X0158010Y0075516D01*
X0158172Y0075332D01*
X0158330Y0075144D01*
X0158483Y0074952D01*
X0158632Y0074757D01*
X0158776Y0074558D01*
X0158915Y0074356D01*
X0159049Y0074150D01*
X0159177Y0073941D01*
X0159301Y0073729D01*
X0159419Y0073514D01*
X0159532Y0073296D01*
X0159640Y0073076D01*
X0159742Y0072852D01*
X0159839Y0072627D01*
X0159930Y0072399D01*
X0160015Y0072169D01*
X0160095Y0071937D01*
X0160169Y0071703D01*
X0160238Y0071467D01*
X0160300Y0071230D01*
X0160357Y0070991D01*
X0160408Y0070751D01*
X0160453Y0070510D01*
X0160492Y0070267D01*
X0160525Y0070024D01*
X0160552Y0069780D01*
X0160573Y0069536D01*
X0160588Y0069291D01*
X0160597Y0069045D01*
X0160600Y0068800D01*
X0160597Y0068555D01*
X0160588Y0068309D01*
X0160573Y0068064D01*
X0160552Y0067820D01*
X0160525Y0067576D01*
X0160492Y0067333D01*
X0160453Y0067090D01*
X0160408Y0066849D01*
X0160357Y0066609D01*
X0160300Y0066370D01*
X0160238Y0066133D01*
X0160169Y0065897D01*
X0160095Y0065663D01*
X0160015Y0065431D01*
X0159930Y0065201D01*
X0159839Y0064973D01*
X0159742Y0064748D01*
X0159640Y0064524D01*
X0159532Y0064304D01*
X0159419Y0064086D01*
X0159301Y0063871D01*
X0159177Y0063659D01*
X0159049Y0063450D01*
X0158915Y0063244D01*
X0158776Y0063042D01*
X0158632Y0062843D01*
X0158483Y0062648D01*
X0158330Y0062456D01*
X0158172Y0062268D01*
X0158010Y0062084D01*
X0157842Y0061905D01*
X0157671Y0061729D01*
X0157495Y0061558D01*
X0157316Y0061390D01*
X0157132Y0061228D01*
X0156944Y0061070D01*
X0156752Y0060917D01*
X0156557Y0060768D01*
X0156358Y0060624D01*
X0156156Y0060485D01*
X0155950Y0060351D01*
X0155741Y0060223D01*
X0155529Y0060099D01*
X0155314Y0059981D01*
X0155096Y0059868D01*
X0154876Y0059760D01*
X0154652Y0059658D01*
X0154427Y0059561D01*
X0154199Y0059470D01*
X0153969Y0059385D01*
X0153737Y0059305D01*
X0153503Y0059231D01*
X0153267Y0059162D01*
X0153030Y0059100D01*
X0152791Y0059043D01*
X0152551Y0058992D01*
X0152310Y0058947D01*
X0152067Y0058908D01*
X0151824Y0058875D01*
X0151580Y0058848D01*
X0151336Y0058827D01*
X0151091Y0058812D01*
X0150845Y0058803D01*
X0150600Y0058800D01*
X0150355Y0058803D01*
X0150109Y0058812D01*
X0149864Y0058827D01*
X0149620Y0058848D01*
X0149376Y0058875D01*
X0149133Y0058908D01*
X0148890Y0058947D01*
X0148649Y0058992D01*
X0148409Y0059043D01*
X0148170Y0059100D01*
X0147933Y0059162D01*
X0147697Y0059231D01*
X0147463Y0059305D01*
X0147231Y0059385D01*
X0147001Y0059470D01*
X0146773Y0059561D01*
X0146548Y0059658D01*
X0146324Y0059760D01*
X0146104Y0059868D01*
X0145886Y0059981D01*
X0145671Y0060099D01*
X0145459Y0060223D01*
X0145250Y0060351D01*
X0145044Y0060485D01*
X0144842Y0060624D01*
X0144643Y0060768D01*
X0144448Y0060917D01*
X0144256Y0061070D01*
X0144068Y0061228D01*
X0143884Y0061390D01*
X0143705Y0061558D01*
X0143529Y0061729D01*
X0143358Y0061905D01*
X0143190Y0062084D01*
X0143028Y0062268D01*
X0142870Y0062456D01*
X0142717Y0062648D01*
X0142568Y0062843D01*
X0142424Y0063042D01*
X0142285Y0063244D01*
X0142151Y0063450D01*
X0142023Y0063659D01*
X0141899Y0063871D01*
X0141781Y0064086D01*
X0141668Y0064304D01*
X0141560Y0064524D01*
X0141458Y0064748D01*
X0141361Y0064973D01*
X0141270Y0065201D01*
X0141185Y0065431D01*
X0141105Y0065663D01*
X0141031Y0065897D01*
X0140962Y0066133D01*
X0140900Y0066370D01*
X0140843Y0066609D01*
X0140792Y0066849D01*
X0140747Y0067090D01*
X0140708Y0067333D01*
X0140675Y0067576D01*
X0140648Y0067820D01*
X0140627Y0068064D01*
X0140612Y0068309D01*
X0140603Y0068555D01*
X0140600Y0068800D01*
X0138700Y0075800D02*
X0138700Y0077800D01*
X0139700Y0076800D02*
X0137700Y0076800D01*
X0137700Y0079800D02*
X0135700Y0079800D01*
X0135700Y0087800D01*
X0137700Y0087800D01*
X0137700Y0083800D01*
X0137700Y0079800D01*
X0137700Y0083800D02*
X0140700Y0083800D01*
X0124700Y0083800D02*
X0124703Y0084045D01*
X0124712Y0084291D01*
X0124727Y0084536D01*
X0124748Y0084780D01*
X0124775Y0085024D01*
X0124808Y0085267D01*
X0124847Y0085510D01*
X0124892Y0085751D01*
X0124943Y0085991D01*
X0125000Y0086230D01*
X0125062Y0086467D01*
X0125131Y0086703D01*
X0125205Y0086937D01*
X0125285Y0087169D01*
X0125370Y0087399D01*
X0125461Y0087627D01*
X0125558Y0087852D01*
X0125660Y0088076D01*
X0125768Y0088296D01*
X0125881Y0088514D01*
X0125999Y0088729D01*
X0126123Y0088941D01*
X0126251Y0089150D01*
X0126385Y0089356D01*
X0126524Y0089558D01*
X0126668Y0089757D01*
X0126817Y0089952D01*
X0126970Y0090144D01*
X0127128Y0090332D01*
X0127290Y0090516D01*
X0127458Y0090695D01*
X0127629Y0090871D01*
X0127805Y0091042D01*
X0127984Y0091210D01*
X0128168Y0091372D01*
X0128356Y0091530D01*
X0128548Y0091683D01*
X0128743Y0091832D01*
X0128942Y0091976D01*
X0129144Y0092115D01*
X0129350Y0092249D01*
X0129559Y0092377D01*
X0129771Y0092501D01*
X0129986Y0092619D01*
X0130204Y0092732D01*
X0130424Y0092840D01*
X0130648Y0092942D01*
X0130873Y0093039D01*
X0131101Y0093130D01*
X0131331Y0093215D01*
X0131563Y0093295D01*
X0131797Y0093369D01*
X0132033Y0093438D01*
X0132270Y0093500D01*
X0132509Y0093557D01*
X0132749Y0093608D01*
X0132990Y0093653D01*
X0133233Y0093692D01*
X0133476Y0093725D01*
X0133720Y0093752D01*
X0133964Y0093773D01*
X0134209Y0093788D01*
X0134455Y0093797D01*
X0134700Y0093800D01*
X0134945Y0093797D01*
X0135191Y0093788D01*
X0135436Y0093773D01*
X0135680Y0093752D01*
X0135924Y0093725D01*
X0136167Y0093692D01*
X0136410Y0093653D01*
X0136651Y0093608D01*
X0136891Y0093557D01*
X0137130Y0093500D01*
X0137367Y0093438D01*
X0137603Y0093369D01*
X0137837Y0093295D01*
X0138069Y0093215D01*
X0138299Y0093130D01*
X0138527Y0093039D01*
X0138752Y0092942D01*
X0138976Y0092840D01*
X0139196Y0092732D01*
X0139414Y0092619D01*
X0139629Y0092501D01*
X0139841Y0092377D01*
X0140050Y0092249D01*
X0140256Y0092115D01*
X0140458Y0091976D01*
X0140657Y0091832D01*
X0140852Y0091683D01*
X0141044Y0091530D01*
X0141232Y0091372D01*
X0141416Y0091210D01*
X0141595Y0091042D01*
X0141771Y0090871D01*
X0141942Y0090695D01*
X0142110Y0090516D01*
X0142272Y0090332D01*
X0142430Y0090144D01*
X0142583Y0089952D01*
X0142732Y0089757D01*
X0142876Y0089558D01*
X0143015Y0089356D01*
X0143149Y0089150D01*
X0143277Y0088941D01*
X0143401Y0088729D01*
X0143519Y0088514D01*
X0143632Y0088296D01*
X0143740Y0088076D01*
X0143842Y0087852D01*
X0143939Y0087627D01*
X0144030Y0087399D01*
X0144115Y0087169D01*
X0144195Y0086937D01*
X0144269Y0086703D01*
X0144338Y0086467D01*
X0144400Y0086230D01*
X0144457Y0085991D01*
X0144508Y0085751D01*
X0144553Y0085510D01*
X0144592Y0085267D01*
X0144625Y0085024D01*
X0144652Y0084780D01*
X0144673Y0084536D01*
X0144688Y0084291D01*
X0144697Y0084045D01*
X0144700Y0083800D01*
X0144697Y0083555D01*
X0144688Y0083309D01*
X0144673Y0083064D01*
X0144652Y0082820D01*
X0144625Y0082576D01*
X0144592Y0082333D01*
X0144553Y0082090D01*
X0144508Y0081849D01*
X0144457Y0081609D01*
X0144400Y0081370D01*
X0144338Y0081133D01*
X0144269Y0080897D01*
X0144195Y0080663D01*
X0144115Y0080431D01*
X0144030Y0080201D01*
X0143939Y0079973D01*
X0143842Y0079748D01*
X0143740Y0079524D01*
X0143632Y0079304D01*
X0143519Y0079086D01*
X0143401Y0078871D01*
X0143277Y0078659D01*
X0143149Y0078450D01*
X0143015Y0078244D01*
X0142876Y0078042D01*
X0142732Y0077843D01*
X0142583Y0077648D01*
X0142430Y0077456D01*
X0142272Y0077268D01*
X0142110Y0077084D01*
X0141942Y0076905D01*
X0141771Y0076729D01*
X0141595Y0076558D01*
X0141416Y0076390D01*
X0141232Y0076228D01*
X0141044Y0076070D01*
X0140852Y0075917D01*
X0140657Y0075768D01*
X0140458Y0075624D01*
X0140256Y0075485D01*
X0140050Y0075351D01*
X0139841Y0075223D01*
X0139629Y0075099D01*
X0139414Y0074981D01*
X0139196Y0074868D01*
X0138976Y0074760D01*
X0138752Y0074658D01*
X0138527Y0074561D01*
X0138299Y0074470D01*
X0138069Y0074385D01*
X0137837Y0074305D01*
X0137603Y0074231D01*
X0137367Y0074162D01*
X0137130Y0074100D01*
X0136891Y0074043D01*
X0136651Y0073992D01*
X0136410Y0073947D01*
X0136167Y0073908D01*
X0135924Y0073875D01*
X0135680Y0073848D01*
X0135436Y0073827D01*
X0135191Y0073812D01*
X0134945Y0073803D01*
X0134700Y0073800D01*
X0134455Y0073803D01*
X0134209Y0073812D01*
X0133964Y0073827D01*
X0133720Y0073848D01*
X0133476Y0073875D01*
X0133233Y0073908D01*
X0132990Y0073947D01*
X0132749Y0073992D01*
X0132509Y0074043D01*
X0132270Y0074100D01*
X0132033Y0074162D01*
X0131797Y0074231D01*
X0131563Y0074305D01*
X0131331Y0074385D01*
X0131101Y0074470D01*
X0130873Y0074561D01*
X0130648Y0074658D01*
X0130424Y0074760D01*
X0130204Y0074868D01*
X0129986Y0074981D01*
X0129771Y0075099D01*
X0129559Y0075223D01*
X0129350Y0075351D01*
X0129144Y0075485D01*
X0128942Y0075624D01*
X0128743Y0075768D01*
X0128548Y0075917D01*
X0128356Y0076070D01*
X0128168Y0076228D01*
X0127984Y0076390D01*
X0127805Y0076558D01*
X0127629Y0076729D01*
X0127458Y0076905D01*
X0127290Y0077084D01*
X0127128Y0077268D01*
X0126970Y0077456D01*
X0126817Y0077648D01*
X0126668Y0077843D01*
X0126524Y0078042D01*
X0126385Y0078244D01*
X0126251Y0078450D01*
X0126123Y0078659D01*
X0125999Y0078871D01*
X0125881Y0079086D01*
X0125768Y0079304D01*
X0125660Y0079524D01*
X0125558Y0079748D01*
X0125461Y0079973D01*
X0125370Y0080201D01*
X0125285Y0080431D01*
X0125205Y0080663D01*
X0125131Y0080897D01*
X0125062Y0081133D01*
X0125000Y0081370D01*
X0124943Y0081609D01*
X0124892Y0081849D01*
X0124847Y0082090D01*
X0124808Y0082333D01*
X0124775Y0082576D01*
X0124748Y0082820D01*
X0124727Y0083064D01*
X0124712Y0083309D01*
X0124703Y0083555D01*
X0124700Y0083800D01*
X0128700Y0083800D02*
X0132200Y0083800D01*
X0118855Y0102545D02*
X0116733Y0104667D01*
X0113905Y0101838D01*
X0112491Y0103252D01*
X0118148Y0108909D01*
X0119562Y0107495D01*
X0116733Y0104667D01*
X0104612Y0106788D02*
X0104615Y0107033D01*
X0104624Y0107279D01*
X0104639Y0107524D01*
X0104660Y0107768D01*
X0104687Y0108012D01*
X0104720Y0108255D01*
X0104759Y0108498D01*
X0104804Y0108739D01*
X0104855Y0108979D01*
X0104912Y0109218D01*
X0104974Y0109455D01*
X0105043Y0109691D01*
X0105117Y0109925D01*
X0105197Y0110157D01*
X0105282Y0110387D01*
X0105373Y0110615D01*
X0105470Y0110840D01*
X0105572Y0111064D01*
X0105680Y0111284D01*
X0105793Y0111502D01*
X0105911Y0111717D01*
X0106035Y0111929D01*
X0106163Y0112138D01*
X0106297Y0112344D01*
X0106436Y0112546D01*
X0106580Y0112745D01*
X0106729Y0112940D01*
X0106882Y0113132D01*
X0107040Y0113320D01*
X0107202Y0113504D01*
X0107370Y0113683D01*
X0107541Y0113859D01*
X0107717Y0114030D01*
X0107896Y0114198D01*
X0108080Y0114360D01*
X0108268Y0114518D01*
X0108460Y0114671D01*
X0108655Y0114820D01*
X0108854Y0114964D01*
X0109056Y0115103D01*
X0109262Y0115237D01*
X0109471Y0115365D01*
X0109683Y0115489D01*
X0109898Y0115607D01*
X0110116Y0115720D01*
X0110336Y0115828D01*
X0110560Y0115930D01*
X0110785Y0116027D01*
X0111013Y0116118D01*
X0111243Y0116203D01*
X0111475Y0116283D01*
X0111709Y0116357D01*
X0111945Y0116426D01*
X0112182Y0116488D01*
X0112421Y0116545D01*
X0112661Y0116596D01*
X0112902Y0116641D01*
X0113145Y0116680D01*
X0113388Y0116713D01*
X0113632Y0116740D01*
X0113876Y0116761D01*
X0114121Y0116776D01*
X0114367Y0116785D01*
X0114612Y0116788D01*
X0114857Y0116785D01*
X0115103Y0116776D01*
X0115348Y0116761D01*
X0115592Y0116740D01*
X0115836Y0116713D01*
X0116079Y0116680D01*
X0116322Y0116641D01*
X0116563Y0116596D01*
X0116803Y0116545D01*
X0117042Y0116488D01*
X0117279Y0116426D01*
X0117515Y0116357D01*
X0117749Y0116283D01*
X0117981Y0116203D01*
X0118211Y0116118D01*
X0118439Y0116027D01*
X0118664Y0115930D01*
X0118888Y0115828D01*
X0119108Y0115720D01*
X0119326Y0115607D01*
X0119541Y0115489D01*
X0119753Y0115365D01*
X0119962Y0115237D01*
X0120168Y0115103D01*
X0120370Y0114964D01*
X0120569Y0114820D01*
X0120764Y0114671D01*
X0120956Y0114518D01*
X0121144Y0114360D01*
X0121328Y0114198D01*
X0121507Y0114030D01*
X0121683Y0113859D01*
X0121854Y0113683D01*
X0122022Y0113504D01*
X0122184Y0113320D01*
X0122342Y0113132D01*
X0122495Y0112940D01*
X0122644Y0112745D01*
X0122788Y0112546D01*
X0122927Y0112344D01*
X0123061Y0112138D01*
X0123189Y0111929D01*
X0123313Y0111717D01*
X0123431Y0111502D01*
X0123544Y0111284D01*
X0123652Y0111064D01*
X0123754Y0110840D01*
X0123851Y0110615D01*
X0123942Y0110387D01*
X0124027Y0110157D01*
X0124107Y0109925D01*
X0124181Y0109691D01*
X0124250Y0109455D01*
X0124312Y0109218D01*
X0124369Y0108979D01*
X0124420Y0108739D01*
X0124465Y0108498D01*
X0124504Y0108255D01*
X0124537Y0108012D01*
X0124564Y0107768D01*
X0124585Y0107524D01*
X0124600Y0107279D01*
X0124609Y0107033D01*
X0124612Y0106788D01*
X0124609Y0106543D01*
X0124600Y0106297D01*
X0124585Y0106052D01*
X0124564Y0105808D01*
X0124537Y0105564D01*
X0124504Y0105321D01*
X0124465Y0105078D01*
X0124420Y0104837D01*
X0124369Y0104597D01*
X0124312Y0104358D01*
X0124250Y0104121D01*
X0124181Y0103885D01*
X0124107Y0103651D01*
X0124027Y0103419D01*
X0123942Y0103189D01*
X0123851Y0102961D01*
X0123754Y0102736D01*
X0123652Y0102512D01*
X0123544Y0102292D01*
X0123431Y0102074D01*
X0123313Y0101859D01*
X0123189Y0101647D01*
X0123061Y0101438D01*
X0122927Y0101232D01*
X0122788Y0101030D01*
X0122644Y0100831D01*
X0122495Y0100636D01*
X0122342Y0100444D01*
X0122184Y0100256D01*
X0122022Y0100072D01*
X0121854Y0099893D01*
X0121683Y0099717D01*
X0121507Y0099546D01*
X0121328Y0099378D01*
X0121144Y0099216D01*
X0120956Y0099058D01*
X0120764Y0098905D01*
X0120569Y0098756D01*
X0120370Y0098612D01*
X0120168Y0098473D01*
X0119962Y0098339D01*
X0119753Y0098211D01*
X0119541Y0098087D01*
X0119326Y0097969D01*
X0119108Y0097856D01*
X0118888Y0097748D01*
X0118664Y0097646D01*
X0118439Y0097549D01*
X0118211Y0097458D01*
X0117981Y0097373D01*
X0117749Y0097293D01*
X0117515Y0097219D01*
X0117279Y0097150D01*
X0117042Y0097088D01*
X0116803Y0097031D01*
X0116563Y0096980D01*
X0116322Y0096935D01*
X0116079Y0096896D01*
X0115836Y0096863D01*
X0115592Y0096836D01*
X0115348Y0096815D01*
X0115103Y0096800D01*
X0114857Y0096791D01*
X0114612Y0096788D01*
X0114367Y0096791D01*
X0114121Y0096800D01*
X0113876Y0096815D01*
X0113632Y0096836D01*
X0113388Y0096863D01*
X0113145Y0096896D01*
X0112902Y0096935D01*
X0112661Y0096980D01*
X0112421Y0097031D01*
X0112182Y0097088D01*
X0111945Y0097150D01*
X0111709Y0097219D01*
X0111475Y0097293D01*
X0111243Y0097373D01*
X0111013Y0097458D01*
X0110785Y0097549D01*
X0110560Y0097646D01*
X0110336Y0097748D01*
X0110116Y0097856D01*
X0109898Y0097969D01*
X0109683Y0098087D01*
X0109471Y0098211D01*
X0109262Y0098339D01*
X0109056Y0098473D01*
X0108854Y0098612D01*
X0108655Y0098756D01*
X0108460Y0098905D01*
X0108268Y0099058D01*
X0108080Y0099216D01*
X0107896Y0099378D01*
X0107717Y0099546D01*
X0107541Y0099717D01*
X0107370Y0099893D01*
X0107202Y0100072D01*
X0107040Y0100256D01*
X0106882Y0100444D01*
X0106729Y0100636D01*
X0106580Y0100831D01*
X0106436Y0101030D01*
X0106297Y0101232D01*
X0106163Y0101438D01*
X0106035Y0101647D01*
X0105911Y0101859D01*
X0105793Y0102074D01*
X0105680Y0102292D01*
X0105572Y0102512D01*
X0105470Y0102736D01*
X0105373Y0102961D01*
X0105282Y0103189D01*
X0105197Y0103419D01*
X0105117Y0103651D01*
X0105043Y0103885D01*
X0104974Y0104121D01*
X0104912Y0104358D01*
X0104855Y0104597D01*
X0104804Y0104837D01*
X0104759Y0105078D01*
X0104720Y0105321D01*
X0104687Y0105564D01*
X0104660Y0105808D01*
X0104639Y0106052D01*
X0104624Y0106297D01*
X0104615Y0106543D01*
X0104612Y0106788D01*
X0110369Y0111030D02*
X0112844Y0108556D01*
X0113198Y0099717D02*
X0111784Y0098303D01*
X0113198Y0098303D02*
X0111784Y0099717D01*
X0105500Y0120000D02*
X0132500Y0120000D01*
X0132560Y0120002D01*
X0132621Y0120007D01*
X0132680Y0120016D01*
X0132739Y0120029D01*
X0132798Y0120045D01*
X0132855Y0120065D01*
X0132910Y0120088D01*
X0132965Y0120115D01*
X0133017Y0120144D01*
X0133068Y0120177D01*
X0133117Y0120213D01*
X0133163Y0120251D01*
X0133207Y0120293D01*
X0133249Y0120337D01*
X0133287Y0120383D01*
X0133323Y0120432D01*
X0133356Y0120483D01*
X0133385Y0120535D01*
X0133412Y0120590D01*
X0133435Y0120645D01*
X0133455Y0120702D01*
X0133471Y0120761D01*
X0133484Y0120820D01*
X0133493Y0120879D01*
X0133498Y0120940D01*
X0133500Y0121000D01*
X0133500Y0137000D01*
X0133498Y0137060D01*
X0133493Y0137121D01*
X0133484Y0137180D01*
X0133471Y0137239D01*
X0133455Y0137298D01*
X0133435Y0137355D01*
X0133412Y0137410D01*
X0133385Y0137465D01*
X0133356Y0137517D01*
X0133323Y0137568D01*
X0133287Y0137617D01*
X0133249Y0137663D01*
X0133207Y0137707D01*
X0133163Y0137749D01*
X0133117Y0137787D01*
X0133068Y0137823D01*
X0133017Y0137856D01*
X0132965Y0137885D01*
X0132910Y0137912D01*
X0132855Y0137935D01*
X0132798Y0137955D01*
X0132739Y0137971D01*
X0132680Y0137984D01*
X0132621Y0137993D01*
X0132560Y0137998D01*
X0132500Y0138000D01*
X0105500Y0138000D01*
X0105440Y0137998D01*
X0105379Y0137993D01*
X0105320Y0137984D01*
X0105261Y0137971D01*
X0105202Y0137955D01*
X0105145Y0137935D01*
X0105090Y0137912D01*
X0105035Y0137885D01*
X0104983Y0137856D01*
X0104932Y0137823D01*
X0104883Y0137787D01*
X0104837Y0137749D01*
X0104793Y0137707D01*
X0104751Y0137663D01*
X0104713Y0137617D01*
X0104677Y0137568D01*
X0104644Y0137517D01*
X0104615Y0137465D01*
X0104588Y0137410D01*
X0104565Y0137355D01*
X0104545Y0137298D01*
X0104529Y0137239D01*
X0104516Y0137180D01*
X0104507Y0137121D01*
X0104502Y0137060D01*
X0104500Y0137000D01*
X0104500Y0121000D01*
X0104502Y0120940D01*
X0104507Y0120879D01*
X0104516Y0120820D01*
X0104529Y0120761D01*
X0104545Y0120702D01*
X0104565Y0120645D01*
X0104588Y0120590D01*
X0104615Y0120535D01*
X0104644Y0120483D01*
X0104677Y0120432D01*
X0104713Y0120383D01*
X0104751Y0120337D01*
X0104793Y0120293D01*
X0104837Y0120251D01*
X0104883Y0120213D01*
X0104932Y0120177D01*
X0104983Y0120144D01*
X0105035Y0120115D01*
X0105090Y0120088D01*
X0105145Y0120065D01*
X0105202Y0120045D01*
X0105261Y0120029D01*
X0105320Y0120016D01*
X0105379Y0120007D01*
X0105440Y0120002D01*
X0105500Y0120000D01*
X0113000Y0129000D02*
X0117800Y0129000D01*
X0120300Y0129000D02*
X0125000Y0129000D01*
X0135100Y0131000D02*
X0135100Y0147000D01*
X0135102Y0147060D01*
X0135107Y0147121D01*
X0135116Y0147180D01*
X0135129Y0147239D01*
X0135145Y0147298D01*
X0135165Y0147355D01*
X0135188Y0147410D01*
X0135215Y0147465D01*
X0135244Y0147517D01*
X0135277Y0147568D01*
X0135313Y0147617D01*
X0135351Y0147663D01*
X0135393Y0147707D01*
X0135437Y0147749D01*
X0135483Y0147787D01*
X0135532Y0147823D01*
X0135583Y0147856D01*
X0135635Y0147885D01*
X0135690Y0147912D01*
X0135745Y0147935D01*
X0135802Y0147955D01*
X0135861Y0147971D01*
X0135920Y0147984D01*
X0135979Y0147993D01*
X0136040Y0147998D01*
X0136100Y0148000D01*
X0163100Y0148000D01*
X0163160Y0147998D01*
X0163221Y0147993D01*
X0163280Y0147984D01*
X0163339Y0147971D01*
X0163398Y0147955D01*
X0163455Y0147935D01*
X0163510Y0147912D01*
X0163565Y0147885D01*
X0163617Y0147856D01*
X0163668Y0147823D01*
X0163717Y0147787D01*
X0163763Y0147749D01*
X0163807Y0147707D01*
X0163849Y0147663D01*
X0163887Y0147617D01*
X0163923Y0147568D01*
X0163956Y0147517D01*
X0163985Y0147465D01*
X0164012Y0147410D01*
X0164035Y0147355D01*
X0164055Y0147298D01*
X0164071Y0147239D01*
X0164084Y0147180D01*
X0164093Y0147121D01*
X0164098Y0147060D01*
X0164100Y0147000D01*
X0164100Y0131000D01*
X0164098Y0130940D01*
X0164093Y0130879D01*
X0164084Y0130820D01*
X0164071Y0130761D01*
X0164055Y0130702D01*
X0164035Y0130645D01*
X0164012Y0130590D01*
X0163985Y0130535D01*
X0163956Y0130483D01*
X0163923Y0130432D01*
X0163887Y0130383D01*
X0163849Y0130337D01*
X0163807Y0130293D01*
X0163763Y0130251D01*
X0163717Y0130213D01*
X0163668Y0130177D01*
X0163617Y0130144D01*
X0163565Y0130115D01*
X0163510Y0130088D01*
X0163455Y0130065D01*
X0163398Y0130045D01*
X0163339Y0130029D01*
X0163280Y0130016D01*
X0163221Y0130007D01*
X0163160Y0130002D01*
X0163100Y0130000D01*
X0136100Y0130000D01*
X0136040Y0130002D01*
X0135979Y0130007D01*
X0135920Y0130016D01*
X0135861Y0130029D01*
X0135802Y0130045D01*
X0135745Y0130065D01*
X0135690Y0130088D01*
X0135635Y0130115D01*
X0135583Y0130144D01*
X0135532Y0130177D01*
X0135483Y0130213D01*
X0135437Y0130251D01*
X0135393Y0130293D01*
X0135351Y0130337D01*
X0135313Y0130383D01*
X0135277Y0130432D01*
X0135244Y0130483D01*
X0135215Y0130535D01*
X0135188Y0130590D01*
X0135165Y0130645D01*
X0135145Y0130702D01*
X0135129Y0130761D01*
X0135116Y0130820D01*
X0135107Y0130879D01*
X0135102Y0130940D01*
X0135100Y0131000D01*
X0132500Y0140500D02*
X0105500Y0140500D01*
X0105440Y0140502D01*
X0105379Y0140507D01*
X0105320Y0140516D01*
X0105261Y0140529D01*
X0105202Y0140545D01*
X0105145Y0140565D01*
X0105090Y0140588D01*
X0105035Y0140615D01*
X0104983Y0140644D01*
X0104932Y0140677D01*
X0104883Y0140713D01*
X0104837Y0140751D01*
X0104793Y0140793D01*
X0104751Y0140837D01*
X0104713Y0140883D01*
X0104677Y0140932D01*
X0104644Y0140983D01*
X0104615Y0141035D01*
X0104588Y0141090D01*
X0104565Y0141145D01*
X0104545Y0141202D01*
X0104529Y0141261D01*
X0104516Y0141320D01*
X0104507Y0141379D01*
X0104502Y0141440D01*
X0104500Y0141500D01*
X0104500Y0157500D01*
X0104502Y0157560D01*
X0104507Y0157621D01*
X0104516Y0157680D01*
X0104529Y0157739D01*
X0104545Y0157798D01*
X0104565Y0157855D01*
X0104588Y0157910D01*
X0104615Y0157965D01*
X0104644Y0158017D01*
X0104677Y0158068D01*
X0104713Y0158117D01*
X0104751Y0158163D01*
X0104793Y0158207D01*
X0104837Y0158249D01*
X0104883Y0158287D01*
X0104932Y0158323D01*
X0104983Y0158356D01*
X0105035Y0158385D01*
X0105090Y0158412D01*
X0105145Y0158435D01*
X0105202Y0158455D01*
X0105261Y0158471D01*
X0105320Y0158484D01*
X0105379Y0158493D01*
X0105440Y0158498D01*
X0105500Y0158500D01*
X0132500Y0158500D01*
X0132560Y0158498D01*
X0132621Y0158493D01*
X0132680Y0158484D01*
X0132739Y0158471D01*
X0132798Y0158455D01*
X0132855Y0158435D01*
X0132910Y0158412D01*
X0132965Y0158385D01*
X0133017Y0158356D01*
X0133068Y0158323D01*
X0133117Y0158287D01*
X0133163Y0158249D01*
X0133207Y0158207D01*
X0133249Y0158163D01*
X0133287Y0158117D01*
X0133323Y0158068D01*
X0133356Y0158017D01*
X0133385Y0157965D01*
X0133412Y0157910D01*
X0133435Y0157855D01*
X0133455Y0157798D01*
X0133471Y0157739D01*
X0133484Y0157680D01*
X0133493Y0157621D01*
X0133498Y0157560D01*
X0133500Y0157500D01*
X0133500Y0141500D01*
X0133498Y0141440D01*
X0133493Y0141379D01*
X0133484Y0141320D01*
X0133471Y0141261D01*
X0133455Y0141202D01*
X0133435Y0141145D01*
X0133412Y0141090D01*
X0133385Y0141035D01*
X0133356Y0140983D01*
X0133323Y0140932D01*
X0133287Y0140883D01*
X0133249Y0140837D01*
X0133207Y0140793D01*
X0133163Y0140751D01*
X0133117Y0140713D01*
X0133068Y0140677D01*
X0133017Y0140644D01*
X0132965Y0140615D01*
X0132910Y0140588D01*
X0132855Y0140565D01*
X0132798Y0140545D01*
X0132739Y0140529D01*
X0132680Y0140516D01*
X0132621Y0140507D01*
X0132560Y0140502D01*
X0132500Y0140500D01*
X0136000Y0150200D02*
X0163000Y0150200D01*
X0163060Y0150202D01*
X0163121Y0150207D01*
X0163180Y0150216D01*
X0163239Y0150229D01*
X0163298Y0150245D01*
X0163355Y0150265D01*
X0163410Y0150288D01*
X0163465Y0150315D01*
X0163517Y0150344D01*
X0163568Y0150377D01*
X0163617Y0150413D01*
X0163663Y0150451D01*
X0163707Y0150493D01*
X0163749Y0150537D01*
X0163787Y0150583D01*
X0163823Y0150632D01*
X0163856Y0150683D01*
X0163885Y0150735D01*
X0163912Y0150790D01*
X0163935Y0150845D01*
X0163955Y0150902D01*
X0163971Y0150961D01*
X0163984Y0151020D01*
X0163993Y0151079D01*
X0163998Y0151140D01*
X0164000Y0151200D01*
X0164000Y0167200D01*
X0163998Y0167260D01*
X0163993Y0167321D01*
X0163984Y0167380D01*
X0163971Y0167439D01*
X0163955Y0167498D01*
X0163935Y0167555D01*
X0163912Y0167610D01*
X0163885Y0167665D01*
X0163856Y0167717D01*
X0163823Y0167768D01*
X0163787Y0167817D01*
X0163749Y0167863D01*
X0163707Y0167907D01*
X0163663Y0167949D01*
X0163617Y0167987D01*
X0163568Y0168023D01*
X0163517Y0168056D01*
X0163465Y0168085D01*
X0163410Y0168112D01*
X0163355Y0168135D01*
X0163298Y0168155D01*
X0163239Y0168171D01*
X0163180Y0168184D01*
X0163121Y0168193D01*
X0163060Y0168198D01*
X0163000Y0168200D01*
X0136000Y0168200D01*
X0135940Y0168198D01*
X0135879Y0168193D01*
X0135820Y0168184D01*
X0135761Y0168171D01*
X0135702Y0168155D01*
X0135645Y0168135D01*
X0135590Y0168112D01*
X0135535Y0168085D01*
X0135483Y0168056D01*
X0135432Y0168023D01*
X0135383Y0167987D01*
X0135337Y0167949D01*
X0135293Y0167907D01*
X0135251Y0167863D01*
X0135213Y0167817D01*
X0135177Y0167768D01*
X0135144Y0167717D01*
X0135115Y0167665D01*
X0135088Y0167610D01*
X0135065Y0167555D01*
X0135045Y0167498D01*
X0135029Y0167439D01*
X0135016Y0167380D01*
X0135007Y0167321D01*
X0135002Y0167260D01*
X0135000Y0167200D01*
X0135000Y0151200D01*
X0135002Y0151140D01*
X0135007Y0151079D01*
X0135016Y0151020D01*
X0135029Y0150961D01*
X0135045Y0150902D01*
X0135065Y0150845D01*
X0135088Y0150790D01*
X0135115Y0150735D01*
X0135144Y0150683D01*
X0135177Y0150632D01*
X0135213Y0150583D01*
X0135251Y0150537D01*
X0135293Y0150493D01*
X0135337Y0150451D01*
X0135383Y0150413D01*
X0135432Y0150377D01*
X0135483Y0150344D01*
X0135535Y0150315D01*
X0135590Y0150288D01*
X0135645Y0150265D01*
X0135702Y0150245D01*
X0135761Y0150229D01*
X0135820Y0150216D01*
X0135879Y0150207D01*
X0135940Y0150202D01*
X0136000Y0150200D01*
X0143500Y0159200D02*
X0148300Y0159200D01*
X0150800Y0159200D02*
X0155500Y0159200D01*
X0155600Y0139000D02*
X0150900Y0139000D01*
X0148400Y0139000D02*
X0143600Y0139000D01*
X0125000Y0149500D02*
X0120300Y0149500D01*
X0117800Y0149500D02*
X0113000Y0149500D01*
X0151600Y0072800D02*
X0151600Y0064800D01*
X0153600Y0064800D01*
X0153600Y0068800D01*
X0153600Y0072800D01*
X0151600Y0072800D01*
X0153600Y0068800D02*
X0156600Y0068800D01*
X0154600Y0062800D02*
X0154600Y0060800D01*
X0155600Y0061800D02*
X0153600Y0061800D01*
X0104961Y0043882D02*
X0104961Y0018382D01*
D16*
X0096461Y0020882D02*
X0096461Y0021882D01*
D17*
X0132011Y0054732D02*
X0134511Y0054732D01*
X0132011Y0054732D02*
X0134136Y0057232D01*
X0133386Y0059232D02*
X0133313Y0059230D01*
X0133241Y0059225D01*
X0133169Y0059216D01*
X0133097Y0059203D01*
X0133026Y0059187D01*
X0132956Y0059167D01*
X0132888Y0059143D01*
X0132820Y0059117D01*
X0132754Y0059086D01*
X0132689Y0059053D01*
X0132627Y0059016D01*
X0132566Y0058977D01*
X0132507Y0058934D01*
X0132450Y0058888D01*
X0132396Y0058840D01*
X0132345Y0058789D01*
X0132295Y0058735D01*
X0132249Y0058679D01*
X0132206Y0058621D01*
X0132165Y0058560D01*
X0132128Y0058498D01*
X0132094Y0058434D01*
X0132063Y0058368D01*
X0132035Y0058301D01*
X0132011Y0058232D01*
X0134135Y0057232D02*
X0134181Y0057278D01*
X0134225Y0057327D01*
X0134265Y0057378D01*
X0134303Y0057431D01*
X0134338Y0057486D01*
X0134370Y0057543D01*
X0134399Y0057601D01*
X0134425Y0057661D01*
X0134447Y0057723D01*
X0134466Y0057785D01*
X0134482Y0057848D01*
X0134494Y0057912D01*
X0134503Y0057977D01*
X0134508Y0058042D01*
X0134510Y0058107D01*
X0134511Y0058107D02*
X0134509Y0058172D01*
X0134503Y0058238D01*
X0134494Y0058302D01*
X0134481Y0058366D01*
X0134464Y0058430D01*
X0134443Y0058492D01*
X0134419Y0058553D01*
X0134391Y0058612D01*
X0134360Y0058670D01*
X0134326Y0058725D01*
X0134288Y0058779D01*
X0134248Y0058830D01*
X0134204Y0058879D01*
X0134158Y0058925D01*
X0134109Y0058969D01*
X0134058Y0059009D01*
X0134004Y0059047D01*
X0133949Y0059081D01*
X0133891Y0059112D01*
X0133832Y0059140D01*
X0133771Y0059164D01*
X0133709Y0059185D01*
X0133645Y0059202D01*
X0133581Y0059215D01*
X0133517Y0059224D01*
X0133451Y0059230D01*
X0133386Y0059232D01*
X0133161Y0064232D02*
X0133161Y0068732D01*
X0131911Y0067732D01*
X0131911Y0064232D02*
X0134411Y0064232D01*
X0113250Y0183750D02*
X0110750Y0183750D01*
X0112000Y0183750D02*
X0112000Y0188250D01*
X0110750Y0187250D01*
X0108621Y0188250D02*
X0108621Y0184750D01*
X0108619Y0184690D01*
X0108614Y0184629D01*
X0108605Y0184570D01*
X0108592Y0184511D01*
X0108576Y0184452D01*
X0108556Y0184395D01*
X0108533Y0184340D01*
X0108506Y0184285D01*
X0108477Y0184233D01*
X0108444Y0184182D01*
X0108408Y0184133D01*
X0108370Y0184087D01*
X0108328Y0184043D01*
X0108284Y0184001D01*
X0108238Y0183963D01*
X0108189Y0183927D01*
X0108138Y0183894D01*
X0108086Y0183865D01*
X0108031Y0183838D01*
X0107976Y0183815D01*
X0107919Y0183795D01*
X0107860Y0183779D01*
X0107801Y0183766D01*
X0107742Y0183757D01*
X0107681Y0183752D01*
X0107621Y0183750D01*
X0107121Y0183750D01*
D18*
X0096461Y0032382D03*
D19*
X0126461Y0022382D03*
D20*
X0126461Y0024382D03*
D21*
X0126461Y0026382D03*
D22*
X0126461Y0028382D03*
D23*
X0126461Y0029882D03*
D24*
X0126461Y0061382D03*
X0116461Y0061382D03*
X0106461Y0061382D03*
X0096461Y0061382D03*
X0086461Y0061382D03*
X0076461Y0061382D03*
X0066461Y0061382D03*
D25*
X0066461Y0056632D03*
X0076461Y0056632D03*
X0086461Y0056632D03*
X0096461Y0056632D03*
X0106461Y0056632D03*
X0116461Y0056632D03*
X0126461Y0056632D03*
D26*
X0126461Y0065132D03*
X0116461Y0065132D03*
X0106461Y0065132D03*
X0096461Y0065132D03*
X0086461Y0065132D03*
X0076461Y0065132D03*
X0066461Y0065132D03*
D27*
X0033800Y0109700D03*
X0033800Y0119700D03*
X0033800Y0129700D03*
X0033800Y0139700D03*
X0033800Y0149700D03*
X0033800Y0159700D03*
X0033900Y0174900D03*
X0033900Y0184900D03*
X0118700Y0184500D03*
X0118700Y0174500D03*
X0128700Y0174500D03*
X0128700Y0184500D03*
X0138700Y0184500D03*
X0138700Y0174500D03*
D28*
X0059850Y0066200D03*
X0056050Y0060800D03*
X0052250Y0066200D03*
D29*
X0044500Y0066500D03*
X0044500Y0061500D03*
D30*
X0131461Y0099000D03*
X0131461Y0104000D03*
X0131461Y0109000D03*
X0131461Y0114000D03*
X0151539Y0114000D03*
X0151539Y0109000D03*
X0151539Y0104000D03*
X0151539Y0099000D03*
D31*
X0132700Y0083800D03*
X0148600Y0068800D03*
G36*
X0115319Y0111737D02*
X0116733Y0110323D01*
X0111077Y0104667D01*
X0109663Y0106081D01*
X0115319Y0111737D01*
G37*
D32*
X0117800Y0126500D02*
X0117800Y0129000D01*
X0117800Y0131500D01*
X0120300Y0131500D02*
X0120300Y0129000D01*
X0120300Y0126500D01*
X0120300Y0147000D02*
X0120300Y0149500D01*
X0120300Y0152000D01*
X0117800Y0152000D02*
X0117800Y0149500D01*
X0117800Y0147000D01*
X0148400Y0141500D02*
X0148400Y0139000D01*
X0148400Y0136500D01*
X0150900Y0136500D02*
X0150900Y0139000D01*
X0150900Y0141500D01*
X0150800Y0156700D02*
X0150800Y0159200D01*
X0150800Y0161700D01*
X0148300Y0161700D02*
X0148300Y0159200D01*
X0148300Y0156700D01*
D33*
X0144377Y0159196D03*
X0154823Y0159204D03*
X0154823Y0139004D03*
X0144377Y0138996D03*
X0124323Y0129004D03*
X0113877Y0128996D03*
X0113777Y0149396D03*
X0124223Y0149404D03*
D34*
X0031500Y0072406D03*
X0031500Y0060594D03*
X0031500Y0047406D03*
X0031500Y0035594D03*
D35*
X0031500Y0037071D03*
X0031500Y0070929D03*
M02*
