G75*
%MOIN*%
%OFA0B0*%
%FSLAX25Y25*%
%IPPOS*%
%LPD*%
%AMOC8*
5,1,8,0,0,1.08239X$1,22.5*
%
%ADD10R,0.05131X0.04737*%
%ADD11R,0.04737X0.05131*%
%ADD12R,0.05800X0.03000*%
%ADD13R,0.03000X0.05800*%
%ADD14R,0.05918X0.05131*%
%ADD15OC8,0.06400*%
%ADD16R,0.08200X0.08200*%
%ADD17OC8,0.08200*%
%ADD18C,0.08200*%
%ADD19R,0.22060X0.25209*%
%ADD20R,0.04737X0.07099*%
%ADD21R,0.25209X0.22060*%
%ADD22R,0.07099X0.04737*%
%ADD23OC8,0.06000*%
%ADD24C,0.06000*%
%ADD25C,0.01200*%
%ADD26C,0.03778*%
D10*
X0076500Y0033154D03*
X0076500Y0039846D03*
X0102000Y0073554D03*
X0102000Y0080246D03*
X0103454Y0091500D03*
X0110146Y0091500D03*
G36*
X0097835Y0112616D02*
X0094208Y0116243D01*
X0097557Y0119592D01*
X0101184Y0115965D01*
X0097835Y0112616D01*
G37*
G36*
X0102130Y0116904D02*
X0098503Y0120531D01*
X0101852Y0123880D01*
X0105479Y0120253D01*
X0102130Y0116904D01*
G37*
G36*
X0097397Y0121637D02*
X0093770Y0125264D01*
X0097119Y0128613D01*
X0100746Y0124986D01*
X0097397Y0121637D01*
G37*
G36*
X0093102Y0117349D02*
X0089475Y0120976D01*
X0092824Y0124325D01*
X0096451Y0120698D01*
X0093102Y0117349D01*
G37*
X0076500Y0107446D03*
X0076500Y0100754D03*
X0068300Y0098154D03*
X0068300Y0104846D03*
X0061900Y0095546D03*
X0061900Y0088854D03*
X0068400Y0091046D03*
X0068400Y0084354D03*
X0076800Y0084154D03*
X0076800Y0090846D03*
X0123500Y0122654D03*
X0123500Y0129346D03*
X0119000Y0142654D03*
X0119000Y0149346D03*
X0151500Y0152354D03*
X0151500Y0159046D03*
X0159600Y0129846D03*
X0159600Y0123154D03*
X0149000Y0104846D03*
X0149000Y0098154D03*
X0133500Y0103154D03*
X0133500Y0109846D03*
G36*
X0060927Y0158822D02*
X0064554Y0155195D01*
X0061205Y0151846D01*
X0057578Y0155473D01*
X0060927Y0158822D01*
G37*
G36*
X0056195Y0163554D02*
X0059822Y0159927D01*
X0056473Y0156578D01*
X0052846Y0160205D01*
X0056195Y0163554D01*
G37*
X0053871Y0166383D03*
X0060564Y0166383D03*
G36*
X0050983Y0157966D02*
X0054610Y0154339D01*
X0051261Y0150990D01*
X0047634Y0154617D01*
X0050983Y0157966D01*
G37*
G36*
X0055715Y0153234D02*
X0059342Y0149607D01*
X0055993Y0146258D01*
X0052366Y0149885D01*
X0055715Y0153234D01*
G37*
D11*
G36*
X0050047Y0149927D02*
X0046698Y0146578D01*
X0043071Y0150205D01*
X0046420Y0153554D01*
X0050047Y0149927D01*
G37*
G36*
X0045061Y0142764D02*
X0048410Y0146113D01*
X0052037Y0142486D01*
X0048688Y0139137D01*
X0045061Y0142764D01*
G37*
G36*
X0045315Y0145195D02*
X0041966Y0141846D01*
X0038339Y0145473D01*
X0041688Y0148822D01*
X0045315Y0145195D01*
G37*
G36*
X0040329Y0138031D02*
X0043678Y0141380D01*
X0047305Y0137753D01*
X0043956Y0134404D01*
X0040329Y0138031D01*
G37*
G36*
X0048003Y0123412D02*
X0051352Y0126761D01*
X0054979Y0123134D01*
X0051630Y0119785D01*
X0048003Y0123412D01*
G37*
G36*
X0043270Y0118680D02*
X0046619Y0122029D01*
X0050246Y0118402D01*
X0046897Y0115053D01*
X0043270Y0118680D01*
G37*
G36*
X0055422Y0113395D02*
X0052073Y0110046D01*
X0048446Y0113673D01*
X0051795Y0117022D01*
X0055422Y0113395D01*
G37*
G36*
X0059322Y0109495D02*
X0055973Y0106146D01*
X0052346Y0109773D01*
X0055695Y0113122D01*
X0059322Y0109495D01*
G37*
G36*
X0063022Y0105595D02*
X0059673Y0102246D01*
X0056046Y0105873D01*
X0059395Y0109222D01*
X0063022Y0105595D01*
G37*
G36*
X0067754Y0110327D02*
X0064405Y0106978D01*
X0060778Y0110605D01*
X0064127Y0113954D01*
X0067754Y0110327D01*
G37*
G36*
X0064054Y0114227D02*
X0060705Y0110878D01*
X0057078Y0114505D01*
X0060427Y0117854D01*
X0064054Y0114227D01*
G37*
G36*
X0060154Y0118127D02*
X0056805Y0114778D01*
X0053178Y0118405D01*
X0056527Y0121754D01*
X0060154Y0118127D01*
G37*
G36*
X0042049Y0107635D02*
X0045398Y0110984D01*
X0049025Y0107357D01*
X0045676Y0104008D01*
X0042049Y0107635D01*
G37*
G36*
X0037316Y0102902D02*
X0040665Y0106251D01*
X0044292Y0102624D01*
X0040943Y0099275D01*
X0037316Y0102902D01*
G37*
G36*
X0041546Y0098773D02*
X0044895Y0102122D01*
X0048522Y0098495D01*
X0045173Y0095146D01*
X0041546Y0098773D01*
G37*
G36*
X0046278Y0103505D02*
X0049627Y0106854D01*
X0053254Y0103227D01*
X0049905Y0099878D01*
X0046278Y0103505D01*
G37*
G36*
X0082973Y0114054D02*
X0086322Y0110705D01*
X0082695Y0107078D01*
X0079346Y0110427D01*
X0082973Y0114054D01*
G37*
G36*
X0086908Y0118090D02*
X0090257Y0114741D01*
X0086630Y0111114D01*
X0083281Y0114463D01*
X0086908Y0118090D01*
G37*
G36*
X0091641Y0113357D02*
X0094990Y0110008D01*
X0091363Y0106381D01*
X0088014Y0109730D01*
X0091641Y0113357D01*
G37*
G36*
X0087705Y0109322D02*
X0091054Y0105973D01*
X0087427Y0102346D01*
X0084078Y0105695D01*
X0087705Y0109322D01*
G37*
G36*
X0092795Y0097178D02*
X0089446Y0100527D01*
X0093073Y0104154D01*
X0096422Y0100805D01*
X0092795Y0097178D01*
G37*
G36*
X0097527Y0092446D02*
X0094178Y0095795D01*
X0097805Y0099422D01*
X0101154Y0096073D01*
X0097527Y0092446D01*
G37*
X0095354Y0086100D03*
X0095400Y0080046D03*
X0095400Y0073354D03*
X0102046Y0086100D03*
X0107600Y0084646D03*
X0107600Y0077954D03*
X0118500Y0091354D03*
X0118500Y0098046D03*
X0126500Y0103154D03*
X0126500Y0109846D03*
G36*
X0102154Y0097213D02*
X0098805Y0100562D01*
X0102432Y0104189D01*
X0105781Y0100840D01*
X0102154Y0097213D01*
G37*
G36*
X0097421Y0101946D02*
X0094072Y0105295D01*
X0097699Y0108922D01*
X0101048Y0105573D01*
X0097421Y0101946D01*
G37*
X0085917Y0161426D03*
X0085917Y0168119D03*
X0038946Y0167400D03*
X0032254Y0167400D03*
X0157000Y0104846D03*
X0157000Y0098154D03*
D12*
G36*
X0094134Y0127334D02*
X0090034Y0131434D01*
X0092156Y0133556D01*
X0096256Y0129456D01*
X0094134Y0127334D01*
G37*
G36*
X0091907Y0125107D02*
X0087807Y0129207D01*
X0089929Y0131329D01*
X0094029Y0127229D01*
X0091907Y0125107D01*
G37*
G36*
X0089680Y0122880D02*
X0085580Y0126980D01*
X0087702Y0129102D01*
X0091802Y0125002D01*
X0089680Y0122880D01*
G37*
G36*
X0087453Y0120652D02*
X0083353Y0124752D01*
X0085475Y0126874D01*
X0089575Y0122774D01*
X0087453Y0120652D01*
G37*
G36*
X0085226Y0118425D02*
X0081126Y0122525D01*
X0083248Y0124647D01*
X0087348Y0120547D01*
X0085226Y0118425D01*
G37*
G36*
X0082998Y0116198D02*
X0078898Y0120298D01*
X0081020Y0122420D01*
X0085120Y0118320D01*
X0082998Y0116198D01*
G37*
G36*
X0080771Y0113971D02*
X0076671Y0118071D01*
X0078793Y0120193D01*
X0082893Y0116093D01*
X0080771Y0113971D01*
G37*
G36*
X0078544Y0111744D02*
X0074444Y0115844D01*
X0076566Y0117966D01*
X0080666Y0113866D01*
X0078544Y0111744D01*
G37*
G36*
X0054644Y0135644D02*
X0050544Y0139744D01*
X0052666Y0141866D01*
X0056766Y0137766D01*
X0054644Y0135644D01*
G37*
G36*
X0056871Y0137871D02*
X0052771Y0141971D01*
X0054893Y0144093D01*
X0058993Y0139993D01*
X0056871Y0137871D01*
G37*
G36*
X0059098Y0140098D02*
X0054998Y0144198D01*
X0057120Y0146320D01*
X0061220Y0142220D01*
X0059098Y0140098D01*
G37*
G36*
X0061325Y0142326D02*
X0057225Y0146426D01*
X0059347Y0148548D01*
X0063447Y0144448D01*
X0061325Y0142326D01*
G37*
G36*
X0063552Y0144553D02*
X0059452Y0148653D01*
X0061574Y0150775D01*
X0065674Y0146675D01*
X0063552Y0144553D01*
G37*
G36*
X0065780Y0146780D02*
X0061680Y0150880D01*
X0063802Y0153002D01*
X0067902Y0148902D01*
X0065780Y0146780D01*
G37*
G36*
X0068007Y0149007D02*
X0063907Y0153107D01*
X0066029Y0155229D01*
X0070129Y0151129D01*
X0068007Y0149007D01*
G37*
G36*
X0070234Y0151234D02*
X0066134Y0155334D01*
X0068256Y0157456D01*
X0072356Y0153356D01*
X0070234Y0151234D01*
G37*
D13*
G36*
X0076566Y0151234D02*
X0074444Y0153356D01*
X0078544Y0157456D01*
X0080666Y0155334D01*
X0076566Y0151234D01*
G37*
G36*
X0078793Y0149007D02*
X0076671Y0151129D01*
X0080771Y0155229D01*
X0082893Y0153107D01*
X0078793Y0149007D01*
G37*
G36*
X0081020Y0146780D02*
X0078898Y0148902D01*
X0082998Y0153002D01*
X0085120Y0150880D01*
X0081020Y0146780D01*
G37*
G36*
X0083248Y0144553D02*
X0081126Y0146675D01*
X0085226Y0150775D01*
X0087348Y0148653D01*
X0083248Y0144553D01*
G37*
G36*
X0085475Y0142326D02*
X0083353Y0144448D01*
X0087453Y0148548D01*
X0089575Y0146426D01*
X0085475Y0142326D01*
G37*
G36*
X0087702Y0140098D02*
X0085580Y0142220D01*
X0089680Y0146320D01*
X0091802Y0144198D01*
X0087702Y0140098D01*
G37*
G36*
X0089929Y0137871D02*
X0087807Y0139993D01*
X0091907Y0144093D01*
X0094029Y0141971D01*
X0089929Y0137871D01*
G37*
G36*
X0092156Y0135644D02*
X0090034Y0137766D01*
X0094134Y0141866D01*
X0096256Y0139744D01*
X0092156Y0135644D01*
G37*
G36*
X0068256Y0111744D02*
X0066134Y0113866D01*
X0070234Y0117966D01*
X0072356Y0115844D01*
X0068256Y0111744D01*
G37*
G36*
X0066029Y0113971D02*
X0063907Y0116093D01*
X0068007Y0120193D01*
X0070129Y0118071D01*
X0066029Y0113971D01*
G37*
G36*
X0063802Y0116198D02*
X0061680Y0118320D01*
X0065780Y0122420D01*
X0067902Y0120298D01*
X0063802Y0116198D01*
G37*
G36*
X0061574Y0118425D02*
X0059452Y0120547D01*
X0063552Y0124647D01*
X0065674Y0122525D01*
X0061574Y0118425D01*
G37*
G36*
X0059347Y0120652D02*
X0057225Y0122774D01*
X0061325Y0126874D01*
X0063447Y0124752D01*
X0059347Y0120652D01*
G37*
G36*
X0057120Y0122880D02*
X0054998Y0125002D01*
X0059098Y0129102D01*
X0061220Y0126980D01*
X0057120Y0122880D01*
G37*
G36*
X0054893Y0125107D02*
X0052771Y0127229D01*
X0056871Y0131329D01*
X0058993Y0129207D01*
X0054893Y0125107D01*
G37*
G36*
X0052666Y0127334D02*
X0050544Y0129456D01*
X0054644Y0133556D01*
X0056766Y0131434D01*
X0052666Y0127334D01*
G37*
D14*
X0069028Y0161167D03*
X0069028Y0168253D03*
X0078083Y0168253D03*
X0078083Y0161167D03*
D15*
X0076461Y0066382D03*
X0086461Y0066382D03*
X0086461Y0056382D03*
X0076461Y0056382D03*
X0066461Y0056382D03*
X0066461Y0066382D03*
X0096461Y0066382D03*
X0106461Y0066382D03*
X0116461Y0066382D03*
X0116461Y0056382D03*
X0106461Y0056382D03*
X0096461Y0056382D03*
X0126461Y0056382D03*
X0126461Y0066382D03*
D16*
X0138700Y0184500D03*
D17*
X0138700Y0174500D03*
X0128700Y0174500D03*
X0128700Y0184500D03*
X0118700Y0184500D03*
X0118700Y0174500D03*
D18*
X0033900Y0174900D03*
X0033900Y0184900D03*
X0033800Y0159700D03*
X0033800Y0149700D03*
X0033800Y0139700D03*
X0033800Y0129700D03*
X0033800Y0119700D03*
X0033800Y0109700D03*
D19*
X0046500Y0063657D03*
D20*
X0037524Y0092398D03*
X0055476Y0092398D03*
D21*
X0046657Y0036500D03*
D22*
X0075398Y0027524D03*
X0075398Y0045476D03*
D23*
X0130700Y0083800D03*
X0146600Y0068800D03*
X0129000Y0129000D03*
X0139600Y0139000D03*
X0129000Y0149500D03*
X0139500Y0159200D03*
X0159500Y0159200D03*
X0159600Y0139000D03*
X0109000Y0129000D03*
X0109000Y0149500D03*
D24*
X0117441Y0103959D03*
X0138700Y0083800D03*
X0154600Y0068800D03*
D25*
X0111390Y0111415D02*
X0110790Y0112015D01*
X0112778Y0112015D01*
X0114183Y0110610D01*
X0114183Y0108622D01*
X0112778Y0107217D01*
X0110790Y0107217D01*
X0109385Y0108622D01*
X0109385Y0110610D01*
X0110790Y0112015D01*
X0111163Y0111115D01*
X0112405Y0111115D01*
X0113283Y0110237D01*
X0113283Y0108995D01*
X0112405Y0108117D01*
X0111163Y0108117D01*
X0110285Y0108995D01*
X0110285Y0110237D01*
X0111163Y0111115D01*
X0111536Y0110215D01*
X0112032Y0110215D01*
X0112383Y0109864D01*
X0112383Y0109368D01*
X0112032Y0109017D01*
X0111536Y0109017D01*
X0111185Y0109368D01*
X0111185Y0109864D01*
X0111536Y0110215D01*
D26*
X0026500Y0021500D03*
X0025400Y0031500D03*
X0025400Y0041400D03*
X0025500Y0051300D03*
X0031500Y0051500D03*
X0031500Y0056500D03*
X0025600Y0061500D03*
X0037500Y0043500D03*
X0037500Y0039000D03*
X0037500Y0034500D03*
X0037500Y0030000D03*
X0041500Y0021500D03*
X0056500Y0021500D03*
X0071500Y0021500D03*
X0086500Y0021500D03*
X0086500Y0031500D03*
X0086500Y0041500D03*
X0101500Y0041500D03*
X0101500Y0031500D03*
X0101500Y0021500D03*
X0116500Y0021500D03*
X0116500Y0031500D03*
X0116500Y0041500D03*
X0131500Y0041500D03*
X0131500Y0031500D03*
X0131500Y0021500D03*
X0146500Y0021500D03*
X0146500Y0031500D03*
X0146500Y0041500D03*
X0161500Y0041500D03*
X0161500Y0031500D03*
X0161500Y0021500D03*
X0141500Y0071500D03*
X0141500Y0076500D03*
X0146500Y0076500D03*
X0151500Y0076500D03*
X0136500Y0076500D03*
X0136500Y0071500D03*
X0126500Y0076500D03*
X0121500Y0076500D03*
X0121500Y0071500D03*
X0103500Y0094800D03*
X0107000Y0096600D03*
X0110200Y0099400D03*
X0123300Y0104000D03*
X0119000Y0114000D03*
X0123500Y0116500D03*
X0111500Y0116500D03*
X0111500Y0121500D03*
X0094000Y0133700D03*
X0081500Y0131500D03*
X0081500Y0126500D03*
X0076500Y0126500D03*
X0076500Y0131500D03*
X0071500Y0129600D03*
X0066600Y0124700D03*
X0073300Y0121900D03*
X0062100Y0133100D03*
X0065100Y0135700D03*
X0064673Y0141100D03*
X0071500Y0136500D03*
X0076500Y0136500D03*
X0076500Y0147300D03*
X0061400Y0161700D03*
X0041500Y0176500D03*
X0041500Y0181500D03*
X0041500Y0186500D03*
X0029300Y0166900D03*
X0039600Y0155000D03*
X0042000Y0115900D03*
X0040700Y0110900D03*
X0033700Y0099600D03*
X0045300Y0087300D03*
X0041500Y0081500D03*
X0037500Y0081500D03*
X0033563Y0081500D03*
X0054600Y0108200D03*
X0054000Y0114200D03*
X0059700Y0103300D03*
X0068400Y0094800D03*
X0077500Y0098400D03*
X0081500Y0101500D03*
X0089400Y0104100D03*
X0093300Y0106800D03*
X0086500Y0079300D03*
X0071000Y0045500D03*
X0144000Y0107500D03*
X0145800Y0099000D03*
X0159712Y0113000D03*
X0151500Y0121500D03*
X0146200Y0168400D03*
X0123600Y0167000D03*
X0111900Y0170700D03*
X0106500Y0176500D03*
X0106500Y0181500D03*
X0106500Y0186500D03*
X0091100Y0169900D03*
M02*
