G75*
%MOIN*%
%OFA0B0*%
%FSLAX25Y25*%
%IPPOS*%
%LPD*%
%AMOC8*
5,1,8,0,0,1.08239X$1,22.5*
%
%ADD10OC8,0.05600*%
%ADD11R,0.02362X0.05000*%
%ADD12R,0.05000X0.02362*%
%ADD13R,0.07400X0.07400*%
%ADD14OC8,0.07400*%
%ADD15C,0.07400*%
%ADD16R,0.03100X0.03500*%
%ADD17R,0.04331X0.03937*%
%ADD18R,0.08661X0.02362*%
%ADD19OC8,0.05200*%
%ADD20C,0.05200*%
%ADD21C,0.01040*%
%ADD22R,0.06299X0.07087*%
%ADD23R,0.05512X0.06299*%
%ADD24C,0.02978*%
%ADD25C,0.01000*%
%ADD26C,0.01600*%
%ADD27C,0.02400*%
%ADD28C,0.01200*%
%ADD29C,0.03200*%
%ADD30C,0.04000*%
%ADD31C,0.00800*%
D10*
X0066461Y0056382D03*
X0076461Y0056382D03*
X0086461Y0056382D03*
X0086461Y0066382D03*
X0076461Y0066382D03*
X0066461Y0066382D03*
X0096461Y0066382D03*
X0106461Y0066382D03*
X0116461Y0066382D03*
X0116461Y0056382D03*
X0106461Y0056382D03*
X0096461Y0056382D03*
X0126461Y0056382D03*
X0126461Y0066382D03*
D11*
X0091579Y0084650D03*
X0086854Y0084650D03*
X0082130Y0084650D03*
X0077406Y0084650D03*
X0072681Y0084650D03*
X0067957Y0084650D03*
X0063232Y0084650D03*
X0058508Y0084650D03*
X0053783Y0084650D03*
D12*
X0045909Y0092524D03*
X0045909Y0096904D03*
X0045909Y0101283D03*
X0045909Y0105663D03*
X0045909Y0110043D03*
X0045909Y0114423D03*
X0045909Y0118803D03*
X0045909Y0123183D03*
X0045909Y0127563D03*
X0045909Y0131943D03*
X0045909Y0136323D03*
X0045909Y0140703D03*
X0045909Y0145083D03*
X0045909Y0149463D03*
X0045909Y0153843D03*
X0045909Y0158222D03*
X0045909Y0162602D03*
X0099059Y0162602D03*
X0099059Y0158222D03*
X0099059Y0153843D03*
X0099059Y0149463D03*
X0099059Y0145083D03*
X0099059Y0140703D03*
X0099059Y0136323D03*
X0099059Y0131943D03*
X0099059Y0127563D03*
X0099059Y0123183D03*
X0099059Y0118803D03*
X0099059Y0114423D03*
X0099059Y0110043D03*
X0099059Y0105663D03*
X0099059Y0101283D03*
X0099059Y0096904D03*
X0099059Y0092524D03*
D13*
X0138700Y0184500D03*
D14*
X0138700Y0174500D03*
X0128700Y0174500D03*
X0128700Y0184500D03*
X0118700Y0184500D03*
X0118700Y0174500D03*
D15*
X0033900Y0174900D03*
X0033900Y0184900D03*
X0033800Y0159700D03*
X0033800Y0149700D03*
X0033800Y0139700D03*
X0033800Y0129700D03*
X0033800Y0119700D03*
X0033800Y0109700D03*
D16*
X0052300Y0067500D03*
X0059900Y0067500D03*
X0056100Y0059500D03*
D17*
X0044500Y0060654D03*
X0044500Y0067346D03*
D18*
X0131264Y0099000D03*
X0131264Y0104000D03*
X0131264Y0109000D03*
X0131264Y0114000D03*
X0151736Y0114000D03*
X0151736Y0109000D03*
X0151736Y0104000D03*
X0151736Y0099000D03*
D19*
X0130700Y0083800D03*
X0146600Y0068800D03*
X0129000Y0129000D03*
X0139600Y0139000D03*
X0129000Y0149500D03*
X0139500Y0159200D03*
X0159500Y0159200D03*
X0159600Y0139000D03*
X0109000Y0129000D03*
X0109000Y0149500D03*
D20*
X0117441Y0103959D03*
X0138700Y0083800D03*
X0154600Y0068800D03*
D21*
X0111443Y0111175D02*
X0110923Y0111695D01*
X0112645Y0111695D01*
X0113863Y0110477D01*
X0113863Y0108755D01*
X0112645Y0107537D01*
X0110923Y0107537D01*
X0109705Y0108755D01*
X0109705Y0110477D01*
X0110923Y0111695D01*
X0111246Y0110915D01*
X0112322Y0110915D01*
X0113083Y0110154D01*
X0113083Y0109078D01*
X0112322Y0108317D01*
X0111246Y0108317D01*
X0110485Y0109078D01*
X0110485Y0110154D01*
X0111246Y0110915D01*
X0111569Y0110135D01*
X0111999Y0110135D01*
X0112303Y0109831D01*
X0112303Y0109401D01*
X0111999Y0109097D01*
X0111569Y0109097D01*
X0111265Y0109401D01*
X0111265Y0109831D01*
X0111569Y0110135D01*
D22*
X0113588Y0129000D03*
X0124612Y0129000D03*
X0124512Y0149400D03*
X0113488Y0149400D03*
X0144088Y0159200D03*
X0155112Y0159200D03*
X0155112Y0139000D03*
X0144088Y0139000D03*
D23*
X0031500Y0072406D03*
X0031500Y0060594D03*
X0031500Y0047406D03*
X0031500Y0035594D03*
D24*
X0037500Y0034500D03*
X0037500Y0030000D03*
X0041500Y0021500D03*
X0026500Y0021500D03*
X0025400Y0031500D03*
X0025400Y0041400D03*
X0025500Y0051300D03*
X0031500Y0051500D03*
X0031500Y0056500D03*
X0025600Y0061500D03*
X0037500Y0043500D03*
X0037500Y0039000D03*
X0056500Y0021500D03*
X0071500Y0021500D03*
X0086500Y0021500D03*
X0086500Y0031500D03*
X0086500Y0041500D03*
X0101500Y0041500D03*
X0101500Y0031500D03*
X0101500Y0021500D03*
X0116500Y0021500D03*
X0116500Y0031500D03*
X0116500Y0041500D03*
X0131500Y0041500D03*
X0131500Y0031500D03*
X0131500Y0021500D03*
X0146500Y0021500D03*
X0146500Y0031500D03*
X0146500Y0041500D03*
X0161500Y0041500D03*
X0161500Y0031500D03*
X0161500Y0021500D03*
X0141500Y0071500D03*
X0141500Y0076500D03*
X0146500Y0076500D03*
X0151500Y0076500D03*
X0136500Y0076500D03*
X0136500Y0071500D03*
X0126500Y0076500D03*
X0121500Y0076500D03*
X0121500Y0071500D03*
X0103500Y0094800D03*
X0107000Y0096600D03*
X0110200Y0099400D03*
X0123300Y0104000D03*
X0119000Y0114000D03*
X0123500Y0116500D03*
X0111500Y0116500D03*
X0111500Y0121500D03*
X0094000Y0133700D03*
X0081500Y0131500D03*
X0081500Y0126500D03*
X0076500Y0126500D03*
X0076500Y0131500D03*
X0071500Y0129600D03*
X0066600Y0124700D03*
X0073300Y0121900D03*
X0062100Y0133100D03*
X0065100Y0135700D03*
X0064673Y0141100D03*
X0071500Y0136500D03*
X0076500Y0136500D03*
X0076500Y0147300D03*
X0061400Y0161700D03*
X0041500Y0176500D03*
X0041500Y0181500D03*
X0041500Y0186500D03*
X0029300Y0166900D03*
X0039600Y0155000D03*
X0042000Y0115900D03*
X0040700Y0110900D03*
X0033700Y0099600D03*
X0045300Y0087300D03*
X0041500Y0081500D03*
X0037500Y0081500D03*
X0033563Y0081500D03*
X0054600Y0108200D03*
X0054000Y0114200D03*
X0059700Y0103300D03*
X0068400Y0094800D03*
X0077500Y0098400D03*
X0081500Y0101500D03*
X0089400Y0104100D03*
X0093300Y0106800D03*
X0086500Y0079300D03*
X0071000Y0045500D03*
X0144000Y0107500D03*
X0145800Y0099000D03*
X0159712Y0113000D03*
X0151500Y0121500D03*
X0146200Y0168400D03*
X0123600Y0167000D03*
X0111900Y0170700D03*
X0106500Y0176500D03*
X0106500Y0181500D03*
X0106500Y0186500D03*
X0091100Y0169900D03*
D25*
X0023294Y0020862D02*
X0023782Y0019684D01*
X0024684Y0018782D01*
X0025862Y0018294D01*
X0026500Y0018231D01*
X0166500Y0018231D01*
X0167138Y0018294D01*
X0168316Y0018782D01*
X0169218Y0019684D01*
X0169706Y0020862D01*
X0169769Y0021500D01*
X0169769Y0186500D01*
X0169706Y0187138D01*
X0169218Y0188316D01*
X0168316Y0189218D01*
X0168316Y0189218D01*
X0167138Y0189706D01*
X0166500Y0189769D01*
X0103400Y0189769D01*
X0102977Y0189727D01*
X0102195Y0189403D01*
X0101597Y0188805D01*
X0101273Y0188023D01*
X0101231Y0187600D01*
X0101231Y0175039D01*
X0100496Y0173263D01*
X0100496Y0173263D01*
X0099137Y0171904D01*
X0099137Y0171904D01*
X0097361Y0171169D01*
X0097117Y0171169D01*
X0049040Y0171169D01*
X0047080Y0171981D01*
X0047080Y0171981D01*
X0045581Y0173480D01*
X0045581Y0173480D01*
X0044769Y0175440D01*
X0044769Y0186500D01*
X0044706Y0187138D01*
X0044218Y0188316D01*
X0043316Y0189218D01*
X0042138Y0189706D01*
X0041500Y0189769D01*
X0035211Y0189769D01*
X0036732Y0189139D01*
X0038139Y0187732D01*
X0038900Y0185895D01*
X0038900Y0183905D01*
X0038139Y0182068D01*
X0036732Y0180661D01*
X0034895Y0179900D01*
X0032905Y0179900D01*
X0031068Y0179139D01*
X0029661Y0177732D01*
X0028900Y0175895D01*
X0028900Y0173905D01*
X0029661Y0172068D01*
X0031068Y0170661D01*
X0032905Y0169900D01*
X0034895Y0169900D01*
X0036732Y0170661D01*
X0038139Y0172068D01*
X0038900Y0173905D01*
X0038900Y0175895D01*
X0038139Y0177732D01*
X0036732Y0179139D01*
X0034895Y0179900D01*
X0032905Y0179900D01*
X0031068Y0180661D01*
X0029661Y0182068D01*
X0028900Y0183905D01*
X0028900Y0185895D01*
X0029661Y0187732D01*
X0031068Y0189139D01*
X0032589Y0189769D01*
X0026500Y0189769D01*
X0025862Y0189706D01*
X0024684Y0189218D01*
X0023782Y0188316D01*
X0023294Y0187138D01*
X0023231Y0186500D01*
X0023231Y0021500D01*
X0023294Y0020862D01*
X0023446Y0020494D02*
X0169554Y0020494D01*
X0169768Y0021493D02*
X0023232Y0021493D01*
X0023231Y0022491D02*
X0169769Y0022491D01*
X0169769Y0023490D02*
X0023231Y0023490D01*
X0023231Y0024488D02*
X0036148Y0024488D01*
X0035631Y0024702D02*
X0036844Y0024200D01*
X0038156Y0024200D01*
X0039369Y0024702D01*
X0040298Y0025631D01*
X0040800Y0026844D01*
X0040800Y0072004D01*
X0111708Y0072100D01*
X0112277Y0072100D01*
X0112279Y0072101D01*
X0112281Y0072101D01*
X0112814Y0072323D01*
X0113343Y0072541D01*
X0113344Y0072543D01*
X0113346Y0072544D01*
X0113753Y0072951D01*
X0119143Y0078341D01*
X0119958Y0079157D01*
X0120400Y0080223D01*
X0120400Y0096686D01*
X0120848Y0096500D01*
X0131761Y0096500D01*
X0131807Y0096519D01*
X0136133Y0096519D01*
X0136600Y0096986D01*
X0136600Y0087151D01*
X0136491Y0087106D01*
X0135394Y0086009D01*
X0134800Y0084576D01*
X0134800Y0083024D01*
X0135394Y0081591D01*
X0136491Y0080494D01*
X0137924Y0079900D01*
X0139476Y0079900D01*
X0140909Y0080494D01*
X0142006Y0081591D01*
X0142600Y0083024D01*
X0142600Y0084576D01*
X0142006Y0086009D01*
X0140909Y0087106D01*
X0140800Y0087151D01*
X0140800Y0101133D01*
X0139856Y0103412D01*
X0138112Y0105156D01*
X0138112Y0105156D01*
X0136894Y0105660D01*
X0136894Y0105720D01*
X0136133Y0106481D01*
X0126395Y0106481D01*
X0126013Y0106100D01*
X0125144Y0106100D01*
X0124880Y0106364D01*
X0123855Y0106789D01*
X0122745Y0106789D01*
X0121720Y0106364D01*
X0120975Y0105619D01*
X0120747Y0106169D01*
X0119650Y0107266D01*
X0118216Y0107859D01*
X0116665Y0107859D01*
X0115231Y0107266D01*
X0114134Y0106169D01*
X0113541Y0104735D01*
X0113541Y0103184D01*
X0114134Y0101750D01*
X0114600Y0101285D01*
X0114600Y0082001D01*
X0110497Y0077898D01*
X0088926Y0077869D01*
X0089289Y0078745D01*
X0089289Y0079855D01*
X0088864Y0080880D01*
X0088734Y0081010D01*
X0089217Y0081492D01*
X0089859Y0080850D01*
X0093298Y0080850D01*
X0094060Y0081611D01*
X0094060Y0087688D01*
X0093298Y0088450D01*
X0089859Y0088450D01*
X0089217Y0087807D01*
X0088574Y0088450D01*
X0085135Y0088450D01*
X0084492Y0087807D01*
X0083849Y0088450D01*
X0080410Y0088450D01*
X0079768Y0087807D01*
X0079125Y0088450D01*
X0075686Y0088450D01*
X0075043Y0087807D01*
X0074401Y0088450D01*
X0070962Y0088450D01*
X0070319Y0087807D01*
X0069676Y0088450D01*
X0066237Y0088450D01*
X0065594Y0087807D01*
X0064952Y0088450D01*
X0061513Y0088450D01*
X0060870Y0087807D01*
X0060227Y0088450D01*
X0056788Y0088450D01*
X0056146Y0087807D01*
X0055503Y0088450D01*
X0052200Y0088450D01*
X0052200Y0106706D01*
X0052236Y0106620D01*
X0053020Y0105836D01*
X0054045Y0105411D01*
X0055155Y0105411D01*
X0056180Y0105836D01*
X0056964Y0106620D01*
X0057389Y0107645D01*
X0057389Y0108443D01*
X0061569Y0112623D01*
X0066478Y0112623D01*
X0059943Y0106089D01*
X0059145Y0106089D01*
X0058120Y0105664D01*
X0057336Y0104880D01*
X0056911Y0103855D01*
X0056911Y0102745D01*
X0057336Y0101720D01*
X0058120Y0100936D01*
X0059145Y0100511D01*
X0060255Y0100511D01*
X0061280Y0100936D01*
X0062064Y0101720D01*
X0062489Y0102745D01*
X0062489Y0103543D01*
X0068846Y0109900D01*
X0093354Y0109900D01*
X0093665Y0109589D01*
X0092745Y0109589D01*
X0091720Y0109164D01*
X0090936Y0108380D01*
X0090511Y0107355D01*
X0090511Y0106659D01*
X0089955Y0106889D01*
X0088845Y0106889D01*
X0087820Y0106464D01*
X0087036Y0105680D01*
X0086611Y0104655D01*
X0086611Y0103545D01*
X0087036Y0102520D01*
X0087820Y0101736D01*
X0088845Y0101311D01*
X0089643Y0101311D01*
X0090417Y0100538D01*
X0091471Y0099483D01*
X0095339Y0099483D01*
X0095729Y0099093D01*
X0095339Y0098704D01*
X0080289Y0098704D01*
X0080289Y0098955D01*
X0079864Y0099980D01*
X0079080Y0100764D01*
X0078055Y0101189D01*
X0076945Y0101189D01*
X0075920Y0100764D01*
X0075136Y0099980D01*
X0074711Y0098955D01*
X0074711Y0097845D01*
X0075136Y0096820D01*
X0075920Y0096036D01*
X0076945Y0095611D01*
X0077743Y0095611D01*
X0078251Y0095104D01*
X0095339Y0095104D01*
X0095729Y0094714D01*
X0095339Y0094324D01*
X0071422Y0094324D01*
X0071189Y0094557D01*
X0071189Y0095355D01*
X0070764Y0096380D01*
X0069980Y0097164D01*
X0068955Y0097589D01*
X0067845Y0097589D01*
X0066820Y0097164D01*
X0066036Y0096380D01*
X0065611Y0095355D01*
X0065611Y0094245D01*
X0066036Y0093220D01*
X0066820Y0092436D01*
X0067845Y0092011D01*
X0068643Y0092011D01*
X0068876Y0091778D01*
X0069931Y0090724D01*
X0095339Y0090724D01*
X0096021Y0090043D01*
X0102098Y0090043D01*
X0102859Y0090804D01*
X0102859Y0092047D01*
X0102945Y0092011D01*
X0104055Y0092011D01*
X0105080Y0092436D01*
X0105864Y0093220D01*
X0106158Y0093930D01*
X0106445Y0093811D01*
X0107555Y0093811D01*
X0108580Y0094236D01*
X0109364Y0095020D01*
X0109789Y0096045D01*
X0109789Y0096611D01*
X0110755Y0096611D01*
X0111780Y0097036D01*
X0112564Y0097820D01*
X0112989Y0098845D01*
X0112989Y0099955D01*
X0112564Y0100980D01*
X0111780Y0101764D01*
X0110755Y0102189D01*
X0109957Y0102189D01*
X0109100Y0103046D01*
X0109100Y0106502D01*
X0110085Y0105516D01*
X0113482Y0105516D01*
X0114471Y0106505D01*
X0111784Y0109192D01*
X0112208Y0109616D01*
X0114895Y0106929D01*
X0115884Y0107918D01*
X0115884Y0111315D01*
X0114895Y0112303D01*
X0112208Y0109616D01*
X0111784Y0110041D01*
X0114471Y0112728D01*
X0113482Y0113716D01*
X0112067Y0113716D01*
X0113080Y0114136D01*
X0113864Y0114920D01*
X0114289Y0115945D01*
X0114289Y0117055D01*
X0113864Y0118080D01*
X0113080Y0118864D01*
X0112752Y0119000D01*
X0113080Y0119136D01*
X0113864Y0119920D01*
X0114289Y0120945D01*
X0114289Y0122055D01*
X0113864Y0123080D01*
X0113080Y0123864D01*
X0112374Y0124157D01*
X0117276Y0124157D01*
X0118038Y0124918D01*
X0118038Y0133082D01*
X0117276Y0133843D01*
X0111100Y0133843D01*
X0111100Y0141028D01*
X0109930Y0143852D01*
X0108182Y0145600D01*
X0109039Y0145600D01*
X0109039Y0145318D01*
X0109800Y0144557D01*
X0117176Y0144557D01*
X0117938Y0145318D01*
X0117938Y0152400D01*
X0120062Y0152400D01*
X0120062Y0145318D01*
X0120824Y0144557D01*
X0128200Y0144557D01*
X0128961Y0145318D01*
X0128961Y0145600D01*
X0130615Y0145600D01*
X0132900Y0147885D01*
X0132900Y0151115D01*
X0131615Y0152400D01*
X0135500Y0152400D01*
X0135871Y0152363D01*
X0136556Y0152080D01*
X0137080Y0151556D01*
X0137363Y0150871D01*
X0137400Y0150501D01*
X0137400Y0150491D01*
X0137400Y0149630D01*
X0137408Y0149623D01*
X0137470Y0142386D01*
X0135700Y0140615D01*
X0135700Y0137385D01*
X0137985Y0135100D01*
X0139639Y0135100D01*
X0139639Y0134918D01*
X0140400Y0134157D01*
X0147776Y0134157D01*
X0148538Y0134918D01*
X0148538Y0143082D01*
X0147776Y0143843D01*
X0141658Y0143843D01*
X0141600Y0150510D01*
X0141600Y0151713D01*
X0140671Y0153955D01*
X0140671Y0153955D01*
X0139327Y0155300D01*
X0139639Y0155300D01*
X0139639Y0155118D01*
X0140400Y0154357D01*
X0147776Y0154357D01*
X0148538Y0155118D01*
X0148538Y0163282D01*
X0147776Y0164043D01*
X0144489Y0164043D01*
X0144900Y0164454D01*
X0144900Y0164454D01*
X0146057Y0165611D01*
X0146755Y0165611D01*
X0147780Y0166036D01*
X0148564Y0166820D01*
X0148989Y0167845D01*
X0148989Y0168955D01*
X0148564Y0169980D01*
X0147780Y0170764D01*
X0146755Y0171189D01*
X0145645Y0171189D01*
X0144620Y0170764D01*
X0143836Y0169980D01*
X0143411Y0168955D01*
X0143411Y0168057D01*
X0142354Y0167000D01*
X0137687Y0167000D01*
X0140187Y0169500D01*
X0140771Y0169500D01*
X0143700Y0172429D01*
X0143700Y0175354D01*
X0152454Y0166600D01*
X0163854Y0166600D01*
X0164700Y0165754D01*
X0164700Y0062246D01*
X0155754Y0053300D01*
X0129177Y0053300D01*
X0130561Y0054684D01*
X0130561Y0058080D01*
X0128159Y0060482D01*
X0124762Y0060482D01*
X0122361Y0058080D01*
X0122361Y0054684D01*
X0123744Y0053300D01*
X0122088Y0053300D01*
X0122046Y0053343D01*
X0120554Y0053343D01*
X0120512Y0053300D01*
X0119177Y0053300D01*
X0120561Y0054684D01*
X0120561Y0058080D01*
X0118159Y0060482D01*
X0114762Y0060482D01*
X0112361Y0058080D01*
X0112361Y0054684D01*
X0113744Y0053300D01*
X0112088Y0053300D01*
X0110561Y0054827D01*
X0110561Y0058080D01*
X0108159Y0060482D01*
X0104762Y0060482D01*
X0102361Y0058080D01*
X0102361Y0054684D01*
X0104762Y0052282D01*
X0108015Y0052282D01*
X0109500Y0050797D01*
X0109500Y0050754D01*
X0110554Y0049700D01*
X0157246Y0049700D01*
X0158300Y0050754D01*
X0167246Y0059700D01*
X0168300Y0060754D01*
X0168300Y0167246D01*
X0167246Y0168300D01*
X0167246Y0168300D01*
X0166400Y0169146D01*
X0165346Y0170200D01*
X0153946Y0170200D01*
X0143900Y0180246D01*
X0143700Y0180446D01*
X0143700Y0188738D01*
X0142938Y0189500D01*
X0134462Y0189500D01*
X0133700Y0188738D01*
X0133700Y0181300D01*
X0132954Y0181300D01*
X0131900Y0180246D01*
X0130963Y0179308D01*
X0130771Y0179500D01*
X0133700Y0182429D01*
X0133700Y0186571D01*
X0130771Y0189500D01*
X0126629Y0189500D01*
X0123700Y0186571D01*
X0123700Y0182429D01*
X0126629Y0179500D01*
X0130771Y0179500D01*
X0126629Y0179500D01*
X0123841Y0176712D01*
X0120912Y0179641D01*
X0123700Y0182429D01*
X0123700Y0186571D01*
X0120771Y0189500D01*
X0116629Y0189500D01*
X0113700Y0186571D01*
X0113700Y0182429D01*
X0115192Y0180937D01*
X0111754Y0177500D01*
X0110600Y0176346D01*
X0105354Y0171100D01*
X0093954Y0171100D01*
X0092900Y0170046D01*
X0088900Y0166046D01*
X0088900Y0162646D01*
X0079954Y0153700D01*
X0074054Y0153700D01*
X0073000Y0152646D01*
X0070754Y0150400D01*
X0069700Y0149346D01*
X0069700Y0138644D01*
X0069136Y0138080D01*
X0068711Y0137055D01*
X0068711Y0135945D01*
X0069136Y0134920D01*
X0069920Y0134136D01*
X0070945Y0133711D01*
X0072055Y0133711D01*
X0073080Y0134136D01*
X0073864Y0134920D01*
X0074289Y0135945D01*
X0074289Y0137055D01*
X0073864Y0138080D01*
X0073300Y0138644D01*
X0073300Y0147854D01*
X0074001Y0148556D01*
X0073711Y0147855D01*
X0073711Y0146745D01*
X0074136Y0145720D01*
X0074920Y0144936D01*
X0075945Y0144511D01*
X0077055Y0144511D01*
X0078080Y0144936D01*
X0078544Y0145400D01*
X0081087Y0145400D01*
X0093200Y0157513D01*
X0093200Y0156846D01*
X0092200Y0155846D01*
X0092200Y0135844D01*
X0091636Y0135280D01*
X0091211Y0134255D01*
X0091211Y0133145D01*
X0091636Y0132120D01*
X0092420Y0131336D01*
X0093445Y0130911D01*
X0094555Y0130911D01*
X0095259Y0131203D01*
X0095259Y0130223D01*
X0095729Y0129753D01*
X0095259Y0129283D01*
X0095259Y0125843D01*
X0095729Y0125373D01*
X0095259Y0124903D01*
X0095259Y0121463D01*
X0095729Y0120993D01*
X0095339Y0120603D01*
X0075782Y0120603D01*
X0076089Y0121345D01*
X0076089Y0122455D01*
X0075664Y0123480D01*
X0074880Y0124264D01*
X0073855Y0124689D01*
X0073057Y0124689D01*
X0070927Y0126819D01*
X0070945Y0126811D01*
X0072055Y0126811D01*
X0073080Y0127236D01*
X0073864Y0128020D01*
X0074289Y0129045D01*
X0074289Y0130155D01*
X0073864Y0131180D01*
X0073080Y0131964D01*
X0072055Y0132389D01*
X0071107Y0132389D01*
X0067889Y0135505D01*
X0067889Y0136255D01*
X0067464Y0137280D01*
X0066680Y0138064D01*
X0065656Y0138488D01*
X0066253Y0138736D01*
X0067037Y0139520D01*
X0067462Y0140545D01*
X0067462Y0141655D01*
X0067037Y0142680D01*
X0066253Y0143464D01*
X0065228Y0143889D01*
X0064118Y0143889D01*
X0063093Y0143464D01*
X0062309Y0142680D01*
X0061884Y0141655D01*
X0061884Y0141654D01*
X0051200Y0130970D01*
X0051200Y0121070D01*
X0049709Y0119579D01*
X0049709Y0120523D01*
X0049239Y0120993D01*
X0049709Y0121463D01*
X0049709Y0124903D01*
X0049239Y0125373D01*
X0049709Y0125843D01*
X0049709Y0129283D01*
X0049239Y0129753D01*
X0049709Y0130223D01*
X0049709Y0133662D01*
X0049239Y0134133D01*
X0049709Y0134603D01*
X0049709Y0138042D01*
X0049239Y0138513D01*
X0049709Y0138983D01*
X0049709Y0142422D01*
X0049239Y0142893D01*
X0049709Y0143363D01*
X0049709Y0146802D01*
X0049239Y0147273D01*
X0049709Y0147743D01*
X0049709Y0151182D01*
X0049239Y0151653D01*
X0049709Y0152123D01*
X0049709Y0155562D01*
X0049239Y0156032D01*
X0049709Y0156503D01*
X0049709Y0159942D01*
X0049239Y0160412D01*
X0049709Y0160883D01*
X0049709Y0164322D01*
X0048948Y0165083D01*
X0042871Y0165083D01*
X0042109Y0164322D01*
X0042109Y0160883D01*
X0042580Y0160412D01*
X0042109Y0159942D01*
X0042109Y0156503D01*
X0042580Y0156032D01*
X0042305Y0155758D01*
X0041964Y0156580D01*
X0041180Y0157364D01*
X0040155Y0157789D01*
X0039045Y0157789D01*
X0038291Y0157477D01*
X0038800Y0158705D01*
X0038800Y0160695D01*
X0038039Y0162532D01*
X0036632Y0163939D01*
X0034795Y0164700D01*
X0032805Y0164700D01*
X0030968Y0163939D01*
X0029561Y0162532D01*
X0028800Y0160695D01*
X0028800Y0158705D01*
X0029561Y0156868D01*
X0030968Y0155461D01*
X0032805Y0154700D01*
X0030968Y0153939D01*
X0029561Y0152532D01*
X0028800Y0150695D01*
X0028800Y0148705D01*
X0029561Y0146868D01*
X0030968Y0145461D01*
X0032805Y0144700D01*
X0030968Y0143939D01*
X0029561Y0142532D01*
X0028800Y0140695D01*
X0028800Y0138705D01*
X0029561Y0136868D01*
X0030968Y0135461D01*
X0032805Y0134700D01*
X0030968Y0133939D01*
X0029561Y0132532D01*
X0028800Y0130695D01*
X0028800Y0129246D01*
X0028300Y0129746D01*
X0028300Y0163354D01*
X0029057Y0164111D01*
X0029855Y0164111D01*
X0030880Y0164536D01*
X0031664Y0165320D01*
X0032089Y0166345D01*
X0032089Y0167455D01*
X0031664Y0168480D01*
X0030880Y0169264D01*
X0029855Y0169689D01*
X0028745Y0169689D01*
X0027720Y0169264D01*
X0026936Y0168480D01*
X0026511Y0167455D01*
X0026511Y0166657D01*
X0025754Y0165900D01*
X0024700Y0164846D01*
X0024700Y0128254D01*
X0025754Y0127200D01*
X0029200Y0123754D01*
X0029992Y0122963D01*
X0029561Y0122532D01*
X0028800Y0120695D01*
X0028800Y0118705D01*
X0028869Y0118539D01*
X0026130Y0115800D01*
X0024900Y0114570D01*
X0024900Y0097830D01*
X0032280Y0090450D01*
X0027400Y0085570D01*
X0027400Y0073536D01*
X0027444Y0073492D01*
X0027444Y0068717D01*
X0028206Y0067956D01*
X0034200Y0067956D01*
X0034200Y0065244D01*
X0032000Y0065244D01*
X0032000Y0061095D01*
X0031000Y0061095D01*
X0031000Y0065244D01*
X0028547Y0065244D01*
X0028165Y0065142D01*
X0027823Y0064944D01*
X0027544Y0064665D01*
X0027346Y0064323D01*
X0027244Y0063942D01*
X0027244Y0061094D01*
X0031000Y0061094D01*
X0031000Y0060095D01*
X0027244Y0060095D01*
X0027244Y0057247D01*
X0027346Y0056866D01*
X0027544Y0056524D01*
X0027823Y0056245D01*
X0028165Y0056047D01*
X0028547Y0055945D01*
X0031000Y0055945D01*
X0031000Y0060094D01*
X0032000Y0060094D01*
X0032000Y0055945D01*
X0034200Y0055945D01*
X0034200Y0052055D01*
X0032000Y0052055D01*
X0032000Y0047906D01*
X0031000Y0047906D01*
X0031000Y0052055D01*
X0028547Y0052055D01*
X0028165Y0051953D01*
X0027823Y0051755D01*
X0027544Y0051476D01*
X0027346Y0051134D01*
X0027244Y0050753D01*
X0027244Y0047905D01*
X0031000Y0047905D01*
X0031000Y0046906D01*
X0027244Y0046906D01*
X0027244Y0044058D01*
X0027346Y0043677D01*
X0027544Y0043335D01*
X0027823Y0043056D01*
X0028165Y0042858D01*
X0028547Y0042756D01*
X0031000Y0042756D01*
X0031000Y0046905D01*
X0032000Y0046905D01*
X0032000Y0042756D01*
X0034200Y0042756D01*
X0034200Y0040044D01*
X0028206Y0040044D01*
X0027444Y0039283D01*
X0027444Y0031906D01*
X0028206Y0031145D01*
X0034200Y0031145D01*
X0034200Y0026844D01*
X0034702Y0025631D01*
X0035631Y0024702D01*
X0034846Y0025487D02*
X0023231Y0025487D01*
X0023231Y0026485D02*
X0034348Y0026485D01*
X0034200Y0027484D02*
X0023231Y0027484D01*
X0023231Y0028482D02*
X0034200Y0028482D01*
X0034200Y0029481D02*
X0023231Y0029481D01*
X0023231Y0030479D02*
X0034200Y0030479D01*
X0040800Y0030479D02*
X0169769Y0030479D01*
X0169769Y0029481D02*
X0040800Y0029481D01*
X0040800Y0028482D02*
X0169769Y0028482D01*
X0169769Y0027484D02*
X0040800Y0027484D01*
X0040652Y0026485D02*
X0169769Y0026485D01*
X0169769Y0025487D02*
X0040153Y0025487D01*
X0038852Y0024488D02*
X0169769Y0024488D01*
X0169030Y0019496D02*
X0023970Y0019496D01*
X0025372Y0018497D02*
X0167628Y0018497D01*
X0169769Y0031478D02*
X0040800Y0031478D01*
X0040800Y0032476D02*
X0169769Y0032476D01*
X0169769Y0033475D02*
X0040800Y0033475D01*
X0040800Y0034473D02*
X0169769Y0034473D01*
X0169769Y0035472D02*
X0040800Y0035472D01*
X0040800Y0036470D02*
X0169769Y0036470D01*
X0169769Y0037469D02*
X0040800Y0037469D01*
X0040800Y0038467D02*
X0169769Y0038467D01*
X0169769Y0039466D02*
X0040800Y0039466D01*
X0040800Y0040464D02*
X0169769Y0040464D01*
X0169769Y0041463D02*
X0040800Y0041463D01*
X0040800Y0042461D02*
X0169769Y0042461D01*
X0169769Y0043460D02*
X0072904Y0043460D01*
X0072580Y0043136D02*
X0073364Y0043920D01*
X0073789Y0044945D01*
X0073789Y0046055D01*
X0073364Y0047080D01*
X0072580Y0047864D01*
X0071555Y0048289D01*
X0070445Y0048289D01*
X0069420Y0047864D01*
X0068956Y0047400D01*
X0060787Y0047400D01*
X0058000Y0050187D01*
X0058000Y0056450D01*
X0058188Y0056450D01*
X0058950Y0057212D01*
X0058950Y0061600D01*
X0059587Y0061600D01*
X0059900Y0061913D01*
X0061100Y0060713D01*
X0062213Y0059600D01*
X0063880Y0059600D01*
X0062361Y0058080D01*
X0062361Y0054684D01*
X0064762Y0052282D01*
X0068159Y0052282D01*
X0070561Y0054684D01*
X0070561Y0058080D01*
X0069041Y0059600D01*
X0071213Y0059600D01*
X0072547Y0058266D01*
X0072361Y0058080D01*
X0072361Y0054684D01*
X0074762Y0052282D01*
X0078159Y0052282D01*
X0080561Y0054684D01*
X0080561Y0058080D01*
X0078159Y0060482D01*
X0075705Y0060482D01*
X0072787Y0063400D01*
X0069560Y0063400D01*
X0070761Y0064601D01*
X0070761Y0065982D01*
X0066861Y0065982D01*
X0066861Y0066782D01*
X0070761Y0066782D01*
X0070761Y0068163D01*
X0068242Y0070682D01*
X0066861Y0070682D01*
X0066861Y0066782D01*
X0066061Y0066782D01*
X0066061Y0070682D01*
X0064680Y0070682D01*
X0062750Y0068752D01*
X0062750Y0069788D01*
X0061988Y0070550D01*
X0057812Y0070550D01*
X0057050Y0069788D01*
X0057050Y0065400D01*
X0055309Y0065400D01*
X0055350Y0065553D01*
X0055350Y0067225D01*
X0052575Y0067225D01*
X0052575Y0067775D01*
X0052025Y0067775D01*
X0052025Y0070750D01*
X0050553Y0070750D01*
X0050171Y0070648D01*
X0049829Y0070450D01*
X0049550Y0070171D01*
X0049352Y0069829D01*
X0049250Y0069447D01*
X0049250Y0067775D01*
X0052025Y0067775D01*
X0052025Y0067225D01*
X0049250Y0067225D01*
X0049250Y0065553D01*
X0049352Y0065171D01*
X0049550Y0064829D01*
X0049829Y0064550D01*
X0050167Y0064354D01*
X0048367Y0062554D01*
X0047965Y0062554D01*
X0047965Y0063161D01*
X0047204Y0063922D01*
X0047027Y0063922D01*
X0047244Y0063980D01*
X0047586Y0064178D01*
X0047866Y0064457D01*
X0048063Y0064799D01*
X0048165Y0065180D01*
X0048165Y0066862D01*
X0044984Y0066862D01*
X0044984Y0067831D01*
X0044016Y0067831D01*
X0044016Y0070815D01*
X0042137Y0070815D01*
X0041756Y0070713D01*
X0041414Y0070515D01*
X0041134Y0070236D01*
X0040937Y0069894D01*
X0040835Y0069512D01*
X0040835Y0067831D01*
X0044016Y0067831D01*
X0044016Y0066862D01*
X0040835Y0066862D01*
X0040835Y0065180D01*
X0040937Y0064799D01*
X0041134Y0064457D01*
X0041414Y0064178D01*
X0041756Y0063980D01*
X0041973Y0063922D01*
X0041796Y0063922D01*
X0041035Y0063161D01*
X0041035Y0058147D01*
X0041796Y0057385D01*
X0047204Y0057385D01*
X0047965Y0058147D01*
X0047965Y0058754D01*
X0049941Y0058754D01*
X0052787Y0061600D01*
X0053250Y0061600D01*
X0053250Y0057212D01*
X0054012Y0056450D01*
X0054200Y0056450D01*
X0054200Y0048613D01*
X0058100Y0044713D01*
X0059213Y0043600D01*
X0068956Y0043600D01*
X0069420Y0043136D01*
X0070445Y0042711D01*
X0071555Y0042711D01*
X0072580Y0043136D01*
X0073587Y0044458D02*
X0169769Y0044458D01*
X0169769Y0045457D02*
X0073789Y0045457D01*
X0073623Y0046455D02*
X0169769Y0046455D01*
X0169769Y0047454D02*
X0072990Y0047454D01*
X0069010Y0047454D02*
X0060733Y0047454D01*
X0059735Y0048452D02*
X0169769Y0048452D01*
X0169769Y0049451D02*
X0058736Y0049451D01*
X0058000Y0050449D02*
X0109805Y0050449D01*
X0108849Y0051448D02*
X0058000Y0051448D01*
X0058000Y0052446D02*
X0064598Y0052446D01*
X0063599Y0053445D02*
X0058000Y0053445D01*
X0058000Y0054443D02*
X0062601Y0054443D01*
X0062361Y0055442D02*
X0058000Y0055442D01*
X0058000Y0056440D02*
X0062361Y0056440D01*
X0062361Y0057439D02*
X0058950Y0057439D01*
X0058950Y0058437D02*
X0062718Y0058437D01*
X0063716Y0059436D02*
X0058950Y0059436D01*
X0058950Y0060434D02*
X0061378Y0060434D01*
X0060380Y0061433D02*
X0058950Y0061433D01*
X0057050Y0065427D02*
X0055316Y0065427D01*
X0055350Y0066426D02*
X0057050Y0066426D01*
X0057050Y0067424D02*
X0052575Y0067424D01*
X0052575Y0067775D02*
X0055350Y0067775D01*
X0055350Y0069447D01*
X0055248Y0069829D01*
X0055050Y0070171D01*
X0054771Y0070450D01*
X0054429Y0070648D01*
X0054047Y0070750D01*
X0052575Y0070750D01*
X0052575Y0067775D01*
X0052575Y0068423D02*
X0052025Y0068423D01*
X0052025Y0069421D02*
X0052575Y0069421D01*
X0052575Y0070420D02*
X0052025Y0070420D01*
X0049798Y0070420D02*
X0047682Y0070420D01*
X0047586Y0070515D02*
X0047244Y0070713D01*
X0046863Y0070815D01*
X0044984Y0070815D01*
X0044984Y0067831D01*
X0048165Y0067831D01*
X0048165Y0069512D01*
X0048063Y0069894D01*
X0047866Y0070236D01*
X0047586Y0070515D01*
X0048165Y0069421D02*
X0049250Y0069421D01*
X0049250Y0068423D02*
X0048165Y0068423D01*
X0048165Y0066426D02*
X0049250Y0066426D01*
X0049284Y0065427D02*
X0048165Y0065427D01*
X0047837Y0064429D02*
X0050039Y0064429D01*
X0049243Y0063430D02*
X0047696Y0063430D01*
X0044984Y0067424D02*
X0052025Y0067424D01*
X0055350Y0068423D02*
X0057050Y0068423D01*
X0057050Y0069421D02*
X0055350Y0069421D01*
X0054802Y0070420D02*
X0057681Y0070420D01*
X0062119Y0070420D02*
X0064417Y0070420D01*
X0063419Y0069421D02*
X0062750Y0069421D01*
X0066061Y0069421D02*
X0066861Y0069421D01*
X0066861Y0068423D02*
X0066061Y0068423D01*
X0066061Y0067424D02*
X0066861Y0067424D01*
X0066861Y0066426D02*
X0072361Y0066426D01*
X0072361Y0067424D02*
X0070761Y0067424D01*
X0070501Y0068423D02*
X0072703Y0068423D01*
X0072361Y0068080D02*
X0072361Y0064684D01*
X0074762Y0062282D01*
X0078159Y0062282D01*
X0080561Y0064684D01*
X0080561Y0068080D01*
X0078159Y0070482D01*
X0074762Y0070482D01*
X0072361Y0068080D01*
X0073702Y0069421D02*
X0069503Y0069421D01*
X0068504Y0070420D02*
X0074700Y0070420D01*
X0078221Y0070420D02*
X0084700Y0070420D01*
X0084762Y0070482D02*
X0082361Y0068080D01*
X0082361Y0064684D01*
X0084762Y0062282D01*
X0088159Y0062282D01*
X0090561Y0064684D01*
X0090561Y0068080D01*
X0088159Y0070482D01*
X0084762Y0070482D01*
X0083702Y0069421D02*
X0079220Y0069421D01*
X0080218Y0068423D02*
X0082703Y0068423D01*
X0082361Y0067424D02*
X0080561Y0067424D01*
X0080561Y0066426D02*
X0082361Y0066426D01*
X0082361Y0065427D02*
X0080561Y0065427D01*
X0080306Y0064429D02*
X0082616Y0064429D01*
X0083614Y0063430D02*
X0079307Y0063430D01*
X0078309Y0062432D02*
X0084613Y0062432D01*
X0084762Y0060482D02*
X0082361Y0058080D01*
X0082361Y0054684D01*
X0084762Y0052282D01*
X0088159Y0052282D01*
X0090561Y0054684D01*
X0090561Y0058080D01*
X0088159Y0060482D01*
X0084762Y0060482D01*
X0084715Y0060434D02*
X0078206Y0060434D01*
X0079205Y0059436D02*
X0083716Y0059436D01*
X0082718Y0058437D02*
X0080203Y0058437D01*
X0080561Y0057439D02*
X0082361Y0057439D01*
X0082361Y0056440D02*
X0080561Y0056440D01*
X0080561Y0055442D02*
X0082361Y0055442D01*
X0082601Y0054443D02*
X0080320Y0054443D01*
X0079322Y0053445D02*
X0083599Y0053445D01*
X0084598Y0052446D02*
X0078323Y0052446D01*
X0074598Y0052446D02*
X0068323Y0052446D01*
X0069322Y0053445D02*
X0073599Y0053445D01*
X0072601Y0054443D02*
X0070320Y0054443D01*
X0070561Y0055442D02*
X0072361Y0055442D01*
X0072361Y0056440D02*
X0070561Y0056440D01*
X0070561Y0057439D02*
X0072361Y0057439D01*
X0072376Y0058437D02*
X0070203Y0058437D01*
X0069205Y0059436D02*
X0071377Y0059436D01*
X0073755Y0062432D02*
X0074613Y0062432D01*
X0074754Y0061433D02*
X0163887Y0061433D01*
X0164700Y0062432D02*
X0128309Y0062432D01*
X0128159Y0062282D02*
X0130561Y0064684D01*
X0130561Y0068080D01*
X0128159Y0070482D01*
X0124762Y0070482D01*
X0122361Y0068080D01*
X0122361Y0064684D01*
X0124762Y0062282D01*
X0128159Y0062282D01*
X0129307Y0063430D02*
X0164700Y0063430D01*
X0164700Y0064429D02*
X0130306Y0064429D01*
X0130561Y0065427D02*
X0144458Y0065427D01*
X0144985Y0064900D02*
X0142700Y0067185D01*
X0142700Y0070415D01*
X0144985Y0072700D01*
X0148215Y0072700D01*
X0150500Y0070415D01*
X0150500Y0067185D01*
X0148215Y0064900D01*
X0144985Y0064900D01*
X0143459Y0066426D02*
X0130561Y0066426D01*
X0130561Y0067424D02*
X0142700Y0067424D01*
X0142700Y0068423D02*
X0130218Y0068423D01*
X0129220Y0069421D02*
X0142700Y0069421D01*
X0142704Y0070420D02*
X0128221Y0070420D01*
X0124700Y0070420D02*
X0118504Y0070420D01*
X0118242Y0070682D02*
X0120761Y0068163D01*
X0120761Y0066782D01*
X0116861Y0066782D01*
X0116861Y0065982D01*
X0120761Y0065982D01*
X0120761Y0064601D01*
X0118242Y0062082D01*
X0116861Y0062082D01*
X0116861Y0065982D01*
X0116061Y0065982D01*
X0116061Y0062082D01*
X0114680Y0062082D01*
X0112161Y0064601D01*
X0112161Y0065982D01*
X0116061Y0065982D01*
X0116061Y0066782D01*
X0116061Y0070682D01*
X0114680Y0070682D01*
X0112161Y0068163D01*
X0112161Y0066782D01*
X0116061Y0066782D01*
X0116861Y0066782D01*
X0116861Y0070682D01*
X0118242Y0070682D01*
X0116861Y0070420D02*
X0116061Y0070420D01*
X0116061Y0069421D02*
X0116861Y0069421D01*
X0116861Y0068423D02*
X0116061Y0068423D01*
X0116061Y0067424D02*
X0116861Y0067424D01*
X0116861Y0066426D02*
X0122361Y0066426D01*
X0122361Y0067424D02*
X0120761Y0067424D01*
X0120501Y0068423D02*
X0122703Y0068423D01*
X0123702Y0069421D02*
X0119503Y0069421D01*
X0120761Y0065427D02*
X0122361Y0065427D01*
X0122616Y0064429D02*
X0120588Y0064429D01*
X0119590Y0063430D02*
X0123614Y0063430D01*
X0124613Y0062432D02*
X0118591Y0062432D01*
X0116861Y0062432D02*
X0116061Y0062432D01*
X0116061Y0063430D02*
X0116861Y0063430D01*
X0116861Y0064429D02*
X0116061Y0064429D01*
X0116061Y0065427D02*
X0116861Y0065427D01*
X0116061Y0066426D02*
X0110561Y0066426D01*
X0110561Y0067424D02*
X0112161Y0067424D01*
X0112420Y0068423D02*
X0110218Y0068423D01*
X0110561Y0068080D02*
X0108159Y0070482D01*
X0104762Y0070482D01*
X0102361Y0068080D01*
X0102361Y0064684D01*
X0104762Y0062282D01*
X0108159Y0062282D01*
X0110561Y0064684D01*
X0110561Y0068080D01*
X0109220Y0069421D02*
X0113419Y0069421D01*
X0114417Y0070420D02*
X0108221Y0070420D01*
X0104700Y0070420D02*
X0098504Y0070420D01*
X0098242Y0070682D02*
X0096861Y0070682D01*
X0096861Y0066782D01*
X0100761Y0066782D01*
X0100761Y0068163D01*
X0098242Y0070682D01*
X0096861Y0070420D02*
X0096061Y0070420D01*
X0096061Y0070682D02*
X0094680Y0070682D01*
X0092161Y0068163D01*
X0092161Y0066782D01*
X0096061Y0066782D01*
X0096061Y0070682D01*
X0096061Y0069421D02*
X0096861Y0069421D01*
X0096861Y0068423D02*
X0096061Y0068423D01*
X0096061Y0067424D02*
X0096861Y0067424D01*
X0096861Y0066782D02*
X0096061Y0066782D01*
X0096061Y0065982D01*
X0096861Y0065982D01*
X0096861Y0066782D01*
X0096861Y0066426D02*
X0102361Y0066426D01*
X0102361Y0067424D02*
X0100761Y0067424D01*
X0100501Y0068423D02*
X0102703Y0068423D01*
X0103702Y0069421D02*
X0099503Y0069421D01*
X0100761Y0065982D02*
X0096861Y0065982D01*
X0096861Y0062082D01*
X0098242Y0062082D01*
X0100761Y0064601D01*
X0100761Y0065982D01*
X0100761Y0065427D02*
X0102361Y0065427D01*
X0102616Y0064429D02*
X0100588Y0064429D01*
X0099590Y0063430D02*
X0103614Y0063430D01*
X0104613Y0062432D02*
X0098591Y0062432D01*
X0096861Y0062432D02*
X0096061Y0062432D01*
X0096061Y0062082D02*
X0096061Y0065982D01*
X0092161Y0065982D01*
X0092161Y0064601D01*
X0094680Y0062082D01*
X0096061Y0062082D01*
X0096061Y0063430D02*
X0096861Y0063430D01*
X0096861Y0064429D02*
X0096061Y0064429D01*
X0096061Y0065427D02*
X0096861Y0065427D01*
X0096061Y0066426D02*
X0090561Y0066426D01*
X0090561Y0067424D02*
X0092161Y0067424D01*
X0092420Y0068423D02*
X0090218Y0068423D01*
X0089220Y0069421D02*
X0093419Y0069421D01*
X0094417Y0070420D02*
X0088221Y0070420D01*
X0090561Y0065427D02*
X0092161Y0065427D01*
X0092333Y0064429D02*
X0090306Y0064429D01*
X0089307Y0063430D02*
X0093331Y0063430D01*
X0094330Y0062432D02*
X0088309Y0062432D01*
X0088206Y0060434D02*
X0094715Y0060434D01*
X0094762Y0060482D02*
X0092361Y0058080D01*
X0092361Y0054684D01*
X0094762Y0052282D01*
X0098159Y0052282D01*
X0100561Y0054684D01*
X0100561Y0058080D01*
X0098159Y0060482D01*
X0094762Y0060482D01*
X0093716Y0059436D02*
X0089205Y0059436D01*
X0090203Y0058437D02*
X0092718Y0058437D01*
X0092361Y0057439D02*
X0090561Y0057439D01*
X0090561Y0056440D02*
X0092361Y0056440D01*
X0092361Y0055442D02*
X0090561Y0055442D01*
X0090320Y0054443D02*
X0092601Y0054443D01*
X0093599Y0053445D02*
X0089322Y0053445D01*
X0088323Y0052446D02*
X0094598Y0052446D01*
X0098323Y0052446D02*
X0104598Y0052446D01*
X0103599Y0053445D02*
X0099322Y0053445D01*
X0100320Y0054443D02*
X0102601Y0054443D01*
X0102361Y0055442D02*
X0100561Y0055442D01*
X0100561Y0056440D02*
X0102361Y0056440D01*
X0102361Y0057439D02*
X0100561Y0057439D01*
X0100203Y0058437D02*
X0102718Y0058437D01*
X0103716Y0059436D02*
X0099205Y0059436D01*
X0098206Y0060434D02*
X0104715Y0060434D01*
X0108206Y0060434D02*
X0114715Y0060434D01*
X0113716Y0059436D02*
X0109205Y0059436D01*
X0110203Y0058437D02*
X0112718Y0058437D01*
X0112361Y0057439D02*
X0110561Y0057439D01*
X0110561Y0056440D02*
X0112361Y0056440D01*
X0112361Y0055442D02*
X0110561Y0055442D01*
X0110945Y0054443D02*
X0112601Y0054443D01*
X0111943Y0053445D02*
X0113599Y0053445D01*
X0111300Y0051543D02*
X0106461Y0056382D01*
X0108309Y0062432D02*
X0114330Y0062432D01*
X0113331Y0063430D02*
X0109307Y0063430D01*
X0110306Y0064429D02*
X0112333Y0064429D01*
X0112161Y0065427D02*
X0110561Y0065427D01*
X0113041Y0072417D02*
X0144701Y0072417D01*
X0143703Y0071418D02*
X0040800Y0071418D01*
X0040800Y0070420D02*
X0041318Y0070420D01*
X0040835Y0069421D02*
X0040800Y0069421D01*
X0040800Y0068423D02*
X0040835Y0068423D01*
X0040800Y0067424D02*
X0044016Y0067424D01*
X0044016Y0068423D02*
X0044984Y0068423D01*
X0044984Y0069421D02*
X0044016Y0069421D01*
X0044016Y0070420D02*
X0044984Y0070420D01*
X0040835Y0066426D02*
X0040800Y0066426D01*
X0040800Y0065427D02*
X0040835Y0065427D01*
X0040800Y0064429D02*
X0041163Y0064429D01*
X0041304Y0063430D02*
X0040800Y0063430D01*
X0040800Y0062432D02*
X0041035Y0062432D01*
X0041035Y0061433D02*
X0040800Y0061433D01*
X0040800Y0060434D02*
X0041035Y0060434D01*
X0041035Y0059436D02*
X0040800Y0059436D01*
X0040800Y0058437D02*
X0041035Y0058437D01*
X0040800Y0057439D02*
X0041742Y0057439D01*
X0040800Y0056440D02*
X0054200Y0056440D01*
X0054200Y0055442D02*
X0040800Y0055442D01*
X0040800Y0054443D02*
X0054200Y0054443D01*
X0054200Y0053445D02*
X0040800Y0053445D01*
X0040800Y0052446D02*
X0054200Y0052446D01*
X0054200Y0051448D02*
X0040800Y0051448D01*
X0040800Y0050449D02*
X0054200Y0050449D01*
X0054200Y0049451D02*
X0040800Y0049451D01*
X0040800Y0048452D02*
X0054361Y0048452D01*
X0055359Y0047454D02*
X0040800Y0047454D01*
X0040800Y0046455D02*
X0056358Y0046455D01*
X0057356Y0045457D02*
X0040800Y0045457D01*
X0040800Y0044458D02*
X0058355Y0044458D01*
X0069096Y0043460D02*
X0040800Y0043460D01*
X0034200Y0042461D02*
X0023231Y0042461D01*
X0023231Y0041463D02*
X0034200Y0041463D01*
X0034200Y0040464D02*
X0023231Y0040464D01*
X0023231Y0039466D02*
X0027627Y0039466D01*
X0027444Y0038467D02*
X0023231Y0038467D01*
X0023231Y0037469D02*
X0027444Y0037469D01*
X0027444Y0036470D02*
X0023231Y0036470D01*
X0023231Y0035472D02*
X0027444Y0035472D01*
X0027444Y0034473D02*
X0023231Y0034473D01*
X0023231Y0033475D02*
X0027444Y0033475D01*
X0027444Y0032476D02*
X0023231Y0032476D01*
X0023231Y0031478D02*
X0027873Y0031478D01*
X0027472Y0043460D02*
X0023231Y0043460D01*
X0023231Y0044458D02*
X0027244Y0044458D01*
X0027244Y0045457D02*
X0023231Y0045457D01*
X0023231Y0046455D02*
X0027244Y0046455D01*
X0027244Y0048452D02*
X0023231Y0048452D01*
X0023231Y0047454D02*
X0031000Y0047454D01*
X0031000Y0048452D02*
X0032000Y0048452D01*
X0032000Y0049451D02*
X0031000Y0049451D01*
X0031000Y0050449D02*
X0032000Y0050449D01*
X0032000Y0051448D02*
X0031000Y0051448D01*
X0034200Y0052446D02*
X0023231Y0052446D01*
X0023231Y0051448D02*
X0027527Y0051448D01*
X0027244Y0050449D02*
X0023231Y0050449D01*
X0023231Y0049451D02*
X0027244Y0049451D01*
X0031000Y0046455D02*
X0032000Y0046455D01*
X0032000Y0045457D02*
X0031000Y0045457D01*
X0031000Y0044458D02*
X0032000Y0044458D01*
X0032000Y0043460D02*
X0031000Y0043460D01*
X0034200Y0053445D02*
X0023231Y0053445D01*
X0023231Y0054443D02*
X0034200Y0054443D01*
X0034200Y0055442D02*
X0023231Y0055442D01*
X0023231Y0056440D02*
X0027627Y0056440D01*
X0027244Y0057439D02*
X0023231Y0057439D01*
X0023231Y0058437D02*
X0027244Y0058437D01*
X0027244Y0059436D02*
X0023231Y0059436D01*
X0023231Y0060434D02*
X0031000Y0060434D01*
X0031000Y0059436D02*
X0032000Y0059436D01*
X0032000Y0058437D02*
X0031000Y0058437D01*
X0031000Y0057439D02*
X0032000Y0057439D01*
X0032000Y0056440D02*
X0031000Y0056440D01*
X0031000Y0061433D02*
X0032000Y0061433D01*
X0032000Y0062432D02*
X0031000Y0062432D01*
X0031000Y0063430D02*
X0032000Y0063430D01*
X0032000Y0064429D02*
X0031000Y0064429D01*
X0034200Y0065427D02*
X0023231Y0065427D01*
X0023231Y0064429D02*
X0027407Y0064429D01*
X0027244Y0063430D02*
X0023231Y0063430D01*
X0023231Y0062432D02*
X0027244Y0062432D01*
X0027244Y0061433D02*
X0023231Y0061433D01*
X0023231Y0066426D02*
X0034200Y0066426D01*
X0034200Y0067424D02*
X0023231Y0067424D01*
X0023231Y0068423D02*
X0027739Y0068423D01*
X0027444Y0069421D02*
X0023231Y0069421D01*
X0023231Y0070420D02*
X0027444Y0070420D01*
X0027444Y0071418D02*
X0023231Y0071418D01*
X0023231Y0072417D02*
X0027444Y0072417D01*
X0027444Y0073415D02*
X0023231Y0073415D01*
X0023231Y0074414D02*
X0027400Y0074414D01*
X0027400Y0075412D02*
X0023231Y0075412D01*
X0023231Y0076411D02*
X0027400Y0076411D01*
X0027400Y0077409D02*
X0023231Y0077409D01*
X0023231Y0078408D02*
X0027400Y0078408D01*
X0027400Y0079406D02*
X0023231Y0079406D01*
X0023231Y0080405D02*
X0027400Y0080405D01*
X0027400Y0081403D02*
X0023231Y0081403D01*
X0023231Y0082402D02*
X0027400Y0082402D01*
X0027400Y0083400D02*
X0023231Y0083400D01*
X0023231Y0084399D02*
X0027400Y0084399D01*
X0027400Y0085397D02*
X0023231Y0085397D01*
X0023231Y0086396D02*
X0028226Y0086396D01*
X0029224Y0087394D02*
X0023231Y0087394D01*
X0023231Y0088393D02*
X0030223Y0088393D01*
X0031221Y0089391D02*
X0023231Y0089391D01*
X0023231Y0090390D02*
X0032220Y0090390D01*
X0031342Y0091388D02*
X0023231Y0091388D01*
X0023231Y0092387D02*
X0030343Y0092387D01*
X0029345Y0093385D02*
X0023231Y0093385D01*
X0023231Y0094384D02*
X0028346Y0094384D01*
X0027348Y0095382D02*
X0023231Y0095382D01*
X0023231Y0096381D02*
X0026349Y0096381D01*
X0025351Y0097379D02*
X0023231Y0097379D01*
X0023231Y0098378D02*
X0024900Y0098378D01*
X0024900Y0099376D02*
X0023231Y0099376D01*
X0023231Y0100375D02*
X0024900Y0100375D01*
X0024900Y0101373D02*
X0023231Y0101373D01*
X0023231Y0102372D02*
X0024900Y0102372D01*
X0024900Y0103370D02*
X0023231Y0103370D01*
X0023231Y0104369D02*
X0024900Y0104369D01*
X0024900Y0105368D02*
X0023231Y0105368D01*
X0023231Y0106366D02*
X0024900Y0106366D01*
X0024900Y0107365D02*
X0023231Y0107365D01*
X0023231Y0108363D02*
X0024900Y0108363D01*
X0024900Y0109362D02*
X0023231Y0109362D01*
X0023231Y0110360D02*
X0024900Y0110360D01*
X0024900Y0111359D02*
X0023231Y0111359D01*
X0023231Y0112357D02*
X0024900Y0112357D01*
X0024900Y0113356D02*
X0023231Y0113356D01*
X0023231Y0114354D02*
X0024900Y0114354D01*
X0025683Y0115353D02*
X0023231Y0115353D01*
X0023231Y0116351D02*
X0026681Y0116351D01*
X0026130Y0115800D02*
X0026130Y0115800D01*
X0027680Y0117350D02*
X0023231Y0117350D01*
X0023231Y0118348D02*
X0028678Y0118348D01*
X0028800Y0119347D02*
X0023231Y0119347D01*
X0023231Y0120345D02*
X0028800Y0120345D01*
X0029069Y0121344D02*
X0023231Y0121344D01*
X0023231Y0122342D02*
X0029482Y0122342D01*
X0029614Y0123341D02*
X0023231Y0123341D01*
X0023231Y0124339D02*
X0028615Y0124339D01*
X0029200Y0123754D02*
X0029200Y0123754D01*
X0031000Y0124500D02*
X0026500Y0129000D01*
X0026500Y0164100D01*
X0029300Y0166900D01*
X0026850Y0168274D02*
X0023231Y0168274D01*
X0023231Y0169272D02*
X0027739Y0169272D01*
X0026511Y0167275D02*
X0023231Y0167275D01*
X0023231Y0166277D02*
X0026131Y0166277D01*
X0025754Y0165900D02*
X0025754Y0165900D01*
X0025133Y0165278D02*
X0023231Y0165278D01*
X0023231Y0164280D02*
X0024700Y0164280D01*
X0024700Y0163281D02*
X0023231Y0163281D01*
X0023231Y0162283D02*
X0024700Y0162283D01*
X0024700Y0161284D02*
X0023231Y0161284D01*
X0023231Y0160286D02*
X0024700Y0160286D01*
X0024700Y0159287D02*
X0023231Y0159287D01*
X0023231Y0158289D02*
X0024700Y0158289D01*
X0024700Y0157290D02*
X0023231Y0157290D01*
X0023231Y0156292D02*
X0024700Y0156292D01*
X0024700Y0155293D02*
X0023231Y0155293D01*
X0023231Y0154295D02*
X0024700Y0154295D01*
X0024700Y0153296D02*
X0023231Y0153296D01*
X0023231Y0152298D02*
X0024700Y0152298D01*
X0024700Y0151299D02*
X0023231Y0151299D01*
X0023231Y0150301D02*
X0024700Y0150301D01*
X0024700Y0149302D02*
X0023231Y0149302D01*
X0023231Y0148303D02*
X0024700Y0148303D01*
X0024700Y0147305D02*
X0023231Y0147305D01*
X0023231Y0146306D02*
X0024700Y0146306D01*
X0024700Y0145308D02*
X0023231Y0145308D01*
X0023231Y0144309D02*
X0024700Y0144309D01*
X0024700Y0143311D02*
X0023231Y0143311D01*
X0023231Y0142312D02*
X0024700Y0142312D01*
X0024700Y0141314D02*
X0023231Y0141314D01*
X0023231Y0140315D02*
X0024700Y0140315D01*
X0024700Y0139317D02*
X0023231Y0139317D01*
X0023231Y0138318D02*
X0024700Y0138318D01*
X0024700Y0137320D02*
X0023231Y0137320D01*
X0023231Y0136321D02*
X0024700Y0136321D01*
X0024700Y0135323D02*
X0023231Y0135323D01*
X0023231Y0134324D02*
X0024700Y0134324D01*
X0024700Y0133326D02*
X0023231Y0133326D01*
X0023231Y0132327D02*
X0024700Y0132327D01*
X0024700Y0131329D02*
X0023231Y0131329D01*
X0023231Y0130330D02*
X0024700Y0130330D01*
X0024700Y0129332D02*
X0023231Y0129332D01*
X0023231Y0128333D02*
X0024700Y0128333D01*
X0025620Y0127335D02*
X0023231Y0127335D01*
X0023231Y0126336D02*
X0026618Y0126336D01*
X0027617Y0125338D02*
X0023231Y0125338D01*
X0028714Y0129332D02*
X0028800Y0129332D01*
X0028800Y0130330D02*
X0028300Y0130330D01*
X0028300Y0131329D02*
X0029063Y0131329D01*
X0029476Y0132327D02*
X0028300Y0132327D01*
X0028300Y0133326D02*
X0030355Y0133326D01*
X0031899Y0134324D02*
X0028300Y0134324D01*
X0028300Y0135323D02*
X0031302Y0135323D01*
X0030108Y0136321D02*
X0028300Y0136321D01*
X0028300Y0137320D02*
X0029374Y0137320D01*
X0028960Y0138318D02*
X0028300Y0138318D01*
X0028300Y0139317D02*
X0028800Y0139317D01*
X0028800Y0140315D02*
X0028300Y0140315D01*
X0028300Y0141314D02*
X0029057Y0141314D01*
X0029470Y0142312D02*
X0028300Y0142312D01*
X0028300Y0143311D02*
X0030340Y0143311D01*
X0031863Y0144309D02*
X0028300Y0144309D01*
X0028300Y0145308D02*
X0031338Y0145308D01*
X0030122Y0146306D02*
X0028300Y0146306D01*
X0028300Y0147305D02*
X0029380Y0147305D01*
X0028966Y0148303D02*
X0028300Y0148303D01*
X0028300Y0149302D02*
X0028800Y0149302D01*
X0028800Y0150301D02*
X0028300Y0150301D01*
X0028300Y0151299D02*
X0029050Y0151299D01*
X0029464Y0152298D02*
X0028300Y0152298D01*
X0028300Y0153296D02*
X0030325Y0153296D01*
X0031827Y0154295D02*
X0028300Y0154295D01*
X0028300Y0155293D02*
X0031374Y0155293D01*
X0032805Y0154700D02*
X0034795Y0154700D01*
X0032805Y0154700D01*
X0034795Y0154700D02*
X0036632Y0153939D01*
X0038039Y0152532D01*
X0038400Y0151660D01*
X0038400Y0152478D01*
X0038020Y0152636D01*
X0037236Y0153420D01*
X0036811Y0154445D01*
X0036811Y0155555D01*
X0036871Y0155700D01*
X0036632Y0155461D01*
X0034795Y0154700D01*
X0035773Y0154295D02*
X0036873Y0154295D01*
X0036811Y0155293D02*
X0036226Y0155293D01*
X0037275Y0153296D02*
X0037360Y0153296D01*
X0038136Y0152298D02*
X0038400Y0152298D01*
X0040200Y0154400D02*
X0040200Y0147800D01*
X0042917Y0145083D01*
X0045909Y0145083D01*
X0049709Y0145308D02*
X0069700Y0145308D01*
X0069700Y0146306D02*
X0049709Y0146306D01*
X0049271Y0147305D02*
X0069700Y0147305D01*
X0069700Y0148303D02*
X0049709Y0148303D01*
X0049709Y0149302D02*
X0069700Y0149302D01*
X0070655Y0150301D02*
X0049709Y0150301D01*
X0049593Y0151299D02*
X0071653Y0151299D01*
X0072652Y0152298D02*
X0049709Y0152298D01*
X0049709Y0153296D02*
X0073650Y0153296D01*
X0074800Y0151900D02*
X0080700Y0151900D01*
X0090700Y0161900D01*
X0090700Y0165300D01*
X0094700Y0169300D01*
X0106100Y0169300D01*
X0112400Y0175600D01*
X0112500Y0175700D01*
X0118700Y0181900D01*
X0118700Y0184500D01*
X0123700Y0184250D02*
X0123700Y0184250D01*
X0123700Y0185248D02*
X0123700Y0185248D01*
X0123700Y0186247D02*
X0123700Y0186247D01*
X0123026Y0187245D02*
X0124374Y0187245D01*
X0125373Y0188244D02*
X0122027Y0188244D01*
X0121029Y0189242D02*
X0126371Y0189242D01*
X0131029Y0189242D02*
X0134204Y0189242D01*
X0133700Y0188244D02*
X0132027Y0188244D01*
X0133026Y0187245D02*
X0133700Y0187245D01*
X0133700Y0186247D02*
X0133700Y0186247D01*
X0133700Y0185248D02*
X0133700Y0185248D01*
X0133700Y0184250D02*
X0133700Y0184250D01*
X0133700Y0183251D02*
X0133700Y0183251D01*
X0133700Y0182253D02*
X0133524Y0182253D01*
X0132909Y0181254D02*
X0132525Y0181254D01*
X0131910Y0180256D02*
X0131527Y0180256D01*
X0133700Y0179500D02*
X0142100Y0179500D01*
X0153200Y0168400D01*
X0164600Y0168400D01*
X0166500Y0166500D01*
X0166500Y0061500D01*
X0156500Y0051500D01*
X0121300Y0051500D01*
X0111300Y0051500D01*
X0111300Y0051543D01*
X0119322Y0053445D02*
X0123599Y0053445D01*
X0122601Y0054443D02*
X0120320Y0054443D01*
X0120561Y0055442D02*
X0122361Y0055442D01*
X0122361Y0056440D02*
X0120561Y0056440D01*
X0120561Y0057439D02*
X0122361Y0057439D01*
X0122718Y0058437D02*
X0120203Y0058437D01*
X0119205Y0059436D02*
X0123716Y0059436D01*
X0124715Y0060434D02*
X0118206Y0060434D01*
X0121300Y0051543D02*
X0121300Y0051500D01*
X0129322Y0053445D02*
X0155899Y0053445D01*
X0156898Y0054443D02*
X0130320Y0054443D01*
X0130561Y0055442D02*
X0157896Y0055442D01*
X0158895Y0056440D02*
X0130561Y0056440D01*
X0130561Y0057439D02*
X0159893Y0057439D01*
X0160892Y0058437D02*
X0130203Y0058437D01*
X0129205Y0059436D02*
X0161890Y0059436D01*
X0162889Y0060434D02*
X0128206Y0060434D01*
X0115215Y0074414D02*
X0154900Y0074414D01*
X0154900Y0075412D02*
X0116213Y0075412D01*
X0117212Y0076411D02*
X0154900Y0076411D01*
X0154900Y0077409D02*
X0118210Y0077409D01*
X0119143Y0078341D02*
X0119143Y0078341D01*
X0119209Y0078408D02*
X0154900Y0078408D01*
X0154900Y0079406D02*
X0120062Y0079406D01*
X0120400Y0080405D02*
X0128580Y0080405D01*
X0129085Y0079900D02*
X0132315Y0079900D01*
X0134600Y0082185D01*
X0134600Y0085415D01*
X0132315Y0087700D01*
X0129085Y0087700D01*
X0126800Y0085415D01*
X0126800Y0082185D01*
X0129085Y0079900D01*
X0127581Y0081403D02*
X0120400Y0081403D01*
X0120400Y0082402D02*
X0126800Y0082402D01*
X0126800Y0083400D02*
X0120400Y0083400D01*
X0120400Y0084399D02*
X0126800Y0084399D01*
X0126800Y0085397D02*
X0120400Y0085397D01*
X0120400Y0086396D02*
X0127780Y0086396D01*
X0128779Y0087394D02*
X0120400Y0087394D01*
X0120400Y0088393D02*
X0136600Y0088393D01*
X0136600Y0089391D02*
X0120400Y0089391D01*
X0120400Y0090390D02*
X0136600Y0090390D01*
X0136600Y0091388D02*
X0120400Y0091388D01*
X0120400Y0092387D02*
X0136600Y0092387D01*
X0136600Y0093385D02*
X0120400Y0093385D01*
X0120400Y0094384D02*
X0136600Y0094384D01*
X0136600Y0095382D02*
X0120400Y0095382D01*
X0120400Y0096381D02*
X0136600Y0096381D01*
X0140800Y0096381D02*
X0144835Y0096381D01*
X0145245Y0096211D02*
X0146355Y0096211D01*
X0147098Y0096519D01*
X0154900Y0096519D01*
X0154900Y0072700D01*
X0153824Y0072700D01*
X0152391Y0072106D01*
X0151294Y0071009D01*
X0150700Y0069576D01*
X0150700Y0068024D01*
X0151294Y0066591D01*
X0152391Y0065494D01*
X0153824Y0064900D01*
X0155376Y0064900D01*
X0156809Y0065494D01*
X0157906Y0066591D01*
X0158500Y0068024D01*
X0158500Y0068955D01*
X0159100Y0069994D01*
X0159100Y0098245D01*
X0158055Y0100055D01*
X0158055Y0100055D01*
X0158055Y0100055D01*
X0157367Y0100452D01*
X0157367Y0100720D01*
X0156605Y0101481D01*
X0147098Y0101481D01*
X0147007Y0101519D01*
X0156605Y0101519D01*
X0157367Y0102280D01*
X0157367Y0105720D01*
X0156605Y0106481D01*
X0146867Y0106481D01*
X0146722Y0106336D01*
X0146591Y0106467D01*
X0146687Y0106699D01*
X0146867Y0106519D01*
X0156605Y0106519D01*
X0156987Y0106900D01*
X0157354Y0106900D01*
X0159485Y0107783D01*
X0159485Y0107783D01*
X0161117Y0109415D01*
X0161857Y0111201D01*
X0162076Y0111420D01*
X0162501Y0112445D01*
X0162501Y0113555D01*
X0162076Y0114580D01*
X0161292Y0115364D01*
X0160267Y0115789D01*
X0159157Y0115789D01*
X0158132Y0115364D01*
X0157567Y0114799D01*
X0157567Y0115379D01*
X0157465Y0115760D01*
X0157267Y0116102D01*
X0156988Y0116381D01*
X0156646Y0116579D01*
X0156264Y0116681D01*
X0151827Y0116681D01*
X0151827Y0114091D01*
X0151646Y0114091D01*
X0151646Y0116681D01*
X0147208Y0116681D01*
X0146827Y0116579D01*
X0146484Y0116381D01*
X0146205Y0116102D01*
X0146008Y0115760D01*
X0145906Y0115379D01*
X0145906Y0114091D01*
X0151646Y0114091D01*
X0151646Y0113909D01*
X0145906Y0113909D01*
X0145906Y0112621D01*
X0146008Y0112240D01*
X0146205Y0111898D01*
X0146484Y0111619D01*
X0146814Y0111428D01*
X0146106Y0110720D01*
X0146106Y0109339D01*
X0145580Y0109864D01*
X0144555Y0110289D01*
X0143445Y0110289D01*
X0142420Y0109864D01*
X0141636Y0109080D01*
X0141211Y0108055D01*
X0141211Y0106945D01*
X0141636Y0105920D01*
X0142416Y0105139D01*
X0142753Y0104328D01*
X0144328Y0102753D01*
X0146386Y0101900D01*
X0146486Y0101900D01*
X0146768Y0101618D01*
X0146355Y0101789D01*
X0145245Y0101789D01*
X0144220Y0101364D01*
X0143436Y0100580D01*
X0143011Y0099555D01*
X0143011Y0098445D01*
X0143436Y0097420D01*
X0144220Y0096636D01*
X0145245Y0096211D01*
X0146765Y0096381D02*
X0154900Y0096381D01*
X0154900Y0095382D02*
X0140800Y0095382D01*
X0140800Y0094384D02*
X0154900Y0094384D01*
X0154900Y0093385D02*
X0140800Y0093385D01*
X0140800Y0092387D02*
X0154900Y0092387D01*
X0154900Y0091388D02*
X0140800Y0091388D01*
X0140800Y0090390D02*
X0154900Y0090390D01*
X0154900Y0089391D02*
X0140800Y0089391D01*
X0140800Y0088393D02*
X0154900Y0088393D01*
X0154900Y0087394D02*
X0140800Y0087394D01*
X0141620Y0086396D02*
X0154900Y0086396D01*
X0154900Y0085397D02*
X0142260Y0085397D01*
X0142600Y0084399D02*
X0154900Y0084399D01*
X0154900Y0083400D02*
X0142600Y0083400D01*
X0142342Y0082402D02*
X0154900Y0082402D01*
X0154900Y0081403D02*
X0141819Y0081403D01*
X0140694Y0080405D02*
X0154900Y0080405D01*
X0159100Y0080405D02*
X0164700Y0080405D01*
X0164700Y0081403D02*
X0159100Y0081403D01*
X0159100Y0082402D02*
X0164700Y0082402D01*
X0164700Y0083400D02*
X0159100Y0083400D01*
X0159100Y0084399D02*
X0164700Y0084399D01*
X0164700Y0085397D02*
X0159100Y0085397D01*
X0159100Y0086396D02*
X0164700Y0086396D01*
X0164700Y0087394D02*
X0159100Y0087394D01*
X0159100Y0088393D02*
X0164700Y0088393D01*
X0164700Y0089391D02*
X0159100Y0089391D01*
X0159100Y0090390D02*
X0164700Y0090390D01*
X0164700Y0091388D02*
X0159100Y0091388D01*
X0159100Y0092387D02*
X0164700Y0092387D01*
X0164700Y0093385D02*
X0159100Y0093385D01*
X0159100Y0094384D02*
X0164700Y0094384D01*
X0164700Y0095382D02*
X0159100Y0095382D01*
X0159100Y0096381D02*
X0164700Y0096381D01*
X0164700Y0097379D02*
X0159100Y0097379D01*
X0159023Y0098378D02*
X0164700Y0098378D01*
X0164700Y0099376D02*
X0158447Y0099376D01*
X0157501Y0100375D02*
X0164700Y0100375D01*
X0164700Y0101373D02*
X0156713Y0101373D01*
X0157367Y0102372D02*
X0164700Y0102372D01*
X0164700Y0103370D02*
X0157367Y0103370D01*
X0157367Y0104369D02*
X0164700Y0104369D01*
X0164700Y0105368D02*
X0157367Y0105368D01*
X0156720Y0106366D02*
X0164700Y0106366D01*
X0164700Y0107365D02*
X0158475Y0107365D01*
X0160065Y0108363D02*
X0164700Y0108363D01*
X0164700Y0109362D02*
X0161064Y0109362D01*
X0161117Y0109415D02*
X0161117Y0109415D01*
X0161509Y0110360D02*
X0164700Y0110360D01*
X0164700Y0111359D02*
X0162015Y0111359D01*
X0162464Y0112357D02*
X0164700Y0112357D01*
X0164700Y0113356D02*
X0162501Y0113356D01*
X0162170Y0114354D02*
X0164700Y0114354D01*
X0164700Y0115353D02*
X0161303Y0115353D01*
X0158120Y0115353D02*
X0157567Y0115353D01*
X0157018Y0116351D02*
X0164700Y0116351D01*
X0164700Y0117350D02*
X0126167Y0117350D01*
X0126289Y0117055D02*
X0125864Y0118080D01*
X0125080Y0118864D01*
X0124055Y0119289D01*
X0122945Y0119289D01*
X0121920Y0118864D01*
X0121136Y0118080D01*
X0120711Y0117055D01*
X0120711Y0116233D01*
X0120580Y0116364D01*
X0119555Y0116789D01*
X0118445Y0116789D01*
X0117420Y0116364D01*
X0116636Y0115580D01*
X0116211Y0114555D01*
X0116211Y0113445D01*
X0116636Y0112420D01*
X0117205Y0111850D01*
X0117981Y0109978D01*
X0119978Y0107981D01*
X0119978Y0107981D01*
X0122588Y0106900D01*
X0126013Y0106900D01*
X0126395Y0106519D01*
X0136133Y0106519D01*
X0136894Y0107280D01*
X0136894Y0110720D01*
X0136133Y0111481D01*
X0126395Y0111481D01*
X0126013Y0111100D01*
X0124000Y0111100D01*
X0123434Y0111156D01*
X0122389Y0111589D01*
X0121589Y0112389D01*
X0121470Y0112675D01*
X0121789Y0113445D01*
X0121789Y0114267D01*
X0121920Y0114136D01*
X0122095Y0114063D01*
X0122633Y0113133D01*
X0124767Y0111900D01*
X0126013Y0111900D01*
X0126395Y0111519D01*
X0136133Y0111519D01*
X0136894Y0112280D01*
X0136894Y0115720D01*
X0136133Y0116481D01*
X0126395Y0116481D01*
X0126289Y0116375D01*
X0126289Y0117055D01*
X0125596Y0118348D02*
X0164700Y0118348D01*
X0164700Y0119347D02*
X0113291Y0119347D01*
X0113596Y0118348D02*
X0121404Y0118348D01*
X0120833Y0117350D02*
X0114167Y0117350D01*
X0114289Y0116351D02*
X0117407Y0116351D01*
X0116542Y0115353D02*
X0114043Y0115353D01*
X0113298Y0114354D02*
X0116211Y0114354D01*
X0116248Y0113356D02*
X0113843Y0113356D01*
X0114100Y0112357D02*
X0116699Y0112357D01*
X0117409Y0111359D02*
X0115840Y0111359D01*
X0115884Y0110360D02*
X0117823Y0110360D01*
X0117981Y0109978D02*
X0117981Y0109978D01*
X0118598Y0109362D02*
X0115884Y0109362D01*
X0115884Y0108363D02*
X0119596Y0108363D01*
X0119411Y0107365D02*
X0121466Y0107365D01*
X0121724Y0106366D02*
X0120549Y0106366D01*
X0124876Y0106366D02*
X0126280Y0106366D01*
X0126272Y0111359D02*
X0122944Y0111359D01*
X0123976Y0112357D02*
X0121620Y0112357D01*
X0121752Y0113356D02*
X0122504Y0113356D01*
X0122633Y0113133D02*
X0122633Y0113133D01*
X0122633Y0113133D01*
X0120711Y0116351D02*
X0120593Y0116351D01*
X0114040Y0120345D02*
X0164700Y0120345D01*
X0164700Y0121344D02*
X0114289Y0121344D01*
X0114170Y0122342D02*
X0164700Y0122342D01*
X0164700Y0123341D02*
X0113603Y0123341D01*
X0117459Y0124339D02*
X0120741Y0124339D01*
X0120924Y0124157D02*
X0128300Y0124157D01*
X0129061Y0124918D01*
X0129061Y0125100D01*
X0130615Y0125100D01*
X0132900Y0127385D01*
X0132900Y0130615D01*
X0130615Y0132900D01*
X0129061Y0132900D01*
X0129061Y0133082D01*
X0128300Y0133843D01*
X0120924Y0133843D01*
X0120162Y0133082D01*
X0120162Y0124918D01*
X0120924Y0124157D01*
X0120162Y0125338D02*
X0118038Y0125338D01*
X0118038Y0126336D02*
X0120162Y0126336D01*
X0120162Y0127335D02*
X0118038Y0127335D01*
X0118038Y0128333D02*
X0120162Y0128333D01*
X0120162Y0129332D02*
X0118038Y0129332D01*
X0118038Y0130330D02*
X0120162Y0130330D01*
X0120162Y0131329D02*
X0118038Y0131329D01*
X0118038Y0132327D02*
X0120162Y0132327D01*
X0120406Y0133326D02*
X0117794Y0133326D01*
X0111100Y0134324D02*
X0140232Y0134324D01*
X0137762Y0135323D02*
X0111100Y0135323D01*
X0111100Y0136321D02*
X0136763Y0136321D01*
X0135765Y0137320D02*
X0111100Y0137320D01*
X0111100Y0138318D02*
X0135700Y0138318D01*
X0135700Y0139317D02*
X0111100Y0139317D01*
X0111100Y0140315D02*
X0135700Y0140315D01*
X0136399Y0141314D02*
X0110982Y0141314D01*
X0110568Y0142312D02*
X0137397Y0142312D01*
X0137462Y0143311D02*
X0110154Y0143311D01*
X0109930Y0143852D02*
X0109930Y0143852D01*
X0109473Y0144309D02*
X0137454Y0144309D01*
X0137445Y0145308D02*
X0128951Y0145308D01*
X0131322Y0146306D02*
X0137436Y0146306D01*
X0137428Y0147305D02*
X0132320Y0147305D01*
X0132900Y0148303D02*
X0137419Y0148303D01*
X0137410Y0149302D02*
X0132900Y0149302D01*
X0132900Y0150301D02*
X0137400Y0150301D01*
X0137186Y0151299D02*
X0132716Y0151299D01*
X0131718Y0152298D02*
X0136030Y0152298D01*
X0139334Y0155293D02*
X0139639Y0155293D01*
X0140332Y0154295D02*
X0164700Y0154295D01*
X0164700Y0155293D02*
X0159561Y0155293D01*
X0159561Y0155300D02*
X0161115Y0155300D01*
X0163400Y0157585D01*
X0163400Y0160815D01*
X0161115Y0163100D01*
X0159561Y0163100D01*
X0159561Y0163282D01*
X0158800Y0164043D01*
X0151424Y0164043D01*
X0150662Y0163282D01*
X0150662Y0155118D01*
X0151424Y0154357D01*
X0158800Y0154357D01*
X0159561Y0155118D01*
X0159561Y0155300D01*
X0162107Y0156292D02*
X0164700Y0156292D01*
X0164700Y0157290D02*
X0163106Y0157290D01*
X0163400Y0158289D02*
X0164700Y0158289D01*
X0164700Y0159287D02*
X0163400Y0159287D01*
X0163400Y0160286D02*
X0164700Y0160286D01*
X0164700Y0161284D02*
X0162931Y0161284D01*
X0161933Y0162283D02*
X0164700Y0162283D01*
X0164700Y0163281D02*
X0159561Y0163281D01*
X0164700Y0164280D02*
X0144725Y0164280D01*
X0145724Y0165278D02*
X0164700Y0165278D01*
X0164178Y0166277D02*
X0148021Y0166277D01*
X0148753Y0167275D02*
X0151779Y0167275D01*
X0150781Y0168274D02*
X0148989Y0168274D01*
X0148857Y0169272D02*
X0149782Y0169272D01*
X0148784Y0170271D02*
X0148273Y0170271D01*
X0147785Y0171269D02*
X0142540Y0171269D01*
X0141542Y0170271D02*
X0144127Y0170271D01*
X0143543Y0169272D02*
X0139959Y0169272D01*
X0138961Y0168274D02*
X0143411Y0168274D01*
X0142630Y0167275D02*
X0137962Y0167275D01*
X0143100Y0165200D02*
X0125400Y0165200D01*
X0123600Y0167000D01*
X0121900Y0165300D01*
X0118500Y0165300D01*
X0116500Y0165300D01*
X0118500Y0165300D02*
X0096400Y0165300D01*
X0095000Y0163900D01*
X0095000Y0156100D01*
X0094000Y0155100D01*
X0094000Y0133700D01*
X0092437Y0131329D02*
X0073715Y0131329D01*
X0074216Y0130330D02*
X0095259Y0130330D01*
X0095308Y0129332D02*
X0074289Y0129332D01*
X0073994Y0128333D02*
X0095259Y0128333D01*
X0095259Y0127335D02*
X0073179Y0127335D01*
X0071409Y0126336D02*
X0095259Y0126336D01*
X0095694Y0125338D02*
X0072408Y0125338D01*
X0074699Y0124339D02*
X0095259Y0124339D01*
X0095259Y0123341D02*
X0075722Y0123341D01*
X0076089Y0122342D02*
X0095259Y0122342D01*
X0095379Y0121344D02*
X0076088Y0121344D01*
X0073300Y0121900D02*
X0072600Y0122600D01*
X0073300Y0121900D02*
X0062100Y0133100D01*
X0065100Y0135700D02*
X0071400Y0129600D01*
X0071500Y0129600D01*
X0072204Y0132327D02*
X0091550Y0132327D01*
X0091211Y0133326D02*
X0070140Y0133326D01*
X0069731Y0134324D02*
X0069108Y0134324D01*
X0068969Y0135323D02*
X0068077Y0135323D01*
X0067861Y0136321D02*
X0068711Y0136321D01*
X0068821Y0137320D02*
X0067424Y0137320D01*
X0066067Y0138318D02*
X0069374Y0138318D01*
X0069700Y0139317D02*
X0066834Y0139317D01*
X0067367Y0140315D02*
X0069700Y0140315D01*
X0069700Y0141314D02*
X0067462Y0141314D01*
X0067189Y0142312D02*
X0069700Y0142312D01*
X0069700Y0143311D02*
X0066406Y0143311D01*
X0069700Y0144309D02*
X0049709Y0144309D01*
X0049657Y0143311D02*
X0062940Y0143311D01*
X0062156Y0142312D02*
X0049709Y0142312D01*
X0049709Y0141314D02*
X0061544Y0141314D01*
X0060546Y0140315D02*
X0049709Y0140315D01*
X0049709Y0139317D02*
X0059547Y0139317D01*
X0058549Y0138318D02*
X0049433Y0138318D01*
X0049709Y0137320D02*
X0057550Y0137320D01*
X0056552Y0136321D02*
X0049709Y0136321D01*
X0049709Y0135323D02*
X0055553Y0135323D01*
X0054554Y0134324D02*
X0049431Y0134324D01*
X0049709Y0133326D02*
X0053556Y0133326D01*
X0052557Y0132327D02*
X0049709Y0132327D01*
X0049709Y0131329D02*
X0051559Y0131329D01*
X0051200Y0130330D02*
X0049709Y0130330D01*
X0049660Y0129332D02*
X0051200Y0129332D01*
X0051200Y0128333D02*
X0049709Y0128333D01*
X0049709Y0127335D02*
X0051200Y0127335D01*
X0051200Y0126336D02*
X0049709Y0126336D01*
X0049274Y0125338D02*
X0051200Y0125338D01*
X0051200Y0124339D02*
X0049709Y0124339D01*
X0049709Y0123341D02*
X0051200Y0123341D01*
X0051200Y0122342D02*
X0049709Y0122342D01*
X0049590Y0121344D02*
X0051200Y0121344D01*
X0050475Y0120345D02*
X0049709Y0120345D01*
X0047523Y0114423D02*
X0045909Y0114423D01*
X0047477Y0114423D01*
X0054000Y0114200D02*
X0054400Y0114200D01*
X0059003Y0118803D01*
X0094197Y0118803D01*
X0096500Y0118803D01*
X0094197Y0118803D01*
X0096500Y0118803D02*
X0099059Y0118803D01*
X0099059Y0114423D02*
X0096500Y0114423D01*
X0095577Y0114423D01*
X0096500Y0114423D02*
X0060823Y0114423D01*
X0054600Y0108200D01*
X0057389Y0108363D02*
X0062217Y0108363D01*
X0061219Y0107365D02*
X0057273Y0107365D01*
X0056710Y0106366D02*
X0060220Y0106366D01*
X0058307Y0109362D02*
X0063216Y0109362D01*
X0064214Y0110360D02*
X0059306Y0110360D01*
X0060304Y0111359D02*
X0065213Y0111359D01*
X0066212Y0112357D02*
X0061303Y0112357D01*
X0066310Y0107365D02*
X0090515Y0107365D01*
X0090929Y0108363D02*
X0067309Y0108363D01*
X0068307Y0109362D02*
X0092196Y0109362D01*
X0093300Y0106800D02*
X0093400Y0106700D01*
X0093500Y0106700D01*
X0094537Y0105663D01*
X0099059Y0105663D01*
X0099059Y0110043D02*
X0095757Y0110043D01*
X0094100Y0111700D01*
X0068100Y0111700D01*
X0059700Y0103300D01*
X0057124Y0104369D02*
X0052200Y0104369D01*
X0052200Y0105368D02*
X0057823Y0105368D01*
X0056911Y0103370D02*
X0052200Y0103370D01*
X0052200Y0102372D02*
X0057066Y0102372D01*
X0057682Y0101373D02*
X0052200Y0101373D01*
X0052200Y0100375D02*
X0075531Y0100375D01*
X0074886Y0099376D02*
X0052200Y0099376D01*
X0052200Y0098378D02*
X0074711Y0098378D01*
X0074904Y0097379D02*
X0069461Y0097379D01*
X0070763Y0096381D02*
X0075575Y0096381D01*
X0077972Y0095382D02*
X0071178Y0095382D01*
X0071362Y0094384D02*
X0095400Y0094384D01*
X0095673Y0090390D02*
X0052200Y0090390D01*
X0052200Y0091388D02*
X0069266Y0091388D01*
X0070676Y0092524D02*
X0068400Y0094800D01*
X0067339Y0097379D02*
X0052200Y0097379D01*
X0052200Y0096381D02*
X0066037Y0096381D01*
X0065622Y0095382D02*
X0052200Y0095382D01*
X0052200Y0094384D02*
X0065611Y0094384D01*
X0065967Y0093385D02*
X0052200Y0093385D01*
X0052200Y0092387D02*
X0066938Y0092387D01*
X0070676Y0092524D02*
X0099059Y0092524D01*
X0102859Y0091388D02*
X0114600Y0091388D01*
X0114600Y0090390D02*
X0102445Y0090390D01*
X0104962Y0092387D02*
X0114600Y0092387D01*
X0114600Y0093385D02*
X0105933Y0093385D01*
X0103500Y0094800D02*
X0103400Y0094900D01*
X0103400Y0120700D01*
X0100917Y0123183D01*
X0099059Y0123183D01*
X0099059Y0127563D02*
X0100337Y0127563D01*
X0105200Y0122700D01*
X0105200Y0098200D01*
X0106800Y0096600D01*
X0107000Y0096600D01*
X0108728Y0094384D02*
X0114600Y0094384D01*
X0114600Y0095382D02*
X0109514Y0095382D01*
X0109789Y0096381D02*
X0114600Y0096381D01*
X0114600Y0097379D02*
X0112124Y0097379D01*
X0112795Y0098378D02*
X0114600Y0098378D01*
X0114600Y0099376D02*
X0112989Y0099376D01*
X0112815Y0100375D02*
X0114600Y0100375D01*
X0114511Y0101373D02*
X0112171Y0101373D01*
X0113877Y0102372D02*
X0109774Y0102372D01*
X0109100Y0103370D02*
X0113541Y0103370D01*
X0113541Y0104369D02*
X0109100Y0104369D01*
X0109100Y0105368D02*
X0113802Y0105368D01*
X0114332Y0106366D02*
X0114332Y0106366D01*
X0114460Y0107365D02*
X0113611Y0107365D01*
X0113461Y0108363D02*
X0112613Y0108363D01*
X0112463Y0109362D02*
X0111953Y0109362D01*
X0112103Y0110360D02*
X0112952Y0110360D01*
X0113102Y0111359D02*
X0113950Y0111359D01*
X0115330Y0107365D02*
X0115470Y0107365D01*
X0109236Y0106366D02*
X0109100Y0106366D01*
X0107300Y0102300D02*
X0110200Y0099400D01*
X0107300Y0102300D02*
X0107300Y0123500D01*
X0103500Y0127300D01*
X0103500Y0129300D01*
X0100857Y0131943D01*
X0099059Y0131943D01*
X0099059Y0127563D02*
X0100637Y0127563D01*
X0091240Y0134324D02*
X0073269Y0134324D01*
X0074031Y0135323D02*
X0091679Y0135323D01*
X0092200Y0136321D02*
X0074289Y0136321D01*
X0074179Y0137320D02*
X0092200Y0137320D01*
X0092200Y0138318D02*
X0073626Y0138318D01*
X0073300Y0139317D02*
X0092200Y0139317D01*
X0092200Y0140315D02*
X0073300Y0140315D01*
X0073300Y0141314D02*
X0092200Y0141314D01*
X0092200Y0142312D02*
X0073300Y0142312D01*
X0073300Y0143311D02*
X0092200Y0143311D01*
X0092200Y0144309D02*
X0073300Y0144309D01*
X0073300Y0145308D02*
X0074548Y0145308D01*
X0073893Y0146306D02*
X0073300Y0146306D01*
X0073300Y0147305D02*
X0073711Y0147305D01*
X0073749Y0148303D02*
X0073897Y0148303D01*
X0071500Y0148600D02*
X0074800Y0151900D01*
X0071500Y0148600D02*
X0071500Y0136500D01*
X0078452Y0145308D02*
X0092200Y0145308D01*
X0092200Y0146306D02*
X0081993Y0146306D01*
X0082992Y0147305D02*
X0092200Y0147305D01*
X0092200Y0148303D02*
X0083990Y0148303D01*
X0084989Y0149302D02*
X0092200Y0149302D01*
X0092200Y0150301D02*
X0085988Y0150301D01*
X0086986Y0151299D02*
X0092200Y0151299D01*
X0092200Y0152298D02*
X0087985Y0152298D01*
X0088983Y0153296D02*
X0092200Y0153296D01*
X0092200Y0154295D02*
X0089982Y0154295D01*
X0090980Y0155293D02*
X0092200Y0155293D01*
X0091979Y0156292D02*
X0092646Y0156292D01*
X0092977Y0157290D02*
X0093200Y0157290D01*
X0088537Y0162283D02*
X0049709Y0162283D01*
X0049709Y0163281D02*
X0088900Y0163281D01*
X0088900Y0164280D02*
X0049709Y0164280D01*
X0049709Y0161284D02*
X0087539Y0161284D01*
X0086540Y0160286D02*
X0049366Y0160286D01*
X0049709Y0159287D02*
X0085542Y0159287D01*
X0084543Y0158289D02*
X0049709Y0158289D01*
X0049709Y0157290D02*
X0083545Y0157290D01*
X0082546Y0156292D02*
X0049498Y0156292D01*
X0049709Y0155293D02*
X0081547Y0155293D01*
X0080549Y0154295D02*
X0049709Y0154295D01*
X0042321Y0156292D02*
X0042084Y0156292D01*
X0042109Y0157290D02*
X0041254Y0157290D01*
X0042109Y0158289D02*
X0038627Y0158289D01*
X0038800Y0159287D02*
X0042109Y0159287D01*
X0042453Y0160286D02*
X0038800Y0160286D01*
X0038556Y0161284D02*
X0042109Y0161284D01*
X0042109Y0162283D02*
X0038142Y0162283D01*
X0037290Y0163281D02*
X0042109Y0163281D01*
X0042109Y0164280D02*
X0035809Y0164280D01*
X0032061Y0166277D02*
X0089131Y0166277D01*
X0088900Y0165278D02*
X0031622Y0165278D01*
X0031791Y0164280D02*
X0030262Y0164280D01*
X0030310Y0163281D02*
X0028300Y0163281D01*
X0028300Y0162283D02*
X0029458Y0162283D01*
X0029044Y0161284D02*
X0028300Y0161284D01*
X0028300Y0160286D02*
X0028800Y0160286D01*
X0028800Y0159287D02*
X0028300Y0159287D01*
X0028300Y0158289D02*
X0028973Y0158289D01*
X0029386Y0157290D02*
X0028300Y0157290D01*
X0028300Y0156292D02*
X0030137Y0156292D01*
X0033800Y0149700D02*
X0042797Y0140703D01*
X0045909Y0140703D01*
X0044097Y0140703D01*
X0044197Y0140703D02*
X0045909Y0140703D01*
X0042580Y0138513D02*
X0042190Y0138123D01*
X0038559Y0138123D01*
X0038800Y0138705D01*
X0038800Y0140695D01*
X0038039Y0142532D01*
X0036632Y0143939D01*
X0034795Y0144700D01*
X0032805Y0144700D01*
X0034795Y0144700D01*
X0035827Y0145128D01*
X0042052Y0138903D01*
X0042190Y0138903D01*
X0042580Y0138513D01*
X0042385Y0138318D02*
X0038640Y0138318D01*
X0038800Y0139317D02*
X0041638Y0139317D01*
X0040639Y0140315D02*
X0038800Y0140315D01*
X0038543Y0141314D02*
X0039640Y0141314D01*
X0038642Y0142312D02*
X0038130Y0142312D01*
X0037643Y0143311D02*
X0037260Y0143311D01*
X0036645Y0144309D02*
X0035737Y0144309D01*
X0033800Y0139700D02*
X0037177Y0136323D01*
X0045909Y0136323D01*
X0042580Y0134133D02*
X0042190Y0133743D01*
X0036828Y0133743D01*
X0036632Y0133939D01*
X0034795Y0134700D01*
X0032805Y0134700D01*
X0034795Y0134700D01*
X0035827Y0135128D01*
X0036432Y0134523D01*
X0042190Y0134523D01*
X0042580Y0134133D01*
X0042388Y0134324D02*
X0035701Y0134324D01*
X0036043Y0131943D02*
X0033800Y0129700D01*
X0036043Y0131943D02*
X0045909Y0131943D01*
X0045909Y0127563D02*
X0041663Y0127563D01*
X0038600Y0124500D01*
X0031000Y0124500D01*
X0040700Y0110900D02*
X0040700Y0102800D01*
X0042200Y0101300D01*
X0045893Y0101300D01*
X0045909Y0101283D01*
X0042580Y0099093D02*
X0042190Y0098704D01*
X0037142Y0098704D01*
X0036489Y0099357D01*
X0036489Y0100155D01*
X0036064Y0101180D01*
X0035280Y0101964D01*
X0034255Y0102389D01*
X0033145Y0102389D01*
X0032120Y0101964D01*
X0031336Y0101180D01*
X0030911Y0100155D01*
X0030911Y0099045D01*
X0031336Y0098020D01*
X0032120Y0097236D01*
X0033145Y0096811D01*
X0033943Y0096811D01*
X0035651Y0095104D01*
X0042190Y0095104D01*
X0042438Y0094855D01*
X0042209Y0094626D01*
X0042012Y0094284D01*
X0041909Y0093902D01*
X0041909Y0092614D01*
X0045819Y0092614D01*
X0045819Y0092433D01*
X0041909Y0092433D01*
X0041909Y0091145D01*
X0042012Y0090764D01*
X0042209Y0090421D01*
X0042488Y0090142D01*
X0042830Y0089945D01*
X0043212Y0089843D01*
X0044150Y0089843D01*
X0043720Y0089664D01*
X0043456Y0089400D01*
X0039270Y0089400D01*
X0037350Y0091320D01*
X0036120Y0092550D01*
X0036120Y0092550D01*
X0029100Y0099570D01*
X0029100Y0107470D01*
X0029353Y0106975D01*
X0029834Y0106312D01*
X0030412Y0105734D01*
X0031075Y0105253D01*
X0031804Y0104881D01*
X0032582Y0104628D01*
X0033300Y0104514D01*
X0033300Y0109200D01*
X0034300Y0109200D01*
X0034300Y0104514D01*
X0035018Y0104628D01*
X0035796Y0104881D01*
X0036525Y0105253D01*
X0037188Y0105734D01*
X0037766Y0106312D01*
X0038247Y0106975D01*
X0038619Y0107704D01*
X0038872Y0108482D01*
X0038900Y0108660D01*
X0038900Y0102054D01*
X0040400Y0100554D01*
X0041454Y0099500D01*
X0042173Y0099500D01*
X0042580Y0099093D01*
X0042297Y0099376D02*
X0036489Y0099376D01*
X0036398Y0100375D02*
X0040579Y0100375D01*
X0039581Y0101373D02*
X0035871Y0101373D01*
X0034296Y0102372D02*
X0038900Y0102372D01*
X0038900Y0103370D02*
X0029100Y0103370D01*
X0029100Y0102372D02*
X0033104Y0102372D01*
X0031529Y0101373D02*
X0029100Y0101373D01*
X0029100Y0100375D02*
X0031002Y0100375D01*
X0030911Y0099376D02*
X0029293Y0099376D01*
X0030292Y0098378D02*
X0031187Y0098378D01*
X0031290Y0097379D02*
X0031976Y0097379D01*
X0032289Y0096381D02*
X0034373Y0096381D01*
X0035372Y0095382D02*
X0033287Y0095382D01*
X0034286Y0094384D02*
X0042070Y0094384D01*
X0041909Y0093385D02*
X0035284Y0093385D01*
X0036283Y0092387D02*
X0041909Y0092387D01*
X0041909Y0091388D02*
X0037281Y0091388D01*
X0037350Y0091320D02*
X0037350Y0091320D01*
X0038280Y0090390D02*
X0042241Y0090390D01*
X0045909Y0096904D02*
X0036396Y0096904D01*
X0033700Y0099600D01*
X0033600Y0099700D01*
X0033300Y0105368D02*
X0034300Y0105368D01*
X0034300Y0106366D02*
X0033300Y0106366D01*
X0033300Y0107365D02*
X0034300Y0107365D01*
X0034300Y0108363D02*
X0033300Y0108363D01*
X0030916Y0105368D02*
X0029100Y0105368D01*
X0029100Y0106366D02*
X0029795Y0106366D01*
X0029154Y0107365D02*
X0029100Y0107365D01*
X0029100Y0104369D02*
X0038900Y0104369D01*
X0038900Y0105368D02*
X0036684Y0105368D01*
X0037805Y0106366D02*
X0038900Y0106366D01*
X0038900Y0107365D02*
X0038446Y0107365D01*
X0038833Y0108363D02*
X0038900Y0108363D01*
X0052200Y0106366D02*
X0052490Y0106366D01*
X0061718Y0101373D02*
X0088694Y0101373D01*
X0087184Y0102372D02*
X0062334Y0102372D01*
X0062489Y0103370D02*
X0086683Y0103370D01*
X0086611Y0104369D02*
X0063315Y0104369D01*
X0064313Y0105368D02*
X0086906Y0105368D01*
X0087722Y0106366D02*
X0065312Y0106366D01*
X0077500Y0098400D02*
X0078996Y0096904D01*
X0099059Y0096904D01*
X0095446Y0099376D02*
X0080114Y0099376D01*
X0079469Y0100375D02*
X0090579Y0100375D01*
X0092217Y0101283D02*
X0099059Y0101283D01*
X0092217Y0101283D02*
X0089400Y0104100D01*
X0096857Y0110043D02*
X0099059Y0110043D01*
X0099059Y0114423D02*
X0097523Y0114423D01*
X0114600Y0089391D02*
X0052200Y0089391D01*
X0055560Y0088393D02*
X0056732Y0088393D01*
X0060284Y0088393D02*
X0061456Y0088393D01*
X0065009Y0088393D02*
X0066180Y0088393D01*
X0069733Y0088393D02*
X0070905Y0088393D01*
X0074457Y0088393D02*
X0075629Y0088393D01*
X0079182Y0088393D02*
X0080354Y0088393D01*
X0083906Y0088393D02*
X0085078Y0088393D01*
X0088631Y0088393D02*
X0089802Y0088393D01*
X0093355Y0088393D02*
X0114600Y0088393D01*
X0114600Y0087394D02*
X0094060Y0087394D01*
X0094060Y0086396D02*
X0114600Y0086396D01*
X0114600Y0085397D02*
X0094060Y0085397D01*
X0094060Y0084399D02*
X0114600Y0084399D01*
X0114600Y0083400D02*
X0094060Y0083400D01*
X0094060Y0082402D02*
X0114600Y0082402D01*
X0114002Y0081403D02*
X0093852Y0081403D01*
X0089306Y0081403D02*
X0089128Y0081403D01*
X0089061Y0080405D02*
X0113004Y0080405D01*
X0112005Y0079406D02*
X0089289Y0079406D01*
X0089149Y0078408D02*
X0111006Y0078408D01*
X0114216Y0073415D02*
X0154900Y0073415D01*
X0153140Y0072417D02*
X0148499Y0072417D01*
X0149497Y0071418D02*
X0151703Y0071418D01*
X0151050Y0070420D02*
X0150496Y0070420D01*
X0150500Y0069421D02*
X0150700Y0069421D01*
X0150700Y0068423D02*
X0150500Y0068423D01*
X0150500Y0067424D02*
X0150949Y0067424D01*
X0151459Y0066426D02*
X0149741Y0066426D01*
X0148742Y0065427D02*
X0152552Y0065427D01*
X0156648Y0065427D02*
X0164700Y0065427D01*
X0164700Y0066426D02*
X0157741Y0066426D01*
X0158251Y0067424D02*
X0164700Y0067424D01*
X0164700Y0068423D02*
X0158500Y0068423D01*
X0158769Y0069421D02*
X0164700Y0069421D01*
X0164700Y0070420D02*
X0159100Y0070420D01*
X0159100Y0071418D02*
X0164700Y0071418D01*
X0164700Y0072417D02*
X0159100Y0072417D01*
X0159100Y0073415D02*
X0164700Y0073415D01*
X0164700Y0074414D02*
X0159100Y0074414D01*
X0159100Y0075412D02*
X0164700Y0075412D01*
X0164700Y0076411D02*
X0159100Y0076411D01*
X0159100Y0077409D02*
X0164700Y0077409D01*
X0164700Y0078408D02*
X0159100Y0078408D01*
X0159100Y0079406D02*
X0164700Y0079406D01*
X0168300Y0079406D02*
X0169769Y0079406D01*
X0169769Y0078408D02*
X0168300Y0078408D01*
X0168300Y0077409D02*
X0169769Y0077409D01*
X0169769Y0076411D02*
X0168300Y0076411D01*
X0168300Y0075412D02*
X0169769Y0075412D01*
X0169769Y0074414D02*
X0168300Y0074414D01*
X0168300Y0073415D02*
X0169769Y0073415D01*
X0169769Y0072417D02*
X0168300Y0072417D01*
X0168300Y0071418D02*
X0169769Y0071418D01*
X0169769Y0070420D02*
X0168300Y0070420D01*
X0168300Y0069421D02*
X0169769Y0069421D01*
X0169769Y0068423D02*
X0168300Y0068423D01*
X0168300Y0067424D02*
X0169769Y0067424D01*
X0169769Y0066426D02*
X0168300Y0066426D01*
X0168300Y0065427D02*
X0169769Y0065427D01*
X0169769Y0064429D02*
X0168300Y0064429D01*
X0168300Y0063430D02*
X0169769Y0063430D01*
X0169769Y0062432D02*
X0168300Y0062432D01*
X0168300Y0061433D02*
X0169769Y0061433D01*
X0169769Y0060434D02*
X0167980Y0060434D01*
X0167246Y0059700D02*
X0167246Y0059700D01*
X0166982Y0059436D02*
X0169769Y0059436D01*
X0169769Y0058437D02*
X0165983Y0058437D01*
X0164985Y0057439D02*
X0169769Y0057439D01*
X0169769Y0056440D02*
X0163986Y0056440D01*
X0162988Y0055442D02*
X0169769Y0055442D01*
X0169769Y0054443D02*
X0161989Y0054443D01*
X0160990Y0053445D02*
X0169769Y0053445D01*
X0169769Y0052446D02*
X0159992Y0052446D01*
X0158993Y0051448D02*
X0169769Y0051448D01*
X0169769Y0050449D02*
X0157995Y0050449D01*
X0168300Y0080405D02*
X0169769Y0080405D01*
X0169769Y0081403D02*
X0168300Y0081403D01*
X0168300Y0082402D02*
X0169769Y0082402D01*
X0169769Y0083400D02*
X0168300Y0083400D01*
X0168300Y0084399D02*
X0169769Y0084399D01*
X0169769Y0085397D02*
X0168300Y0085397D01*
X0168300Y0086396D02*
X0169769Y0086396D01*
X0169769Y0087394D02*
X0168300Y0087394D01*
X0168300Y0088393D02*
X0169769Y0088393D01*
X0169769Y0089391D02*
X0168300Y0089391D01*
X0168300Y0090390D02*
X0169769Y0090390D01*
X0169769Y0091388D02*
X0168300Y0091388D01*
X0168300Y0092387D02*
X0169769Y0092387D01*
X0169769Y0093385D02*
X0168300Y0093385D01*
X0168300Y0094384D02*
X0169769Y0094384D01*
X0169769Y0095382D02*
X0168300Y0095382D01*
X0168300Y0096381D02*
X0169769Y0096381D01*
X0169769Y0097379D02*
X0168300Y0097379D01*
X0168300Y0098378D02*
X0169769Y0098378D01*
X0169769Y0099376D02*
X0168300Y0099376D01*
X0168300Y0100375D02*
X0169769Y0100375D01*
X0169769Y0101373D02*
X0168300Y0101373D01*
X0168300Y0102372D02*
X0169769Y0102372D01*
X0169769Y0103370D02*
X0168300Y0103370D01*
X0168300Y0104369D02*
X0169769Y0104369D01*
X0169769Y0105368D02*
X0168300Y0105368D01*
X0168300Y0106366D02*
X0169769Y0106366D01*
X0169769Y0107365D02*
X0168300Y0107365D01*
X0168300Y0108363D02*
X0169769Y0108363D01*
X0169769Y0109362D02*
X0168300Y0109362D01*
X0168300Y0110360D02*
X0169769Y0110360D01*
X0169769Y0111359D02*
X0168300Y0111359D01*
X0168300Y0112357D02*
X0169769Y0112357D01*
X0169769Y0113356D02*
X0168300Y0113356D01*
X0168300Y0114354D02*
X0169769Y0114354D01*
X0169769Y0115353D02*
X0168300Y0115353D01*
X0168300Y0116351D02*
X0169769Y0116351D01*
X0169769Y0117350D02*
X0168300Y0117350D01*
X0168300Y0118348D02*
X0169769Y0118348D01*
X0169769Y0119347D02*
X0168300Y0119347D01*
X0168300Y0120345D02*
X0169769Y0120345D01*
X0169769Y0121344D02*
X0168300Y0121344D01*
X0168300Y0122342D02*
X0169769Y0122342D01*
X0169769Y0123341D02*
X0168300Y0123341D01*
X0168300Y0124339D02*
X0169769Y0124339D01*
X0169769Y0125338D02*
X0168300Y0125338D01*
X0168300Y0126336D02*
X0169769Y0126336D01*
X0169769Y0127335D02*
X0168300Y0127335D01*
X0168300Y0128333D02*
X0169769Y0128333D01*
X0169769Y0129332D02*
X0168300Y0129332D01*
X0168300Y0130330D02*
X0169769Y0130330D01*
X0169769Y0131329D02*
X0168300Y0131329D01*
X0168300Y0132327D02*
X0169769Y0132327D01*
X0169769Y0133326D02*
X0168300Y0133326D01*
X0168300Y0134324D02*
X0169769Y0134324D01*
X0169769Y0135323D02*
X0168300Y0135323D01*
X0168300Y0136321D02*
X0169769Y0136321D01*
X0169769Y0137320D02*
X0168300Y0137320D01*
X0168300Y0138318D02*
X0169769Y0138318D01*
X0169769Y0139317D02*
X0168300Y0139317D01*
X0168300Y0140315D02*
X0169769Y0140315D01*
X0169769Y0141314D02*
X0168300Y0141314D01*
X0168300Y0142312D02*
X0169769Y0142312D01*
X0169769Y0143311D02*
X0168300Y0143311D01*
X0168300Y0144309D02*
X0169769Y0144309D01*
X0169769Y0145308D02*
X0168300Y0145308D01*
X0168300Y0146306D02*
X0169769Y0146306D01*
X0169769Y0147305D02*
X0168300Y0147305D01*
X0168300Y0148303D02*
X0169769Y0148303D01*
X0169769Y0149302D02*
X0168300Y0149302D01*
X0168300Y0150301D02*
X0169769Y0150301D01*
X0169769Y0151299D02*
X0168300Y0151299D01*
X0168300Y0152298D02*
X0169769Y0152298D01*
X0169769Y0153296D02*
X0168300Y0153296D01*
X0168300Y0154295D02*
X0169769Y0154295D01*
X0169769Y0155293D02*
X0168300Y0155293D01*
X0168300Y0156292D02*
X0169769Y0156292D01*
X0169769Y0157290D02*
X0168300Y0157290D01*
X0168300Y0158289D02*
X0169769Y0158289D01*
X0169769Y0159287D02*
X0168300Y0159287D01*
X0168300Y0160286D02*
X0169769Y0160286D01*
X0169769Y0161284D02*
X0168300Y0161284D01*
X0168300Y0162283D02*
X0169769Y0162283D01*
X0169769Y0163281D02*
X0168300Y0163281D01*
X0168300Y0164280D02*
X0169769Y0164280D01*
X0169769Y0165278D02*
X0168300Y0165278D01*
X0168300Y0166277D02*
X0169769Y0166277D01*
X0169769Y0167275D02*
X0168270Y0167275D01*
X0167272Y0168274D02*
X0169769Y0168274D01*
X0169769Y0169272D02*
X0166273Y0169272D01*
X0169769Y0170271D02*
X0153875Y0170271D01*
X0152876Y0171269D02*
X0169769Y0171269D01*
X0169769Y0172268D02*
X0151878Y0172268D01*
X0150879Y0173266D02*
X0169769Y0173266D01*
X0169769Y0174265D02*
X0149881Y0174265D01*
X0148882Y0175263D02*
X0169769Y0175263D01*
X0169769Y0176262D02*
X0147884Y0176262D01*
X0146885Y0177260D02*
X0169769Y0177260D01*
X0169769Y0178259D02*
X0145887Y0178259D01*
X0144888Y0179257D02*
X0169769Y0179257D01*
X0169769Y0180256D02*
X0143890Y0180256D01*
X0143700Y0181254D02*
X0169769Y0181254D01*
X0169769Y0182253D02*
X0143700Y0182253D01*
X0143700Y0183251D02*
X0169769Y0183251D01*
X0169769Y0184250D02*
X0143700Y0184250D01*
X0143700Y0185248D02*
X0169769Y0185248D01*
X0169769Y0186247D02*
X0143700Y0186247D01*
X0143700Y0187245D02*
X0169661Y0187245D01*
X0169248Y0188244D02*
X0143700Y0188244D01*
X0143196Y0189242D02*
X0168257Y0189242D01*
X0146787Y0172268D02*
X0143539Y0172268D01*
X0143700Y0173266D02*
X0145788Y0173266D01*
X0144790Y0174265D02*
X0143700Y0174265D01*
X0143700Y0175263D02*
X0143791Y0175263D01*
X0146200Y0168400D02*
X0146300Y0168400D01*
X0143100Y0165200D01*
X0148538Y0163281D02*
X0150662Y0163281D01*
X0150662Y0162283D02*
X0148538Y0162283D01*
X0148538Y0161284D02*
X0150662Y0161284D01*
X0150662Y0160286D02*
X0148538Y0160286D01*
X0148538Y0159287D02*
X0150662Y0159287D01*
X0150662Y0158289D02*
X0148538Y0158289D01*
X0148538Y0157290D02*
X0150662Y0157290D01*
X0150662Y0156292D02*
X0148538Y0156292D01*
X0148538Y0155293D02*
X0150662Y0155293D01*
X0141358Y0152298D02*
X0164700Y0152298D01*
X0164700Y0153296D02*
X0140944Y0153296D01*
X0141600Y0151299D02*
X0164700Y0151299D01*
X0164700Y0150301D02*
X0141602Y0150301D01*
X0141610Y0149302D02*
X0164700Y0149302D01*
X0164700Y0148303D02*
X0141619Y0148303D01*
X0141628Y0147305D02*
X0164700Y0147305D01*
X0164700Y0146306D02*
X0141637Y0146306D01*
X0141645Y0145308D02*
X0164700Y0145308D01*
X0164700Y0144309D02*
X0141654Y0144309D01*
X0148309Y0143311D02*
X0150891Y0143311D01*
X0150662Y0143082D02*
X0150662Y0134918D01*
X0151424Y0134157D01*
X0158800Y0134157D01*
X0159561Y0134918D01*
X0159561Y0135100D01*
X0161215Y0135100D01*
X0163500Y0137385D01*
X0163500Y0140615D01*
X0161215Y0142900D01*
X0159561Y0142900D01*
X0159561Y0143082D01*
X0158800Y0143843D01*
X0151424Y0143843D01*
X0150662Y0143082D01*
X0150662Y0142312D02*
X0148538Y0142312D01*
X0148538Y0141314D02*
X0150662Y0141314D01*
X0150662Y0140315D02*
X0148538Y0140315D01*
X0148538Y0139317D02*
X0150662Y0139317D01*
X0150662Y0138318D02*
X0148538Y0138318D01*
X0148538Y0137320D02*
X0150662Y0137320D01*
X0150662Y0136321D02*
X0148538Y0136321D01*
X0148538Y0135323D02*
X0150662Y0135323D01*
X0151256Y0134324D02*
X0147944Y0134324D01*
X0158968Y0134324D02*
X0164700Y0134324D01*
X0164700Y0133326D02*
X0128817Y0133326D01*
X0131188Y0132327D02*
X0164700Y0132327D01*
X0164700Y0131329D02*
X0132187Y0131329D01*
X0132900Y0130330D02*
X0164700Y0130330D01*
X0164700Y0129332D02*
X0132900Y0129332D01*
X0132900Y0128333D02*
X0164700Y0128333D01*
X0164700Y0127335D02*
X0132850Y0127335D01*
X0131852Y0126336D02*
X0164700Y0126336D01*
X0164700Y0125338D02*
X0130853Y0125338D01*
X0128482Y0124339D02*
X0164700Y0124339D01*
X0164700Y0135323D02*
X0161438Y0135323D01*
X0162437Y0136321D02*
X0164700Y0136321D01*
X0164700Y0137320D02*
X0163435Y0137320D01*
X0163500Y0138318D02*
X0164700Y0138318D01*
X0164700Y0139317D02*
X0163500Y0139317D01*
X0163500Y0140315D02*
X0164700Y0140315D01*
X0164700Y0141314D02*
X0162801Y0141314D01*
X0161803Y0142312D02*
X0164700Y0142312D01*
X0164700Y0143311D02*
X0159332Y0143311D01*
X0151827Y0116351D02*
X0151646Y0116351D01*
X0151646Y0115353D02*
X0151827Y0115353D01*
X0151827Y0114354D02*
X0151646Y0114354D01*
X0146745Y0111359D02*
X0136255Y0111359D01*
X0136894Y0112357D02*
X0145976Y0112357D01*
X0145906Y0113356D02*
X0136894Y0113356D01*
X0136894Y0114354D02*
X0145906Y0114354D01*
X0145906Y0115353D02*
X0136894Y0115353D01*
X0136263Y0116351D02*
X0146454Y0116351D01*
X0146106Y0110360D02*
X0136894Y0110360D01*
X0136894Y0109362D02*
X0141917Y0109362D01*
X0141339Y0108363D02*
X0136894Y0108363D01*
X0136894Y0107365D02*
X0141211Y0107365D01*
X0141451Y0106366D02*
X0136248Y0106366D01*
X0137602Y0105368D02*
X0142188Y0105368D01*
X0142736Y0104369D02*
X0138899Y0104369D01*
X0138112Y0105156D02*
X0138112Y0105156D01*
X0139856Y0103412D02*
X0139856Y0103412D01*
X0139873Y0103370D02*
X0143710Y0103370D01*
X0144328Y0102753D02*
X0144328Y0102753D01*
X0145247Y0102372D02*
X0140287Y0102372D01*
X0140700Y0101373D02*
X0144242Y0101373D01*
X0143351Y0100375D02*
X0140800Y0100375D01*
X0140800Y0099376D02*
X0143011Y0099376D01*
X0143039Y0098378D02*
X0140800Y0098378D01*
X0140800Y0097379D02*
X0143476Y0097379D01*
X0142753Y0104328D02*
X0142753Y0104328D01*
X0146083Y0109362D02*
X0146106Y0109362D01*
X0146692Y0106366D02*
X0146752Y0106366D01*
X0136600Y0087394D02*
X0132621Y0087394D01*
X0133620Y0086396D02*
X0135780Y0086396D01*
X0135140Y0085397D02*
X0134600Y0085397D01*
X0134600Y0084399D02*
X0134800Y0084399D01*
X0134800Y0083400D02*
X0134600Y0083400D01*
X0134600Y0082402D02*
X0135058Y0082402D01*
X0135581Y0081403D02*
X0133819Y0081403D01*
X0132820Y0080405D02*
X0136706Y0080405D01*
X0120072Y0145308D02*
X0117928Y0145308D01*
X0117938Y0146306D02*
X0120062Y0146306D01*
X0120062Y0147305D02*
X0117938Y0147305D01*
X0117938Y0148303D02*
X0120062Y0148303D01*
X0120062Y0149302D02*
X0117938Y0149302D01*
X0117938Y0150301D02*
X0120062Y0150301D01*
X0120062Y0151299D02*
X0117938Y0151299D01*
X0117938Y0152298D02*
X0120062Y0152298D01*
X0109049Y0145308D02*
X0108474Y0145308D01*
X0111500Y0167300D02*
X0111900Y0167300D01*
X0109616Y0170271D02*
X0115575Y0170271D01*
X0116546Y0169300D02*
X0118200Y0169300D01*
X0118200Y0174000D01*
X0119200Y0174000D01*
X0119200Y0169487D01*
X0118913Y0169200D01*
X0108546Y0169200D01*
X0113146Y0173800D01*
X0114300Y0174954D01*
X0114346Y0175000D01*
X0118200Y0175000D01*
X0118200Y0174000D01*
X0113500Y0174000D01*
X0113500Y0172346D01*
X0116546Y0169300D01*
X0118200Y0170271D02*
X0119200Y0170271D01*
X0119200Y0171269D02*
X0118200Y0171269D01*
X0118200Y0172268D02*
X0119200Y0172268D01*
X0119200Y0173266D02*
X0118200Y0173266D01*
X0118200Y0174265D02*
X0113610Y0174265D01*
X0113500Y0173266D02*
X0112612Y0173266D01*
X0113578Y0172268D02*
X0111613Y0172268D01*
X0110615Y0171269D02*
X0114577Y0171269D01*
X0112400Y0175600D02*
X0112500Y0175700D01*
X0111515Y0177260D02*
X0101231Y0177260D01*
X0101231Y0176262D02*
X0110516Y0176262D01*
X0109518Y0175263D02*
X0101231Y0175263D01*
X0100910Y0174265D02*
X0108519Y0174265D01*
X0107521Y0173266D02*
X0100497Y0173266D01*
X0099500Y0172268D02*
X0106522Y0172268D01*
X0105524Y0171269D02*
X0097603Y0171269D01*
X0097361Y0171169D02*
X0097361Y0171169D01*
X0093125Y0170271D02*
X0035790Y0170271D01*
X0037340Y0171269D02*
X0048797Y0171269D01*
X0046793Y0172268D02*
X0038222Y0172268D01*
X0038635Y0173266D02*
X0045794Y0173266D01*
X0045256Y0174265D02*
X0038900Y0174265D01*
X0038900Y0175263D02*
X0044842Y0175263D01*
X0044769Y0176262D02*
X0038748Y0176262D01*
X0038334Y0177260D02*
X0044769Y0177260D01*
X0044769Y0178259D02*
X0037612Y0178259D01*
X0036446Y0179257D02*
X0044769Y0179257D01*
X0044769Y0180256D02*
X0035754Y0180256D01*
X0037325Y0181254D02*
X0044769Y0181254D01*
X0044769Y0182253D02*
X0038215Y0182253D01*
X0038629Y0183251D02*
X0044769Y0183251D01*
X0044769Y0184250D02*
X0038900Y0184250D01*
X0038900Y0185248D02*
X0044769Y0185248D01*
X0044769Y0186247D02*
X0038754Y0186247D01*
X0038340Y0187245D02*
X0044661Y0187245D01*
X0044248Y0188244D02*
X0037627Y0188244D01*
X0036482Y0189242D02*
X0043257Y0189242D01*
X0032046Y0180256D02*
X0023231Y0180256D01*
X0023231Y0181254D02*
X0030475Y0181254D01*
X0029585Y0182253D02*
X0023231Y0182253D01*
X0023231Y0183251D02*
X0029171Y0183251D01*
X0028900Y0184250D02*
X0023231Y0184250D01*
X0023231Y0185248D02*
X0028900Y0185248D01*
X0029046Y0186247D02*
X0023231Y0186247D01*
X0023339Y0187245D02*
X0029460Y0187245D01*
X0030173Y0188244D02*
X0023752Y0188244D01*
X0024743Y0189242D02*
X0031318Y0189242D01*
X0031354Y0179257D02*
X0023231Y0179257D01*
X0023231Y0178259D02*
X0030188Y0178259D01*
X0029466Y0177260D02*
X0023231Y0177260D01*
X0023231Y0176262D02*
X0029052Y0176262D01*
X0028900Y0175263D02*
X0023231Y0175263D01*
X0023231Y0174265D02*
X0028900Y0174265D01*
X0029165Y0173266D02*
X0023231Y0173266D01*
X0023231Y0172268D02*
X0029578Y0172268D01*
X0030460Y0171269D02*
X0023231Y0171269D01*
X0023231Y0170271D02*
X0032010Y0170271D01*
X0030861Y0169272D02*
X0092127Y0169272D01*
X0091128Y0168274D02*
X0031750Y0168274D01*
X0032089Y0167275D02*
X0090130Y0167275D01*
X0101231Y0178259D02*
X0112513Y0178259D01*
X0113512Y0179257D02*
X0101231Y0179257D01*
X0101231Y0180256D02*
X0114510Y0180256D01*
X0114875Y0181254D02*
X0101231Y0181254D01*
X0101231Y0182253D02*
X0113876Y0182253D01*
X0113700Y0183251D02*
X0101231Y0183251D01*
X0101231Y0184250D02*
X0113700Y0184250D01*
X0113700Y0185248D02*
X0101231Y0185248D01*
X0101231Y0186247D02*
X0113700Y0186247D01*
X0114374Y0187245D02*
X0101231Y0187245D01*
X0101364Y0188244D02*
X0115373Y0188244D01*
X0116371Y0189242D02*
X0102034Y0189242D01*
X0108618Y0169272D02*
X0118985Y0169272D01*
X0123294Y0177260D02*
X0124389Y0177260D01*
X0125388Y0178259D02*
X0122295Y0178259D01*
X0121297Y0179257D02*
X0126386Y0179257D01*
X0125873Y0180256D02*
X0121527Y0180256D01*
X0122525Y0181254D02*
X0124875Y0181254D01*
X0123876Y0182253D02*
X0123524Y0182253D01*
X0123700Y0183251D02*
X0123700Y0183251D01*
X0128700Y0174500D02*
X0133700Y0179500D01*
X0040200Y0154400D02*
X0039600Y0155000D01*
X0039500Y0155100D01*
X0066061Y0070420D02*
X0066861Y0070420D01*
X0070761Y0065427D02*
X0072361Y0065427D01*
X0072616Y0064429D02*
X0070588Y0064429D01*
X0069590Y0063430D02*
X0073614Y0063430D01*
X0053250Y0061433D02*
X0052620Y0061433D01*
X0053250Y0060434D02*
X0051621Y0060434D01*
X0050623Y0059436D02*
X0053250Y0059436D01*
X0053250Y0058437D02*
X0047965Y0058437D01*
X0047258Y0057439D02*
X0053250Y0057439D01*
D26*
X0031500Y0072406D02*
X0029500Y0074406D01*
X0029500Y0084700D01*
X0035250Y0090450D01*
X0027000Y0098700D01*
X0027000Y0113700D01*
X0032900Y0119600D01*
X0033800Y0119700D01*
X0036600Y0119600D01*
X0041777Y0114423D01*
X0042000Y0114646D01*
X0042000Y0115900D01*
X0041777Y0114423D02*
X0045909Y0114423D01*
X0046500Y0114423D02*
X0047523Y0114423D01*
X0053300Y0120200D01*
X0053300Y0130100D01*
X0064500Y0141300D01*
X0099059Y0145083D02*
X0103417Y0145083D01*
X0099059Y0149463D02*
X0108963Y0149463D01*
X0109000Y0149500D01*
X0099717Y0154500D02*
X0099668Y0154498D01*
X0099619Y0154493D01*
X0099571Y0154484D01*
X0099523Y0154471D01*
X0099477Y0154455D01*
X0099432Y0154435D01*
X0099389Y0154412D01*
X0099347Y0154386D01*
X0099307Y0154357D01*
X0099270Y0154325D01*
X0099235Y0154290D01*
X0099203Y0154253D01*
X0099174Y0154213D01*
X0099148Y0154172D01*
X0099125Y0154128D01*
X0099105Y0154083D01*
X0099089Y0154037D01*
X0099076Y0153989D01*
X0099067Y0153941D01*
X0099062Y0153892D01*
X0099060Y0153843D01*
X0099062Y0153865D01*
X0099066Y0153887D01*
X0099074Y0153908D01*
X0099085Y0153928D01*
X0099098Y0153946D01*
X0099114Y0153962D01*
X0099132Y0153975D01*
X0099152Y0153986D01*
X0099173Y0153994D01*
X0099195Y0153998D01*
X0099217Y0154000D01*
X0099717Y0154500D02*
X0135500Y0154500D01*
X0138522Y0158222D02*
X0099059Y0158222D01*
X0103417Y0145083D02*
X0103566Y0145081D01*
X0103714Y0145075D01*
X0103862Y0145065D01*
X0104010Y0145051D01*
X0104158Y0145034D01*
X0104305Y0145012D01*
X0104451Y0144986D01*
X0104597Y0144957D01*
X0104742Y0144923D01*
X0104886Y0144886D01*
X0105029Y0144845D01*
X0105170Y0144800D01*
X0105311Y0144752D01*
X0105450Y0144700D01*
X0105588Y0144644D01*
X0105724Y0144584D01*
X0105858Y0144521D01*
X0105991Y0144454D01*
X0106122Y0144384D01*
X0106251Y0144310D01*
X0106378Y0144233D01*
X0106503Y0144152D01*
X0106626Y0144069D01*
X0106747Y0143982D01*
X0106865Y0143891D01*
X0106980Y0143798D01*
X0107093Y0143702D01*
X0107204Y0143602D01*
X0107312Y0143500D01*
X0107417Y0143395D01*
X0107519Y0143287D01*
X0107619Y0143176D01*
X0107715Y0143063D01*
X0107808Y0142948D01*
X0107899Y0142830D01*
X0107986Y0142709D01*
X0108069Y0142586D01*
X0108150Y0142461D01*
X0108227Y0142334D01*
X0108301Y0142205D01*
X0108371Y0142074D01*
X0108438Y0141941D01*
X0108501Y0141807D01*
X0108561Y0141671D01*
X0108617Y0141533D01*
X0108669Y0141394D01*
X0108717Y0141253D01*
X0108762Y0141112D01*
X0108803Y0140969D01*
X0108840Y0140825D01*
X0108874Y0140680D01*
X0108903Y0140534D01*
X0108929Y0140388D01*
X0108951Y0140241D01*
X0108968Y0140093D01*
X0108982Y0139945D01*
X0108992Y0139797D01*
X0108998Y0139649D01*
X0109000Y0139500D01*
X0109000Y0129000D01*
X0119000Y0114000D02*
X0119002Y0113860D01*
X0119008Y0113720D01*
X0119018Y0113580D01*
X0119031Y0113440D01*
X0119049Y0113301D01*
X0119071Y0113162D01*
X0119096Y0113025D01*
X0119125Y0112887D01*
X0119158Y0112751D01*
X0119195Y0112616D01*
X0119236Y0112482D01*
X0119281Y0112349D01*
X0119329Y0112217D01*
X0119381Y0112087D01*
X0119436Y0111958D01*
X0119495Y0111831D01*
X0119558Y0111705D01*
X0119624Y0111581D01*
X0119693Y0111460D01*
X0119766Y0111340D01*
X0119843Y0111222D01*
X0119922Y0111107D01*
X0120005Y0110993D01*
X0120091Y0110883D01*
X0120180Y0110774D01*
X0120272Y0110668D01*
X0120367Y0110565D01*
X0120464Y0110464D01*
X0120565Y0110367D01*
X0120668Y0110272D01*
X0120774Y0110180D01*
X0120883Y0110091D01*
X0120993Y0110005D01*
X0121107Y0109922D01*
X0121222Y0109843D01*
X0121340Y0109766D01*
X0121460Y0109693D01*
X0121581Y0109624D01*
X0121705Y0109558D01*
X0121831Y0109495D01*
X0121958Y0109436D01*
X0122087Y0109381D01*
X0122217Y0109329D01*
X0122349Y0109281D01*
X0122482Y0109236D01*
X0122616Y0109195D01*
X0122751Y0109158D01*
X0122887Y0109125D01*
X0123025Y0109096D01*
X0123162Y0109071D01*
X0123301Y0109049D01*
X0123440Y0109031D01*
X0123580Y0109018D01*
X0123720Y0109008D01*
X0123860Y0109002D01*
X0124000Y0109000D01*
X0131264Y0109000D01*
X0131264Y0104000D02*
X0123300Y0104000D01*
X0117500Y0103800D02*
X0117441Y0103959D01*
X0126000Y0114000D02*
X0131264Y0114000D01*
X0126000Y0114000D02*
X0125902Y0114002D01*
X0125804Y0114008D01*
X0125706Y0114017D01*
X0125609Y0114031D01*
X0125512Y0114048D01*
X0125416Y0114069D01*
X0125321Y0114094D01*
X0125227Y0114122D01*
X0125135Y0114155D01*
X0125043Y0114190D01*
X0124953Y0114230D01*
X0124865Y0114272D01*
X0124778Y0114319D01*
X0124694Y0114368D01*
X0124611Y0114421D01*
X0124531Y0114477D01*
X0124452Y0114537D01*
X0124376Y0114599D01*
X0124303Y0114664D01*
X0124232Y0114732D01*
X0124164Y0114803D01*
X0124099Y0114876D01*
X0124037Y0114952D01*
X0123977Y0115031D01*
X0123921Y0115111D01*
X0123868Y0115194D01*
X0123819Y0115278D01*
X0123772Y0115365D01*
X0123730Y0115453D01*
X0123690Y0115543D01*
X0123655Y0115635D01*
X0123622Y0115727D01*
X0123594Y0115821D01*
X0123569Y0115916D01*
X0123548Y0116012D01*
X0123531Y0116109D01*
X0123517Y0116206D01*
X0123508Y0116304D01*
X0123502Y0116402D01*
X0123500Y0116500D01*
X0131264Y0104000D02*
X0134600Y0104000D01*
X0134726Y0103998D01*
X0134852Y0103992D01*
X0134978Y0103983D01*
X0135104Y0103969D01*
X0135229Y0103951D01*
X0135353Y0103930D01*
X0135477Y0103905D01*
X0135600Y0103876D01*
X0135722Y0103843D01*
X0135843Y0103807D01*
X0135963Y0103767D01*
X0136081Y0103723D01*
X0136198Y0103676D01*
X0136314Y0103625D01*
X0136428Y0103570D01*
X0136540Y0103512D01*
X0136650Y0103451D01*
X0136758Y0103386D01*
X0136865Y0103318D01*
X0136969Y0103246D01*
X0137071Y0103172D01*
X0137170Y0103094D01*
X0137268Y0103014D01*
X0137362Y0102930D01*
X0137454Y0102843D01*
X0137543Y0102754D01*
X0137630Y0102662D01*
X0137714Y0102568D01*
X0137794Y0102470D01*
X0137872Y0102371D01*
X0137946Y0102269D01*
X0138018Y0102165D01*
X0138086Y0102058D01*
X0138151Y0101950D01*
X0138212Y0101840D01*
X0138270Y0101728D01*
X0138325Y0101614D01*
X0138376Y0101498D01*
X0138423Y0101381D01*
X0138467Y0101263D01*
X0138507Y0101143D01*
X0138543Y0101022D01*
X0138576Y0100900D01*
X0138605Y0100777D01*
X0138630Y0100653D01*
X0138651Y0100529D01*
X0138669Y0100404D01*
X0138683Y0100278D01*
X0138692Y0100152D01*
X0138698Y0100026D01*
X0138700Y0099900D01*
X0138700Y0083800D01*
X0145700Y0099000D02*
X0145800Y0099000D01*
X0151736Y0099000D01*
X0155200Y0099000D01*
X0155283Y0098998D01*
X0155366Y0098992D01*
X0155449Y0098983D01*
X0155531Y0098969D01*
X0155612Y0098952D01*
X0155693Y0098931D01*
X0155772Y0098907D01*
X0155850Y0098878D01*
X0155927Y0098847D01*
X0156002Y0098811D01*
X0156076Y0098773D01*
X0156148Y0098730D01*
X0156217Y0098685D01*
X0156285Y0098636D01*
X0156350Y0098585D01*
X0156413Y0098530D01*
X0156473Y0098473D01*
X0156530Y0098413D01*
X0156585Y0098350D01*
X0156636Y0098285D01*
X0156685Y0098217D01*
X0156730Y0098148D01*
X0156773Y0098076D01*
X0156811Y0098002D01*
X0156847Y0097927D01*
X0156878Y0097850D01*
X0156907Y0097772D01*
X0156931Y0097693D01*
X0156952Y0097612D01*
X0156969Y0097531D01*
X0156983Y0097449D01*
X0156992Y0097366D01*
X0156998Y0097283D01*
X0157000Y0097200D01*
X0157000Y0071200D01*
X0156998Y0071103D01*
X0156992Y0071007D01*
X0156983Y0070911D01*
X0156969Y0070815D01*
X0156951Y0070720D01*
X0156930Y0070626D01*
X0156905Y0070532D01*
X0156876Y0070440D01*
X0156844Y0070349D01*
X0156808Y0070259D01*
X0156768Y0070171D01*
X0156725Y0070085D01*
X0156678Y0070000D01*
X0156628Y0069917D01*
X0156575Y0069837D01*
X0156519Y0069758D01*
X0156459Y0069682D01*
X0156396Y0069609D01*
X0156331Y0069537D01*
X0156263Y0069469D01*
X0156191Y0069404D01*
X0156118Y0069341D01*
X0156042Y0069281D01*
X0155963Y0069225D01*
X0155883Y0069172D01*
X0155800Y0069122D01*
X0155715Y0069075D01*
X0155629Y0069032D01*
X0155541Y0068992D01*
X0155451Y0068956D01*
X0155360Y0068924D01*
X0155268Y0068895D01*
X0155174Y0068870D01*
X0155080Y0068849D01*
X0154985Y0068831D01*
X0154889Y0068817D01*
X0154793Y0068808D01*
X0154697Y0068802D01*
X0154600Y0068800D01*
X0151736Y0104000D02*
X0147500Y0104000D01*
X0147383Y0104002D01*
X0147266Y0104008D01*
X0147150Y0104018D01*
X0147033Y0104031D01*
X0146918Y0104049D01*
X0146803Y0104070D01*
X0146689Y0104095D01*
X0146575Y0104124D01*
X0146463Y0104157D01*
X0146352Y0104194D01*
X0146242Y0104234D01*
X0146134Y0104278D01*
X0146027Y0104325D01*
X0145921Y0104376D01*
X0145818Y0104431D01*
X0145716Y0104489D01*
X0145617Y0104550D01*
X0145519Y0104614D01*
X0145424Y0104682D01*
X0145331Y0104753D01*
X0145240Y0104827D01*
X0145152Y0104904D01*
X0145067Y0104984D01*
X0144984Y0105067D01*
X0144904Y0105152D01*
X0144827Y0105240D01*
X0144753Y0105331D01*
X0144682Y0105424D01*
X0144614Y0105519D01*
X0144550Y0105617D01*
X0144489Y0105716D01*
X0144431Y0105818D01*
X0144376Y0105921D01*
X0144325Y0106027D01*
X0144278Y0106134D01*
X0144234Y0106242D01*
X0144194Y0106352D01*
X0144157Y0106463D01*
X0144124Y0106575D01*
X0144095Y0106689D01*
X0144070Y0106803D01*
X0144049Y0106918D01*
X0144031Y0107033D01*
X0144018Y0107150D01*
X0144008Y0107266D01*
X0144002Y0107383D01*
X0144000Y0107500D01*
X0151736Y0109000D02*
X0156200Y0109000D01*
X0156319Y0109002D01*
X0156437Y0109008D01*
X0156555Y0109017D01*
X0156673Y0109030D01*
X0156791Y0109047D01*
X0156907Y0109068D01*
X0157023Y0109093D01*
X0157139Y0109121D01*
X0157253Y0109153D01*
X0157366Y0109188D01*
X0157478Y0109228D01*
X0157588Y0109270D01*
X0157698Y0109317D01*
X0157805Y0109366D01*
X0157911Y0109420D01*
X0158016Y0109476D01*
X0158118Y0109536D01*
X0158218Y0109599D01*
X0158317Y0109665D01*
X0158413Y0109735D01*
X0158507Y0109807D01*
X0158598Y0109883D01*
X0158688Y0109961D01*
X0158774Y0110042D01*
X0158858Y0110126D01*
X0158939Y0110212D01*
X0159017Y0110302D01*
X0159093Y0110393D01*
X0159165Y0110487D01*
X0159235Y0110583D01*
X0159301Y0110682D01*
X0159364Y0110782D01*
X0159424Y0110884D01*
X0159480Y0110989D01*
X0159534Y0111095D01*
X0159583Y0111202D01*
X0159630Y0111312D01*
X0159672Y0111422D01*
X0159712Y0111534D01*
X0159747Y0111647D01*
X0159779Y0111761D01*
X0159807Y0111877D01*
X0159832Y0111993D01*
X0159853Y0112109D01*
X0159870Y0112227D01*
X0159883Y0112345D01*
X0159892Y0112463D01*
X0159898Y0112581D01*
X0159900Y0112700D01*
X0159873Y0112702D01*
X0159847Y0112708D01*
X0159822Y0112717D01*
X0159798Y0112730D01*
X0159777Y0112746D01*
X0159758Y0112765D01*
X0159742Y0112786D01*
X0159729Y0112810D01*
X0159720Y0112835D01*
X0159714Y0112861D01*
X0159712Y0112888D01*
X0159712Y0113000D01*
X0139600Y0139000D02*
X0139500Y0150500D01*
X0139498Y0150626D01*
X0139492Y0150751D01*
X0139482Y0150876D01*
X0139468Y0151001D01*
X0139451Y0151126D01*
X0139429Y0151250D01*
X0139404Y0151373D01*
X0139374Y0151495D01*
X0139341Y0151616D01*
X0139304Y0151736D01*
X0139264Y0151855D01*
X0139219Y0151972D01*
X0139171Y0152089D01*
X0139119Y0152203D01*
X0139064Y0152316D01*
X0139005Y0152427D01*
X0138943Y0152536D01*
X0138877Y0152643D01*
X0138808Y0152748D01*
X0138736Y0152851D01*
X0138661Y0152952D01*
X0138582Y0153050D01*
X0138500Y0153145D01*
X0138416Y0153238D01*
X0138328Y0153328D01*
X0138238Y0153416D01*
X0138145Y0153500D01*
X0138050Y0153582D01*
X0137952Y0153661D01*
X0137851Y0153736D01*
X0137748Y0153808D01*
X0137643Y0153877D01*
X0137536Y0153943D01*
X0137427Y0154005D01*
X0137316Y0154064D01*
X0137203Y0154119D01*
X0137089Y0154171D01*
X0136972Y0154219D01*
X0136855Y0154264D01*
X0136736Y0154304D01*
X0136616Y0154341D01*
X0136495Y0154374D01*
X0136373Y0154404D01*
X0136250Y0154429D01*
X0136126Y0154451D01*
X0136001Y0154468D01*
X0135876Y0154482D01*
X0135751Y0154492D01*
X0135626Y0154498D01*
X0135500Y0154500D01*
X0138522Y0158222D02*
X0138583Y0158224D01*
X0138645Y0158230D01*
X0138705Y0158239D01*
X0138765Y0158253D01*
X0138824Y0158270D01*
X0138882Y0158291D01*
X0138938Y0158315D01*
X0138993Y0158343D01*
X0139046Y0158374D01*
X0139097Y0158409D01*
X0139145Y0158446D01*
X0139191Y0158487D01*
X0139235Y0158531D01*
X0139276Y0158577D01*
X0139313Y0158625D01*
X0139348Y0158676D01*
X0139379Y0158729D01*
X0139407Y0158784D01*
X0139431Y0158840D01*
X0139452Y0158898D01*
X0139469Y0158957D01*
X0139483Y0159017D01*
X0139492Y0159077D01*
X0139498Y0159139D01*
X0139500Y0159200D01*
X0045300Y0087300D02*
X0038400Y0087300D01*
X0035250Y0090450D01*
D27*
X0064673Y0141100D02*
X0064673Y0141127D01*
X0064500Y0141300D01*
X0117500Y0103800D02*
X0117502Y0103663D01*
X0117508Y0103526D01*
X0117518Y0103389D01*
X0117531Y0103253D01*
X0117549Y0103117D01*
X0117570Y0102981D01*
X0117596Y0102847D01*
X0117625Y0102713D01*
X0117658Y0102580D01*
X0117694Y0102448D01*
X0117735Y0102317D01*
X0117779Y0102187D01*
X0117827Y0102059D01*
X0117879Y0101932D01*
X0117934Y0101806D01*
X0117992Y0101682D01*
X0118055Y0101560D01*
X0118120Y0101440D01*
X0118190Y0101321D01*
X0118262Y0101205D01*
X0118338Y0101091D01*
X0118417Y0100979D01*
X0118499Y0100869D01*
X0118584Y0100762D01*
X0118672Y0100657D01*
X0118764Y0100554D01*
X0118858Y0100455D01*
X0118955Y0100358D01*
X0119054Y0100264D01*
X0119157Y0100172D01*
X0119262Y0100084D01*
X0119369Y0099999D01*
X0119479Y0099917D01*
X0119591Y0099838D01*
X0119705Y0099762D01*
X0119821Y0099690D01*
X0119940Y0099620D01*
X0120060Y0099555D01*
X0120182Y0099492D01*
X0120306Y0099434D01*
X0120432Y0099379D01*
X0120559Y0099327D01*
X0120687Y0099279D01*
X0120817Y0099235D01*
X0120948Y0099194D01*
X0121080Y0099158D01*
X0121213Y0099125D01*
X0121347Y0099096D01*
X0121481Y0099070D01*
X0121617Y0099049D01*
X0121753Y0099031D01*
X0121889Y0099018D01*
X0122026Y0099008D01*
X0122163Y0099002D01*
X0122300Y0099000D01*
X0131264Y0099000D01*
D28*
X0080300Y0147300D02*
X0092900Y0159900D01*
X0092900Y0164600D01*
X0095600Y0167300D01*
X0106500Y0167300D01*
X0111500Y0167300D01*
X0111900Y0167300D01*
X0119700Y0167300D01*
X0123400Y0171000D01*
X0124000Y0171000D01*
X0127700Y0167300D01*
X0135300Y0167300D01*
X0138700Y0170700D01*
X0138700Y0174500D01*
X0107200Y0167300D02*
X0106500Y0167300D01*
X0080300Y0147300D02*
X0076500Y0147300D01*
X0059900Y0067500D02*
X0059900Y0064600D01*
X0058800Y0063500D01*
X0052000Y0063500D01*
X0049154Y0060654D01*
X0044500Y0060654D01*
X0056100Y0059500D02*
X0056100Y0049400D01*
X0060000Y0045500D01*
X0071000Y0045500D01*
X0076461Y0056382D02*
X0076461Y0057039D01*
X0072000Y0061500D01*
X0063000Y0061500D01*
X0059900Y0064600D01*
D29*
X0037500Y0074900D02*
X0111700Y0075000D01*
X0117500Y0080800D01*
X0117500Y0103800D01*
X0113588Y0129000D02*
X0109000Y0129000D01*
X0124612Y0129000D02*
X0129000Y0129000D01*
X0139600Y0139000D02*
X0144088Y0139000D01*
X0155112Y0139000D02*
X0159600Y0139000D01*
X0159500Y0159200D02*
X0155112Y0159200D01*
X0144088Y0159200D02*
X0139500Y0159200D01*
X0129000Y0149500D02*
X0124612Y0149500D01*
X0124512Y0149400D01*
X0113488Y0149400D02*
X0113388Y0149500D01*
X0109000Y0149500D01*
D30*
X0041900Y0081500D02*
X0041500Y0081500D01*
X0033563Y0081500D01*
X0037500Y0081500D01*
X0037500Y0074900D01*
X0037500Y0043500D01*
X0037500Y0039000D01*
X0037500Y0034500D01*
X0036406Y0035594D01*
X0031500Y0035594D01*
X0037500Y0034500D02*
X0037500Y0030000D01*
X0037500Y0027500D01*
D31*
X0051200Y0080000D02*
X0050500Y0080700D01*
X0050500Y0114500D01*
X0060700Y0124700D01*
X0066600Y0124700D01*
X0051200Y0080000D02*
X0085900Y0080000D01*
X0086500Y0079400D01*
X0086500Y0079300D01*
M02*
