G75*
%MOIN*%
%OFA0B0*%
%FSLAX25Y25*%
%IPPOS*%
%LPD*%
%AMOC8*
5,1,8,0,0,1.08239X$1,22.5*
%
%ADD10R,0.04331X0.03937*%
%ADD11R,0.03937X0.04331*%
%ADD12R,0.05000X0.02200*%
%ADD13R,0.02200X0.05000*%
%ADD14R,0.05118X0.04331*%
%ADD15OC8,0.05600*%
%ADD16R,0.07400X0.07400*%
%ADD17OC8,0.07400*%
%ADD18C,0.07400*%
%ADD19R,0.21260X0.24409*%
%ADD20R,0.03937X0.06299*%
%ADD21R,0.24409X0.21260*%
%ADD22R,0.06299X0.03937*%
%ADD23OC8,0.05200*%
%ADD24C,0.05200*%
%ADD25C,0.01040*%
%ADD26C,0.01000*%
%ADD27C,0.02978*%
%ADD28C,0.00800*%
%ADD29C,0.01600*%
%ADD30C,0.01200*%
%ADD31C,0.04000*%
%ADD32C,0.02400*%
%ADD33C,0.03200*%
D10*
X0076500Y0033154D03*
X0076500Y0039846D03*
X0102000Y0073554D03*
X0102000Y0080246D03*
X0103454Y0091500D03*
X0110146Y0091500D03*
G36*
X0097835Y0113182D02*
X0094774Y0116243D01*
X0097557Y0119026D01*
X0100618Y0115965D01*
X0097835Y0113182D01*
G37*
G36*
X0102130Y0117470D02*
X0099069Y0120531D01*
X0101852Y0123314D01*
X0104913Y0120253D01*
X0102130Y0117470D01*
G37*
G36*
X0097397Y0122203D02*
X0094336Y0125264D01*
X0097119Y0128047D01*
X0100180Y0124986D01*
X0097397Y0122203D01*
G37*
G36*
X0093102Y0117915D02*
X0090041Y0120976D01*
X0092824Y0123759D01*
X0095885Y0120698D01*
X0093102Y0117915D01*
G37*
X0076500Y0107446D03*
X0076500Y0100754D03*
X0068300Y0098154D03*
X0068300Y0104846D03*
X0061900Y0095546D03*
X0061900Y0088854D03*
X0068400Y0091046D03*
X0068400Y0084354D03*
X0076800Y0084154D03*
X0076800Y0090846D03*
X0123500Y0122654D03*
X0123500Y0129346D03*
X0119000Y0142654D03*
X0119000Y0149346D03*
X0151500Y0152354D03*
X0151500Y0159046D03*
X0159600Y0129846D03*
X0159600Y0123154D03*
X0149000Y0104846D03*
X0149000Y0098154D03*
X0133500Y0103154D03*
X0133500Y0109846D03*
G36*
X0060927Y0158256D02*
X0063988Y0155195D01*
X0061205Y0152412D01*
X0058144Y0155473D01*
X0060927Y0158256D01*
G37*
G36*
X0056195Y0162988D02*
X0059256Y0159927D01*
X0056473Y0157144D01*
X0053412Y0160205D01*
X0056195Y0162988D01*
G37*
X0053871Y0166383D03*
X0060564Y0166383D03*
G36*
X0050983Y0157400D02*
X0054044Y0154339D01*
X0051261Y0151556D01*
X0048200Y0154617D01*
X0050983Y0157400D01*
G37*
G36*
X0055715Y0152668D02*
X0058776Y0149607D01*
X0055993Y0146824D01*
X0052932Y0149885D01*
X0055715Y0152668D01*
G37*
D11*
G36*
X0049481Y0149927D02*
X0046698Y0147144D01*
X0043637Y0150205D01*
X0046420Y0152988D01*
X0049481Y0149927D01*
G37*
G36*
X0045627Y0142764D02*
X0048410Y0145547D01*
X0051471Y0142486D01*
X0048688Y0139703D01*
X0045627Y0142764D01*
G37*
G36*
X0044749Y0145195D02*
X0041966Y0142412D01*
X0038905Y0145473D01*
X0041688Y0148256D01*
X0044749Y0145195D01*
G37*
G36*
X0040895Y0138031D02*
X0043678Y0140814D01*
X0046739Y0137753D01*
X0043956Y0134970D01*
X0040895Y0138031D01*
G37*
G36*
X0048569Y0123412D02*
X0051352Y0126195D01*
X0054413Y0123134D01*
X0051630Y0120351D01*
X0048569Y0123412D01*
G37*
G36*
X0043836Y0118680D02*
X0046619Y0121463D01*
X0049680Y0118402D01*
X0046897Y0115619D01*
X0043836Y0118680D01*
G37*
G36*
X0054856Y0113395D02*
X0052073Y0110612D01*
X0049012Y0113673D01*
X0051795Y0116456D01*
X0054856Y0113395D01*
G37*
G36*
X0058756Y0109495D02*
X0055973Y0106712D01*
X0052912Y0109773D01*
X0055695Y0112556D01*
X0058756Y0109495D01*
G37*
G36*
X0062456Y0105595D02*
X0059673Y0102812D01*
X0056612Y0105873D01*
X0059395Y0108656D01*
X0062456Y0105595D01*
G37*
G36*
X0067188Y0110327D02*
X0064405Y0107544D01*
X0061344Y0110605D01*
X0064127Y0113388D01*
X0067188Y0110327D01*
G37*
G36*
X0063488Y0114227D02*
X0060705Y0111444D01*
X0057644Y0114505D01*
X0060427Y0117288D01*
X0063488Y0114227D01*
G37*
G36*
X0059588Y0118127D02*
X0056805Y0115344D01*
X0053744Y0118405D01*
X0056527Y0121188D01*
X0059588Y0118127D01*
G37*
G36*
X0042615Y0107635D02*
X0045398Y0110418D01*
X0048459Y0107357D01*
X0045676Y0104574D01*
X0042615Y0107635D01*
G37*
G36*
X0037882Y0102902D02*
X0040665Y0105685D01*
X0043726Y0102624D01*
X0040943Y0099841D01*
X0037882Y0102902D01*
G37*
G36*
X0042112Y0098773D02*
X0044895Y0101556D01*
X0047956Y0098495D01*
X0045173Y0095712D01*
X0042112Y0098773D01*
G37*
G36*
X0046844Y0103505D02*
X0049627Y0106288D01*
X0052688Y0103227D01*
X0049905Y0100444D01*
X0046844Y0103505D01*
G37*
G36*
X0082973Y0113488D02*
X0085756Y0110705D01*
X0082695Y0107644D01*
X0079912Y0110427D01*
X0082973Y0113488D01*
G37*
G36*
X0086908Y0117524D02*
X0089691Y0114741D01*
X0086630Y0111680D01*
X0083847Y0114463D01*
X0086908Y0117524D01*
G37*
G36*
X0091641Y0112791D02*
X0094424Y0110008D01*
X0091363Y0106947D01*
X0088580Y0109730D01*
X0091641Y0112791D01*
G37*
G36*
X0087705Y0108756D02*
X0090488Y0105973D01*
X0087427Y0102912D01*
X0084644Y0105695D01*
X0087705Y0108756D01*
G37*
G36*
X0092795Y0097744D02*
X0090012Y0100527D01*
X0093073Y0103588D01*
X0095856Y0100805D01*
X0092795Y0097744D01*
G37*
G36*
X0097527Y0093012D02*
X0094744Y0095795D01*
X0097805Y0098856D01*
X0100588Y0096073D01*
X0097527Y0093012D01*
G37*
X0095354Y0086100D03*
X0095400Y0080046D03*
X0095400Y0073354D03*
X0102046Y0086100D03*
X0107600Y0084646D03*
X0107600Y0077954D03*
X0118500Y0091354D03*
X0118500Y0098046D03*
X0126500Y0103154D03*
X0126500Y0109846D03*
G36*
X0102154Y0097779D02*
X0099371Y0100562D01*
X0102432Y0103623D01*
X0105215Y0100840D01*
X0102154Y0097779D01*
G37*
G36*
X0097421Y0102512D02*
X0094638Y0105295D01*
X0097699Y0108356D01*
X0100482Y0105573D01*
X0097421Y0102512D01*
G37*
X0085917Y0161426D03*
X0085917Y0168119D03*
X0038946Y0167400D03*
X0032254Y0167400D03*
X0157000Y0104846D03*
X0157000Y0098154D03*
D12*
G36*
X0094134Y0127900D02*
X0090600Y0131434D01*
X0092156Y0132990D01*
X0095690Y0129456D01*
X0094134Y0127900D01*
G37*
G36*
X0091907Y0125673D02*
X0088373Y0129207D01*
X0089929Y0130763D01*
X0093463Y0127229D01*
X0091907Y0125673D01*
G37*
G36*
X0089680Y0123446D02*
X0086146Y0126980D01*
X0087702Y0128536D01*
X0091236Y0125002D01*
X0089680Y0123446D01*
G37*
G36*
X0087453Y0121218D02*
X0083919Y0124752D01*
X0085475Y0126308D01*
X0089009Y0122774D01*
X0087453Y0121218D01*
G37*
G36*
X0085226Y0118991D02*
X0081692Y0122525D01*
X0083248Y0124081D01*
X0086782Y0120547D01*
X0085226Y0118991D01*
G37*
G36*
X0082998Y0116764D02*
X0079464Y0120298D01*
X0081020Y0121854D01*
X0084554Y0118320D01*
X0082998Y0116764D01*
G37*
G36*
X0080771Y0114537D02*
X0077237Y0118071D01*
X0078793Y0119627D01*
X0082327Y0116093D01*
X0080771Y0114537D01*
G37*
G36*
X0078544Y0112310D02*
X0075010Y0115844D01*
X0076566Y0117400D01*
X0080100Y0113866D01*
X0078544Y0112310D01*
G37*
G36*
X0054644Y0136210D02*
X0051110Y0139744D01*
X0052666Y0141300D01*
X0056200Y0137766D01*
X0054644Y0136210D01*
G37*
G36*
X0056871Y0138437D02*
X0053337Y0141971D01*
X0054893Y0143527D01*
X0058427Y0139993D01*
X0056871Y0138437D01*
G37*
G36*
X0059098Y0140664D02*
X0055564Y0144198D01*
X0057120Y0145754D01*
X0060654Y0142220D01*
X0059098Y0140664D01*
G37*
G36*
X0061325Y0142892D02*
X0057791Y0146426D01*
X0059347Y0147982D01*
X0062881Y0144448D01*
X0061325Y0142892D01*
G37*
G36*
X0063552Y0145119D02*
X0060018Y0148653D01*
X0061574Y0150209D01*
X0065108Y0146675D01*
X0063552Y0145119D01*
G37*
G36*
X0065780Y0147346D02*
X0062246Y0150880D01*
X0063802Y0152436D01*
X0067336Y0148902D01*
X0065780Y0147346D01*
G37*
G36*
X0068007Y0149573D02*
X0064473Y0153107D01*
X0066029Y0154663D01*
X0069563Y0151129D01*
X0068007Y0149573D01*
G37*
G36*
X0070234Y0151800D02*
X0066700Y0155334D01*
X0068256Y0156890D01*
X0071790Y0153356D01*
X0070234Y0151800D01*
G37*
D13*
G36*
X0076566Y0151800D02*
X0075010Y0153356D01*
X0078544Y0156890D01*
X0080100Y0155334D01*
X0076566Y0151800D01*
G37*
G36*
X0078793Y0149573D02*
X0077237Y0151129D01*
X0080771Y0154663D01*
X0082327Y0153107D01*
X0078793Y0149573D01*
G37*
G36*
X0081020Y0147346D02*
X0079464Y0148902D01*
X0082998Y0152436D01*
X0084554Y0150880D01*
X0081020Y0147346D01*
G37*
G36*
X0083248Y0145119D02*
X0081692Y0146675D01*
X0085226Y0150209D01*
X0086782Y0148653D01*
X0083248Y0145119D01*
G37*
G36*
X0085475Y0142892D02*
X0083919Y0144448D01*
X0087453Y0147982D01*
X0089009Y0146426D01*
X0085475Y0142892D01*
G37*
G36*
X0087702Y0140664D02*
X0086146Y0142220D01*
X0089680Y0145754D01*
X0091236Y0144198D01*
X0087702Y0140664D01*
G37*
G36*
X0089929Y0138437D02*
X0088373Y0139993D01*
X0091907Y0143527D01*
X0093463Y0141971D01*
X0089929Y0138437D01*
G37*
G36*
X0092156Y0136210D02*
X0090600Y0137766D01*
X0094134Y0141300D01*
X0095690Y0139744D01*
X0092156Y0136210D01*
G37*
G36*
X0068256Y0112310D02*
X0066700Y0113866D01*
X0070234Y0117400D01*
X0071790Y0115844D01*
X0068256Y0112310D01*
G37*
G36*
X0066029Y0114537D02*
X0064473Y0116093D01*
X0068007Y0119627D01*
X0069563Y0118071D01*
X0066029Y0114537D01*
G37*
G36*
X0063802Y0116764D02*
X0062246Y0118320D01*
X0065780Y0121854D01*
X0067336Y0120298D01*
X0063802Y0116764D01*
G37*
G36*
X0061574Y0118991D02*
X0060018Y0120547D01*
X0063552Y0124081D01*
X0065108Y0122525D01*
X0061574Y0118991D01*
G37*
G36*
X0059347Y0121218D02*
X0057791Y0122774D01*
X0061325Y0126308D01*
X0062881Y0124752D01*
X0059347Y0121218D01*
G37*
G36*
X0057120Y0123446D02*
X0055564Y0125002D01*
X0059098Y0128536D01*
X0060654Y0126980D01*
X0057120Y0123446D01*
G37*
G36*
X0054893Y0125673D02*
X0053337Y0127229D01*
X0056871Y0130763D01*
X0058427Y0129207D01*
X0054893Y0125673D01*
G37*
G36*
X0052666Y0127900D02*
X0051110Y0129456D01*
X0054644Y0132990D01*
X0056200Y0131434D01*
X0052666Y0127900D01*
G37*
D14*
X0069028Y0161167D03*
X0069028Y0168253D03*
X0078083Y0168253D03*
X0078083Y0161167D03*
D15*
X0076461Y0066382D03*
X0086461Y0066382D03*
X0086461Y0056382D03*
X0076461Y0056382D03*
X0066461Y0056382D03*
X0066461Y0066382D03*
X0096461Y0066382D03*
X0106461Y0066382D03*
X0116461Y0066382D03*
X0116461Y0056382D03*
X0106461Y0056382D03*
X0096461Y0056382D03*
X0126461Y0056382D03*
X0126461Y0066382D03*
D16*
X0138700Y0184500D03*
D17*
X0138700Y0174500D03*
X0128700Y0174500D03*
X0128700Y0184500D03*
X0118700Y0184500D03*
X0118700Y0174500D03*
D18*
X0033900Y0174900D03*
X0033900Y0184900D03*
X0033800Y0159700D03*
X0033800Y0149700D03*
X0033800Y0139700D03*
X0033800Y0129700D03*
X0033800Y0119700D03*
X0033800Y0109700D03*
D19*
X0046500Y0063657D03*
D20*
X0037524Y0092398D03*
X0055476Y0092398D03*
D21*
X0046657Y0036500D03*
D22*
X0075398Y0027524D03*
X0075398Y0045476D03*
D23*
X0130700Y0083800D03*
X0146600Y0068800D03*
X0129000Y0129000D03*
X0139600Y0139000D03*
X0129000Y0149500D03*
X0139500Y0159200D03*
X0159500Y0159200D03*
X0159600Y0139000D03*
X0109000Y0129000D03*
X0109000Y0149500D03*
D24*
X0117441Y0103959D03*
X0138700Y0083800D03*
X0154600Y0068800D03*
D25*
X0111443Y0111175D02*
X0110923Y0111695D01*
X0112645Y0111695D01*
X0113863Y0110477D01*
X0113863Y0108755D01*
X0112645Y0107537D01*
X0110923Y0107537D01*
X0109705Y0108755D01*
X0109705Y0110477D01*
X0110923Y0111695D01*
X0111246Y0110915D01*
X0112322Y0110915D01*
X0113083Y0110154D01*
X0113083Y0109078D01*
X0112322Y0108317D01*
X0111246Y0108317D01*
X0110485Y0109078D01*
X0110485Y0110154D01*
X0111246Y0110915D01*
X0111569Y0110135D01*
X0111999Y0110135D01*
X0112303Y0109831D01*
X0112303Y0109401D01*
X0111999Y0109097D01*
X0111569Y0109097D01*
X0111265Y0109401D01*
X0111265Y0109831D01*
X0111569Y0110135D01*
D26*
X0110200Y0099400D02*
X0110200Y0091554D01*
X0110146Y0091500D01*
X0106800Y0095600D02*
X0107000Y0095800D01*
X0107000Y0096600D01*
X0106800Y0095600D02*
X0106800Y0085446D01*
X0107600Y0084646D01*
X0103454Y0087507D02*
X0102046Y0086100D01*
X0103454Y0087507D02*
X0103454Y0091500D01*
X0103500Y0093046D01*
X0103500Y0094800D01*
X0095354Y0086100D02*
X0095354Y0080207D01*
X0095400Y0080046D01*
X0095600Y0080246D01*
X0102000Y0080246D01*
X0104293Y0077954D01*
X0107600Y0077954D01*
X0102000Y0073554D02*
X0106500Y0069054D01*
X0106500Y0066421D01*
X0106461Y0066382D01*
X0096461Y0066382D02*
X0096461Y0072293D01*
X0095400Y0073354D01*
X0096461Y0056382D02*
X0101300Y0051543D01*
X0101300Y0051500D01*
X0114300Y0051500D01*
X0116500Y0051500D01*
X0114300Y0051500D01*
X0116500Y0051500D02*
X0156500Y0051500D01*
X0166500Y0061500D01*
X0166500Y0166500D01*
X0164600Y0168400D01*
X0146200Y0168400D01*
X0133700Y0163700D02*
X0133700Y0179500D01*
X0138700Y0184500D01*
X0128700Y0184500D02*
X0123800Y0179600D01*
X0123800Y0167200D01*
X0123600Y0167000D01*
X0127000Y0163600D02*
X0128700Y0165300D01*
X0128700Y0174500D01*
X0127000Y0163600D02*
X0100100Y0163600D01*
X0094100Y0157600D01*
X0094100Y0144164D01*
X0090918Y0140982D01*
X0093145Y0138755D02*
X0096500Y0142110D01*
X0096500Y0156500D01*
X0101500Y0161500D01*
X0131500Y0161500D01*
X0133700Y0163700D01*
X0096500Y0142110D02*
X0096195Y0141805D01*
X0094000Y0133800D02*
X0094000Y0133700D01*
X0094000Y0131300D01*
X0093145Y0130445D01*
X0090918Y0128218D02*
X0094011Y0125125D01*
X0097258Y0125125D01*
X0092963Y0120837D02*
X0089390Y0120837D01*
X0086464Y0123763D01*
X0082009Y0119309D02*
X0085917Y0115402D01*
X0086769Y0114602D01*
X0082834Y0110566D02*
X0082434Y0110566D01*
X0081500Y0111500D01*
X0081500Y0115364D01*
X0079782Y0117082D01*
X0077555Y0114855D02*
X0076500Y0113800D01*
X0076500Y0107446D01*
X0073300Y0111300D02*
X0072500Y0110500D01*
X0072500Y0074600D01*
X0076050Y0071050D01*
X0076461Y0070639D01*
X0076461Y0066382D01*
X0076500Y0070600D02*
X0076461Y0070639D01*
X0076050Y0071050D01*
X0068400Y0091046D02*
X0068400Y0094800D01*
X0068400Y0098054D01*
X0068398Y0098071D01*
X0068394Y0098088D01*
X0068387Y0098104D01*
X0068377Y0098118D01*
X0068364Y0098131D01*
X0068350Y0098141D01*
X0068334Y0098148D01*
X0068317Y0098152D01*
X0068300Y0098154D01*
X0068300Y0104846D02*
X0068300Y0108800D01*
X0069800Y0110300D01*
X0069800Y0114300D01*
X0069245Y0114855D01*
X0067018Y0117018D02*
X0067018Y0117082D01*
X0067018Y0117018D02*
X0065300Y0115300D01*
X0065300Y0110466D01*
X0064266Y0110466D01*
X0060566Y0114366D02*
X0060566Y0115085D01*
X0064791Y0119309D01*
X0062563Y0121536D02*
X0058493Y0117466D01*
X0056666Y0118266D01*
X0056000Y0122300D02*
X0058873Y0122300D01*
X0060336Y0123763D01*
X0071500Y0134927D01*
X0071500Y0136500D01*
X0065100Y0135700D02*
X0061164Y0135700D01*
X0055882Y0140982D01*
X0053655Y0138755D02*
X0049785Y0142625D01*
X0048549Y0142625D01*
X0043817Y0143344D02*
X0043817Y0137892D01*
X0043817Y0122417D01*
X0039000Y0117600D01*
X0039000Y0112600D01*
X0040700Y0110900D01*
X0045537Y0107496D02*
X0050734Y0112692D01*
X0051934Y0113534D01*
X0053334Y0113534D01*
X0051934Y0113534D01*
X0052634Y0112734D01*
X0053334Y0113534D02*
X0054000Y0114200D01*
X0055834Y0109634D02*
X0054600Y0108400D01*
X0054600Y0108200D01*
X0050966Y0104566D01*
X0049766Y0103366D01*
X0059534Y0103666D02*
X0059700Y0103500D01*
X0059700Y0103300D01*
X0059534Y0103666D02*
X0059534Y0105734D01*
X0059534Y0101066D01*
X0061900Y0098700D01*
X0061900Y0095546D01*
X0055476Y0092398D02*
X0055400Y0092474D01*
X0073300Y0111300D02*
X0073300Y0121900D01*
X0066600Y0124700D02*
X0071500Y0129600D01*
X0062100Y0133100D02*
X0056310Y0133100D01*
X0053655Y0130445D01*
X0054800Y0123500D02*
X0051717Y0123500D01*
X0051491Y0123273D01*
X0054800Y0123500D02*
X0056000Y0122300D01*
X0060336Y0123736D02*
X0060336Y0123763D01*
X0043817Y0143344D02*
X0041827Y0145334D01*
X0039600Y0155000D02*
X0034900Y0159700D01*
X0033800Y0159700D01*
X0038946Y0167400D02*
X0038946Y0173054D01*
X0037100Y0174900D01*
X0033900Y0174900D01*
X0026500Y0181800D02*
X0026500Y0106800D01*
X0033700Y0099600D01*
X0060336Y0145437D02*
X0056027Y0149746D01*
X0055854Y0149746D01*
X0061066Y0153615D02*
X0061066Y0155334D01*
X0061066Y0153615D02*
X0064791Y0149891D01*
X0064791Y0150209D01*
X0067018Y0152118D02*
X0069236Y0149900D01*
X0071900Y0149900D01*
X0073400Y0151400D01*
X0073400Y0154900D01*
X0078083Y0159583D01*
X0078083Y0161167D01*
X0085658Y0161167D01*
X0085917Y0161426D01*
X0078083Y0161167D02*
X0078143Y0162426D01*
X0069028Y0168253D02*
X0064853Y0168253D01*
X0062434Y0168253D01*
X0060564Y0166383D01*
X0064700Y0168100D02*
X0064853Y0168253D01*
X0064700Y0168100D02*
X0064700Y0158890D01*
X0069245Y0154345D01*
X0033900Y0184900D02*
X0029600Y0184900D01*
X0026500Y0181800D01*
X0091502Y0109869D02*
X0091502Y0108598D01*
X0093300Y0106800D01*
X0096176Y0106800D01*
X0096488Y0106488D01*
X0096160Y0106811D01*
X0096488Y0106488D02*
X0097560Y0105434D01*
X0092934Y0100666D02*
X0087566Y0105834D01*
X0087666Y0105834D01*
X0089400Y0104100D01*
X0130700Y0071500D02*
X0130700Y0070621D01*
D27*
X0136500Y0071500D03*
X0136500Y0076500D03*
X0141500Y0076500D03*
X0141500Y0071500D03*
X0146500Y0076500D03*
X0151500Y0076500D03*
X0145800Y0099000D03*
X0144000Y0107500D03*
X0151500Y0121500D03*
X0159712Y0113000D03*
X0126500Y0076500D03*
X0121500Y0076500D03*
X0121500Y0071500D03*
X0103500Y0094800D03*
X0107000Y0096600D03*
X0110200Y0099400D03*
X0123300Y0104000D03*
X0119000Y0114000D03*
X0123500Y0116500D03*
X0111500Y0116500D03*
X0111500Y0121500D03*
X0094000Y0133700D03*
X0081500Y0131500D03*
X0081500Y0126500D03*
X0076500Y0126500D03*
X0076500Y0131500D03*
X0071500Y0129600D03*
X0066600Y0124700D03*
X0073300Y0121900D03*
X0062100Y0133100D03*
X0065100Y0135700D03*
X0064673Y0141100D03*
X0071500Y0136500D03*
X0076500Y0136500D03*
X0076500Y0147300D03*
X0061400Y0161700D03*
X0041500Y0176500D03*
X0041500Y0181500D03*
X0041500Y0186500D03*
X0029300Y0166900D03*
X0039600Y0155000D03*
X0042000Y0115900D03*
X0040700Y0110900D03*
X0033700Y0099600D03*
X0045300Y0087300D03*
X0041500Y0081500D03*
X0037500Y0081500D03*
X0033563Y0081500D03*
X0025600Y0061500D03*
X0031500Y0056500D03*
X0031500Y0051500D03*
X0025500Y0051300D03*
X0025400Y0041400D03*
X0025400Y0031500D03*
X0026500Y0021500D03*
X0037500Y0030000D03*
X0037500Y0034500D03*
X0037500Y0039000D03*
X0037500Y0043500D03*
X0041500Y0021500D03*
X0056500Y0021500D03*
X0071500Y0021500D03*
X0086500Y0021500D03*
X0086500Y0031500D03*
X0086500Y0041500D03*
X0101500Y0041500D03*
X0101500Y0031500D03*
X0101500Y0021500D03*
X0116500Y0021500D03*
X0116500Y0031500D03*
X0116500Y0041500D03*
X0131500Y0041500D03*
X0131500Y0031500D03*
X0131500Y0021500D03*
X0146500Y0021500D03*
X0146500Y0031500D03*
X0146500Y0041500D03*
X0161500Y0041500D03*
X0161500Y0031500D03*
X0161500Y0021500D03*
X0086500Y0079300D03*
X0077500Y0098400D03*
X0081500Y0101500D03*
X0089400Y0104100D03*
X0093300Y0106800D03*
X0068400Y0094800D03*
X0059700Y0103300D03*
X0054600Y0108200D03*
X0054000Y0114200D03*
X0091100Y0169900D03*
X0106500Y0176500D03*
X0106500Y0181500D03*
X0106500Y0186500D03*
X0111900Y0170700D03*
X0123600Y0167000D03*
X0146200Y0168400D03*
X0071000Y0045500D03*
D28*
X0023196Y0020843D02*
X0023699Y0019628D01*
X0024628Y0018699D01*
X0025843Y0018196D01*
X0026500Y0018131D01*
X0166500Y0018131D01*
X0167157Y0018196D01*
X0168372Y0018699D01*
X0169301Y0019628D01*
X0169804Y0020843D01*
X0169869Y0021500D01*
X0169869Y0186500D01*
X0169804Y0187157D01*
X0169301Y0188372D01*
X0168372Y0189301D01*
X0168372Y0189301D01*
X0167157Y0189804D01*
X0166500Y0189869D01*
X0103400Y0189869D01*
X0102957Y0189825D01*
X0102139Y0189487D01*
X0101513Y0188861D01*
X0101175Y0188043D01*
X0101131Y0187600D01*
X0101131Y0175059D01*
X0100411Y0173320D01*
X0100411Y0173320D01*
X0099080Y0171989D01*
X0099080Y0171989D01*
X0097341Y0171269D01*
X0088881Y0171269D01*
X0089006Y0171144D01*
X0089190Y0170825D01*
X0089286Y0170469D01*
X0089286Y0168519D01*
X0086317Y0168519D01*
X0086317Y0167719D01*
X0089286Y0167719D01*
X0089286Y0165770D01*
X0089190Y0165413D01*
X0089006Y0165094D01*
X0088745Y0164834D01*
X0088489Y0164686D01*
X0089086Y0164089D01*
X0089086Y0158764D01*
X0088383Y0158061D01*
X0083452Y0158061D01*
X0082749Y0158764D01*
X0082749Y0159467D01*
X0081842Y0159467D01*
X0081842Y0158504D01*
X0081139Y0157801D01*
X0079331Y0157801D01*
X0081269Y0155863D01*
X0083496Y0153636D01*
X0085724Y0151409D01*
X0087951Y0149182D01*
X0090178Y0146955D01*
X0092332Y0144801D01*
X0092400Y0144869D01*
X0092400Y0158304D01*
X0098400Y0164304D01*
X0099396Y0165300D01*
X0121497Y0165300D01*
X0121320Y0165477D01*
X0120911Y0166465D01*
X0120911Y0167535D01*
X0121320Y0168523D01*
X0122077Y0169280D01*
X0122100Y0169289D01*
X0122100Y0170688D01*
X0120812Y0169400D01*
X0119100Y0169400D01*
X0119100Y0174100D01*
X0118300Y0174100D01*
X0118300Y0169400D01*
X0116588Y0169400D01*
X0113600Y0172388D01*
X0113600Y0174100D01*
X0118300Y0174100D01*
X0118300Y0174900D01*
X0118300Y0179600D01*
X0116588Y0179600D01*
X0113600Y0176612D01*
X0113600Y0174900D01*
X0118300Y0174900D01*
X0119100Y0174900D01*
X0119100Y0179600D01*
X0120812Y0179600D01*
X0122100Y0178312D01*
X0122100Y0180304D01*
X0123096Y0181300D01*
X0124033Y0182237D01*
X0123800Y0182470D01*
X0123800Y0186530D01*
X0126670Y0189400D01*
X0130730Y0189400D01*
X0133600Y0186530D01*
X0133600Y0182470D01*
X0130730Y0179600D01*
X0126670Y0179600D01*
X0126437Y0179833D01*
X0125500Y0178896D01*
X0125500Y0178230D01*
X0126670Y0179400D01*
X0130730Y0179400D01*
X0132000Y0178130D01*
X0132000Y0180204D01*
X0132996Y0181200D01*
X0133800Y0182004D01*
X0133800Y0188697D01*
X0134503Y0189400D01*
X0142897Y0189400D01*
X0143600Y0188697D01*
X0143600Y0180303D01*
X0142897Y0179600D01*
X0136204Y0179600D01*
X0135400Y0178796D01*
X0135400Y0178130D01*
X0136670Y0179400D01*
X0140730Y0179400D01*
X0143600Y0176530D01*
X0143600Y0172470D01*
X0140730Y0169600D01*
X0136670Y0169600D01*
X0135400Y0170870D01*
X0135400Y0162996D01*
X0134404Y0162000D01*
X0133200Y0160796D01*
X0132204Y0159800D01*
X0102204Y0159800D01*
X0098200Y0155796D01*
X0098200Y0141406D01*
X0097204Y0140410D01*
X0096899Y0140105D01*
X0096891Y0140097D01*
X0096891Y0139248D01*
X0094031Y0136389D01*
X0094535Y0136389D01*
X0095523Y0135980D01*
X0096280Y0135223D01*
X0096689Y0134235D01*
X0096689Y0133165D01*
X0096280Y0132177D01*
X0095700Y0131597D01*
X0095700Y0131142D01*
X0096891Y0129952D01*
X0096891Y0129248D01*
X0097616Y0129248D01*
X0101381Y0125483D01*
X0101381Y0124639D01*
X0101667Y0124715D01*
X0102036Y0124715D01*
X0102392Y0124620D01*
X0102711Y0124436D01*
X0104090Y0123057D01*
X0101991Y0120958D01*
X0102556Y0120392D01*
X0104794Y0118154D01*
X0106034Y0119393D01*
X0106218Y0119713D01*
X0106314Y0120069D01*
X0106314Y0120437D01*
X0106218Y0120793D01*
X0106034Y0121113D01*
X0104655Y0122491D01*
X0102556Y0120392D01*
X0101991Y0119827D01*
X0104229Y0117588D01*
X0102989Y0116349D01*
X0102670Y0116165D01*
X0102314Y0116069D01*
X0102019Y0116069D01*
X0102019Y0115781D01*
X0101923Y0115425D01*
X0101739Y0115106D01*
X0100499Y0113866D01*
X0098261Y0116104D01*
X0097696Y0115539D01*
X0099934Y0113300D01*
X0098694Y0112061D01*
X0098375Y0111877D01*
X0098019Y0111781D01*
X0097650Y0111781D01*
X0097294Y0111877D01*
X0096975Y0112061D01*
X0095597Y0113440D01*
X0097696Y0115539D01*
X0097130Y0116104D01*
X0095031Y0114005D01*
X0093652Y0115384D01*
X0093468Y0115703D01*
X0093373Y0116059D01*
X0093373Y0116428D01*
X0093449Y0116714D01*
X0092605Y0116714D01*
X0090182Y0119137D01*
X0088686Y0119137D01*
X0087988Y0119835D01*
X0087902Y0119687D01*
X0087100Y0118885D01*
X0084449Y0121536D01*
X0084237Y0121324D01*
X0086836Y0118725D01*
X0087405Y0118725D01*
X0090892Y0115238D01*
X0090892Y0114244D01*
X0087127Y0110479D01*
X0086957Y0110479D01*
X0086957Y0110208D01*
X0083192Y0106443D01*
X0082197Y0106443D01*
X0079865Y0108775D01*
X0079865Y0104981D01*
X0079162Y0104278D01*
X0074200Y0104278D01*
X0074200Y0103922D01*
X0079162Y0103922D01*
X0079865Y0103219D01*
X0079865Y0099716D01*
X0080189Y0098935D01*
X0080189Y0097865D01*
X0079780Y0096877D01*
X0079023Y0096120D01*
X0078800Y0096028D01*
X0078800Y0094015D01*
X0079462Y0094015D01*
X0080165Y0093312D01*
X0080165Y0088381D01*
X0079462Y0087678D01*
X0074200Y0087678D01*
X0074200Y0087455D01*
X0074450Y0087522D01*
X0076400Y0087522D01*
X0076400Y0084554D01*
X0077200Y0084554D01*
X0077200Y0087522D01*
X0079150Y0087522D01*
X0079506Y0087427D01*
X0079825Y0087242D01*
X0080086Y0086982D01*
X0080270Y0086662D01*
X0080365Y0086306D01*
X0080365Y0084554D01*
X0077200Y0084554D01*
X0077200Y0083754D01*
X0080365Y0083754D01*
X0080365Y0082001D01*
X0080270Y0081645D01*
X0080086Y0081325D01*
X0079825Y0081065D01*
X0079506Y0080880D01*
X0079150Y0080785D01*
X0077200Y0080785D01*
X0077200Y0083753D01*
X0076400Y0083753D01*
X0076400Y0080785D01*
X0074450Y0080785D01*
X0074200Y0080852D01*
X0074200Y0075304D01*
X0076754Y0072750D01*
X0078161Y0071344D01*
X0078200Y0071304D01*
X0078200Y0070299D01*
X0080461Y0068039D01*
X0080461Y0064725D01*
X0078117Y0062382D01*
X0074804Y0062382D01*
X0072461Y0064725D01*
X0072461Y0068039D01*
X0074559Y0070137D01*
X0074350Y0070346D01*
X0070800Y0073896D01*
X0070800Y0080999D01*
X0070750Y0080985D01*
X0068800Y0080985D01*
X0068800Y0083953D01*
X0068000Y0083953D01*
X0068000Y0080985D01*
X0066050Y0080985D01*
X0065694Y0081080D01*
X0065375Y0081265D01*
X0065114Y0081525D01*
X0064930Y0081845D01*
X0064835Y0082201D01*
X0064835Y0083954D01*
X0068000Y0083954D01*
X0068000Y0084754D01*
X0068000Y0087722D01*
X0066050Y0087722D01*
X0065694Y0087627D01*
X0065465Y0087494D01*
X0065465Y0088150D01*
X0065738Y0087878D01*
X0070800Y0087878D01*
X0070800Y0087709D01*
X0070750Y0087722D01*
X0068800Y0087722D01*
X0068800Y0084754D01*
X0068000Y0084754D01*
X0064835Y0084754D01*
X0064835Y0085713D01*
X0064606Y0085580D01*
X0064250Y0085485D01*
X0062300Y0085485D01*
X0062300Y0088453D01*
X0061500Y0088453D01*
X0061500Y0085485D01*
X0059550Y0085485D01*
X0059194Y0085580D01*
X0058875Y0085765D01*
X0058614Y0086025D01*
X0058430Y0086345D01*
X0058335Y0086701D01*
X0058335Y0088441D01*
X0057942Y0088048D01*
X0053011Y0088048D01*
X0052308Y0088751D01*
X0052308Y0090279D01*
X0048500Y0086472D01*
X0047328Y0085300D01*
X0047103Y0085300D01*
X0046823Y0085020D01*
X0045835Y0084611D01*
X0044765Y0084611D01*
X0043777Y0085020D01*
X0043020Y0085777D01*
X0042611Y0086765D01*
X0042611Y0087835D01*
X0043020Y0088823D01*
X0043777Y0089580D01*
X0044765Y0089989D01*
X0045835Y0089989D01*
X0046207Y0089835D01*
X0050769Y0094398D01*
X0052308Y0094398D01*
X0052308Y0096044D01*
X0053011Y0096747D01*
X0057942Y0096747D01*
X0058535Y0096155D01*
X0058535Y0098012D01*
X0059238Y0098715D01*
X0059481Y0098715D01*
X0057834Y0100362D01*
X0057834Y0101364D01*
X0057420Y0101777D01*
X0057011Y0102765D01*
X0057011Y0103775D01*
X0055411Y0105376D01*
X0055411Y0105576D01*
X0055376Y0105611D01*
X0055135Y0105511D01*
X0054315Y0105511D01*
X0053209Y0104405D01*
X0053889Y0103724D01*
X0053889Y0102730D01*
X0050403Y0099243D01*
X0049408Y0099243D01*
X0045643Y0103008D01*
X0045643Y0103373D01*
X0045179Y0103373D01*
X0041414Y0107138D01*
X0041414Y0108132D01*
X0041676Y0108394D01*
X0041235Y0108211D01*
X0040165Y0108211D01*
X0039177Y0108620D01*
X0038845Y0108952D01*
X0038774Y0108506D01*
X0038526Y0107742D01*
X0038162Y0107027D01*
X0037690Y0106378D01*
X0037122Y0105810D01*
X0036473Y0105338D01*
X0035758Y0104974D01*
X0034994Y0104726D01*
X0034201Y0104600D01*
X0034200Y0104600D01*
X0034200Y0109300D01*
X0033400Y0109300D01*
X0033400Y0104600D01*
X0033399Y0104600D01*
X0032606Y0104726D01*
X0031842Y0104974D01*
X0031127Y0105338D01*
X0030478Y0105810D01*
X0029910Y0106378D01*
X0029438Y0107027D01*
X0029074Y0107742D01*
X0028826Y0108506D01*
X0028700Y0109299D01*
X0028700Y0109300D01*
X0033400Y0109300D01*
X0033400Y0110100D01*
X0033400Y0114800D01*
X0033399Y0114800D01*
X0032606Y0114674D01*
X0031842Y0114426D01*
X0031127Y0114062D01*
X0030478Y0113590D01*
X0029910Y0113022D01*
X0029438Y0112373D01*
X0029074Y0111658D01*
X0028826Y0110894D01*
X0028700Y0110101D01*
X0028700Y0110100D01*
X0033400Y0110100D01*
X0034200Y0110100D01*
X0034200Y0114800D01*
X0034201Y0114800D01*
X0034994Y0114674D01*
X0035758Y0114426D01*
X0036473Y0114062D01*
X0037122Y0113590D01*
X0037300Y0113412D01*
X0037300Y0116270D01*
X0036576Y0115546D01*
X0034775Y0114800D01*
X0032825Y0114800D01*
X0031024Y0115546D01*
X0029646Y0116924D01*
X0028900Y0118725D01*
X0028900Y0120675D01*
X0029646Y0122476D01*
X0031024Y0123854D01*
X0032825Y0124600D01*
X0034775Y0124600D01*
X0036576Y0123854D01*
X0037954Y0122476D01*
X0038700Y0120675D01*
X0038700Y0119704D01*
X0042117Y0123121D01*
X0042117Y0135111D01*
X0039693Y0137534D01*
X0039693Y0138528D01*
X0042117Y0140952D01*
X0042117Y0141211D01*
X0041469Y0141211D01*
X0037704Y0144976D01*
X0037704Y0145970D01*
X0041190Y0149457D01*
X0042184Y0149457D01*
X0045950Y0145692D01*
X0045950Y0144785D01*
X0046918Y0145753D01*
X0046883Y0145743D01*
X0046514Y0145743D01*
X0046158Y0145839D01*
X0045839Y0146023D01*
X0044460Y0147402D01*
X0046559Y0149501D01*
X0045993Y0150066D01*
X0043894Y0147967D01*
X0042516Y0149346D01*
X0042332Y0149665D01*
X0042236Y0150021D01*
X0042236Y0150390D01*
X0042332Y0150746D01*
X0042516Y0151065D01*
X0043755Y0152305D01*
X0045993Y0150066D01*
X0046559Y0150632D01*
X0044321Y0152870D01*
X0045560Y0154110D01*
X0045880Y0154294D01*
X0046236Y0154389D01*
X0046604Y0154389D01*
X0046826Y0154330D01*
X0046798Y0154433D01*
X0046798Y0154802D01*
X0046894Y0155158D01*
X0047078Y0155477D01*
X0048318Y0156717D01*
X0050556Y0154478D01*
X0051122Y0153913D01*
X0049299Y0152090D01*
X0049224Y0152165D01*
X0047125Y0150066D01*
X0049363Y0147828D01*
X0050603Y0149067D01*
X0050787Y0149387D01*
X0050882Y0149743D01*
X0050882Y0150111D01*
X0050855Y0150215D01*
X0051076Y0150155D01*
X0051445Y0150155D01*
X0051731Y0150232D01*
X0051731Y0149388D01*
X0055496Y0145623D01*
X0055908Y0145623D01*
X0058109Y0143422D01*
X0057897Y0143209D01*
X0055245Y0145861D01*
X0054443Y0145059D01*
X0054259Y0144740D01*
X0054205Y0144538D01*
X0052661Y0142994D01*
X0048907Y0146748D01*
X0048283Y0146748D01*
X0048797Y0147262D01*
X0046559Y0149501D01*
X0047125Y0150066D01*
X0046559Y0150632D01*
X0048382Y0152454D01*
X0048457Y0152379D01*
X0050556Y0154478D01*
X0051122Y0155044D01*
X0053221Y0157143D01*
X0051842Y0158522D01*
X0051523Y0158706D01*
X0051167Y0158801D01*
X0050798Y0158801D01*
X0050442Y0158706D01*
X0050123Y0158522D01*
X0048883Y0157282D01*
X0051122Y0155044D01*
X0051687Y0154478D01*
X0053786Y0156577D01*
X0055165Y0155199D01*
X0055349Y0154880D01*
X0055445Y0154524D01*
X0055445Y0154155D01*
X0055368Y0153869D01*
X0056212Y0153869D01*
X0059977Y0150104D01*
X0059977Y0150038D01*
X0062351Y0147664D01*
X0062563Y0147876D01*
X0059912Y0150527D01*
X0060652Y0151267D01*
X0056943Y0154976D01*
X0056943Y0155820D01*
X0056657Y0155743D01*
X0056289Y0155743D01*
X0055932Y0155839D01*
X0055613Y0156023D01*
X0054235Y0157402D01*
X0056334Y0159501D01*
X0055768Y0160066D01*
X0053669Y0157967D01*
X0052290Y0159346D01*
X0052106Y0159665D01*
X0052011Y0160021D01*
X0052011Y0160390D01*
X0052106Y0160746D01*
X0052290Y0161065D01*
X0053530Y0162305D01*
X0055768Y0160066D01*
X0056334Y0160632D01*
X0058433Y0162731D01*
X0057949Y0163214D01*
X0063000Y0163214D01*
X0063000Y0158186D01*
X0063996Y0157190D01*
X0065426Y0155759D01*
X0065189Y0155522D01*
X0065189Y0155692D01*
X0061424Y0159457D01*
X0060580Y0159457D01*
X0060657Y0159743D01*
X0060657Y0160111D01*
X0060561Y0160467D01*
X0060377Y0160787D01*
X0058998Y0162165D01*
X0056899Y0160066D01*
X0056334Y0160632D01*
X0054095Y0162870D01*
X0054271Y0163045D01*
X0054271Y0165983D01*
X0053471Y0165983D01*
X0053471Y0163014D01*
X0051521Y0163014D01*
X0051165Y0163110D01*
X0050846Y0163294D01*
X0050585Y0163555D01*
X0050401Y0163874D01*
X0050305Y0164230D01*
X0050305Y0165983D01*
X0053471Y0165983D01*
X0053471Y0166783D01*
X0053471Y0169751D01*
X0051521Y0169751D01*
X0051165Y0169656D01*
X0050846Y0169472D01*
X0050585Y0169211D01*
X0050401Y0168892D01*
X0050305Y0168536D01*
X0050305Y0166783D01*
X0053471Y0166783D01*
X0054271Y0166783D01*
X0054271Y0169751D01*
X0056220Y0169751D01*
X0056576Y0169656D01*
X0056896Y0169472D01*
X0057156Y0169211D01*
X0057304Y0168955D01*
X0057901Y0169551D01*
X0061328Y0169551D01*
X0061730Y0169953D01*
X0065269Y0169953D01*
X0065269Y0170916D01*
X0065622Y0171269D01*
X0049059Y0171269D01*
X0047137Y0172065D01*
X0047137Y0172065D01*
X0045665Y0173537D01*
X0045665Y0173537D01*
X0044869Y0175459D01*
X0044869Y0186500D01*
X0044804Y0187157D01*
X0044301Y0188372D01*
X0043372Y0189301D01*
X0042157Y0189804D01*
X0041500Y0189869D01*
X0026500Y0189869D01*
X0025843Y0189804D01*
X0024628Y0189301D01*
X0023699Y0188372D01*
X0023196Y0187157D01*
X0023131Y0186500D01*
X0023131Y0021500D01*
X0023196Y0020843D01*
X0023341Y0020493D02*
X0169659Y0020493D01*
X0169848Y0021291D02*
X0023152Y0021291D01*
X0023131Y0022090D02*
X0169869Y0022090D01*
X0169869Y0022888D02*
X0023131Y0022888D01*
X0023131Y0023687D02*
X0169869Y0023687D01*
X0169869Y0024485D02*
X0079174Y0024485D01*
X0079044Y0024355D02*
X0079747Y0025058D01*
X0079747Y0029989D01*
X0079457Y0030280D01*
X0079865Y0030688D01*
X0079865Y0035619D01*
X0079162Y0036322D01*
X0073838Y0036322D01*
X0073135Y0035619D01*
X0073135Y0030692D01*
X0071751Y0030692D01*
X0071509Y0030450D01*
X0069300Y0032660D01*
X0069300Y0043397D01*
X0069477Y0043220D01*
X0070465Y0042811D01*
X0071248Y0042811D01*
X0071751Y0042308D01*
X0073135Y0042308D01*
X0073135Y0037381D01*
X0073838Y0036678D01*
X0079162Y0036678D01*
X0079865Y0037381D01*
X0079865Y0042312D01*
X0079457Y0042720D01*
X0079747Y0043011D01*
X0079747Y0047942D01*
X0079044Y0048645D01*
X0071751Y0048645D01*
X0071295Y0048189D01*
X0070465Y0048189D01*
X0069477Y0047780D01*
X0069300Y0047603D01*
X0069300Y0053564D01*
X0070461Y0054725D01*
X0070461Y0058039D01*
X0068117Y0060382D01*
X0064804Y0060382D01*
X0062461Y0058039D01*
X0062461Y0054725D01*
X0063700Y0053486D01*
X0063700Y0030943D01*
X0064126Y0029914D01*
X0064914Y0029126D01*
X0068890Y0025150D01*
X0069919Y0024724D01*
X0071382Y0024724D01*
X0071751Y0024355D01*
X0079044Y0024355D01*
X0079747Y0025284D02*
X0169869Y0025284D01*
X0169869Y0026082D02*
X0079747Y0026082D01*
X0079747Y0026881D02*
X0169869Y0026881D01*
X0169869Y0027679D02*
X0079747Y0027679D01*
X0079747Y0028478D02*
X0169869Y0028478D01*
X0169869Y0029276D02*
X0079747Y0029276D01*
X0079662Y0030075D02*
X0169869Y0030075D01*
X0169869Y0030873D02*
X0079865Y0030873D01*
X0079865Y0031672D02*
X0169869Y0031672D01*
X0169869Y0032470D02*
X0079865Y0032470D01*
X0079865Y0033269D02*
X0169869Y0033269D01*
X0169869Y0034067D02*
X0079865Y0034067D01*
X0079865Y0034866D02*
X0169869Y0034866D01*
X0169869Y0035664D02*
X0079820Y0035664D01*
X0079746Y0037261D02*
X0169869Y0037261D01*
X0169869Y0036463D02*
X0069300Y0036463D01*
X0069300Y0037261D02*
X0073254Y0037261D01*
X0073135Y0038060D02*
X0069300Y0038060D01*
X0069300Y0038858D02*
X0073135Y0038858D01*
X0073135Y0039657D02*
X0069300Y0039657D01*
X0069300Y0040455D02*
X0073135Y0040455D01*
X0073135Y0041254D02*
X0069300Y0041254D01*
X0069300Y0042052D02*
X0073135Y0042052D01*
X0070369Y0042851D02*
X0069300Y0042851D01*
X0069300Y0047642D02*
X0069339Y0047642D01*
X0069300Y0048440D02*
X0071547Y0048440D01*
X0069300Y0049239D02*
X0169869Y0049239D01*
X0169869Y0050037D02*
X0157442Y0050037D01*
X0157204Y0049800D02*
X0158200Y0050796D01*
X0167204Y0059800D01*
X0167204Y0059800D01*
X0168200Y0060796D01*
X0168200Y0167204D01*
X0165304Y0170100D01*
X0148303Y0170100D01*
X0147723Y0170680D01*
X0146735Y0171089D01*
X0145665Y0171089D01*
X0144677Y0170680D01*
X0143920Y0169923D01*
X0143511Y0168935D01*
X0143511Y0167865D01*
X0143920Y0166877D01*
X0144677Y0166120D01*
X0145665Y0165711D01*
X0146735Y0165711D01*
X0147723Y0166120D01*
X0148303Y0166700D01*
X0163896Y0166700D01*
X0164800Y0165796D01*
X0164800Y0062204D01*
X0155796Y0053200D01*
X0128936Y0053200D01*
X0130236Y0054500D01*
X0142912Y0054500D01*
X0145522Y0055581D01*
X0147519Y0057578D01*
X0148600Y0060188D01*
X0148600Y0065426D01*
X0150400Y0067226D01*
X0150400Y0070374D01*
X0148174Y0072600D01*
X0145026Y0072600D01*
X0142800Y0070374D01*
X0142800Y0067226D01*
X0144600Y0065426D01*
X0144600Y0061600D01*
X0144540Y0060995D01*
X0144078Y0059878D01*
X0143222Y0059022D01*
X0142105Y0058560D01*
X0141500Y0058500D01*
X0129999Y0058500D01*
X0128117Y0060382D01*
X0124804Y0060382D01*
X0122461Y0058039D01*
X0122461Y0054725D01*
X0123986Y0053200D01*
X0118936Y0053200D01*
X0120461Y0054725D01*
X0120461Y0058039D01*
X0118117Y0060382D01*
X0114804Y0060382D01*
X0112461Y0058039D01*
X0112461Y0054725D01*
X0113986Y0053200D01*
X0108936Y0053200D01*
X0110461Y0054725D01*
X0110461Y0058039D01*
X0108117Y0060382D01*
X0104804Y0060382D01*
X0102461Y0058039D01*
X0102461Y0054725D01*
X0103986Y0053200D01*
X0102047Y0053200D01*
X0102004Y0053243D01*
X0100461Y0054786D01*
X0100461Y0058039D01*
X0098117Y0060382D01*
X0094804Y0060382D01*
X0092461Y0058039D01*
X0092461Y0054725D01*
X0094804Y0052382D01*
X0098056Y0052382D01*
X0099600Y0050838D01*
X0099600Y0050796D01*
X0100596Y0049800D01*
X0157204Y0049800D01*
X0158240Y0050836D02*
X0169869Y0050836D01*
X0169869Y0051634D02*
X0159039Y0051634D01*
X0159837Y0052433D02*
X0169869Y0052433D01*
X0169869Y0053232D02*
X0160636Y0053232D01*
X0161434Y0054030D02*
X0169869Y0054030D01*
X0169869Y0054829D02*
X0162233Y0054829D01*
X0163031Y0055627D02*
X0169869Y0055627D01*
X0169869Y0056426D02*
X0163830Y0056426D01*
X0164628Y0057224D02*
X0169869Y0057224D01*
X0169869Y0058023D02*
X0165427Y0058023D01*
X0166225Y0058821D02*
X0169869Y0058821D01*
X0169869Y0059620D02*
X0167024Y0059620D01*
X0167822Y0060418D02*
X0169869Y0060418D01*
X0169869Y0061217D02*
X0168200Y0061217D01*
X0168200Y0062015D02*
X0169869Y0062015D01*
X0169869Y0062814D02*
X0168200Y0062814D01*
X0168200Y0063612D02*
X0169869Y0063612D01*
X0169869Y0064411D02*
X0168200Y0064411D01*
X0168200Y0065209D02*
X0169869Y0065209D01*
X0169869Y0066008D02*
X0168200Y0066008D01*
X0168200Y0066806D02*
X0169869Y0066806D01*
X0169869Y0067605D02*
X0168200Y0067605D01*
X0168200Y0068403D02*
X0169869Y0068403D01*
X0169869Y0069202D02*
X0168200Y0069202D01*
X0168200Y0070000D02*
X0169869Y0070000D01*
X0169869Y0070799D02*
X0168200Y0070799D01*
X0168200Y0071597D02*
X0169869Y0071597D01*
X0169869Y0072396D02*
X0168200Y0072396D01*
X0168200Y0073194D02*
X0169869Y0073194D01*
X0169869Y0073993D02*
X0168200Y0073993D01*
X0168200Y0074791D02*
X0169869Y0074791D01*
X0169869Y0075590D02*
X0168200Y0075590D01*
X0168200Y0076388D02*
X0169869Y0076388D01*
X0169869Y0077187D02*
X0168200Y0077187D01*
X0168200Y0077985D02*
X0169869Y0077985D01*
X0169869Y0078784D02*
X0168200Y0078784D01*
X0168200Y0079582D02*
X0169869Y0079582D01*
X0169869Y0080381D02*
X0168200Y0080381D01*
X0168200Y0081179D02*
X0169869Y0081179D01*
X0169869Y0081978D02*
X0168200Y0081978D01*
X0168200Y0082776D02*
X0169869Y0082776D01*
X0169869Y0083575D02*
X0168200Y0083575D01*
X0168200Y0084373D02*
X0169869Y0084373D01*
X0169869Y0085172D02*
X0168200Y0085172D01*
X0168200Y0085970D02*
X0169869Y0085970D01*
X0169869Y0086769D02*
X0168200Y0086769D01*
X0168200Y0087568D02*
X0169869Y0087568D01*
X0169869Y0088366D02*
X0168200Y0088366D01*
X0168200Y0089165D02*
X0169869Y0089165D01*
X0169869Y0089963D02*
X0168200Y0089963D01*
X0168200Y0090762D02*
X0169869Y0090762D01*
X0169869Y0091560D02*
X0168200Y0091560D01*
X0168200Y0092359D02*
X0169869Y0092359D01*
X0169869Y0093157D02*
X0168200Y0093157D01*
X0168200Y0093956D02*
X0169869Y0093956D01*
X0169869Y0094754D02*
X0168200Y0094754D01*
X0168200Y0095553D02*
X0169869Y0095553D01*
X0169869Y0096351D02*
X0168200Y0096351D01*
X0168200Y0097150D02*
X0169869Y0097150D01*
X0169869Y0097948D02*
X0168200Y0097948D01*
X0168200Y0098747D02*
X0169869Y0098747D01*
X0169869Y0099545D02*
X0168200Y0099545D01*
X0168200Y0100344D02*
X0169869Y0100344D01*
X0169869Y0101142D02*
X0168200Y0101142D01*
X0168200Y0101941D02*
X0169869Y0101941D01*
X0169869Y0102739D02*
X0168200Y0102739D01*
X0168200Y0103538D02*
X0169869Y0103538D01*
X0169869Y0104336D02*
X0168200Y0104336D01*
X0168200Y0105135D02*
X0169869Y0105135D01*
X0169869Y0105933D02*
X0168200Y0105933D01*
X0168200Y0106732D02*
X0169869Y0106732D01*
X0169869Y0107530D02*
X0168200Y0107530D01*
X0168200Y0108329D02*
X0169869Y0108329D01*
X0169869Y0109127D02*
X0168200Y0109127D01*
X0168200Y0109926D02*
X0169869Y0109926D01*
X0169869Y0110724D02*
X0168200Y0110724D01*
X0168200Y0111523D02*
X0169869Y0111523D01*
X0169869Y0112321D02*
X0168200Y0112321D01*
X0168200Y0113120D02*
X0169869Y0113120D01*
X0169869Y0113918D02*
X0168200Y0113918D01*
X0168200Y0114717D02*
X0169869Y0114717D01*
X0169869Y0115515D02*
X0168200Y0115515D01*
X0168200Y0116314D02*
X0169869Y0116314D01*
X0169869Y0117112D02*
X0168200Y0117112D01*
X0168200Y0117911D02*
X0169869Y0117911D01*
X0169869Y0118709D02*
X0168200Y0118709D01*
X0168200Y0119508D02*
X0169869Y0119508D01*
X0169869Y0120306D02*
X0168200Y0120306D01*
X0168200Y0121105D02*
X0169869Y0121105D01*
X0169869Y0121903D02*
X0168200Y0121903D01*
X0168200Y0122702D02*
X0169869Y0122702D01*
X0169869Y0123501D02*
X0168200Y0123501D01*
X0168200Y0124299D02*
X0169869Y0124299D01*
X0169869Y0125098D02*
X0168200Y0125098D01*
X0168200Y0125896D02*
X0169869Y0125896D01*
X0169869Y0126695D02*
X0168200Y0126695D01*
X0168200Y0127493D02*
X0169869Y0127493D01*
X0169869Y0128292D02*
X0168200Y0128292D01*
X0168200Y0129090D02*
X0169869Y0129090D01*
X0169869Y0129889D02*
X0168200Y0129889D01*
X0168200Y0130687D02*
X0169869Y0130687D01*
X0169869Y0131486D02*
X0168200Y0131486D01*
X0168200Y0132284D02*
X0169869Y0132284D01*
X0169869Y0133083D02*
X0168200Y0133083D01*
X0168200Y0133881D02*
X0169869Y0133881D01*
X0169869Y0134680D02*
X0168200Y0134680D01*
X0168200Y0135478D02*
X0169869Y0135478D01*
X0169869Y0136277D02*
X0168200Y0136277D01*
X0168200Y0137075D02*
X0169869Y0137075D01*
X0169869Y0137874D02*
X0168200Y0137874D01*
X0168200Y0138672D02*
X0169869Y0138672D01*
X0169869Y0139471D02*
X0168200Y0139471D01*
X0168200Y0140269D02*
X0169869Y0140269D01*
X0169869Y0141068D02*
X0168200Y0141068D01*
X0168200Y0141866D02*
X0169869Y0141866D01*
X0169869Y0142665D02*
X0168200Y0142665D01*
X0168200Y0143463D02*
X0169869Y0143463D01*
X0169869Y0144262D02*
X0168200Y0144262D01*
X0168200Y0145060D02*
X0169869Y0145060D01*
X0169869Y0145859D02*
X0168200Y0145859D01*
X0168200Y0146657D02*
X0169869Y0146657D01*
X0169869Y0147456D02*
X0168200Y0147456D01*
X0168200Y0148254D02*
X0169869Y0148254D01*
X0169869Y0149053D02*
X0168200Y0149053D01*
X0168200Y0149851D02*
X0169869Y0149851D01*
X0169869Y0150650D02*
X0168200Y0150650D01*
X0168200Y0151448D02*
X0169869Y0151448D01*
X0169869Y0152247D02*
X0168200Y0152247D01*
X0168200Y0153045D02*
X0169869Y0153045D01*
X0169869Y0153844D02*
X0168200Y0153844D01*
X0168200Y0154642D02*
X0169869Y0154642D01*
X0169869Y0155441D02*
X0168200Y0155441D01*
X0168200Y0156239D02*
X0169869Y0156239D01*
X0169869Y0157038D02*
X0168200Y0157038D01*
X0168200Y0157837D02*
X0169869Y0157837D01*
X0169869Y0158635D02*
X0168200Y0158635D01*
X0168200Y0159434D02*
X0169869Y0159434D01*
X0169869Y0160232D02*
X0168200Y0160232D01*
X0168200Y0161031D02*
X0169869Y0161031D01*
X0169869Y0161829D02*
X0168200Y0161829D01*
X0168200Y0162628D02*
X0169869Y0162628D01*
X0169869Y0163426D02*
X0168200Y0163426D01*
X0168200Y0164225D02*
X0169869Y0164225D01*
X0169869Y0165023D02*
X0168200Y0165023D01*
X0168200Y0165822D02*
X0169869Y0165822D01*
X0169869Y0166620D02*
X0168200Y0166620D01*
X0167986Y0167419D02*
X0169869Y0167419D01*
X0169869Y0168217D02*
X0167187Y0168217D01*
X0166388Y0169016D02*
X0169869Y0169016D01*
X0169869Y0169814D02*
X0165590Y0169814D01*
X0163976Y0166620D02*
X0148223Y0166620D01*
X0147002Y0165822D02*
X0164774Y0165822D01*
X0164800Y0165023D02*
X0135400Y0165023D01*
X0135400Y0164225D02*
X0164800Y0164225D01*
X0164800Y0163426D02*
X0135400Y0163426D01*
X0135032Y0162628D02*
X0137554Y0162628D01*
X0137926Y0163000D02*
X0135700Y0160774D01*
X0135700Y0157626D01*
X0137926Y0155400D01*
X0141074Y0155400D01*
X0143300Y0157626D01*
X0143300Y0160774D01*
X0141074Y0163000D01*
X0137926Y0163000D01*
X0136755Y0161829D02*
X0134233Y0161829D01*
X0133435Y0161031D02*
X0135957Y0161031D01*
X0135700Y0160232D02*
X0132636Y0160232D01*
X0135700Y0159434D02*
X0101838Y0159434D01*
X0101039Y0158635D02*
X0135700Y0158635D01*
X0135700Y0157837D02*
X0100241Y0157837D01*
X0099442Y0157038D02*
X0136288Y0157038D01*
X0137087Y0156239D02*
X0098644Y0156239D01*
X0098200Y0155441D02*
X0137885Y0155441D01*
X0141115Y0155441D02*
X0148757Y0155441D01*
X0148838Y0155522D02*
X0148135Y0154819D01*
X0148135Y0149888D01*
X0148838Y0149185D01*
X0149500Y0149185D01*
X0149500Y0131500D01*
X0149442Y0130915D01*
X0148994Y0129833D01*
X0148167Y0129006D01*
X0147085Y0128558D01*
X0146500Y0128500D01*
X0145294Y0128500D01*
X0143206Y0127294D01*
X0142000Y0125206D01*
X0142000Y0109303D01*
X0141720Y0109023D01*
X0141311Y0108035D01*
X0141311Y0106965D01*
X0141720Y0105977D01*
X0142477Y0105220D01*
X0142536Y0105196D01*
X0142961Y0104276D01*
X0144706Y0102793D01*
X0144706Y0102793D01*
X0145635Y0102535D01*
X0145635Y0102381D01*
X0146327Y0101689D01*
X0145265Y0101689D01*
X0144277Y0101280D01*
X0143520Y0100523D01*
X0143111Y0099535D01*
X0143111Y0098465D01*
X0143520Y0097477D01*
X0144277Y0096720D01*
X0145265Y0096311D01*
X0145635Y0096311D01*
X0145635Y0095688D01*
X0146338Y0094985D01*
X0151662Y0094985D01*
X0152365Y0095688D01*
X0152365Y0096154D01*
X0153831Y0096154D01*
X0153831Y0095491D01*
X0154534Y0094788D01*
X0159466Y0094788D01*
X0160168Y0095491D01*
X0160168Y0100816D01*
X0159484Y0101500D01*
X0160168Y0102184D01*
X0160168Y0107509D01*
X0159466Y0108212D01*
X0154534Y0108212D01*
X0153831Y0107509D01*
X0153831Y0106846D01*
X0152365Y0106846D01*
X0152365Y0107312D01*
X0151662Y0108015D01*
X0146689Y0108015D01*
X0146689Y0108035D01*
X0146280Y0109023D01*
X0146000Y0109303D01*
X0146000Y0124000D01*
X0146017Y0124129D01*
X0146146Y0124354D01*
X0146371Y0124483D01*
X0146500Y0124500D01*
X0147892Y0124500D01*
X0150465Y0125566D01*
X0152434Y0127535D01*
X0153500Y0130108D01*
X0153500Y0149185D01*
X0154162Y0149185D01*
X0154865Y0149888D01*
X0154865Y0154819D01*
X0154162Y0155522D01*
X0148838Y0155522D01*
X0148838Y0155878D02*
X0154162Y0155878D01*
X0154865Y0156581D01*
X0154865Y0157046D01*
X0156280Y0157046D01*
X0157926Y0155400D01*
X0161074Y0155400D01*
X0163300Y0157626D01*
X0163300Y0160774D01*
X0161074Y0163000D01*
X0157926Y0163000D01*
X0155972Y0161046D01*
X0154865Y0161046D01*
X0154865Y0161512D01*
X0154162Y0162215D01*
X0148838Y0162215D01*
X0148135Y0161512D01*
X0148135Y0156581D01*
X0148838Y0155878D01*
X0148476Y0156239D02*
X0141913Y0156239D01*
X0142712Y0157038D02*
X0148135Y0157038D01*
X0148135Y0157837D02*
X0143300Y0157837D01*
X0143300Y0158635D02*
X0148135Y0158635D01*
X0148135Y0159434D02*
X0143300Y0159434D01*
X0143300Y0160232D02*
X0148135Y0160232D01*
X0148135Y0161031D02*
X0143043Y0161031D01*
X0142245Y0161829D02*
X0148452Y0161829D01*
X0145398Y0165822D02*
X0135400Y0165822D01*
X0135400Y0166620D02*
X0144177Y0166620D01*
X0143696Y0167419D02*
X0135400Y0167419D01*
X0135400Y0168217D02*
X0143511Y0168217D01*
X0143545Y0169016D02*
X0135400Y0169016D01*
X0135400Y0169814D02*
X0136456Y0169814D01*
X0135658Y0170613D02*
X0135400Y0170613D01*
X0140944Y0169814D02*
X0143875Y0169814D01*
X0144610Y0170613D02*
X0141742Y0170613D01*
X0142541Y0171411D02*
X0169869Y0171411D01*
X0169869Y0170613D02*
X0147790Y0170613D01*
X0143339Y0172210D02*
X0169869Y0172210D01*
X0169869Y0173008D02*
X0143600Y0173008D01*
X0143600Y0173807D02*
X0169869Y0173807D01*
X0169869Y0174605D02*
X0143600Y0174605D01*
X0143600Y0175404D02*
X0169869Y0175404D01*
X0169869Y0176202D02*
X0143600Y0176202D01*
X0143129Y0177001D02*
X0169869Y0177001D01*
X0169869Y0177799D02*
X0142330Y0177799D01*
X0141532Y0178598D02*
X0169869Y0178598D01*
X0169869Y0179396D02*
X0140733Y0179396D01*
X0143492Y0180195D02*
X0169869Y0180195D01*
X0169869Y0180993D02*
X0143600Y0180993D01*
X0143600Y0181792D02*
X0169869Y0181792D01*
X0169869Y0182590D02*
X0143600Y0182590D01*
X0143600Y0183389D02*
X0169869Y0183389D01*
X0169869Y0184187D02*
X0143600Y0184187D01*
X0143600Y0184986D02*
X0169869Y0184986D01*
X0169869Y0185784D02*
X0143600Y0185784D01*
X0143600Y0186583D02*
X0169861Y0186583D01*
X0169711Y0187381D02*
X0143600Y0187381D01*
X0143600Y0188180D02*
X0169381Y0188180D01*
X0168694Y0188978D02*
X0143319Y0188978D01*
X0134081Y0188978D02*
X0131151Y0188978D01*
X0131950Y0188180D02*
X0133800Y0188180D01*
X0133800Y0187381D02*
X0132748Y0187381D01*
X0133547Y0186583D02*
X0133800Y0186583D01*
X0133800Y0185784D02*
X0133600Y0185784D01*
X0133600Y0184986D02*
X0133800Y0184986D01*
X0133800Y0184187D02*
X0133600Y0184187D01*
X0133600Y0183389D02*
X0133800Y0183389D01*
X0133800Y0182590D02*
X0133600Y0182590D01*
X0133588Y0181792D02*
X0132921Y0181792D01*
X0132789Y0180993D02*
X0132123Y0180993D01*
X0132000Y0180195D02*
X0131324Y0180195D01*
X0130733Y0179396D02*
X0132000Y0179396D01*
X0132000Y0178598D02*
X0131532Y0178598D01*
X0126667Y0179396D02*
X0126000Y0179396D01*
X0125868Y0178598D02*
X0125500Y0178598D01*
X0122100Y0178598D02*
X0121815Y0178598D01*
X0122100Y0179396D02*
X0121016Y0179396D01*
X0120730Y0179600D02*
X0123600Y0182470D01*
X0123600Y0186530D01*
X0120730Y0189400D01*
X0116670Y0189400D01*
X0113800Y0186530D01*
X0113800Y0182470D01*
X0116670Y0179600D01*
X0120730Y0179600D01*
X0121324Y0180195D02*
X0122100Y0180195D01*
X0122123Y0180993D02*
X0122789Y0180993D01*
X0122921Y0181792D02*
X0123588Y0181792D01*
X0123600Y0182590D02*
X0123800Y0182590D01*
X0123800Y0183389D02*
X0123600Y0183389D01*
X0123600Y0184187D02*
X0123800Y0184187D01*
X0123800Y0184986D02*
X0123600Y0184986D01*
X0123600Y0185784D02*
X0123800Y0185784D01*
X0123853Y0186583D02*
X0123547Y0186583D01*
X0122748Y0187381D02*
X0124652Y0187381D01*
X0125450Y0188180D02*
X0121950Y0188180D01*
X0121151Y0188978D02*
X0126249Y0188978D01*
X0119100Y0179396D02*
X0118300Y0179396D01*
X0118300Y0178598D02*
X0119100Y0178598D01*
X0119100Y0177799D02*
X0118300Y0177799D01*
X0118300Y0177001D02*
X0119100Y0177001D01*
X0119100Y0176202D02*
X0118300Y0176202D01*
X0118300Y0175404D02*
X0119100Y0175404D01*
X0118300Y0174605D02*
X0100943Y0174605D01*
X0101131Y0175404D02*
X0113600Y0175404D01*
X0113600Y0176202D02*
X0101131Y0176202D01*
X0101131Y0177001D02*
X0113988Y0177001D01*
X0114787Y0177799D02*
X0101131Y0177799D01*
X0101131Y0178598D02*
X0115585Y0178598D01*
X0116384Y0179396D02*
X0101131Y0179396D01*
X0101131Y0180195D02*
X0116076Y0180195D01*
X0115277Y0180993D02*
X0101131Y0180993D01*
X0101131Y0181792D02*
X0114479Y0181792D01*
X0113800Y0182590D02*
X0101131Y0182590D01*
X0101131Y0183389D02*
X0113800Y0183389D01*
X0113800Y0184187D02*
X0101131Y0184187D01*
X0101131Y0184986D02*
X0113800Y0184986D01*
X0113800Y0185784D02*
X0101131Y0185784D01*
X0101131Y0186583D02*
X0113853Y0186583D01*
X0114652Y0187381D02*
X0101131Y0187381D01*
X0101232Y0188180D02*
X0115450Y0188180D01*
X0116249Y0188978D02*
X0101631Y0188978D01*
X0102841Y0189777D02*
X0167223Y0189777D01*
X0164800Y0162628D02*
X0161446Y0162628D01*
X0162245Y0161829D02*
X0164800Y0161829D01*
X0164800Y0161031D02*
X0163043Y0161031D01*
X0163300Y0160232D02*
X0164800Y0160232D01*
X0164800Y0159434D02*
X0163300Y0159434D01*
X0163300Y0158635D02*
X0164800Y0158635D01*
X0164800Y0157837D02*
X0163300Y0157837D01*
X0162712Y0157038D02*
X0164800Y0157038D01*
X0164800Y0156239D02*
X0161913Y0156239D01*
X0161115Y0155441D02*
X0164800Y0155441D01*
X0164800Y0154642D02*
X0154865Y0154642D01*
X0154865Y0153844D02*
X0164800Y0153844D01*
X0164800Y0153045D02*
X0154865Y0153045D01*
X0154865Y0152247D02*
X0164800Y0152247D01*
X0164800Y0151448D02*
X0154865Y0151448D01*
X0154865Y0150650D02*
X0164800Y0150650D01*
X0164800Y0149851D02*
X0154829Y0149851D01*
X0153500Y0149053D02*
X0164800Y0149053D01*
X0164800Y0148254D02*
X0153500Y0148254D01*
X0153500Y0147456D02*
X0164800Y0147456D01*
X0164800Y0146657D02*
X0153500Y0146657D01*
X0153500Y0145859D02*
X0164800Y0145859D01*
X0164800Y0145060D02*
X0153500Y0145060D01*
X0153500Y0144262D02*
X0164800Y0144262D01*
X0164800Y0143463D02*
X0153500Y0143463D01*
X0153500Y0142665D02*
X0157891Y0142665D01*
X0158026Y0142800D02*
X0155800Y0140574D01*
X0155800Y0137426D01*
X0157600Y0135626D01*
X0157600Y0133015D01*
X0156938Y0133015D01*
X0156235Y0132312D01*
X0156235Y0127381D01*
X0156938Y0126678D01*
X0162262Y0126678D01*
X0162965Y0127381D01*
X0162965Y0132312D01*
X0162262Y0133015D01*
X0161600Y0133015D01*
X0161600Y0135626D01*
X0163400Y0137426D01*
X0163400Y0140574D01*
X0161174Y0142800D01*
X0158026Y0142800D01*
X0157092Y0141866D02*
X0153500Y0141866D01*
X0153500Y0141068D02*
X0156294Y0141068D01*
X0155800Y0140269D02*
X0153500Y0140269D01*
X0153500Y0139471D02*
X0155800Y0139471D01*
X0155800Y0138672D02*
X0153500Y0138672D01*
X0153500Y0137874D02*
X0155800Y0137874D01*
X0156151Y0137075D02*
X0153500Y0137075D01*
X0153500Y0136277D02*
X0156949Y0136277D01*
X0157600Y0135478D02*
X0153500Y0135478D01*
X0153500Y0134680D02*
X0157600Y0134680D01*
X0157600Y0133881D02*
X0153500Y0133881D01*
X0153500Y0133083D02*
X0157600Y0133083D01*
X0156235Y0132284D02*
X0153500Y0132284D01*
X0153500Y0131486D02*
X0156235Y0131486D01*
X0156235Y0130687D02*
X0153500Y0130687D01*
X0153409Y0129889D02*
X0156235Y0129889D01*
X0156235Y0129090D02*
X0153079Y0129090D01*
X0152748Y0128292D02*
X0156235Y0128292D01*
X0156235Y0127493D02*
X0152393Y0127493D01*
X0152434Y0127535D02*
X0152434Y0127535D01*
X0151594Y0126695D02*
X0156921Y0126695D01*
X0156938Y0126322D02*
X0156235Y0125619D01*
X0156235Y0120688D01*
X0156938Y0119985D01*
X0157600Y0119985D01*
X0157600Y0114691D01*
X0157432Y0114523D01*
X0157023Y0113535D01*
X0157023Y0112465D01*
X0157432Y0111477D01*
X0158189Y0110720D01*
X0159177Y0110311D01*
X0160247Y0110311D01*
X0161235Y0110720D01*
X0161991Y0111477D01*
X0162401Y0112465D01*
X0162401Y0113535D01*
X0161991Y0114523D01*
X0161600Y0114915D01*
X0161600Y0119985D01*
X0162262Y0119985D01*
X0162965Y0120688D01*
X0162965Y0125619D01*
X0162262Y0126322D01*
X0156938Y0126322D01*
X0156512Y0125896D02*
X0150796Y0125896D01*
X0150465Y0125566D02*
X0150465Y0125566D01*
X0149335Y0125098D02*
X0156235Y0125098D01*
X0156235Y0124299D02*
X0146115Y0124299D01*
X0146000Y0123501D02*
X0156235Y0123501D01*
X0156235Y0122702D02*
X0146000Y0122702D01*
X0146000Y0121903D02*
X0156235Y0121903D01*
X0156235Y0121105D02*
X0146000Y0121105D01*
X0146000Y0120306D02*
X0156616Y0120306D01*
X0157600Y0119508D02*
X0146000Y0119508D01*
X0146000Y0118709D02*
X0157600Y0118709D01*
X0157600Y0117911D02*
X0146000Y0117911D01*
X0146000Y0117112D02*
X0157600Y0117112D01*
X0157600Y0116314D02*
X0146000Y0116314D01*
X0146000Y0115515D02*
X0157600Y0115515D01*
X0157600Y0114717D02*
X0146000Y0114717D01*
X0146000Y0113918D02*
X0157182Y0113918D01*
X0157023Y0113120D02*
X0146000Y0113120D01*
X0146000Y0112321D02*
X0157082Y0112321D01*
X0157413Y0111523D02*
X0146000Y0111523D01*
X0146000Y0110724D02*
X0158185Y0110724D01*
X0161239Y0110724D02*
X0164800Y0110724D01*
X0164800Y0109926D02*
X0146000Y0109926D01*
X0146175Y0109127D02*
X0164800Y0109127D01*
X0164800Y0108329D02*
X0146567Y0108329D01*
X0141825Y0109127D02*
X0136865Y0109127D01*
X0136865Y0108329D02*
X0141433Y0108329D01*
X0141311Y0107530D02*
X0136865Y0107530D01*
X0136865Y0107381D02*
X0136865Y0112312D01*
X0136162Y0113015D01*
X0130838Y0113015D01*
X0130135Y0112312D01*
X0130135Y0111846D01*
X0129668Y0111846D01*
X0129668Y0112509D01*
X0128966Y0113212D01*
X0124034Y0113212D01*
X0123331Y0112509D01*
X0123331Y0111211D01*
X0122495Y0111463D01*
X0121572Y0112270D01*
X0121375Y0112706D01*
X0121689Y0113465D01*
X0121689Y0114508D01*
X0121977Y0114220D01*
X0122965Y0113811D01*
X0124035Y0113811D01*
X0125023Y0114220D01*
X0125780Y0114977D01*
X0126189Y0115965D01*
X0126189Y0117035D01*
X0125780Y0118023D01*
X0125500Y0118303D01*
X0125500Y0119485D01*
X0126162Y0119485D01*
X0126865Y0120188D01*
X0126865Y0125119D01*
X0126162Y0125822D01*
X0121000Y0125822D01*
X0121000Y0126178D01*
X0126162Y0126178D01*
X0126305Y0126321D01*
X0127426Y0125200D01*
X0130574Y0125200D01*
X0132800Y0127426D01*
X0132800Y0130574D01*
X0130574Y0132800D01*
X0127426Y0132800D01*
X0126652Y0132026D01*
X0126162Y0132515D01*
X0121000Y0132515D01*
X0121000Y0139485D01*
X0121662Y0139485D01*
X0122365Y0140188D01*
X0122365Y0145119D01*
X0121662Y0145822D01*
X0116338Y0145822D01*
X0115635Y0145119D01*
X0115635Y0140188D01*
X0116338Y0139485D01*
X0117000Y0139485D01*
X0117000Y0115803D01*
X0116720Y0115523D01*
X0116311Y0114535D01*
X0116311Y0113465D01*
X0116720Y0112477D01*
X0117258Y0111939D01*
X0118233Y0109790D01*
X0120480Y0107824D01*
X0123338Y0106963D01*
X0123527Y0106988D01*
X0123827Y0106689D01*
X0122765Y0106689D01*
X0121777Y0106280D01*
X0121020Y0105523D01*
X0120963Y0105385D01*
X0120662Y0106112D01*
X0119593Y0107181D01*
X0118196Y0107759D01*
X0116685Y0107759D01*
X0115288Y0107181D01*
X0114219Y0106112D01*
X0113641Y0104715D01*
X0113641Y0103204D01*
X0114219Y0101807D01*
X0115288Y0100738D01*
X0115339Y0100717D01*
X0115331Y0100709D01*
X0115331Y0095384D01*
X0115928Y0094787D01*
X0115672Y0094639D01*
X0115411Y0094379D01*
X0115227Y0094059D01*
X0115131Y0093703D01*
X0115131Y0091754D01*
X0118100Y0091754D01*
X0118100Y0090954D01*
X0115131Y0090954D01*
X0115131Y0089004D01*
X0115227Y0088648D01*
X0115411Y0088329D01*
X0115672Y0088068D01*
X0115991Y0087884D01*
X0116347Y0087788D01*
X0118100Y0087788D01*
X0118100Y0090953D01*
X0118900Y0090953D01*
X0118900Y0087788D01*
X0120653Y0087788D01*
X0121009Y0087884D01*
X0121328Y0088068D01*
X0121589Y0088329D01*
X0121773Y0088648D01*
X0121868Y0089004D01*
X0121868Y0090954D01*
X0118900Y0090954D01*
X0118900Y0091754D01*
X0121868Y0091754D01*
X0121868Y0093703D01*
X0121773Y0094059D01*
X0121589Y0094379D01*
X0121328Y0094639D01*
X0121072Y0094787D01*
X0121668Y0095384D01*
X0121668Y0100709D01*
X0120966Y0101412D01*
X0120900Y0101412D01*
X0120900Y0102381D01*
X0120980Y0102574D01*
X0121020Y0102477D01*
X0121777Y0101720D01*
X0122765Y0101311D01*
X0123331Y0101311D01*
X0123331Y0100491D01*
X0124034Y0099788D01*
X0128966Y0099788D01*
X0129668Y0100491D01*
X0129668Y0101154D01*
X0130135Y0101154D01*
X0130135Y0100688D01*
X0130838Y0099985D01*
X0136162Y0099985D01*
X0136865Y0100688D01*
X0136865Y0105619D01*
X0136162Y0106322D01*
X0130838Y0106322D01*
X0130135Y0105619D01*
X0130135Y0105154D01*
X0129668Y0105154D01*
X0129668Y0105816D01*
X0128984Y0106500D01*
X0129668Y0107184D01*
X0129668Y0107846D01*
X0130135Y0107846D01*
X0130135Y0107381D01*
X0130838Y0106678D01*
X0136162Y0106678D01*
X0136865Y0107381D01*
X0136216Y0106732D02*
X0141408Y0106732D01*
X0141764Y0105933D02*
X0136551Y0105933D01*
X0136865Y0105135D02*
X0142564Y0105135D01*
X0142934Y0104336D02*
X0136865Y0104336D01*
X0136865Y0103538D02*
X0143830Y0103538D01*
X0142961Y0104276D02*
X0142961Y0104276D01*
X0144900Y0102739D02*
X0136865Y0102739D01*
X0136865Y0101941D02*
X0146075Y0101941D01*
X0144139Y0101142D02*
X0136865Y0101142D01*
X0136521Y0100344D02*
X0143446Y0100344D01*
X0143115Y0099545D02*
X0121668Y0099545D01*
X0121668Y0098747D02*
X0143111Y0098747D01*
X0143325Y0097948D02*
X0121668Y0097948D01*
X0121668Y0097150D02*
X0143848Y0097150D01*
X0145168Y0096351D02*
X0121668Y0096351D01*
X0121668Y0095553D02*
X0145770Y0095553D01*
X0152230Y0095553D02*
X0153831Y0095553D01*
X0160168Y0095553D02*
X0164800Y0095553D01*
X0164800Y0096351D02*
X0160168Y0096351D01*
X0160168Y0097150D02*
X0164800Y0097150D01*
X0164800Y0097948D02*
X0160168Y0097948D01*
X0160168Y0098747D02*
X0164800Y0098747D01*
X0164800Y0099545D02*
X0160168Y0099545D01*
X0160168Y0100344D02*
X0164800Y0100344D01*
X0164800Y0101142D02*
X0159842Y0101142D01*
X0159925Y0101941D02*
X0164800Y0101941D01*
X0164800Y0102739D02*
X0160168Y0102739D01*
X0160168Y0103538D02*
X0164800Y0103538D01*
X0164800Y0104336D02*
X0160168Y0104336D01*
X0160168Y0105135D02*
X0164800Y0105135D01*
X0164800Y0105933D02*
X0160168Y0105933D01*
X0160168Y0106732D02*
X0164800Y0106732D01*
X0164800Y0107530D02*
X0160147Y0107530D01*
X0162010Y0111523D02*
X0164800Y0111523D01*
X0164800Y0112321D02*
X0162341Y0112321D01*
X0162401Y0113120D02*
X0164800Y0113120D01*
X0164800Y0113918D02*
X0162242Y0113918D01*
X0161798Y0114717D02*
X0164800Y0114717D01*
X0164800Y0115515D02*
X0161600Y0115515D01*
X0161600Y0116314D02*
X0164800Y0116314D01*
X0164800Y0117112D02*
X0161600Y0117112D01*
X0161600Y0117911D02*
X0164800Y0117911D01*
X0164800Y0118709D02*
X0161600Y0118709D01*
X0161600Y0119508D02*
X0164800Y0119508D01*
X0164800Y0120306D02*
X0162584Y0120306D01*
X0162965Y0121105D02*
X0164800Y0121105D01*
X0164800Y0121903D02*
X0162965Y0121903D01*
X0162965Y0122702D02*
X0164800Y0122702D01*
X0164800Y0123501D02*
X0162965Y0123501D01*
X0162965Y0124299D02*
X0164800Y0124299D01*
X0164800Y0125098D02*
X0162965Y0125098D01*
X0162688Y0125896D02*
X0164800Y0125896D01*
X0164800Y0126695D02*
X0162279Y0126695D01*
X0162965Y0127493D02*
X0164800Y0127493D01*
X0164800Y0128292D02*
X0162965Y0128292D01*
X0162965Y0129090D02*
X0164800Y0129090D01*
X0164800Y0129889D02*
X0162965Y0129889D01*
X0162965Y0130687D02*
X0164800Y0130687D01*
X0164800Y0131486D02*
X0162965Y0131486D01*
X0162965Y0132284D02*
X0164800Y0132284D01*
X0164800Y0133083D02*
X0161600Y0133083D01*
X0161600Y0133881D02*
X0164800Y0133881D01*
X0164800Y0134680D02*
X0161600Y0134680D01*
X0161600Y0135478D02*
X0164800Y0135478D01*
X0164800Y0136277D02*
X0162251Y0136277D01*
X0163049Y0137075D02*
X0164800Y0137075D01*
X0164800Y0137874D02*
X0163400Y0137874D01*
X0163400Y0138672D02*
X0164800Y0138672D01*
X0164800Y0139471D02*
X0163400Y0139471D01*
X0163400Y0140269D02*
X0164800Y0140269D01*
X0164800Y0141068D02*
X0162906Y0141068D01*
X0162108Y0141866D02*
X0164800Y0141866D01*
X0164800Y0142665D02*
X0161309Y0142665D01*
X0149500Y0142665D02*
X0141309Y0142665D01*
X0141174Y0142800D02*
X0138026Y0142800D01*
X0135800Y0140574D01*
X0135800Y0137426D01*
X0138026Y0135200D01*
X0141174Y0135200D01*
X0143400Y0137426D01*
X0143400Y0140574D01*
X0141174Y0142800D01*
X0142108Y0141866D02*
X0149500Y0141866D01*
X0149500Y0141068D02*
X0142906Y0141068D01*
X0143400Y0140269D02*
X0149500Y0140269D01*
X0149500Y0139471D02*
X0143400Y0139471D01*
X0143400Y0138672D02*
X0149500Y0138672D01*
X0149500Y0137874D02*
X0143400Y0137874D01*
X0143049Y0137075D02*
X0149500Y0137075D01*
X0149500Y0136277D02*
X0142251Y0136277D01*
X0141452Y0135478D02*
X0149500Y0135478D01*
X0149500Y0134680D02*
X0121000Y0134680D01*
X0121000Y0135478D02*
X0137748Y0135478D01*
X0136949Y0136277D02*
X0121000Y0136277D01*
X0121000Y0137075D02*
X0136151Y0137075D01*
X0135800Y0137874D02*
X0121000Y0137874D01*
X0121000Y0138672D02*
X0135800Y0138672D01*
X0135800Y0139471D02*
X0121000Y0139471D01*
X0122365Y0140269D02*
X0135800Y0140269D01*
X0136294Y0141068D02*
X0122365Y0141068D01*
X0122365Y0141866D02*
X0137092Y0141866D01*
X0137891Y0142665D02*
X0122365Y0142665D01*
X0122365Y0143463D02*
X0149500Y0143463D01*
X0149500Y0144262D02*
X0122365Y0144262D01*
X0122365Y0145060D02*
X0149500Y0145060D01*
X0149500Y0145859D02*
X0130733Y0145859D01*
X0130574Y0145700D02*
X0132800Y0147926D01*
X0132800Y0151074D01*
X0130574Y0153300D01*
X0127426Y0153300D01*
X0125472Y0151346D01*
X0122365Y0151346D01*
X0122365Y0151812D01*
X0121662Y0152515D01*
X0116338Y0152515D01*
X0115635Y0151812D01*
X0115635Y0146881D01*
X0116338Y0146178D01*
X0121662Y0146178D01*
X0122365Y0146881D01*
X0122365Y0147346D01*
X0125780Y0147346D01*
X0127426Y0145700D01*
X0130574Y0145700D01*
X0131531Y0146657D02*
X0149500Y0146657D01*
X0149500Y0147456D02*
X0132330Y0147456D01*
X0132800Y0148254D02*
X0149500Y0148254D01*
X0149500Y0149053D02*
X0132800Y0149053D01*
X0132800Y0149851D02*
X0148171Y0149851D01*
X0148135Y0150650D02*
X0132800Y0150650D01*
X0132426Y0151448D02*
X0148135Y0151448D01*
X0148135Y0152247D02*
X0131627Y0152247D01*
X0130829Y0153045D02*
X0148135Y0153045D01*
X0148135Y0153844D02*
X0098200Y0153844D01*
X0098200Y0154642D02*
X0148135Y0154642D01*
X0154243Y0155441D02*
X0157885Y0155441D01*
X0157087Y0156239D02*
X0154524Y0156239D01*
X0154865Y0157038D02*
X0156288Y0157038D01*
X0156755Y0161829D02*
X0154548Y0161829D01*
X0157554Y0162628D02*
X0141446Y0162628D01*
X0135868Y0178598D02*
X0135400Y0178598D01*
X0136000Y0179396D02*
X0136667Y0179396D01*
X0122100Y0170613D02*
X0122025Y0170613D01*
X0122100Y0169814D02*
X0121227Y0169814D01*
X0121813Y0169016D02*
X0089286Y0169016D01*
X0089286Y0169814D02*
X0116173Y0169814D01*
X0115375Y0170613D02*
X0089247Y0170613D01*
X0089286Y0167419D02*
X0120911Y0167419D01*
X0120911Y0166620D02*
X0089286Y0166620D01*
X0089286Y0165822D02*
X0121178Y0165822D01*
X0121194Y0168217D02*
X0086317Y0168217D01*
X0085517Y0168217D02*
X0081842Y0168217D01*
X0082549Y0168519D02*
X0085517Y0168519D01*
X0085517Y0167719D01*
X0082549Y0167719D01*
X0082549Y0165770D01*
X0082644Y0165413D01*
X0082828Y0165094D01*
X0083089Y0164834D01*
X0083345Y0164686D01*
X0082749Y0164089D01*
X0082749Y0162867D01*
X0081842Y0162867D01*
X0081842Y0163829D01*
X0081139Y0164532D01*
X0075027Y0164532D01*
X0074324Y0163829D01*
X0074324Y0158504D01*
X0074462Y0158366D01*
X0072696Y0156600D01*
X0071700Y0155604D01*
X0071700Y0155142D01*
X0069041Y0157801D01*
X0072084Y0157801D01*
X0072787Y0158504D01*
X0072787Y0163829D01*
X0072084Y0164532D01*
X0066400Y0164532D01*
X0066400Y0164888D01*
X0072084Y0164888D01*
X0072787Y0165591D01*
X0072787Y0170916D01*
X0072434Y0171269D01*
X0074677Y0171269D01*
X0074324Y0170916D01*
X0074324Y0165591D01*
X0075027Y0164888D01*
X0081139Y0164888D01*
X0081842Y0165591D01*
X0081842Y0170916D01*
X0081489Y0171269D01*
X0082953Y0171269D01*
X0082828Y0171144D01*
X0082644Y0170825D01*
X0082549Y0170469D01*
X0082549Y0168519D01*
X0082549Y0169016D02*
X0081842Y0169016D01*
X0081842Y0169814D02*
X0082549Y0169814D01*
X0082587Y0170613D02*
X0081842Y0170613D01*
X0081842Y0167419D02*
X0082549Y0167419D01*
X0082549Y0166620D02*
X0081842Y0166620D01*
X0081842Y0165822D02*
X0082549Y0165822D01*
X0082900Y0165023D02*
X0081274Y0165023D01*
X0081447Y0164225D02*
X0082885Y0164225D01*
X0082749Y0163426D02*
X0081842Y0163426D01*
X0081842Y0159434D02*
X0082749Y0159434D01*
X0082878Y0158635D02*
X0081842Y0158635D01*
X0081174Y0157837D02*
X0092400Y0157837D01*
X0092400Y0157038D02*
X0080095Y0157038D01*
X0080893Y0156239D02*
X0092400Y0156239D01*
X0092400Y0155441D02*
X0081692Y0155441D01*
X0082490Y0154642D02*
X0092400Y0154642D01*
X0092400Y0153844D02*
X0083289Y0153844D01*
X0084087Y0153045D02*
X0092400Y0153045D01*
X0092400Y0152247D02*
X0084886Y0152247D01*
X0085684Y0151448D02*
X0092400Y0151448D01*
X0092400Y0150650D02*
X0086483Y0150650D01*
X0087281Y0149851D02*
X0092400Y0149851D01*
X0092400Y0149053D02*
X0088080Y0149053D01*
X0088878Y0148254D02*
X0092400Y0148254D01*
X0092400Y0147456D02*
X0089677Y0147456D01*
X0090475Y0146657D02*
X0092400Y0146657D01*
X0092400Y0145859D02*
X0091274Y0145859D01*
X0092072Y0145060D02*
X0092400Y0145060D01*
X0097063Y0140269D02*
X0115635Y0140269D01*
X0115635Y0141068D02*
X0097862Y0141068D01*
X0098200Y0141866D02*
X0115635Y0141866D01*
X0115635Y0142665D02*
X0098200Y0142665D01*
X0098200Y0143463D02*
X0115635Y0143463D01*
X0115635Y0144262D02*
X0098200Y0144262D01*
X0098200Y0145060D02*
X0115635Y0145060D01*
X0115858Y0146657D02*
X0111531Y0146657D01*
X0110733Y0145859D02*
X0127267Y0145859D01*
X0126469Y0146657D02*
X0122142Y0146657D01*
X0122365Y0151448D02*
X0125574Y0151448D01*
X0126373Y0152247D02*
X0121930Y0152247D01*
X0127171Y0153045D02*
X0110829Y0153045D01*
X0110574Y0153300D02*
X0107426Y0153300D01*
X0105200Y0151074D01*
X0105200Y0147926D01*
X0107426Y0145700D01*
X0110574Y0145700D01*
X0112800Y0147926D01*
X0112800Y0151074D01*
X0110574Y0153300D01*
X0111627Y0152247D02*
X0116070Y0152247D01*
X0115635Y0151448D02*
X0112426Y0151448D01*
X0112800Y0150650D02*
X0115635Y0150650D01*
X0115635Y0149851D02*
X0112800Y0149851D01*
X0112800Y0149053D02*
X0115635Y0149053D01*
X0115635Y0148254D02*
X0112800Y0148254D01*
X0112330Y0147456D02*
X0115635Y0147456D01*
X0117000Y0139471D02*
X0096891Y0139471D01*
X0096315Y0138672D02*
X0117000Y0138672D01*
X0117000Y0137874D02*
X0095516Y0137874D01*
X0094718Y0137075D02*
X0117000Y0137075D01*
X0117000Y0136277D02*
X0094806Y0136277D01*
X0096025Y0135478D02*
X0117000Y0135478D01*
X0117000Y0134680D02*
X0096505Y0134680D01*
X0096689Y0133881D02*
X0117000Y0133881D01*
X0117000Y0133083D02*
X0096655Y0133083D01*
X0096324Y0132284D02*
X0106910Y0132284D01*
X0107426Y0132800D02*
X0105200Y0130574D01*
X0105200Y0127426D01*
X0107426Y0125200D01*
X0110574Y0125200D01*
X0112800Y0127426D01*
X0112800Y0130574D01*
X0110574Y0132800D01*
X0107426Y0132800D01*
X0106112Y0131486D02*
X0095700Y0131486D01*
X0096155Y0130687D02*
X0105313Y0130687D01*
X0105200Y0129889D02*
X0096891Y0129889D01*
X0097774Y0129090D02*
X0105200Y0129090D01*
X0105200Y0128292D02*
X0098572Y0128292D01*
X0099371Y0127493D02*
X0105200Y0127493D01*
X0105931Y0126695D02*
X0100169Y0126695D01*
X0100968Y0125896D02*
X0106730Y0125896D01*
X0109220Y0123023D02*
X0108811Y0122035D01*
X0108811Y0120965D01*
X0109220Y0119977D01*
X0109977Y0119220D01*
X0110509Y0119000D01*
X0109977Y0118780D01*
X0109220Y0118023D01*
X0108811Y0117035D01*
X0108811Y0115965D01*
X0109220Y0114977D01*
X0109977Y0114220D01*
X0110965Y0113811D01*
X0112035Y0113811D01*
X0113023Y0114220D01*
X0113780Y0114977D01*
X0114189Y0115965D01*
X0114189Y0117035D01*
X0113780Y0118023D01*
X0113023Y0118780D01*
X0112491Y0119000D01*
X0113023Y0119220D01*
X0113780Y0119977D01*
X0114189Y0120965D01*
X0114189Y0122035D01*
X0113780Y0123023D01*
X0113023Y0123780D01*
X0112035Y0124189D01*
X0110965Y0124189D01*
X0109977Y0123780D01*
X0109220Y0123023D01*
X0109087Y0122702D02*
X0103735Y0122702D01*
X0103646Y0123501D02*
X0109698Y0123501D01*
X0108811Y0121903D02*
X0105243Y0121903D01*
X0106038Y0121105D02*
X0108811Y0121105D01*
X0109084Y0120306D02*
X0106314Y0120306D01*
X0106100Y0119508D02*
X0109689Y0119508D01*
X0109907Y0118709D02*
X0105350Y0118709D01*
X0104239Y0118709D02*
X0103108Y0118709D01*
X0103441Y0119508D02*
X0102309Y0119508D01*
X0101991Y0119827D02*
X0101425Y0120392D01*
X0099326Y0118293D01*
X0099322Y0118297D01*
X0097696Y0116670D01*
X0098261Y0116104D01*
X0100360Y0118203D01*
X0100364Y0118200D01*
X0101991Y0119827D01*
X0101672Y0119508D02*
X0100541Y0119508D01*
X0100873Y0118709D02*
X0099742Y0118709D01*
X0100068Y0117911D02*
X0098936Y0117911D01*
X0099269Y0117112D02*
X0098138Y0117112D01*
X0098052Y0116314D02*
X0098471Y0116314D01*
X0098850Y0115515D02*
X0097719Y0115515D01*
X0097672Y0115515D02*
X0096541Y0115515D01*
X0096874Y0114717D02*
X0095742Y0114717D01*
X0096075Y0113918D02*
X0092212Y0113918D01*
X0092138Y0113992D02*
X0091144Y0113992D01*
X0087379Y0110227D01*
X0087379Y0109957D01*
X0087208Y0109957D01*
X0083443Y0106192D01*
X0083443Y0105197D01*
X0086930Y0101711D01*
X0087924Y0101711D01*
X0087988Y0101774D01*
X0088865Y0101411D01*
X0089198Y0101411D01*
X0088811Y0101024D01*
X0088811Y0100030D01*
X0092297Y0096543D01*
X0093292Y0096543D01*
X0097057Y0100308D01*
X0097057Y0101303D01*
X0097048Y0101311D01*
X0097918Y0101311D01*
X0101683Y0105076D01*
X0101683Y0106070D01*
X0098196Y0109557D01*
X0097202Y0109557D01*
X0096156Y0108511D01*
X0095442Y0108505D01*
X0095437Y0108500D01*
X0095403Y0108500D01*
X0095008Y0108895D01*
X0095625Y0109511D01*
X0095625Y0110505D01*
X0092138Y0113992D01*
X0091070Y0113918D02*
X0090567Y0113918D01*
X0090272Y0113120D02*
X0089768Y0113120D01*
X0089473Y0112321D02*
X0088970Y0112321D01*
X0088675Y0111523D02*
X0088171Y0111523D01*
X0087876Y0110724D02*
X0087373Y0110724D01*
X0087178Y0109926D02*
X0086674Y0109926D01*
X0086379Y0109127D02*
X0085876Y0109127D01*
X0085580Y0108329D02*
X0085077Y0108329D01*
X0084782Y0107530D02*
X0084279Y0107530D01*
X0083983Y0106732D02*
X0083480Y0106732D01*
X0083443Y0105933D02*
X0079865Y0105933D01*
X0079865Y0105135D02*
X0083506Y0105135D01*
X0084304Y0104336D02*
X0079221Y0104336D01*
X0079547Y0103538D02*
X0085103Y0103538D01*
X0085901Y0102739D02*
X0079865Y0102739D01*
X0079865Y0101941D02*
X0086700Y0101941D01*
X0088929Y0101142D02*
X0079865Y0101142D01*
X0079865Y0100344D02*
X0088811Y0100344D01*
X0089296Y0099545D02*
X0079936Y0099545D01*
X0080189Y0098747D02*
X0090094Y0098747D01*
X0090893Y0097948D02*
X0080189Y0097948D01*
X0079893Y0097150D02*
X0091691Y0097150D01*
X0093439Y0096335D02*
X0093343Y0095979D01*
X0093343Y0095610D01*
X0093439Y0095254D01*
X0093623Y0094935D01*
X0094862Y0093695D01*
X0097101Y0095934D01*
X0095002Y0098033D01*
X0093623Y0096654D01*
X0093439Y0096335D01*
X0093448Y0096351D02*
X0079254Y0096351D01*
X0078800Y0095553D02*
X0093359Y0095553D01*
X0093804Y0094754D02*
X0078800Y0094754D01*
X0079522Y0093956D02*
X0094602Y0093956D01*
X0095123Y0093956D02*
X0096254Y0093956D01*
X0095921Y0094754D02*
X0097052Y0094754D01*
X0096720Y0095553D02*
X0097482Y0095553D01*
X0097666Y0095368D02*
X0097101Y0095934D01*
X0097666Y0096499D01*
X0095567Y0098598D01*
X0096946Y0099977D01*
X0097265Y0100161D01*
X0097621Y0100257D01*
X0097990Y0100257D01*
X0098003Y0100253D01*
X0097970Y0100378D01*
X0097970Y0100747D01*
X0098065Y0101103D01*
X0098249Y0101422D01*
X0099628Y0102800D01*
X0101727Y0100701D01*
X0102293Y0100136D01*
X0102858Y0100701D01*
X0104957Y0098602D01*
X0106336Y0099981D01*
X0106520Y0100300D01*
X0106616Y0100656D01*
X0106616Y0101025D01*
X0106520Y0101381D01*
X0106336Y0101700D01*
X0105097Y0102940D01*
X0102858Y0100701D01*
X0102293Y0101267D01*
X0104531Y0103505D01*
X0103291Y0104745D01*
X0102972Y0104929D01*
X0102616Y0105025D01*
X0102248Y0105025D01*
X0101891Y0104929D01*
X0101572Y0104745D01*
X0100194Y0103366D01*
X0102293Y0101267D01*
X0101727Y0100701D01*
X0099834Y0098808D01*
X0099905Y0098738D01*
X0097666Y0096499D01*
X0098232Y0095934D01*
X0100125Y0097827D01*
X0100054Y0097898D01*
X0102293Y0100136D01*
X0104392Y0098037D01*
X0103844Y0097489D01*
X0104035Y0097489D01*
X0104396Y0097339D01*
X0104720Y0098123D01*
X0105477Y0098880D01*
X0106465Y0099289D01*
X0107511Y0099289D01*
X0107511Y0099935D01*
X0107920Y0100923D01*
X0108677Y0101680D01*
X0109665Y0102089D01*
X0110735Y0102089D01*
X0111723Y0101680D01*
X0112480Y0100923D01*
X0112889Y0099935D01*
X0112889Y0098865D01*
X0112480Y0097877D01*
X0111900Y0097297D01*
X0111900Y0094668D01*
X0112809Y0094668D01*
X0113512Y0093966D01*
X0113512Y0089034D01*
X0112809Y0088331D01*
X0108500Y0088331D01*
X0108500Y0088012D01*
X0110066Y0088012D01*
X0110768Y0087309D01*
X0110768Y0081984D01*
X0110084Y0081300D01*
X0110768Y0080616D01*
X0110768Y0075291D01*
X0110066Y0074588D01*
X0105365Y0074588D01*
X0105365Y0072592D01*
X0107204Y0070754D01*
X0107576Y0070382D01*
X0108117Y0070382D01*
X0110461Y0068039D01*
X0110461Y0064725D01*
X0108117Y0062382D01*
X0104804Y0062382D01*
X0102461Y0064725D01*
X0102461Y0068039D01*
X0103786Y0069364D01*
X0102764Y0070385D01*
X0099338Y0070385D01*
X0098758Y0070965D01*
X0098673Y0070648D01*
X0098489Y0070329D01*
X0098471Y0070311D01*
X0100661Y0068122D01*
X0100661Y0066782D01*
X0096861Y0066782D01*
X0096861Y0065982D01*
X0100661Y0065982D01*
X0100661Y0064642D01*
X0098200Y0062182D01*
X0096861Y0062182D01*
X0096861Y0065982D01*
X0096061Y0065982D01*
X0096061Y0062182D01*
X0094721Y0062182D01*
X0092261Y0064642D01*
X0092261Y0065982D01*
X0096061Y0065982D01*
X0096061Y0066782D01*
X0092261Y0066782D01*
X0092261Y0068122D01*
X0093927Y0069788D01*
X0093247Y0069788D01*
X0092891Y0069884D01*
X0092572Y0070068D01*
X0092311Y0070329D01*
X0092127Y0070648D01*
X0092031Y0071004D01*
X0092031Y0072954D01*
X0095000Y0072954D01*
X0095000Y0073754D01*
X0092031Y0073754D01*
X0092031Y0075703D01*
X0092127Y0076059D01*
X0092311Y0076379D01*
X0092572Y0076639D01*
X0092828Y0076787D01*
X0092231Y0077384D01*
X0092231Y0082709D01*
X0092573Y0083050D01*
X0092185Y0083438D01*
X0092185Y0088762D01*
X0092888Y0089465D01*
X0097819Y0089465D01*
X0098522Y0088762D01*
X0098522Y0083438D01*
X0098181Y0083096D01*
X0098568Y0082709D01*
X0098568Y0081946D01*
X0098635Y0081946D01*
X0098635Y0082712D01*
X0099119Y0083196D01*
X0098878Y0083438D01*
X0098878Y0088762D01*
X0099581Y0089465D01*
X0100088Y0089465D01*
X0100088Y0093966D01*
X0100144Y0094021D01*
X0098232Y0095934D01*
X0097666Y0095368D01*
X0095428Y0093130D01*
X0096668Y0091890D01*
X0096987Y0091706D01*
X0097343Y0091611D01*
X0097711Y0091611D01*
X0098068Y0091706D01*
X0098387Y0091890D01*
X0099765Y0093269D01*
X0097666Y0095368D01*
X0097851Y0095553D02*
X0098613Y0095553D01*
X0098649Y0096351D02*
X0097815Y0096351D01*
X0097518Y0096351D02*
X0096683Y0096351D01*
X0097016Y0097150D02*
X0095885Y0097150D01*
X0096217Y0097948D02*
X0095086Y0097948D01*
X0094917Y0097948D02*
X0094696Y0097948D01*
X0094119Y0097150D02*
X0093898Y0097150D01*
X0095495Y0098747D02*
X0095716Y0098747D01*
X0096294Y0099545D02*
X0096514Y0099545D01*
X0097057Y0100344D02*
X0097979Y0100344D01*
X0098088Y0101142D02*
X0097057Y0101142D01*
X0098548Y0101941D02*
X0098768Y0101941D01*
X0099346Y0102739D02*
X0099567Y0102739D01*
X0099689Y0102739D02*
X0100821Y0102739D01*
X0100488Y0101941D02*
X0101619Y0101941D01*
X0101286Y0101142D02*
X0102168Y0101142D01*
X0102418Y0101142D02*
X0103299Y0101142D01*
X0103216Y0100344D02*
X0102501Y0100344D01*
X0102085Y0100344D02*
X0101369Y0100344D01*
X0101702Y0099545D02*
X0100571Y0099545D01*
X0100904Y0098747D02*
X0099895Y0098747D01*
X0100105Y0097948D02*
X0099115Y0097948D01*
X0099448Y0097150D02*
X0098317Y0097150D01*
X0098280Y0094754D02*
X0099412Y0094754D01*
X0099079Y0093956D02*
X0100088Y0093956D01*
X0100088Y0093157D02*
X0099653Y0093157D01*
X0100088Y0092359D02*
X0098855Y0092359D01*
X0100088Y0091560D02*
X0080165Y0091560D01*
X0080165Y0090762D02*
X0100088Y0090762D01*
X0100088Y0089963D02*
X0080165Y0089963D01*
X0080165Y0089165D02*
X0092587Y0089165D01*
X0092185Y0088366D02*
X0080150Y0088366D01*
X0080208Y0086769D02*
X0092185Y0086769D01*
X0092185Y0085970D02*
X0080365Y0085970D01*
X0080365Y0085172D02*
X0092185Y0085172D01*
X0092185Y0084373D02*
X0077200Y0084373D01*
X0077200Y0083575D02*
X0076400Y0083575D01*
X0076400Y0082776D02*
X0077200Y0082776D01*
X0077200Y0081978D02*
X0076400Y0081978D01*
X0076400Y0081179D02*
X0077200Y0081179D01*
X0079940Y0081179D02*
X0084577Y0081179D01*
X0084220Y0080823D02*
X0083811Y0079835D01*
X0083811Y0078765D01*
X0084220Y0077777D01*
X0084900Y0077097D01*
X0084900Y0070382D01*
X0084804Y0070382D01*
X0082461Y0068039D01*
X0082461Y0064725D01*
X0084804Y0062382D01*
X0088117Y0062382D01*
X0090461Y0064725D01*
X0090461Y0068039D01*
X0088117Y0070382D01*
X0088100Y0070382D01*
X0088100Y0077097D01*
X0088780Y0077777D01*
X0089189Y0078765D01*
X0089189Y0079835D01*
X0088780Y0080823D01*
X0088023Y0081580D01*
X0087035Y0081989D01*
X0085965Y0081989D01*
X0084977Y0081580D01*
X0084220Y0080823D01*
X0084037Y0080381D02*
X0074200Y0080381D01*
X0074200Y0079582D02*
X0083811Y0079582D01*
X0083811Y0078784D02*
X0074200Y0078784D01*
X0074200Y0077985D02*
X0084134Y0077985D01*
X0084810Y0077187D02*
X0074200Y0077187D01*
X0074200Y0076388D02*
X0084900Y0076388D01*
X0084900Y0075590D02*
X0074200Y0075590D01*
X0074713Y0074791D02*
X0084900Y0074791D01*
X0084900Y0073993D02*
X0075511Y0073993D01*
X0076310Y0073194D02*
X0084900Y0073194D01*
X0084900Y0072396D02*
X0077108Y0072396D01*
X0077907Y0071597D02*
X0084900Y0071597D01*
X0084900Y0070799D02*
X0078200Y0070799D01*
X0078499Y0070000D02*
X0084422Y0070000D01*
X0083624Y0069202D02*
X0079298Y0069202D01*
X0080096Y0068403D02*
X0082825Y0068403D01*
X0082461Y0067605D02*
X0080461Y0067605D01*
X0080461Y0066806D02*
X0082461Y0066806D01*
X0082461Y0066008D02*
X0080461Y0066008D01*
X0080461Y0065209D02*
X0082461Y0065209D01*
X0082775Y0064411D02*
X0080146Y0064411D01*
X0079348Y0063612D02*
X0083573Y0063612D01*
X0084372Y0062814D02*
X0078549Y0062814D01*
X0078117Y0060382D02*
X0074804Y0060382D01*
X0072461Y0058039D01*
X0072461Y0054725D01*
X0074804Y0052382D01*
X0078117Y0052382D01*
X0080461Y0054725D01*
X0080461Y0058039D01*
X0078117Y0060382D01*
X0078880Y0059620D02*
X0084042Y0059620D01*
X0084804Y0060382D02*
X0082461Y0058039D01*
X0082461Y0054725D01*
X0084804Y0052382D01*
X0088117Y0052382D01*
X0090461Y0054725D01*
X0090461Y0058039D01*
X0088117Y0060382D01*
X0084804Y0060382D01*
X0083243Y0058821D02*
X0079678Y0058821D01*
X0080461Y0058023D02*
X0082461Y0058023D01*
X0082461Y0057224D02*
X0080461Y0057224D01*
X0080461Y0056426D02*
X0082461Y0056426D01*
X0082461Y0055627D02*
X0080461Y0055627D01*
X0080461Y0054829D02*
X0082461Y0054829D01*
X0083156Y0054030D02*
X0079766Y0054030D01*
X0078967Y0053232D02*
X0083954Y0053232D01*
X0084753Y0052433D02*
X0078169Y0052433D01*
X0074753Y0052433D02*
X0069300Y0052433D01*
X0069300Y0051634D02*
X0098804Y0051634D01*
X0099600Y0050836D02*
X0069300Y0050836D01*
X0069300Y0050037D02*
X0100358Y0050037D01*
X0102015Y0053232D02*
X0103954Y0053232D01*
X0103156Y0054030D02*
X0101217Y0054030D01*
X0100461Y0054829D02*
X0102461Y0054829D01*
X0102461Y0055627D02*
X0100461Y0055627D01*
X0100461Y0056426D02*
X0102461Y0056426D01*
X0102461Y0057224D02*
X0100461Y0057224D01*
X0100461Y0058023D02*
X0102461Y0058023D01*
X0103243Y0058821D02*
X0099678Y0058821D01*
X0098880Y0059620D02*
X0104042Y0059620D01*
X0104372Y0062814D02*
X0098832Y0062814D01*
X0099631Y0063612D02*
X0103573Y0063612D01*
X0102775Y0064411D02*
X0100429Y0064411D01*
X0100661Y0065209D02*
X0102461Y0065209D01*
X0102461Y0066008D02*
X0096861Y0066008D01*
X0096861Y0065209D02*
X0096061Y0065209D01*
X0096061Y0064411D02*
X0096861Y0064411D01*
X0096861Y0063612D02*
X0096061Y0063612D01*
X0096061Y0062814D02*
X0096861Y0062814D01*
X0094089Y0062814D02*
X0088549Y0062814D01*
X0089348Y0063612D02*
X0093291Y0063612D01*
X0092492Y0064411D02*
X0090146Y0064411D01*
X0090461Y0065209D02*
X0092261Y0065209D01*
X0092261Y0066806D02*
X0090461Y0066806D01*
X0090461Y0066008D02*
X0096061Y0066008D01*
X0092261Y0067605D02*
X0090461Y0067605D01*
X0090096Y0068403D02*
X0092542Y0068403D01*
X0093341Y0069202D02*
X0089298Y0069202D01*
X0088499Y0070000D02*
X0092689Y0070000D01*
X0092086Y0070799D02*
X0088100Y0070799D01*
X0088100Y0071597D02*
X0092031Y0071597D01*
X0092031Y0072396D02*
X0088100Y0072396D01*
X0088100Y0073194D02*
X0095000Y0073194D01*
X0092321Y0076388D02*
X0088100Y0076388D01*
X0088100Y0075590D02*
X0092031Y0075590D01*
X0092031Y0074791D02*
X0088100Y0074791D01*
X0088100Y0073993D02*
X0092031Y0073993D01*
X0092429Y0077187D02*
X0088190Y0077187D01*
X0088866Y0077985D02*
X0092231Y0077985D01*
X0092231Y0078784D02*
X0089189Y0078784D01*
X0089189Y0079582D02*
X0092231Y0079582D01*
X0092231Y0080381D02*
X0088963Y0080381D01*
X0088423Y0081179D02*
X0092231Y0081179D01*
X0092231Y0081978D02*
X0087062Y0081978D01*
X0085938Y0081978D02*
X0080359Y0081978D01*
X0080365Y0082776D02*
X0092299Y0082776D01*
X0092185Y0083575D02*
X0080365Y0083575D01*
X0077200Y0085172D02*
X0076400Y0085172D01*
X0076400Y0085970D02*
X0077200Y0085970D01*
X0077200Y0086769D02*
X0076400Y0086769D01*
X0074200Y0087568D02*
X0092185Y0087568D01*
X0096199Y0092359D02*
X0080165Y0092359D01*
X0080165Y0093157D02*
X0095455Y0093157D01*
X0098120Y0089165D02*
X0099280Y0089165D01*
X0098878Y0088366D02*
X0098522Y0088366D01*
X0098522Y0087568D02*
X0098878Y0087568D01*
X0098878Y0086769D02*
X0098522Y0086769D01*
X0098522Y0085970D02*
X0098878Y0085970D01*
X0098878Y0085172D02*
X0098522Y0085172D01*
X0098522Y0084373D02*
X0098878Y0084373D01*
X0098878Y0083575D02*
X0098522Y0083575D01*
X0098501Y0082776D02*
X0098699Y0082776D01*
X0098635Y0081978D02*
X0098568Y0081978D01*
X0105365Y0073993D02*
X0128700Y0073993D01*
X0128700Y0074791D02*
X0110269Y0074791D01*
X0110768Y0075590D02*
X0128700Y0075590D01*
X0128700Y0076388D02*
X0110768Y0076388D01*
X0110768Y0077187D02*
X0128700Y0077187D01*
X0128700Y0077985D02*
X0110768Y0077985D01*
X0110768Y0078784D02*
X0128700Y0078784D01*
X0128700Y0079582D02*
X0110768Y0079582D01*
X0110768Y0080381D02*
X0128700Y0080381D01*
X0128700Y0080426D02*
X0128700Y0070621D01*
X0128657Y0070184D01*
X0128557Y0069943D01*
X0128117Y0070382D01*
X0124804Y0070382D01*
X0122461Y0068039D01*
X0122461Y0064725D01*
X0124804Y0062382D01*
X0128117Y0062382D01*
X0130461Y0064725D01*
X0130461Y0065797D01*
X0131750Y0067087D01*
X0132700Y0069380D01*
X0132700Y0080426D01*
X0134500Y0082226D01*
X0134500Y0085374D01*
X0132274Y0087600D01*
X0129126Y0087600D01*
X0126900Y0085374D01*
X0126900Y0082226D01*
X0128700Y0080426D01*
X0127947Y0081179D02*
X0110205Y0081179D01*
X0110762Y0081978D02*
X0127148Y0081978D01*
X0126900Y0082776D02*
X0110768Y0082776D01*
X0110768Y0083575D02*
X0126900Y0083575D01*
X0126900Y0084373D02*
X0110768Y0084373D01*
X0110768Y0085172D02*
X0126900Y0085172D01*
X0127496Y0085970D02*
X0110768Y0085970D01*
X0110768Y0086769D02*
X0128295Y0086769D01*
X0129094Y0087568D02*
X0110510Y0087568D01*
X0112843Y0088366D02*
X0115390Y0088366D01*
X0115131Y0089165D02*
X0113512Y0089165D01*
X0113512Y0089963D02*
X0115131Y0089963D01*
X0115131Y0090762D02*
X0113512Y0090762D01*
X0113512Y0091560D02*
X0118100Y0091560D01*
X0118100Y0090762D02*
X0118900Y0090762D01*
X0118900Y0091560D02*
X0164800Y0091560D01*
X0164800Y0090762D02*
X0121868Y0090762D01*
X0121868Y0089963D02*
X0164800Y0089963D01*
X0164800Y0089165D02*
X0121868Y0089165D01*
X0121610Y0088366D02*
X0164800Y0088366D01*
X0164800Y0087568D02*
X0139534Y0087568D01*
X0139456Y0087600D02*
X0137944Y0087600D01*
X0136547Y0087021D01*
X0135479Y0085953D01*
X0134900Y0084556D01*
X0134900Y0083044D01*
X0135479Y0081647D01*
X0136547Y0080579D01*
X0137944Y0080000D01*
X0139456Y0080000D01*
X0140853Y0080579D01*
X0141921Y0081647D01*
X0142500Y0083044D01*
X0142500Y0084556D01*
X0141921Y0085953D01*
X0140853Y0087021D01*
X0139456Y0087600D01*
X0137866Y0087568D02*
X0132306Y0087568D01*
X0133105Y0086769D02*
X0136295Y0086769D01*
X0135496Y0085970D02*
X0133904Y0085970D01*
X0134500Y0085172D02*
X0135155Y0085172D01*
X0134900Y0084373D02*
X0134500Y0084373D01*
X0134500Y0083575D02*
X0134900Y0083575D01*
X0135011Y0082776D02*
X0134500Y0082776D01*
X0134252Y0081978D02*
X0135342Y0081978D01*
X0135947Y0081179D02*
X0133453Y0081179D01*
X0132700Y0080381D02*
X0137025Y0080381D01*
X0140375Y0080381D02*
X0164800Y0080381D01*
X0164800Y0081179D02*
X0141453Y0081179D01*
X0142058Y0081978D02*
X0164800Y0081978D01*
X0164800Y0082776D02*
X0142389Y0082776D01*
X0142500Y0083575D02*
X0164800Y0083575D01*
X0164800Y0084373D02*
X0142500Y0084373D01*
X0142245Y0085172D02*
X0164800Y0085172D01*
X0164800Y0085970D02*
X0141904Y0085970D01*
X0141105Y0086769D02*
X0164800Y0086769D01*
X0164800Y0092359D02*
X0121868Y0092359D01*
X0121868Y0093157D02*
X0164800Y0093157D01*
X0164800Y0093956D02*
X0121801Y0093956D01*
X0121129Y0094754D02*
X0164800Y0094754D01*
X0153853Y0107530D02*
X0152147Y0107530D01*
X0142000Y0109926D02*
X0136865Y0109926D01*
X0136865Y0110724D02*
X0142000Y0110724D01*
X0142000Y0111523D02*
X0136865Y0111523D01*
X0136856Y0112321D02*
X0142000Y0112321D01*
X0142000Y0113120D02*
X0129057Y0113120D01*
X0129668Y0112321D02*
X0130144Y0112321D01*
X0126003Y0115515D02*
X0142000Y0115515D01*
X0142000Y0114717D02*
X0125520Y0114717D01*
X0124294Y0113918D02*
X0142000Y0113918D01*
X0142000Y0116314D02*
X0126189Y0116314D01*
X0126157Y0117112D02*
X0142000Y0117112D01*
X0142000Y0117911D02*
X0125826Y0117911D01*
X0125500Y0118709D02*
X0142000Y0118709D01*
X0142000Y0119508D02*
X0126185Y0119508D01*
X0126865Y0120306D02*
X0142000Y0120306D01*
X0142000Y0121105D02*
X0126865Y0121105D01*
X0126865Y0121903D02*
X0142000Y0121903D01*
X0142000Y0122702D02*
X0126865Y0122702D01*
X0126865Y0123501D02*
X0142000Y0123501D01*
X0142000Y0124299D02*
X0126865Y0124299D01*
X0126865Y0125098D02*
X0142000Y0125098D01*
X0142399Y0125896D02*
X0131270Y0125896D01*
X0132069Y0126695D02*
X0142860Y0126695D01*
X0143206Y0127294D02*
X0143206Y0127294D01*
X0143206Y0127294D01*
X0143550Y0127493D02*
X0132800Y0127493D01*
X0132800Y0128292D02*
X0144933Y0128292D01*
X0148251Y0129090D02*
X0132800Y0129090D01*
X0132800Y0129889D02*
X0149017Y0129889D01*
X0149348Y0130687D02*
X0132687Y0130687D01*
X0131888Y0131486D02*
X0149499Y0131486D01*
X0149500Y0132284D02*
X0131090Y0132284D01*
X0126910Y0132284D02*
X0126393Y0132284D01*
X0121000Y0133083D02*
X0149500Y0133083D01*
X0149500Y0133881D02*
X0121000Y0133881D01*
X0117000Y0132284D02*
X0111090Y0132284D01*
X0111888Y0131486D02*
X0117000Y0131486D01*
X0117000Y0130687D02*
X0112687Y0130687D01*
X0112800Y0129889D02*
X0117000Y0129889D01*
X0117000Y0129090D02*
X0112800Y0129090D01*
X0112800Y0128292D02*
X0117000Y0128292D01*
X0117000Y0127493D02*
X0112800Y0127493D01*
X0112069Y0126695D02*
X0117000Y0126695D01*
X0117000Y0125896D02*
X0111270Y0125896D01*
X0113302Y0123501D02*
X0117000Y0123501D01*
X0117000Y0124299D02*
X0102848Y0124299D01*
X0101381Y0125098D02*
X0117000Y0125098D01*
X0117000Y0122702D02*
X0113913Y0122702D01*
X0114189Y0121903D02*
X0117000Y0121903D01*
X0117000Y0121105D02*
X0114189Y0121105D01*
X0113916Y0120306D02*
X0117000Y0120306D01*
X0117000Y0119508D02*
X0113311Y0119508D01*
X0113093Y0118709D02*
X0117000Y0118709D01*
X0117000Y0117911D02*
X0113826Y0117911D01*
X0114157Y0117112D02*
X0117000Y0117112D01*
X0117000Y0116314D02*
X0114189Y0116314D01*
X0114003Y0115515D02*
X0116717Y0115515D01*
X0116386Y0114717D02*
X0113520Y0114717D01*
X0113441Y0113616D02*
X0110127Y0113616D01*
X0109238Y0112728D01*
X0111784Y0110182D01*
X0114329Y0112728D01*
X0113441Y0113616D01*
X0113937Y0113120D02*
X0116454Y0113120D01*
X0116311Y0113918D02*
X0112294Y0113918D01*
X0110706Y0113918D02*
X0100552Y0113918D01*
X0100447Y0113918D02*
X0099316Y0113918D01*
X0099649Y0114717D02*
X0098517Y0114717D01*
X0099753Y0113120D02*
X0109630Y0113120D01*
X0109644Y0112321D02*
X0098955Y0112321D01*
X0096715Y0112321D02*
X0093809Y0112321D01*
X0094608Y0111523D02*
X0108033Y0111523D01*
X0107784Y0111273D02*
X0107784Y0107959D01*
X0108672Y0107071D01*
X0111218Y0109616D01*
X0111784Y0109051D01*
X0112349Y0109616D01*
X0114895Y0107071D01*
X0115784Y0107959D01*
X0115784Y0111273D01*
X0114895Y0112162D01*
X0112349Y0109616D01*
X0111784Y0110182D01*
X0111218Y0109616D01*
X0108672Y0112162D01*
X0107784Y0111273D01*
X0107784Y0110724D02*
X0095406Y0110724D01*
X0095625Y0109926D02*
X0107784Y0109926D01*
X0107784Y0109127D02*
X0098626Y0109127D01*
X0099425Y0108329D02*
X0107784Y0108329D01*
X0108213Y0107530D02*
X0100223Y0107530D01*
X0101022Y0106732D02*
X0109465Y0106732D01*
X0109238Y0106505D02*
X0110127Y0105616D01*
X0113441Y0105616D01*
X0114329Y0106505D01*
X0111784Y0109051D01*
X0109238Y0106505D01*
X0109810Y0105933D02*
X0101683Y0105933D01*
X0101683Y0105135D02*
X0113814Y0105135D01*
X0113758Y0105933D02*
X0114145Y0105933D01*
X0114103Y0106732D02*
X0114839Y0106732D01*
X0114435Y0107530D02*
X0113304Y0107530D01*
X0113637Y0108329D02*
X0112505Y0108329D01*
X0112838Y0109127D02*
X0111860Y0109127D01*
X0111707Y0109127D02*
X0110729Y0109127D01*
X0110908Y0109926D02*
X0111527Y0109926D01*
X0112040Y0109926D02*
X0112659Y0109926D01*
X0112326Y0110724D02*
X0113457Y0110724D01*
X0113125Y0111523D02*
X0114256Y0111523D01*
X0113923Y0112321D02*
X0116876Y0112321D01*
X0117447Y0111523D02*
X0115534Y0111523D01*
X0115784Y0110724D02*
X0117809Y0110724D01*
X0118172Y0109926D02*
X0115784Y0109926D01*
X0115784Y0109127D02*
X0118990Y0109127D01*
X0118233Y0109790D02*
X0118233Y0109790D01*
X0119903Y0108329D02*
X0115784Y0108329D01*
X0116132Y0107530D02*
X0115355Y0107530D01*
X0113641Y0104336D02*
X0103700Y0104336D01*
X0104498Y0103538D02*
X0113641Y0103538D01*
X0113833Y0102739D02*
X0105297Y0102739D01*
X0104896Y0102739D02*
X0103765Y0102739D01*
X0104098Y0101941D02*
X0102966Y0101941D01*
X0102883Y0099545D02*
X0104015Y0099545D01*
X0103682Y0098747D02*
X0104813Y0098747D01*
X0105102Y0098747D02*
X0105344Y0098747D01*
X0105900Y0099545D02*
X0107511Y0099545D01*
X0107680Y0100344D02*
X0106532Y0100344D01*
X0106584Y0101142D02*
X0108139Y0101142D01*
X0109307Y0101941D02*
X0106096Y0101941D01*
X0104648Y0097948D02*
X0104303Y0097948D01*
X0100365Y0103538D02*
X0100145Y0103538D01*
X0100943Y0104336D02*
X0101164Y0104336D01*
X0096772Y0109127D02*
X0095241Y0109127D01*
X0095916Y0113120D02*
X0093010Y0113120D01*
X0094319Y0114717D02*
X0090892Y0114717D01*
X0090615Y0115515D02*
X0093576Y0115515D01*
X0093373Y0116314D02*
X0089816Y0116314D01*
X0089018Y0117112D02*
X0092207Y0117112D01*
X0091408Y0117911D02*
X0088219Y0117911D01*
X0087421Y0118709D02*
X0090610Y0118709D01*
X0088315Y0119508D02*
X0087724Y0119508D01*
X0086477Y0119508D02*
X0086053Y0119508D01*
X0085679Y0120306D02*
X0085254Y0120306D01*
X0084880Y0121105D02*
X0084456Y0121105D01*
X0084024Y0121536D02*
X0081373Y0124188D01*
X0080571Y0123386D01*
X0080386Y0123067D01*
X0080332Y0122865D01*
X0078295Y0120828D01*
X0076068Y0118601D01*
X0075000Y0117532D01*
X0075000Y0119797D01*
X0075580Y0120377D01*
X0075989Y0121365D01*
X0075989Y0122435D01*
X0075580Y0123423D01*
X0074823Y0124180D01*
X0073835Y0124589D01*
X0072765Y0124589D01*
X0071777Y0124180D01*
X0071020Y0123423D01*
X0070611Y0122435D01*
X0070611Y0121365D01*
X0071020Y0120377D01*
X0071600Y0119797D01*
X0071600Y0117732D01*
X0070763Y0118569D01*
X0068536Y0120796D01*
X0067267Y0122066D01*
X0068123Y0122420D01*
X0068880Y0123177D01*
X0069289Y0124165D01*
X0069289Y0124985D01*
X0071215Y0126911D01*
X0072035Y0126911D01*
X0073023Y0127320D01*
X0073780Y0128077D01*
X0074189Y0129065D01*
X0074189Y0130135D01*
X0073780Y0131123D01*
X0073023Y0131880D01*
X0072035Y0132289D01*
X0071266Y0132289D01*
X0072204Y0133227D01*
X0073200Y0134223D01*
X0073200Y0134397D01*
X0073780Y0134977D01*
X0074189Y0135965D01*
X0074189Y0137035D01*
X0073780Y0138023D01*
X0073023Y0138780D01*
X0072035Y0139189D01*
X0070965Y0139189D01*
X0069977Y0138780D01*
X0069220Y0138023D01*
X0068811Y0137035D01*
X0068811Y0135965D01*
X0069198Y0135030D01*
X0061751Y0127582D01*
X0059628Y0129705D01*
X0057932Y0131400D01*
X0059997Y0131400D01*
X0060577Y0130820D01*
X0061565Y0130411D01*
X0062635Y0130411D01*
X0063623Y0130820D01*
X0064380Y0131577D01*
X0064789Y0132565D01*
X0064789Y0133011D01*
X0065635Y0133011D01*
X0066623Y0133420D01*
X0067380Y0134177D01*
X0067789Y0135165D01*
X0067789Y0136235D01*
X0067380Y0137223D01*
X0066623Y0137980D01*
X0065635Y0138389D01*
X0064565Y0138389D01*
X0063577Y0137980D01*
X0062997Y0137400D01*
X0061869Y0137400D01*
X0059811Y0139458D01*
X0059959Y0139544D01*
X0060761Y0140346D01*
X0058109Y0142997D01*
X0058321Y0143209D01*
X0060973Y0140558D01*
X0061680Y0141265D01*
X0061984Y0140961D01*
X0061984Y0140565D01*
X0062393Y0139577D01*
X0063150Y0138820D01*
X0064138Y0138411D01*
X0065208Y0138411D01*
X0066196Y0138820D01*
X0066952Y0139577D01*
X0067362Y0140565D01*
X0067362Y0140933D01*
X0069128Y0142700D01*
X0071728Y0145300D01*
X0074697Y0145300D01*
X0074700Y0145297D01*
X0074700Y0141890D01*
X0075754Y0140836D01*
X0087029Y0129561D01*
X0084977Y0127509D01*
X0082908Y0125441D01*
X0082706Y0125386D01*
X0082387Y0125202D01*
X0081585Y0124400D01*
X0084237Y0121749D01*
X0084024Y0121536D01*
X0084082Y0121903D02*
X0083657Y0121903D01*
X0083283Y0122702D02*
X0082859Y0122702D01*
X0082484Y0123501D02*
X0082060Y0123501D01*
X0081686Y0124299D02*
X0074535Y0124299D01*
X0075502Y0123501D02*
X0080685Y0123501D01*
X0080170Y0122702D02*
X0075878Y0122702D01*
X0075989Y0121903D02*
X0079371Y0121903D01*
X0078573Y0121105D02*
X0075881Y0121105D01*
X0075509Y0120306D02*
X0077774Y0120306D01*
X0076976Y0119508D02*
X0075000Y0119508D01*
X0075000Y0118709D02*
X0076177Y0118709D01*
X0075379Y0117911D02*
X0075000Y0117911D01*
X0071600Y0117911D02*
X0071421Y0117911D01*
X0071600Y0118709D02*
X0070623Y0118709D01*
X0069824Y0119508D02*
X0071600Y0119508D01*
X0071091Y0120306D02*
X0069026Y0120306D01*
X0068227Y0121105D02*
X0070719Y0121105D01*
X0070611Y0121903D02*
X0067429Y0121903D01*
X0068405Y0122702D02*
X0070722Y0122702D01*
X0071098Y0123501D02*
X0069014Y0123501D01*
X0069289Y0124299D02*
X0072065Y0124299D01*
X0070200Y0125896D02*
X0083364Y0125896D01*
X0084162Y0126695D02*
X0070999Y0126695D01*
X0069402Y0125098D02*
X0082282Y0125098D01*
X0084961Y0127493D02*
X0073196Y0127493D01*
X0073869Y0128292D02*
X0085759Y0128292D01*
X0086558Y0129090D02*
X0074189Y0129090D01*
X0074189Y0129889D02*
X0086701Y0129889D01*
X0085903Y0130687D02*
X0073960Y0130687D01*
X0073417Y0131486D02*
X0085104Y0131486D01*
X0084306Y0132284D02*
X0072047Y0132284D01*
X0072060Y0133083D02*
X0083507Y0133083D01*
X0082709Y0133881D02*
X0072858Y0133881D01*
X0073482Y0134680D02*
X0081910Y0134680D01*
X0081112Y0135478D02*
X0073987Y0135478D01*
X0074189Y0136277D02*
X0080313Y0136277D01*
X0079515Y0137075D02*
X0074172Y0137075D01*
X0073841Y0137874D02*
X0078716Y0137874D01*
X0077918Y0138672D02*
X0073131Y0138672D01*
X0069869Y0138672D02*
X0065838Y0138672D01*
X0066729Y0137874D02*
X0069159Y0137874D01*
X0068828Y0137075D02*
X0067441Y0137075D01*
X0067772Y0136277D02*
X0068811Y0136277D01*
X0069013Y0135478D02*
X0067789Y0135478D01*
X0067588Y0134680D02*
X0068848Y0134680D01*
X0068050Y0133881D02*
X0067084Y0133881D01*
X0067251Y0133083D02*
X0065808Y0133083D01*
X0066453Y0132284D02*
X0064673Y0132284D01*
X0064288Y0131486D02*
X0065654Y0131486D01*
X0064856Y0130687D02*
X0063301Y0130687D01*
X0064057Y0129889D02*
X0059444Y0129889D01*
X0058645Y0130687D02*
X0060899Y0130687D01*
X0060242Y0129090D02*
X0063259Y0129090D01*
X0062460Y0128292D02*
X0061041Y0128292D01*
X0061395Y0137874D02*
X0063471Y0137874D01*
X0063507Y0138672D02*
X0060596Y0138672D01*
X0059833Y0139471D02*
X0062499Y0139471D01*
X0062106Y0140269D02*
X0060684Y0140269D01*
X0060463Y0141068D02*
X0060039Y0141068D01*
X0059665Y0141866D02*
X0059240Y0141866D01*
X0058866Y0142665D02*
X0058442Y0142665D01*
X0058067Y0143463D02*
X0057643Y0143463D01*
X0057269Y0144262D02*
X0056845Y0144262D01*
X0056470Y0145060D02*
X0056046Y0145060D01*
X0055260Y0145859D02*
X0055248Y0145859D01*
X0055243Y0145859D02*
X0049796Y0145859D01*
X0048998Y0146657D02*
X0054462Y0146657D01*
X0053663Y0147456D02*
X0048604Y0147456D01*
X0048937Y0148254D02*
X0047805Y0148254D01*
X0048138Y0149053D02*
X0047007Y0149053D01*
X0046910Y0149851D02*
X0047340Y0149851D01*
X0047708Y0150650D02*
X0046577Y0150650D01*
X0046541Y0150650D02*
X0045410Y0150650D01*
X0045743Y0151448D02*
X0044611Y0151448D01*
X0044944Y0152247D02*
X0043813Y0152247D01*
X0043698Y0152247D02*
X0038049Y0152247D01*
X0037954Y0152476D02*
X0038700Y0150675D01*
X0038700Y0148725D01*
X0037954Y0146924D01*
X0036576Y0145546D01*
X0034775Y0144800D01*
X0032825Y0144800D01*
X0031024Y0145546D01*
X0029646Y0146924D01*
X0028900Y0148725D01*
X0028900Y0150675D01*
X0029646Y0152476D01*
X0031024Y0153854D01*
X0032825Y0154600D01*
X0034775Y0154600D01*
X0036576Y0153854D01*
X0037954Y0152476D01*
X0038077Y0152720D02*
X0039065Y0152311D01*
X0040135Y0152311D01*
X0041123Y0152720D01*
X0041880Y0153477D01*
X0042289Y0154465D01*
X0042289Y0155535D01*
X0041880Y0156523D01*
X0041123Y0157280D01*
X0040135Y0157689D01*
X0039315Y0157689D01*
X0038577Y0158428D01*
X0038700Y0158725D01*
X0038700Y0160675D01*
X0037954Y0162476D01*
X0036576Y0163854D01*
X0035135Y0164451D01*
X0035422Y0164738D01*
X0035422Y0170062D01*
X0035306Y0170179D01*
X0036310Y0170595D01*
X0035778Y0170062D01*
X0035778Y0164738D01*
X0036481Y0164035D01*
X0041412Y0164035D01*
X0042115Y0164738D01*
X0042115Y0170062D01*
X0041412Y0170765D01*
X0040646Y0170765D01*
X0040646Y0173758D01*
X0038800Y0175604D01*
X0038800Y0175875D01*
X0038054Y0177676D01*
X0036676Y0179054D01*
X0034875Y0179800D01*
X0032925Y0179800D01*
X0031124Y0179054D01*
X0029746Y0177676D01*
X0029000Y0175875D01*
X0029000Y0173925D01*
X0029746Y0172124D01*
X0031105Y0170765D01*
X0029788Y0170765D01*
X0029085Y0170062D01*
X0029085Y0169589D01*
X0028765Y0169589D01*
X0028200Y0169355D01*
X0028200Y0181096D01*
X0029594Y0182490D01*
X0029746Y0182124D01*
X0031124Y0180746D01*
X0032925Y0180000D01*
X0034875Y0180000D01*
X0036676Y0180746D01*
X0038054Y0182124D01*
X0038800Y0183925D01*
X0038800Y0185875D01*
X0038054Y0187676D01*
X0036676Y0189054D01*
X0034875Y0189800D01*
X0032925Y0189800D01*
X0031124Y0189054D01*
X0029746Y0187676D01*
X0029300Y0186600D01*
X0028896Y0186600D01*
X0027900Y0185604D01*
X0025796Y0183500D01*
X0024800Y0182504D01*
X0024800Y0106096D01*
X0025796Y0105100D01*
X0031011Y0099885D01*
X0031011Y0099065D01*
X0031420Y0098077D01*
X0032177Y0097320D01*
X0033165Y0096911D01*
X0034235Y0096911D01*
X0035223Y0097320D01*
X0035980Y0098077D01*
X0036389Y0099065D01*
X0036389Y0100135D01*
X0035980Y0101123D01*
X0035223Y0101880D01*
X0034235Y0102289D01*
X0033415Y0102289D01*
X0028200Y0107504D01*
X0028200Y0164445D01*
X0028765Y0164211D01*
X0029612Y0164211D01*
X0029788Y0164035D01*
X0031460Y0164035D01*
X0031024Y0163854D01*
X0029646Y0162476D01*
X0028900Y0160675D01*
X0028900Y0158725D01*
X0029646Y0156924D01*
X0031024Y0155546D01*
X0032825Y0154800D01*
X0034775Y0154800D01*
X0036576Y0155546D01*
X0036613Y0155583D01*
X0036911Y0155285D01*
X0036911Y0154465D01*
X0037320Y0153477D01*
X0038077Y0152720D01*
X0037752Y0153045D02*
X0037384Y0153045D01*
X0037168Y0153844D02*
X0036586Y0153844D01*
X0036911Y0154642D02*
X0028200Y0154642D01*
X0028200Y0153844D02*
X0031014Y0153844D01*
X0030216Y0153045D02*
X0028200Y0153045D01*
X0028200Y0152247D02*
X0029551Y0152247D01*
X0029220Y0151448D02*
X0028200Y0151448D01*
X0028200Y0150650D02*
X0028900Y0150650D01*
X0028900Y0149851D02*
X0028200Y0149851D01*
X0028200Y0149053D02*
X0028900Y0149053D01*
X0029095Y0148254D02*
X0028200Y0148254D01*
X0028200Y0147456D02*
X0029426Y0147456D01*
X0029913Y0146657D02*
X0028200Y0146657D01*
X0028200Y0145859D02*
X0030712Y0145859D01*
X0032197Y0145060D02*
X0028200Y0145060D01*
X0028200Y0144262D02*
X0032009Y0144262D01*
X0032825Y0144600D02*
X0031024Y0143854D01*
X0029646Y0142476D01*
X0028900Y0140675D01*
X0028900Y0138725D01*
X0029646Y0136924D01*
X0031024Y0135546D01*
X0032825Y0134800D01*
X0034775Y0134800D01*
X0036576Y0135546D01*
X0037954Y0136924D01*
X0038700Y0138725D01*
X0038700Y0140675D01*
X0037954Y0142476D01*
X0036576Y0143854D01*
X0034775Y0144600D01*
X0032825Y0144600D01*
X0030634Y0143463D02*
X0028200Y0143463D01*
X0028200Y0142665D02*
X0029835Y0142665D01*
X0029394Y0141866D02*
X0028200Y0141866D01*
X0028200Y0141068D02*
X0029063Y0141068D01*
X0028900Y0140269D02*
X0028200Y0140269D01*
X0028200Y0139471D02*
X0028900Y0139471D01*
X0028922Y0138672D02*
X0028200Y0138672D01*
X0028200Y0137874D02*
X0029253Y0137874D01*
X0029583Y0137075D02*
X0028200Y0137075D01*
X0028200Y0136277D02*
X0030294Y0136277D01*
X0031188Y0135478D02*
X0028200Y0135478D01*
X0028200Y0134680D02*
X0042117Y0134680D01*
X0042117Y0133881D02*
X0036510Y0133881D01*
X0036576Y0133854D02*
X0034775Y0134600D01*
X0032825Y0134600D01*
X0031024Y0133854D01*
X0029646Y0132476D01*
X0028900Y0130675D01*
X0028900Y0128725D01*
X0029646Y0126924D01*
X0031024Y0125546D01*
X0032825Y0124800D01*
X0034775Y0124800D01*
X0036576Y0125546D01*
X0037954Y0126924D01*
X0038700Y0128725D01*
X0038700Y0130675D01*
X0037954Y0132476D01*
X0036576Y0133854D01*
X0037347Y0133083D02*
X0042117Y0133083D01*
X0042117Y0132284D02*
X0038033Y0132284D01*
X0038364Y0131486D02*
X0042117Y0131486D01*
X0042117Y0130687D02*
X0038695Y0130687D01*
X0038700Y0129889D02*
X0042117Y0129889D01*
X0042117Y0129090D02*
X0038700Y0129090D01*
X0038520Y0128292D02*
X0042117Y0128292D01*
X0042117Y0127493D02*
X0038190Y0127493D01*
X0037724Y0126695D02*
X0042117Y0126695D01*
X0042117Y0125896D02*
X0036926Y0125896D01*
X0035493Y0125098D02*
X0042117Y0125098D01*
X0042117Y0124299D02*
X0035501Y0124299D01*
X0036929Y0123501D02*
X0042117Y0123501D01*
X0041698Y0122702D02*
X0037728Y0122702D01*
X0038191Y0121903D02*
X0040899Y0121903D01*
X0040101Y0121105D02*
X0038522Y0121105D01*
X0038700Y0120306D02*
X0039302Y0120306D01*
X0037300Y0115515D02*
X0036502Y0115515D01*
X0037300Y0114717D02*
X0034726Y0114717D01*
X0034200Y0114717D02*
X0033400Y0114717D01*
X0032874Y0114717D02*
X0028200Y0114717D01*
X0028200Y0115515D02*
X0031098Y0115515D01*
X0030256Y0116314D02*
X0028200Y0116314D01*
X0028200Y0117112D02*
X0029568Y0117112D01*
X0029237Y0117911D02*
X0028200Y0117911D01*
X0028200Y0118709D02*
X0028907Y0118709D01*
X0028900Y0119508D02*
X0028200Y0119508D01*
X0028200Y0120306D02*
X0028900Y0120306D01*
X0029078Y0121105D02*
X0028200Y0121105D01*
X0028200Y0121903D02*
X0029409Y0121903D01*
X0029872Y0122702D02*
X0028200Y0122702D01*
X0028200Y0123501D02*
X0030671Y0123501D01*
X0032099Y0124299D02*
X0028200Y0124299D01*
X0028200Y0125098D02*
X0032107Y0125098D01*
X0030674Y0125896D02*
X0028200Y0125896D01*
X0028200Y0126695D02*
X0029876Y0126695D01*
X0029410Y0127493D02*
X0028200Y0127493D01*
X0028200Y0128292D02*
X0029080Y0128292D01*
X0028900Y0129090D02*
X0028200Y0129090D01*
X0028200Y0129889D02*
X0028900Y0129889D01*
X0028905Y0130687D02*
X0028200Y0130687D01*
X0028200Y0131486D02*
X0029236Y0131486D01*
X0029567Y0132284D02*
X0028200Y0132284D01*
X0028200Y0133083D02*
X0030253Y0133083D01*
X0031090Y0133881D02*
X0028200Y0133881D01*
X0024800Y0133881D02*
X0023131Y0133881D01*
X0023131Y0133083D02*
X0024800Y0133083D01*
X0024800Y0132284D02*
X0023131Y0132284D01*
X0023131Y0131486D02*
X0024800Y0131486D01*
X0024800Y0130687D02*
X0023131Y0130687D01*
X0023131Y0129889D02*
X0024800Y0129889D01*
X0024800Y0129090D02*
X0023131Y0129090D01*
X0023131Y0128292D02*
X0024800Y0128292D01*
X0024800Y0127493D02*
X0023131Y0127493D01*
X0023131Y0126695D02*
X0024800Y0126695D01*
X0024800Y0125896D02*
X0023131Y0125896D01*
X0023131Y0125098D02*
X0024800Y0125098D01*
X0024800Y0124299D02*
X0023131Y0124299D01*
X0023131Y0123501D02*
X0024800Y0123501D01*
X0024800Y0122702D02*
X0023131Y0122702D01*
X0023131Y0121903D02*
X0024800Y0121903D01*
X0024800Y0121105D02*
X0023131Y0121105D01*
X0023131Y0120306D02*
X0024800Y0120306D01*
X0024800Y0119508D02*
X0023131Y0119508D01*
X0023131Y0118709D02*
X0024800Y0118709D01*
X0024800Y0117911D02*
X0023131Y0117911D01*
X0023131Y0117112D02*
X0024800Y0117112D01*
X0024800Y0116314D02*
X0023131Y0116314D01*
X0023131Y0115515D02*
X0024800Y0115515D01*
X0024800Y0114717D02*
X0023131Y0114717D01*
X0023131Y0113918D02*
X0024800Y0113918D01*
X0024800Y0113120D02*
X0023131Y0113120D01*
X0023131Y0112321D02*
X0024800Y0112321D01*
X0024800Y0111523D02*
X0023131Y0111523D01*
X0023131Y0110724D02*
X0024800Y0110724D01*
X0024800Y0109926D02*
X0023131Y0109926D01*
X0023131Y0109127D02*
X0024800Y0109127D01*
X0024800Y0108329D02*
X0023131Y0108329D01*
X0023131Y0107530D02*
X0024800Y0107530D01*
X0024800Y0106732D02*
X0023131Y0106732D01*
X0023131Y0105933D02*
X0024963Y0105933D01*
X0025761Y0105135D02*
X0023131Y0105135D01*
X0023131Y0104336D02*
X0026560Y0104336D01*
X0025796Y0105100D02*
X0025796Y0105100D01*
X0027358Y0103538D02*
X0023131Y0103538D01*
X0023131Y0102739D02*
X0028157Y0102739D01*
X0028955Y0101941D02*
X0023131Y0101941D01*
X0023131Y0101142D02*
X0029754Y0101142D01*
X0030552Y0100344D02*
X0023131Y0100344D01*
X0023131Y0099545D02*
X0031011Y0099545D01*
X0031143Y0098747D02*
X0023131Y0098747D01*
X0023131Y0097948D02*
X0031549Y0097948D01*
X0032589Y0097150D02*
X0023131Y0097150D01*
X0023131Y0096351D02*
X0034662Y0096351D01*
X0034355Y0096044D02*
X0034355Y0093110D01*
X0034324Y0093034D01*
X0034324Y0084700D01*
X0032926Y0084700D01*
X0031750Y0084213D01*
X0030850Y0083313D01*
X0030363Y0082137D01*
X0030363Y0080863D01*
X0030850Y0079687D01*
X0031750Y0078787D01*
X0032926Y0078300D01*
X0042137Y0078300D01*
X0043313Y0078787D01*
X0044213Y0079687D01*
X0044700Y0080863D01*
X0044700Y0082137D01*
X0044213Y0083313D01*
X0043313Y0084213D01*
X0042137Y0084700D01*
X0040724Y0084700D01*
X0040724Y0093034D01*
X0040692Y0093110D01*
X0040692Y0096044D01*
X0039989Y0096747D01*
X0035058Y0096747D01*
X0034355Y0096044D01*
X0034355Y0095553D02*
X0023131Y0095553D01*
X0023131Y0094754D02*
X0034355Y0094754D01*
X0034355Y0093956D02*
X0023131Y0093956D01*
X0023131Y0093157D02*
X0034355Y0093157D01*
X0034324Y0092359D02*
X0023131Y0092359D01*
X0023131Y0091560D02*
X0034324Y0091560D01*
X0034324Y0090762D02*
X0023131Y0090762D01*
X0023131Y0089963D02*
X0034324Y0089963D01*
X0034324Y0089165D02*
X0023131Y0089165D01*
X0023131Y0088366D02*
X0034324Y0088366D01*
X0034324Y0087568D02*
X0023131Y0087568D01*
X0023131Y0086769D02*
X0034324Y0086769D01*
X0034324Y0085970D02*
X0023131Y0085970D01*
X0023131Y0085172D02*
X0034324Y0085172D01*
X0032138Y0084373D02*
X0023131Y0084373D01*
X0023131Y0083575D02*
X0031112Y0083575D01*
X0030628Y0082776D02*
X0023131Y0082776D01*
X0023131Y0081978D02*
X0030363Y0081978D01*
X0030363Y0081179D02*
X0023131Y0081179D01*
X0023131Y0080381D02*
X0030563Y0080381D01*
X0030955Y0079582D02*
X0023131Y0079582D01*
X0023131Y0078784D02*
X0031758Y0078784D01*
X0034750Y0076722D02*
X0034565Y0076403D01*
X0034470Y0076047D01*
X0034470Y0064057D01*
X0046100Y0064057D01*
X0046100Y0063257D01*
X0046900Y0063257D01*
X0046900Y0050053D01*
X0057314Y0050053D01*
X0057670Y0050148D01*
X0057990Y0050332D01*
X0058250Y0050593D01*
X0058434Y0050912D01*
X0058530Y0051268D01*
X0058530Y0063257D01*
X0046900Y0063257D01*
X0046900Y0064057D01*
X0058530Y0064057D01*
X0058530Y0076047D01*
X0058434Y0076403D01*
X0058250Y0076722D01*
X0057990Y0076982D01*
X0057670Y0077167D01*
X0057314Y0077262D01*
X0046900Y0077262D01*
X0046900Y0064058D01*
X0046100Y0064058D01*
X0046100Y0077262D01*
X0035686Y0077262D01*
X0035330Y0077167D01*
X0035010Y0076982D01*
X0034750Y0076722D01*
X0034562Y0076388D02*
X0023131Y0076388D01*
X0023131Y0075590D02*
X0034470Y0075590D01*
X0034470Y0074791D02*
X0023131Y0074791D01*
X0023131Y0073993D02*
X0034470Y0073993D01*
X0034470Y0073194D02*
X0023131Y0073194D01*
X0023131Y0072396D02*
X0034470Y0072396D01*
X0034470Y0071597D02*
X0023131Y0071597D01*
X0023131Y0070799D02*
X0034470Y0070799D01*
X0034470Y0070000D02*
X0023131Y0070000D01*
X0023131Y0069202D02*
X0034470Y0069202D01*
X0034470Y0068403D02*
X0023131Y0068403D01*
X0023131Y0067605D02*
X0034470Y0067605D01*
X0034470Y0066806D02*
X0023131Y0066806D01*
X0023131Y0066008D02*
X0034470Y0066008D01*
X0034470Y0065209D02*
X0023131Y0065209D01*
X0023131Y0064411D02*
X0034470Y0064411D01*
X0034470Y0063257D02*
X0034470Y0051268D01*
X0034565Y0050912D01*
X0034750Y0050593D01*
X0035010Y0050332D01*
X0035330Y0050148D01*
X0035686Y0050053D01*
X0046100Y0050053D01*
X0046100Y0063257D01*
X0034470Y0063257D01*
X0034470Y0062814D02*
X0023131Y0062814D01*
X0023131Y0063612D02*
X0046100Y0063612D01*
X0046100Y0062814D02*
X0046900Y0062814D01*
X0046900Y0063612D02*
X0063291Y0063612D01*
X0064089Y0062814D02*
X0058530Y0062814D01*
X0058530Y0062015D02*
X0144600Y0062015D01*
X0144600Y0062814D02*
X0128549Y0062814D01*
X0129348Y0063612D02*
X0144600Y0063612D01*
X0144600Y0064411D02*
X0130146Y0064411D01*
X0130461Y0065209D02*
X0144600Y0065209D01*
X0144018Y0066008D02*
X0130671Y0066008D01*
X0131469Y0066806D02*
X0143220Y0066806D01*
X0142800Y0067605D02*
X0131965Y0067605D01*
X0131750Y0067087D02*
X0131750Y0067087D01*
X0132295Y0068403D02*
X0142800Y0068403D01*
X0142800Y0069202D02*
X0132626Y0069202D01*
X0132700Y0070000D02*
X0142800Y0070000D01*
X0143225Y0070799D02*
X0132700Y0070799D01*
X0132700Y0071597D02*
X0144023Y0071597D01*
X0144822Y0072396D02*
X0132700Y0072396D01*
X0132700Y0073194D02*
X0164800Y0073194D01*
X0164800Y0072396D02*
X0155849Y0072396D01*
X0155356Y0072600D02*
X0153844Y0072600D01*
X0152447Y0072021D01*
X0151379Y0070953D01*
X0150800Y0069556D01*
X0150800Y0068044D01*
X0151379Y0066647D01*
X0152447Y0065579D01*
X0153844Y0065000D01*
X0155356Y0065000D01*
X0156753Y0065579D01*
X0157821Y0066647D01*
X0158400Y0068044D01*
X0158400Y0069556D01*
X0157821Y0070953D01*
X0156753Y0072021D01*
X0155356Y0072600D01*
X0153351Y0072396D02*
X0148378Y0072396D01*
X0149177Y0071597D02*
X0152023Y0071597D01*
X0151315Y0070799D02*
X0149975Y0070799D01*
X0150400Y0070000D02*
X0150984Y0070000D01*
X0150800Y0069202D02*
X0150400Y0069202D01*
X0150400Y0068403D02*
X0150800Y0068403D01*
X0150982Y0067605D02*
X0150400Y0067605D01*
X0149980Y0066806D02*
X0151313Y0066806D01*
X0152018Y0066008D02*
X0149182Y0066008D01*
X0148600Y0065209D02*
X0153339Y0065209D01*
X0155861Y0065209D02*
X0164800Y0065209D01*
X0164800Y0064411D02*
X0148600Y0064411D01*
X0148600Y0063612D02*
X0164800Y0063612D01*
X0164800Y0062814D02*
X0148600Y0062814D01*
X0148600Y0062015D02*
X0164611Y0062015D01*
X0163812Y0061217D02*
X0148600Y0061217D01*
X0148600Y0060418D02*
X0163014Y0060418D01*
X0162215Y0059620D02*
X0148365Y0059620D01*
X0148034Y0058821D02*
X0161417Y0058821D01*
X0160618Y0058023D02*
X0147703Y0058023D01*
X0147519Y0057578D02*
X0147519Y0057578D01*
X0147165Y0057224D02*
X0159820Y0057224D01*
X0159021Y0056426D02*
X0146366Y0056426D01*
X0145568Y0055627D02*
X0158223Y0055627D01*
X0157424Y0054829D02*
X0143705Y0054829D01*
X0145522Y0055581D02*
X0145522Y0055581D01*
X0142736Y0058821D02*
X0129678Y0058821D01*
X0128880Y0059620D02*
X0143819Y0059620D01*
X0144301Y0060418D02*
X0058530Y0060418D01*
X0058530Y0059620D02*
X0064042Y0059620D01*
X0063243Y0058821D02*
X0058530Y0058821D01*
X0058530Y0058023D02*
X0062461Y0058023D01*
X0062461Y0057224D02*
X0058530Y0057224D01*
X0058530Y0056426D02*
X0062461Y0056426D01*
X0062461Y0055627D02*
X0058530Y0055627D01*
X0058530Y0054829D02*
X0062461Y0054829D01*
X0063156Y0054030D02*
X0058530Y0054030D01*
X0058530Y0053232D02*
X0063700Y0053232D01*
X0063700Y0052433D02*
X0058530Y0052433D01*
X0058530Y0051634D02*
X0063700Y0051634D01*
X0063700Y0050836D02*
X0058390Y0050836D01*
X0059359Y0048330D02*
X0033956Y0048330D01*
X0033253Y0047627D01*
X0033253Y0025373D01*
X0033956Y0024670D01*
X0059359Y0024670D01*
X0060062Y0025373D01*
X0060062Y0047627D01*
X0059359Y0048330D01*
X0060047Y0047642D02*
X0063700Y0047642D01*
X0063700Y0048440D02*
X0023131Y0048440D01*
X0023131Y0047642D02*
X0033268Y0047642D01*
X0033253Y0046843D02*
X0023131Y0046843D01*
X0023131Y0046045D02*
X0033253Y0046045D01*
X0033253Y0045246D02*
X0023131Y0045246D01*
X0023131Y0044448D02*
X0033253Y0044448D01*
X0033253Y0043649D02*
X0023131Y0043649D01*
X0023131Y0042851D02*
X0033253Y0042851D01*
X0033253Y0042052D02*
X0023131Y0042052D01*
X0023131Y0041254D02*
X0033253Y0041254D01*
X0033253Y0040455D02*
X0023131Y0040455D01*
X0023131Y0039657D02*
X0033253Y0039657D01*
X0033253Y0038858D02*
X0023131Y0038858D01*
X0023131Y0038060D02*
X0033253Y0038060D01*
X0033253Y0037261D02*
X0023131Y0037261D01*
X0023131Y0036463D02*
X0033253Y0036463D01*
X0033253Y0035664D02*
X0023131Y0035664D01*
X0023131Y0034866D02*
X0033253Y0034866D01*
X0033253Y0034067D02*
X0023131Y0034067D01*
X0023131Y0033269D02*
X0033253Y0033269D01*
X0033253Y0032470D02*
X0023131Y0032470D01*
X0023131Y0031672D02*
X0033253Y0031672D01*
X0033253Y0030873D02*
X0023131Y0030873D01*
X0023131Y0030075D02*
X0033253Y0030075D01*
X0033253Y0029276D02*
X0023131Y0029276D01*
X0023131Y0028478D02*
X0033253Y0028478D01*
X0033253Y0027679D02*
X0023131Y0027679D01*
X0023131Y0026881D02*
X0033253Y0026881D01*
X0033253Y0026082D02*
X0023131Y0026082D01*
X0023131Y0025284D02*
X0033342Y0025284D01*
X0023131Y0024485D02*
X0071621Y0024485D01*
X0068757Y0025284D02*
X0059973Y0025284D01*
X0060062Y0026082D02*
X0067958Y0026082D01*
X0067160Y0026881D02*
X0060062Y0026881D01*
X0060062Y0027679D02*
X0066361Y0027679D01*
X0065563Y0028478D02*
X0060062Y0028478D01*
X0060062Y0029276D02*
X0064764Y0029276D01*
X0064914Y0029126D02*
X0064914Y0029126D01*
X0064060Y0030075D02*
X0060062Y0030075D01*
X0060062Y0030873D02*
X0063729Y0030873D01*
X0063700Y0031672D02*
X0060062Y0031672D01*
X0060062Y0032470D02*
X0063700Y0032470D01*
X0063700Y0033269D02*
X0060062Y0033269D01*
X0060062Y0034067D02*
X0063700Y0034067D01*
X0063700Y0034866D02*
X0060062Y0034866D01*
X0060062Y0035664D02*
X0063700Y0035664D01*
X0063700Y0036463D02*
X0060062Y0036463D01*
X0060062Y0037261D02*
X0063700Y0037261D01*
X0063700Y0038060D02*
X0060062Y0038060D01*
X0060062Y0038858D02*
X0063700Y0038858D01*
X0063700Y0039657D02*
X0060062Y0039657D01*
X0060062Y0040455D02*
X0063700Y0040455D01*
X0063700Y0041254D02*
X0060062Y0041254D01*
X0060062Y0042052D02*
X0063700Y0042052D01*
X0063700Y0042851D02*
X0060062Y0042851D01*
X0060062Y0043649D02*
X0063700Y0043649D01*
X0063700Y0044448D02*
X0060062Y0044448D01*
X0060062Y0045246D02*
X0063700Y0045246D01*
X0063700Y0046045D02*
X0060062Y0046045D01*
X0060062Y0046843D02*
X0063700Y0046843D01*
X0063700Y0049239D02*
X0023131Y0049239D01*
X0023131Y0050037D02*
X0063700Y0050037D01*
X0069300Y0053232D02*
X0073954Y0053232D01*
X0073156Y0054030D02*
X0069766Y0054030D01*
X0070461Y0054829D02*
X0072461Y0054829D01*
X0072461Y0055627D02*
X0070461Y0055627D01*
X0070461Y0056426D02*
X0072461Y0056426D01*
X0072461Y0057224D02*
X0070461Y0057224D01*
X0070461Y0058023D02*
X0072461Y0058023D01*
X0073243Y0058821D02*
X0069678Y0058821D01*
X0068880Y0059620D02*
X0074042Y0059620D01*
X0074372Y0062814D02*
X0068832Y0062814D01*
X0068200Y0062182D02*
X0070661Y0064642D01*
X0070661Y0065982D01*
X0066861Y0065982D01*
X0066861Y0066782D01*
X0070661Y0066782D01*
X0070661Y0068122D01*
X0068200Y0070582D01*
X0066861Y0070582D01*
X0066861Y0066782D01*
X0066061Y0066782D01*
X0066061Y0070582D01*
X0064721Y0070582D01*
X0062261Y0068122D01*
X0062261Y0066782D01*
X0066061Y0066782D01*
X0066061Y0065982D01*
X0066861Y0065982D01*
X0066861Y0062182D01*
X0068200Y0062182D01*
X0066861Y0062814D02*
X0066061Y0062814D01*
X0066061Y0062182D02*
X0066061Y0065982D01*
X0062261Y0065982D01*
X0062261Y0064642D01*
X0064721Y0062182D01*
X0066061Y0062182D01*
X0066061Y0063612D02*
X0066861Y0063612D01*
X0066861Y0064411D02*
X0066061Y0064411D01*
X0066061Y0065209D02*
X0066861Y0065209D01*
X0066861Y0066008D02*
X0072461Y0066008D01*
X0072461Y0066806D02*
X0070661Y0066806D01*
X0070661Y0067605D02*
X0072461Y0067605D01*
X0072825Y0068403D02*
X0070379Y0068403D01*
X0069580Y0069202D02*
X0073624Y0069202D01*
X0074422Y0070000D02*
X0068782Y0070000D01*
X0066861Y0070000D02*
X0066061Y0070000D01*
X0066061Y0069202D02*
X0066861Y0069202D01*
X0066861Y0068403D02*
X0066061Y0068403D01*
X0066061Y0067605D02*
X0066861Y0067605D01*
X0066861Y0066806D02*
X0066061Y0066806D01*
X0066061Y0066008D02*
X0058530Y0066008D01*
X0058530Y0066806D02*
X0062261Y0066806D01*
X0062261Y0067605D02*
X0058530Y0067605D01*
X0058530Y0068403D02*
X0062542Y0068403D01*
X0063341Y0069202D02*
X0058530Y0069202D01*
X0058530Y0070000D02*
X0064139Y0070000D01*
X0062261Y0065209D02*
X0058530Y0065209D01*
X0058530Y0064411D02*
X0062492Y0064411D01*
X0058530Y0061217D02*
X0144562Y0061217D01*
X0155827Y0053232D02*
X0128967Y0053232D01*
X0129766Y0054030D02*
X0156626Y0054030D01*
X0157182Y0066008D02*
X0164800Y0066008D01*
X0164800Y0066806D02*
X0157887Y0066806D01*
X0158218Y0067605D02*
X0164800Y0067605D01*
X0164800Y0068403D02*
X0158400Y0068403D01*
X0158400Y0069202D02*
X0164800Y0069202D01*
X0164800Y0070000D02*
X0158216Y0070000D01*
X0157885Y0070799D02*
X0164800Y0070799D01*
X0164800Y0071597D02*
X0157177Y0071597D01*
X0164800Y0073993D02*
X0132700Y0073993D01*
X0132700Y0074791D02*
X0164800Y0074791D01*
X0164800Y0075590D02*
X0132700Y0075590D01*
X0132700Y0076388D02*
X0164800Y0076388D01*
X0164800Y0077187D02*
X0132700Y0077187D01*
X0132700Y0077985D02*
X0164800Y0077985D01*
X0164800Y0078784D02*
X0132700Y0078784D01*
X0132700Y0079582D02*
X0164800Y0079582D01*
X0169869Y0048440D02*
X0079249Y0048440D01*
X0079747Y0047642D02*
X0169869Y0047642D01*
X0169869Y0046843D02*
X0079747Y0046843D01*
X0079747Y0046045D02*
X0169869Y0046045D01*
X0169869Y0045246D02*
X0079747Y0045246D01*
X0079747Y0044448D02*
X0169869Y0044448D01*
X0169869Y0043649D02*
X0079747Y0043649D01*
X0079587Y0042851D02*
X0169869Y0042851D01*
X0169869Y0042052D02*
X0079865Y0042052D01*
X0079865Y0041254D02*
X0169869Y0041254D01*
X0169869Y0040455D02*
X0079865Y0040455D01*
X0079865Y0039657D02*
X0169869Y0039657D01*
X0169869Y0038858D02*
X0079865Y0038858D01*
X0079865Y0038060D02*
X0169869Y0038060D01*
X0169328Y0019694D02*
X0023672Y0019694D01*
X0024432Y0018896D02*
X0168568Y0018896D01*
X0124372Y0062814D02*
X0118832Y0062814D01*
X0118200Y0062182D02*
X0120661Y0064642D01*
X0120661Y0065982D01*
X0116861Y0065982D01*
X0116861Y0066782D01*
X0120661Y0066782D01*
X0120661Y0068122D01*
X0118200Y0070582D01*
X0116861Y0070582D01*
X0116861Y0066782D01*
X0116061Y0066782D01*
X0116061Y0070582D01*
X0114721Y0070582D01*
X0112261Y0068122D01*
X0112261Y0066782D01*
X0116061Y0066782D01*
X0116061Y0065982D01*
X0116861Y0065982D01*
X0116861Y0062182D01*
X0118200Y0062182D01*
X0116861Y0062814D02*
X0116061Y0062814D01*
X0116061Y0062182D02*
X0116061Y0065982D01*
X0112261Y0065982D01*
X0112261Y0064642D01*
X0114721Y0062182D01*
X0116061Y0062182D01*
X0116061Y0063612D02*
X0116861Y0063612D01*
X0116861Y0064411D02*
X0116061Y0064411D01*
X0116061Y0065209D02*
X0116861Y0065209D01*
X0116861Y0066008D02*
X0122461Y0066008D01*
X0122461Y0066806D02*
X0120661Y0066806D01*
X0120661Y0067605D02*
X0122461Y0067605D01*
X0122825Y0068403D02*
X0120379Y0068403D01*
X0119580Y0069202D02*
X0123624Y0069202D01*
X0124422Y0070000D02*
X0118782Y0070000D01*
X0116861Y0070000D02*
X0116061Y0070000D01*
X0116061Y0069202D02*
X0116861Y0069202D01*
X0116861Y0068403D02*
X0116061Y0068403D01*
X0116061Y0067605D02*
X0116861Y0067605D01*
X0116861Y0066806D02*
X0116061Y0066806D01*
X0116061Y0066008D02*
X0110461Y0066008D01*
X0110461Y0066806D02*
X0112261Y0066806D01*
X0112261Y0067605D02*
X0110461Y0067605D01*
X0110096Y0068403D02*
X0112542Y0068403D01*
X0113341Y0069202D02*
X0109298Y0069202D01*
X0108499Y0070000D02*
X0114139Y0070000D01*
X0112261Y0065209D02*
X0110461Y0065209D01*
X0110146Y0064411D02*
X0112492Y0064411D01*
X0113291Y0063612D02*
X0109348Y0063612D01*
X0108549Y0062814D02*
X0114089Y0062814D01*
X0114042Y0059620D02*
X0108880Y0059620D01*
X0109678Y0058821D02*
X0113243Y0058821D01*
X0112461Y0058023D02*
X0110461Y0058023D01*
X0110461Y0057224D02*
X0112461Y0057224D01*
X0112461Y0056426D02*
X0110461Y0056426D01*
X0110461Y0055627D02*
X0112461Y0055627D01*
X0112461Y0054829D02*
X0110461Y0054829D01*
X0109766Y0054030D02*
X0113156Y0054030D01*
X0113954Y0053232D02*
X0108967Y0053232D01*
X0118967Y0053232D02*
X0123954Y0053232D01*
X0123156Y0054030D02*
X0119766Y0054030D01*
X0120461Y0054829D02*
X0122461Y0054829D01*
X0122461Y0055627D02*
X0120461Y0055627D01*
X0120461Y0056426D02*
X0122461Y0056426D01*
X0122461Y0057224D02*
X0120461Y0057224D01*
X0120461Y0058023D02*
X0122461Y0058023D01*
X0123243Y0058821D02*
X0119678Y0058821D01*
X0118880Y0059620D02*
X0124042Y0059620D01*
X0123573Y0063612D02*
X0119631Y0063612D01*
X0120429Y0064411D02*
X0122775Y0064411D01*
X0122461Y0065209D02*
X0120661Y0065209D01*
X0128499Y0070000D02*
X0128581Y0070000D01*
X0128700Y0070799D02*
X0107159Y0070799D01*
X0106360Y0071597D02*
X0128700Y0071597D01*
X0128700Y0072396D02*
X0105562Y0072396D01*
X0105365Y0073194D02*
X0128700Y0073194D01*
X0118900Y0088366D02*
X0118100Y0088366D01*
X0118100Y0089165D02*
X0118900Y0089165D01*
X0118900Y0089963D02*
X0118100Y0089963D01*
X0115131Y0092359D02*
X0113512Y0092359D01*
X0113512Y0093157D02*
X0115131Y0093157D01*
X0115199Y0093956D02*
X0113512Y0093956D01*
X0111900Y0094754D02*
X0115871Y0094754D01*
X0115331Y0095553D02*
X0111900Y0095553D01*
X0111900Y0096351D02*
X0115331Y0096351D01*
X0115331Y0097150D02*
X0111900Y0097150D01*
X0112509Y0097948D02*
X0115331Y0097948D01*
X0115331Y0098747D02*
X0112840Y0098747D01*
X0112889Y0099545D02*
X0115331Y0099545D01*
X0115331Y0100344D02*
X0112720Y0100344D01*
X0112261Y0101142D02*
X0114884Y0101142D01*
X0114164Y0101941D02*
X0111093Y0101941D01*
X0110263Y0107530D02*
X0109132Y0107530D01*
X0109931Y0108329D02*
X0111062Y0108329D01*
X0111241Y0110724D02*
X0110110Y0110724D01*
X0110443Y0111523D02*
X0109311Y0111523D01*
X0109480Y0114717D02*
X0101350Y0114717D01*
X0101948Y0115515D02*
X0108997Y0115515D01*
X0108811Y0116314D02*
X0102929Y0116314D01*
X0103753Y0117112D02*
X0108843Y0117112D01*
X0109174Y0117911D02*
X0103906Y0117911D01*
X0102642Y0120306D02*
X0102471Y0120306D01*
X0102138Y0121105D02*
X0103269Y0121105D01*
X0102936Y0121903D02*
X0104067Y0121903D01*
X0101511Y0120306D02*
X0101339Y0120306D01*
X0118750Y0107530D02*
X0121455Y0107530D01*
X0120480Y0107824D02*
X0120480Y0107824D01*
X0120042Y0106732D02*
X0123784Y0106732D01*
X0123338Y0106963D02*
X0123338Y0106963D01*
X0121430Y0105933D02*
X0120736Y0105933D01*
X0120900Y0101941D02*
X0121556Y0101941D01*
X0121235Y0101142D02*
X0123331Y0101142D01*
X0123479Y0100344D02*
X0121668Y0100344D01*
X0129521Y0100344D02*
X0130479Y0100344D01*
X0130135Y0101142D02*
X0129668Y0101142D01*
X0129551Y0105933D02*
X0130449Y0105933D01*
X0130784Y0106732D02*
X0129216Y0106732D01*
X0129668Y0107530D02*
X0130135Y0107530D01*
X0123331Y0111523D02*
X0122427Y0111523D01*
X0121549Y0112321D02*
X0123331Y0112321D01*
X0123943Y0113120D02*
X0121546Y0113120D01*
X0121689Y0113918D02*
X0122706Y0113918D01*
X0121000Y0125896D02*
X0126730Y0125896D01*
X0107267Y0145859D02*
X0098200Y0145859D01*
X0098200Y0146657D02*
X0106469Y0146657D01*
X0105670Y0147456D02*
X0098200Y0147456D01*
X0098200Y0148254D02*
X0105200Y0148254D01*
X0105200Y0149053D02*
X0098200Y0149053D01*
X0098200Y0149851D02*
X0105200Y0149851D01*
X0105200Y0150650D02*
X0098200Y0150650D01*
X0098200Y0151448D02*
X0105574Y0151448D01*
X0106373Y0152247D02*
X0098200Y0152247D01*
X0098200Y0153045D02*
X0107171Y0153045D01*
X0098320Y0164225D02*
X0088950Y0164225D01*
X0088935Y0165023D02*
X0099119Y0165023D01*
X0097522Y0163426D02*
X0089086Y0163426D01*
X0089086Y0162628D02*
X0096723Y0162628D01*
X0095925Y0161829D02*
X0089086Y0161829D01*
X0089086Y0161031D02*
X0095126Y0161031D01*
X0094328Y0160232D02*
X0089086Y0160232D01*
X0089086Y0159434D02*
X0093529Y0159434D01*
X0092731Y0158635D02*
X0088957Y0158635D01*
X0097685Y0171411D02*
X0114576Y0171411D01*
X0113778Y0172210D02*
X0099300Y0172210D01*
X0100099Y0173008D02*
X0113600Y0173008D01*
X0113600Y0173807D02*
X0100612Y0173807D01*
X0118300Y0173807D02*
X0119100Y0173807D01*
X0119100Y0173008D02*
X0118300Y0173008D01*
X0118300Y0172210D02*
X0119100Y0172210D01*
X0119100Y0171411D02*
X0118300Y0171411D01*
X0118300Y0170613D02*
X0119100Y0170613D01*
X0119100Y0169814D02*
X0118300Y0169814D01*
X0077119Y0139471D02*
X0066846Y0139471D01*
X0067239Y0140269D02*
X0076321Y0140269D01*
X0075522Y0141068D02*
X0067496Y0141068D01*
X0068295Y0141866D02*
X0074724Y0141866D01*
X0074700Y0142665D02*
X0069093Y0142665D01*
X0069892Y0143463D02*
X0074700Y0143463D01*
X0074700Y0144262D02*
X0070690Y0144262D01*
X0071489Y0145060D02*
X0074700Y0145060D01*
X0066300Y0145528D02*
X0064686Y0143915D01*
X0064508Y0144093D01*
X0065215Y0144800D01*
X0062563Y0147451D01*
X0062776Y0147664D01*
X0065427Y0145012D01*
X0066134Y0145719D01*
X0066300Y0145553D01*
X0066300Y0145528D01*
X0065832Y0145060D02*
X0065476Y0145060D01*
X0065379Y0145060D02*
X0064955Y0145060D01*
X0065033Y0144262D02*
X0064677Y0144262D01*
X0064580Y0145859D02*
X0064156Y0145859D01*
X0063782Y0146657D02*
X0063358Y0146657D01*
X0062983Y0147456D02*
X0062568Y0147456D01*
X0062185Y0148254D02*
X0061761Y0148254D01*
X0061386Y0149053D02*
X0060962Y0149053D01*
X0060588Y0149851D02*
X0060164Y0149851D01*
X0060034Y0150650D02*
X0059431Y0150650D01*
X0058632Y0151448D02*
X0060471Y0151448D01*
X0059672Y0152247D02*
X0057834Y0152247D01*
X0057035Y0153045D02*
X0058874Y0153045D01*
X0058075Y0153844D02*
X0056237Y0153844D01*
X0055413Y0154642D02*
X0057277Y0154642D01*
X0056943Y0155441D02*
X0054923Y0155441D01*
X0055397Y0156239D02*
X0054124Y0156239D01*
X0053448Y0156239D02*
X0052317Y0156239D01*
X0052650Y0155441D02*
X0051518Y0155441D01*
X0050725Y0155441D02*
X0049593Y0155441D01*
X0049926Y0156239D02*
X0048795Y0156239D01*
X0049128Y0157038D02*
X0041365Y0157038D01*
X0041997Y0156239D02*
X0047840Y0156239D01*
X0047057Y0155441D02*
X0042289Y0155441D01*
X0042289Y0154642D02*
X0046798Y0154642D01*
X0045295Y0153844D02*
X0042032Y0153844D01*
X0041448Y0153045D02*
X0044496Y0153045D01*
X0042899Y0151448D02*
X0038380Y0151448D01*
X0038700Y0150650D02*
X0042306Y0150650D01*
X0042282Y0149851D02*
X0038700Y0149851D01*
X0038700Y0149053D02*
X0040786Y0149053D01*
X0039988Y0148254D02*
X0038505Y0148254D01*
X0038174Y0147456D02*
X0039189Y0147456D01*
X0038391Y0146657D02*
X0037687Y0146657D01*
X0037704Y0145859D02*
X0036888Y0145859D01*
X0037704Y0145060D02*
X0035403Y0145060D01*
X0035591Y0144262D02*
X0038418Y0144262D01*
X0039216Y0143463D02*
X0036966Y0143463D01*
X0037765Y0142665D02*
X0040015Y0142665D01*
X0040813Y0141866D02*
X0038206Y0141866D01*
X0038537Y0141068D02*
X0042117Y0141068D01*
X0041434Y0140269D02*
X0038700Y0140269D01*
X0038700Y0139471D02*
X0040636Y0139471D01*
X0039837Y0138672D02*
X0038678Y0138672D01*
X0038347Y0137874D02*
X0039693Y0137874D01*
X0040153Y0137075D02*
X0038016Y0137075D01*
X0037306Y0136277D02*
X0040951Y0136277D01*
X0041750Y0135478D02*
X0036412Y0135478D01*
X0045950Y0145060D02*
X0046225Y0145060D01*
X0046123Y0145859D02*
X0045782Y0145859D01*
X0045204Y0146657D02*
X0044984Y0146657D01*
X0044514Y0147456D02*
X0044185Y0147456D01*
X0044182Y0148254D02*
X0045313Y0148254D01*
X0044980Y0149053D02*
X0046111Y0149053D01*
X0046208Y0149851D02*
X0045779Y0149851D01*
X0047376Y0151448D02*
X0048507Y0151448D01*
X0048174Y0152247D02*
X0049456Y0152247D01*
X0049123Y0153045D02*
X0050254Y0153045D01*
X0049921Y0153844D02*
X0051053Y0153844D01*
X0050720Y0154642D02*
X0050392Y0154642D01*
X0051523Y0154642D02*
X0051851Y0154642D01*
X0053115Y0157038D02*
X0054598Y0157038D01*
X0054670Y0157837D02*
X0052527Y0157837D01*
X0053001Y0158635D02*
X0051646Y0158635D01*
X0052240Y0159434D02*
X0038700Y0159434D01*
X0038700Y0160232D02*
X0052011Y0160232D01*
X0052270Y0161031D02*
X0038553Y0161031D01*
X0038222Y0161829D02*
X0053054Y0161829D01*
X0054005Y0161829D02*
X0055137Y0161829D01*
X0054804Y0161031D02*
X0055935Y0161031D01*
X0056732Y0161031D02*
X0057864Y0161031D01*
X0057531Y0161829D02*
X0058662Y0161829D01*
X0059335Y0161829D02*
X0063000Y0161829D01*
X0063000Y0161031D02*
X0060133Y0161031D01*
X0060624Y0160232D02*
X0063000Y0160232D01*
X0063000Y0159434D02*
X0061447Y0159434D01*
X0062246Y0158635D02*
X0063000Y0158635D01*
X0063044Y0157837D02*
X0063349Y0157837D01*
X0063843Y0157038D02*
X0064148Y0157038D01*
X0064641Y0156239D02*
X0064946Y0156239D01*
X0069804Y0157038D02*
X0073134Y0157038D01*
X0073932Y0157837D02*
X0072119Y0157837D01*
X0072787Y0158635D02*
X0074324Y0158635D01*
X0074324Y0159434D02*
X0072787Y0159434D01*
X0072787Y0160232D02*
X0074324Y0160232D01*
X0074324Y0161031D02*
X0072787Y0161031D01*
X0072787Y0161829D02*
X0074324Y0161829D01*
X0074324Y0162628D02*
X0072787Y0162628D01*
X0072787Y0163426D02*
X0074324Y0163426D01*
X0074720Y0164225D02*
X0072392Y0164225D01*
X0072219Y0165023D02*
X0074892Y0165023D01*
X0074324Y0165822D02*
X0072787Y0165822D01*
X0072787Y0166620D02*
X0074324Y0166620D01*
X0074324Y0167419D02*
X0072787Y0167419D01*
X0072787Y0168217D02*
X0074324Y0168217D01*
X0074324Y0169016D02*
X0072787Y0169016D01*
X0072787Y0169814D02*
X0074324Y0169814D01*
X0074324Y0170613D02*
X0072787Y0170613D01*
X0065269Y0170613D02*
X0041565Y0170613D01*
X0042115Y0169814D02*
X0061591Y0169814D01*
X0057366Y0169016D02*
X0057269Y0169016D01*
X0054271Y0169016D02*
X0053471Y0169016D01*
X0053471Y0168217D02*
X0054271Y0168217D01*
X0054271Y0167419D02*
X0053471Y0167419D01*
X0053471Y0166620D02*
X0042115Y0166620D01*
X0042115Y0165822D02*
X0050305Y0165822D01*
X0050305Y0165023D02*
X0042115Y0165023D01*
X0041602Y0164225D02*
X0050307Y0164225D01*
X0050714Y0163426D02*
X0037004Y0163426D01*
X0036291Y0164225D02*
X0035681Y0164225D01*
X0035778Y0165023D02*
X0035422Y0165023D01*
X0035422Y0165822D02*
X0035778Y0165822D01*
X0035778Y0166620D02*
X0035422Y0166620D01*
X0035422Y0167419D02*
X0035778Y0167419D01*
X0035778Y0168217D02*
X0035422Y0168217D01*
X0035422Y0169016D02*
X0035778Y0169016D01*
X0035778Y0169814D02*
X0035422Y0169814D01*
X0030459Y0171411D02*
X0028200Y0171411D01*
X0028200Y0170613D02*
X0029635Y0170613D01*
X0029085Y0169814D02*
X0028200Y0169814D01*
X0028200Y0172210D02*
X0029711Y0172210D01*
X0029380Y0173008D02*
X0028200Y0173008D01*
X0028200Y0173807D02*
X0029049Y0173807D01*
X0029000Y0174605D02*
X0028200Y0174605D01*
X0028200Y0175404D02*
X0029000Y0175404D01*
X0029136Y0176202D02*
X0028200Y0176202D01*
X0028200Y0177001D02*
X0029466Y0177001D01*
X0029870Y0177799D02*
X0028200Y0177799D01*
X0028200Y0178598D02*
X0030668Y0178598D01*
X0031951Y0179396D02*
X0028200Y0179396D01*
X0028200Y0180195D02*
X0032455Y0180195D01*
X0030877Y0180993D02*
X0028200Y0180993D01*
X0028896Y0181792D02*
X0030079Y0181792D01*
X0026483Y0184187D02*
X0023131Y0184187D01*
X0023131Y0183389D02*
X0025685Y0183389D01*
X0024886Y0182590D02*
X0023131Y0182590D01*
X0023131Y0181792D02*
X0024800Y0181792D01*
X0024800Y0180993D02*
X0023131Y0180993D01*
X0023131Y0180195D02*
X0024800Y0180195D01*
X0024800Y0179396D02*
X0023131Y0179396D01*
X0023131Y0178598D02*
X0024800Y0178598D01*
X0024800Y0177799D02*
X0023131Y0177799D01*
X0023131Y0177001D02*
X0024800Y0177001D01*
X0024800Y0176202D02*
X0023131Y0176202D01*
X0023131Y0175404D02*
X0024800Y0175404D01*
X0024800Y0174605D02*
X0023131Y0174605D01*
X0023131Y0173807D02*
X0024800Y0173807D01*
X0024800Y0173008D02*
X0023131Y0173008D01*
X0023131Y0172210D02*
X0024800Y0172210D01*
X0024800Y0171411D02*
X0023131Y0171411D01*
X0023131Y0170613D02*
X0024800Y0170613D01*
X0024800Y0169814D02*
X0023131Y0169814D01*
X0023131Y0169016D02*
X0024800Y0169016D01*
X0024800Y0168217D02*
X0023131Y0168217D01*
X0023131Y0167419D02*
X0024800Y0167419D01*
X0024800Y0166620D02*
X0023131Y0166620D01*
X0023131Y0165822D02*
X0024800Y0165822D01*
X0024800Y0165023D02*
X0023131Y0165023D01*
X0023131Y0164225D02*
X0024800Y0164225D01*
X0024800Y0163426D02*
X0023131Y0163426D01*
X0023131Y0162628D02*
X0024800Y0162628D01*
X0024800Y0161829D02*
X0023131Y0161829D01*
X0023131Y0161031D02*
X0024800Y0161031D01*
X0024800Y0160232D02*
X0023131Y0160232D01*
X0023131Y0159434D02*
X0024800Y0159434D01*
X0024800Y0158635D02*
X0023131Y0158635D01*
X0023131Y0157837D02*
X0024800Y0157837D01*
X0024800Y0157038D02*
X0023131Y0157038D01*
X0023131Y0156239D02*
X0024800Y0156239D01*
X0024800Y0155441D02*
X0023131Y0155441D01*
X0023131Y0154642D02*
X0024800Y0154642D01*
X0024800Y0153844D02*
X0023131Y0153844D01*
X0023131Y0153045D02*
X0024800Y0153045D01*
X0024800Y0152247D02*
X0023131Y0152247D01*
X0023131Y0151448D02*
X0024800Y0151448D01*
X0024800Y0150650D02*
X0023131Y0150650D01*
X0023131Y0149851D02*
X0024800Y0149851D01*
X0024800Y0149053D02*
X0023131Y0149053D01*
X0023131Y0148254D02*
X0024800Y0148254D01*
X0024800Y0147456D02*
X0023131Y0147456D01*
X0023131Y0146657D02*
X0024800Y0146657D01*
X0024800Y0145859D02*
X0023131Y0145859D01*
X0023131Y0145060D02*
X0024800Y0145060D01*
X0024800Y0144262D02*
X0023131Y0144262D01*
X0023131Y0143463D02*
X0024800Y0143463D01*
X0024800Y0142665D02*
X0023131Y0142665D01*
X0023131Y0141866D02*
X0024800Y0141866D01*
X0024800Y0141068D02*
X0023131Y0141068D01*
X0023131Y0140269D02*
X0024800Y0140269D01*
X0024800Y0139471D02*
X0023131Y0139471D01*
X0023131Y0138672D02*
X0024800Y0138672D01*
X0024800Y0137874D02*
X0023131Y0137874D01*
X0023131Y0137075D02*
X0024800Y0137075D01*
X0024800Y0136277D02*
X0023131Y0136277D01*
X0023131Y0135478D02*
X0024800Y0135478D01*
X0024800Y0134680D02*
X0023131Y0134680D01*
X0028200Y0155441D02*
X0031278Y0155441D01*
X0030331Y0156239D02*
X0028200Y0156239D01*
X0028200Y0157038D02*
X0029599Y0157038D01*
X0029268Y0157837D02*
X0028200Y0157837D01*
X0028200Y0158635D02*
X0028937Y0158635D01*
X0028900Y0159434D02*
X0028200Y0159434D01*
X0028200Y0160232D02*
X0028900Y0160232D01*
X0029047Y0161031D02*
X0028200Y0161031D01*
X0028200Y0161829D02*
X0029378Y0161829D01*
X0029798Y0162628D02*
X0028200Y0162628D01*
X0028200Y0163426D02*
X0030596Y0163426D01*
X0028732Y0164225D02*
X0028200Y0164225D01*
X0036322Y0155441D02*
X0036755Y0155441D01*
X0039168Y0157837D02*
X0049437Y0157837D01*
X0050319Y0158635D02*
X0038663Y0158635D01*
X0037802Y0162628D02*
X0054338Y0162628D01*
X0054271Y0163426D02*
X0053471Y0163426D01*
X0053471Y0164225D02*
X0054271Y0164225D01*
X0054271Y0165023D02*
X0053471Y0165023D01*
X0053471Y0165822D02*
X0054271Y0165822D01*
X0050305Y0167419D02*
X0042115Y0167419D01*
X0042115Y0168217D02*
X0050305Y0168217D01*
X0050472Y0169016D02*
X0042115Y0169016D01*
X0040646Y0171411D02*
X0048716Y0171411D01*
X0046992Y0172210D02*
X0040646Y0172210D01*
X0040646Y0173008D02*
X0046194Y0173008D01*
X0045553Y0173807D02*
X0040597Y0173807D01*
X0039799Y0174605D02*
X0045223Y0174605D01*
X0044892Y0175404D02*
X0039000Y0175404D01*
X0038664Y0176202D02*
X0044869Y0176202D01*
X0044869Y0177001D02*
X0038334Y0177001D01*
X0037930Y0177799D02*
X0044869Y0177799D01*
X0044869Y0178598D02*
X0037132Y0178598D01*
X0035849Y0179396D02*
X0044869Y0179396D01*
X0044869Y0180195D02*
X0035345Y0180195D01*
X0036923Y0180993D02*
X0044869Y0180993D01*
X0044869Y0181792D02*
X0037721Y0181792D01*
X0038247Y0182590D02*
X0044869Y0182590D01*
X0044869Y0183389D02*
X0038578Y0183389D01*
X0038800Y0184187D02*
X0044869Y0184187D01*
X0044869Y0184986D02*
X0038800Y0184986D01*
X0038800Y0185784D02*
X0044869Y0185784D01*
X0044861Y0186583D02*
X0038507Y0186583D01*
X0038176Y0187381D02*
X0044711Y0187381D01*
X0044381Y0188180D02*
X0037550Y0188180D01*
X0036751Y0188978D02*
X0043694Y0188978D01*
X0042223Y0189777D02*
X0034930Y0189777D01*
X0032870Y0189777D02*
X0025777Y0189777D01*
X0024306Y0188978D02*
X0031049Y0188978D01*
X0030250Y0188180D02*
X0023619Y0188180D01*
X0023289Y0187381D02*
X0029624Y0187381D01*
X0028879Y0186583D02*
X0023139Y0186583D01*
X0023131Y0185784D02*
X0028080Y0185784D01*
X0027282Y0184986D02*
X0023131Y0184986D01*
X0054337Y0158635D02*
X0055468Y0158635D01*
X0055135Y0159434D02*
X0056267Y0159434D01*
X0055934Y0160232D02*
X0055602Y0160232D01*
X0056734Y0160232D02*
X0057065Y0160232D01*
X0058329Y0162628D02*
X0063000Y0162628D01*
X0070603Y0156239D02*
X0072335Y0156239D01*
X0071700Y0155441D02*
X0071401Y0155441D01*
X0061877Y0141068D02*
X0061483Y0141068D01*
X0054445Y0145060D02*
X0050595Y0145060D01*
X0051393Y0144262D02*
X0053929Y0144262D01*
X0053131Y0143463D02*
X0052192Y0143463D01*
X0052865Y0148254D02*
X0049789Y0148254D01*
X0050588Y0149053D02*
X0052066Y0149053D01*
X0051731Y0149851D02*
X0050882Y0149851D01*
X0043607Y0148254D02*
X0043387Y0148254D01*
X0042809Y0149053D02*
X0042588Y0149053D01*
X0037300Y0113918D02*
X0036671Y0113918D01*
X0034200Y0113918D02*
X0033400Y0113918D01*
X0033400Y0113120D02*
X0034200Y0113120D01*
X0034200Y0112321D02*
X0033400Y0112321D01*
X0033400Y0111523D02*
X0034200Y0111523D01*
X0034200Y0110724D02*
X0033400Y0110724D01*
X0033400Y0109926D02*
X0028200Y0109926D01*
X0028200Y0110724D02*
X0028799Y0110724D01*
X0029030Y0111523D02*
X0028200Y0111523D01*
X0028200Y0112321D02*
X0029412Y0112321D01*
X0030007Y0113120D02*
X0028200Y0113120D01*
X0028200Y0113918D02*
X0030929Y0113918D01*
X0028727Y0109127D02*
X0028200Y0109127D01*
X0028200Y0108329D02*
X0028883Y0108329D01*
X0029182Y0107530D02*
X0028200Y0107530D01*
X0028972Y0106732D02*
X0029653Y0106732D01*
X0029771Y0105933D02*
X0030354Y0105933D01*
X0030569Y0105135D02*
X0031526Y0105135D01*
X0031368Y0104336D02*
X0037336Y0104336D01*
X0036761Y0103762D02*
X0036577Y0103443D01*
X0036481Y0103086D01*
X0036481Y0102718D01*
X0036577Y0102362D01*
X0036761Y0102043D01*
X0038140Y0100664D01*
X0040239Y0102763D01*
X0040804Y0102197D01*
X0038705Y0100098D01*
X0040084Y0098720D01*
X0040403Y0098535D01*
X0040750Y0098442D01*
X0040806Y0098232D01*
X0040990Y0097913D01*
X0042369Y0096535D01*
X0044468Y0098634D01*
X0042230Y0100872D01*
X0042180Y0100822D01*
X0040804Y0102197D01*
X0041370Y0102763D01*
X0040804Y0103329D01*
X0040239Y0102763D01*
X0038001Y0105001D01*
X0036761Y0103762D01*
X0036632Y0103538D02*
X0032166Y0103538D01*
X0032965Y0102739D02*
X0036481Y0102739D01*
X0036863Y0101941D02*
X0035076Y0101941D01*
X0035961Y0101142D02*
X0037661Y0101142D01*
X0038618Y0101142D02*
X0039749Y0101142D01*
X0039416Y0101941D02*
X0040548Y0101941D01*
X0041061Y0101941D02*
X0042192Y0101941D01*
X0041859Y0101142D02*
X0042991Y0101142D01*
X0042758Y0100344D02*
X0043889Y0100344D01*
X0043658Y0100575D02*
X0045034Y0099199D01*
X0047133Y0101298D01*
X0045754Y0102677D01*
X0045435Y0102861D01*
X0045088Y0102954D01*
X0045032Y0103164D01*
X0044848Y0103483D01*
X0043469Y0104862D01*
X0041370Y0102763D01*
X0043608Y0100525D01*
X0043658Y0100575D01*
X0043557Y0099545D02*
X0044688Y0099545D01*
X0045034Y0099199D02*
X0044468Y0098634D01*
X0045034Y0098068D01*
X0045599Y0098634D01*
X0045034Y0099199D01*
X0045380Y0099545D02*
X0046511Y0099545D01*
X0046178Y0100344D02*
X0047309Y0100344D01*
X0047698Y0100733D02*
X0045599Y0098634D01*
X0047838Y0096395D01*
X0049077Y0097635D01*
X0049261Y0097954D01*
X0049357Y0098310D01*
X0049357Y0098679D01*
X0049261Y0099035D01*
X0049077Y0099354D01*
X0047698Y0100733D01*
X0047509Y0101142D02*
X0046977Y0101142D01*
X0046711Y0101941D02*
X0046490Y0101941D01*
X0045912Y0102739D02*
X0045646Y0102739D01*
X0045014Y0103538D02*
X0044793Y0103538D01*
X0044215Y0104336D02*
X0043995Y0104336D01*
X0043417Y0105135D02*
X0042611Y0105135D01*
X0042903Y0105428D02*
X0041525Y0106806D01*
X0041206Y0106991D01*
X0040850Y0107086D01*
X0040481Y0107086D01*
X0040125Y0106991D01*
X0039806Y0106806D01*
X0038566Y0105567D01*
X0040804Y0103329D01*
X0042903Y0105428D01*
X0042618Y0105933D02*
X0042398Y0105933D01*
X0041820Y0106732D02*
X0041599Y0106732D01*
X0041414Y0107530D02*
X0038418Y0107530D01*
X0038717Y0108329D02*
X0039881Y0108329D01*
X0039731Y0106732D02*
X0037947Y0106732D01*
X0037246Y0105933D02*
X0038933Y0105933D01*
X0038998Y0105135D02*
X0036074Y0105135D01*
X0034200Y0105135D02*
X0033400Y0105135D01*
X0033400Y0105933D02*
X0034200Y0105933D01*
X0034200Y0106732D02*
X0033400Y0106732D01*
X0033400Y0107530D02*
X0034200Y0107530D01*
X0034200Y0108329D02*
X0033400Y0108329D01*
X0033400Y0109127D02*
X0034200Y0109127D01*
X0038665Y0104336D02*
X0039797Y0104336D01*
X0039464Y0103538D02*
X0040595Y0103538D01*
X0041013Y0103538D02*
X0042145Y0103538D01*
X0041812Y0104336D02*
X0042943Y0104336D01*
X0041394Y0102739D02*
X0041346Y0102739D01*
X0040262Y0102739D02*
X0040215Y0102739D01*
X0038951Y0100344D02*
X0036302Y0100344D01*
X0036389Y0099545D02*
X0039258Y0099545D01*
X0040057Y0098747D02*
X0036257Y0098747D01*
X0035851Y0097948D02*
X0040970Y0097948D01*
X0041754Y0097150D02*
X0034811Y0097150D01*
X0040385Y0096351D02*
X0043317Y0096351D01*
X0042935Y0095969D02*
X0044313Y0094590D01*
X0044632Y0094406D01*
X0044989Y0094311D01*
X0045357Y0094311D01*
X0045713Y0094406D01*
X0046032Y0094590D01*
X0047272Y0095830D01*
X0045034Y0098068D01*
X0042935Y0095969D01*
X0043351Y0095553D02*
X0040692Y0095553D01*
X0040692Y0094754D02*
X0044149Y0094754D01*
X0046196Y0094754D02*
X0052308Y0094754D01*
X0052308Y0095553D02*
X0046995Y0095553D01*
X0046751Y0096351D02*
X0052615Y0096351D01*
X0050327Y0093956D02*
X0040692Y0093956D01*
X0040692Y0093157D02*
X0049529Y0093157D01*
X0048730Y0092359D02*
X0040724Y0092359D01*
X0040724Y0091560D02*
X0047932Y0091560D01*
X0047133Y0090762D02*
X0040724Y0090762D01*
X0040724Y0089963D02*
X0044703Y0089963D01*
X0045897Y0089963D02*
X0046335Y0089963D01*
X0043362Y0089165D02*
X0040724Y0089165D01*
X0040724Y0088366D02*
X0042831Y0088366D01*
X0042611Y0087568D02*
X0040724Y0087568D01*
X0040724Y0086769D02*
X0042611Y0086769D01*
X0042940Y0085970D02*
X0040724Y0085970D01*
X0040724Y0085172D02*
X0043625Y0085172D01*
X0042925Y0084373D02*
X0068000Y0084373D01*
X0068000Y0083575D02*
X0068800Y0083575D01*
X0068800Y0082776D02*
X0068000Y0082776D01*
X0068000Y0081978D02*
X0068800Y0081978D01*
X0068800Y0081179D02*
X0068000Y0081179D01*
X0070800Y0080381D02*
X0044500Y0080381D01*
X0044700Y0081179D02*
X0065523Y0081179D01*
X0064894Y0081978D02*
X0044700Y0081978D01*
X0044435Y0082776D02*
X0064835Y0082776D01*
X0064835Y0083575D02*
X0043951Y0083575D01*
X0046975Y0085172D02*
X0064835Y0085172D01*
X0062300Y0085970D02*
X0061500Y0085970D01*
X0061500Y0086769D02*
X0062300Y0086769D01*
X0062300Y0087568D02*
X0061500Y0087568D01*
X0061500Y0088366D02*
X0062300Y0088366D01*
X0062300Y0089254D02*
X0061500Y0089254D01*
X0061500Y0092222D01*
X0059550Y0092222D01*
X0059194Y0092127D01*
X0058875Y0091942D01*
X0058645Y0091712D01*
X0058645Y0092971D01*
X0059238Y0092378D01*
X0064562Y0092378D01*
X0065035Y0092850D01*
X0065035Y0091833D01*
X0064925Y0091942D01*
X0064606Y0092127D01*
X0064250Y0092222D01*
X0062300Y0092222D01*
X0062300Y0089254D01*
X0062300Y0089963D02*
X0061500Y0089963D01*
X0061500Y0090762D02*
X0062300Y0090762D01*
X0062300Y0091560D02*
X0061500Y0091560D01*
X0058645Y0092359D02*
X0065035Y0092359D01*
X0065465Y0087568D02*
X0065592Y0087568D01*
X0068000Y0087568D02*
X0068800Y0087568D01*
X0068800Y0086769D02*
X0068000Y0086769D01*
X0068000Y0085970D02*
X0068800Y0085970D01*
X0068800Y0085172D02*
X0068000Y0085172D01*
X0070800Y0079582D02*
X0044108Y0079582D01*
X0043305Y0078784D02*
X0070800Y0078784D01*
X0070800Y0077985D02*
X0023131Y0077985D01*
X0023131Y0077187D02*
X0035405Y0077187D01*
X0046100Y0077187D02*
X0046900Y0077187D01*
X0046900Y0076388D02*
X0046100Y0076388D01*
X0046100Y0075590D02*
X0046900Y0075590D01*
X0046900Y0074791D02*
X0046100Y0074791D01*
X0046100Y0073993D02*
X0046900Y0073993D01*
X0046900Y0073194D02*
X0046100Y0073194D01*
X0046100Y0072396D02*
X0046900Y0072396D01*
X0046900Y0071597D02*
X0046100Y0071597D01*
X0046100Y0070799D02*
X0046900Y0070799D01*
X0046900Y0070000D02*
X0046100Y0070000D01*
X0046100Y0069202D02*
X0046900Y0069202D01*
X0046900Y0068403D02*
X0046100Y0068403D01*
X0046100Y0067605D02*
X0046900Y0067605D01*
X0046900Y0066806D02*
X0046100Y0066806D01*
X0046100Y0066008D02*
X0046900Y0066008D01*
X0046900Y0065209D02*
X0046100Y0065209D01*
X0046100Y0064411D02*
X0046900Y0064411D01*
X0046900Y0062015D02*
X0046100Y0062015D01*
X0046100Y0061217D02*
X0046900Y0061217D01*
X0046900Y0060418D02*
X0046100Y0060418D01*
X0046100Y0059620D02*
X0046900Y0059620D01*
X0046900Y0058821D02*
X0046100Y0058821D01*
X0046100Y0058023D02*
X0046900Y0058023D01*
X0046900Y0057224D02*
X0046100Y0057224D01*
X0046100Y0056426D02*
X0046900Y0056426D01*
X0046900Y0055627D02*
X0046100Y0055627D01*
X0046100Y0054829D02*
X0046900Y0054829D01*
X0046900Y0054030D02*
X0046100Y0054030D01*
X0046100Y0053232D02*
X0046900Y0053232D01*
X0046900Y0052433D02*
X0046100Y0052433D01*
X0046100Y0051634D02*
X0046900Y0051634D01*
X0046900Y0050836D02*
X0046100Y0050836D01*
X0034610Y0050836D02*
X0023131Y0050836D01*
X0023131Y0051634D02*
X0034470Y0051634D01*
X0034470Y0052433D02*
X0023131Y0052433D01*
X0023131Y0053232D02*
X0034470Y0053232D01*
X0034470Y0054030D02*
X0023131Y0054030D01*
X0023131Y0054829D02*
X0034470Y0054829D01*
X0034470Y0055627D02*
X0023131Y0055627D01*
X0023131Y0056426D02*
X0034470Y0056426D01*
X0034470Y0057224D02*
X0023131Y0057224D01*
X0023131Y0058023D02*
X0034470Y0058023D01*
X0034470Y0058821D02*
X0023131Y0058821D01*
X0023131Y0059620D02*
X0034470Y0059620D01*
X0034470Y0060418D02*
X0023131Y0060418D01*
X0023131Y0061217D02*
X0034470Y0061217D01*
X0034470Y0062015D02*
X0023131Y0062015D01*
X0047999Y0085970D02*
X0058669Y0085970D01*
X0058335Y0086769D02*
X0048797Y0086769D01*
X0049596Y0087568D02*
X0058335Y0087568D01*
X0058335Y0088366D02*
X0058260Y0088366D01*
X0052693Y0088366D02*
X0050394Y0088366D01*
X0051193Y0089165D02*
X0052308Y0089165D01*
X0052308Y0089963D02*
X0051991Y0089963D01*
X0048592Y0097150D02*
X0058535Y0097150D01*
X0058535Y0097948D02*
X0049258Y0097948D01*
X0049339Y0098747D02*
X0059449Y0098747D01*
X0058651Y0099545D02*
X0050704Y0099545D01*
X0051503Y0100344D02*
X0057852Y0100344D01*
X0057834Y0101142D02*
X0052302Y0101142D01*
X0053100Y0101941D02*
X0057352Y0101941D01*
X0057022Y0102739D02*
X0053889Y0102739D01*
X0053889Y0103538D02*
X0057011Y0103538D01*
X0056450Y0104336D02*
X0053277Y0104336D01*
X0053939Y0105135D02*
X0055652Y0105135D01*
X0049106Y0099545D02*
X0048886Y0099545D01*
X0048308Y0100344D02*
X0048087Y0100344D01*
X0045712Y0098747D02*
X0045486Y0098747D01*
X0045154Y0097948D02*
X0046285Y0097948D01*
X0045952Y0097150D02*
X0047083Y0097150D01*
X0044914Y0097948D02*
X0043782Y0097948D01*
X0044115Y0097150D02*
X0042984Y0097150D01*
X0044355Y0098747D02*
X0044581Y0098747D01*
X0041611Y0108329D02*
X0041519Y0108329D01*
X0058338Y0096351D02*
X0058535Y0096351D01*
X0057595Y0077187D02*
X0070800Y0077187D01*
X0070800Y0076388D02*
X0058438Y0076388D01*
X0058530Y0075590D02*
X0070800Y0075590D01*
X0070800Y0074791D02*
X0058530Y0074791D01*
X0058530Y0073993D02*
X0070800Y0073993D01*
X0071502Y0073194D02*
X0058530Y0073194D01*
X0058530Y0072396D02*
X0072300Y0072396D01*
X0073099Y0071597D02*
X0058530Y0071597D01*
X0058530Y0070799D02*
X0073897Y0070799D01*
X0072461Y0065209D02*
X0070661Y0065209D01*
X0070429Y0064411D02*
X0072775Y0064411D01*
X0073573Y0063612D02*
X0069631Y0063612D01*
X0086461Y0066382D02*
X0086500Y0066421D01*
X0086500Y0079300D01*
X0098714Y0070799D02*
X0098924Y0070799D01*
X0098782Y0070000D02*
X0103149Y0070000D01*
X0103624Y0069202D02*
X0099580Y0069202D01*
X0100379Y0068403D02*
X0102825Y0068403D01*
X0102461Y0067605D02*
X0100661Y0067605D01*
X0100661Y0066806D02*
X0102461Y0066806D01*
X0094042Y0059620D02*
X0088880Y0059620D01*
X0089678Y0058821D02*
X0093243Y0058821D01*
X0092461Y0058023D02*
X0090461Y0058023D01*
X0090461Y0057224D02*
X0092461Y0057224D01*
X0092461Y0056426D02*
X0090461Y0056426D01*
X0090461Y0055627D02*
X0092461Y0055627D01*
X0092461Y0054829D02*
X0090461Y0054829D01*
X0089766Y0054030D02*
X0093156Y0054030D01*
X0093954Y0053232D02*
X0088967Y0053232D01*
X0088169Y0052433D02*
X0094753Y0052433D01*
X0073180Y0035664D02*
X0069300Y0035664D01*
X0069300Y0034866D02*
X0073135Y0034866D01*
X0073135Y0034067D02*
X0069300Y0034067D01*
X0069300Y0033269D02*
X0073135Y0033269D01*
X0073135Y0032470D02*
X0069490Y0032470D01*
X0070288Y0031672D02*
X0073135Y0031672D01*
X0073135Y0030873D02*
X0071087Y0030873D01*
X0079865Y0106732D02*
X0081909Y0106732D01*
X0081110Y0107530D02*
X0079865Y0107530D01*
X0079865Y0108329D02*
X0080312Y0108329D01*
D29*
X0076800Y0100454D02*
X0076800Y0090846D01*
X0077500Y0098400D02*
X0077500Y0099754D01*
X0077498Y0099804D01*
X0077493Y0099854D01*
X0077484Y0099903D01*
X0077472Y0099951D01*
X0077456Y0099999D01*
X0077437Y0100045D01*
X0077414Y0100089D01*
X0077389Y0100132D01*
X0077360Y0100173D01*
X0077329Y0100212D01*
X0077295Y0100249D01*
X0077258Y0100283D01*
X0077219Y0100314D01*
X0077178Y0100343D01*
X0077135Y0100368D01*
X0077091Y0100391D01*
X0077045Y0100410D01*
X0076997Y0100426D01*
X0076949Y0100438D01*
X0076900Y0100447D01*
X0076850Y0100452D01*
X0076800Y0100454D01*
X0076798Y0100488D01*
X0076792Y0100521D01*
X0076783Y0100553D01*
X0076770Y0100584D01*
X0076754Y0100614D01*
X0076735Y0100641D01*
X0076712Y0100666D01*
X0076687Y0100689D01*
X0076660Y0100708D01*
X0076630Y0100724D01*
X0076599Y0100737D01*
X0076567Y0100746D01*
X0076534Y0100752D01*
X0076500Y0100754D01*
X0055476Y0092398D02*
X0051598Y0092398D01*
X0046500Y0087300D01*
X0045300Y0087300D01*
X0044117Y0115900D02*
X0042000Y0115900D01*
X0044117Y0115900D02*
X0046758Y0118541D01*
X0064673Y0141100D02*
X0064700Y0141100D01*
X0068300Y0144700D01*
X0070900Y0147300D01*
X0076500Y0147300D01*
X0068300Y0146381D02*
X0068300Y0144700D01*
X0068300Y0146381D02*
X0064791Y0149891D01*
X0060336Y0145437D02*
X0064673Y0141100D01*
X0031754Y0166900D02*
X0029300Y0166900D01*
X0031754Y0166900D02*
X0031798Y0166902D01*
X0031841Y0166908D01*
X0031883Y0166917D01*
X0031925Y0166930D01*
X0031965Y0166947D01*
X0032004Y0166967D01*
X0032041Y0166990D01*
X0032075Y0167017D01*
X0032108Y0167046D01*
X0032137Y0167079D01*
X0032164Y0167113D01*
X0032187Y0167150D01*
X0032207Y0167189D01*
X0032224Y0167229D01*
X0032237Y0167271D01*
X0032246Y0167313D01*
X0032252Y0167356D01*
X0032254Y0167400D01*
X0119000Y0149346D02*
X0128846Y0149346D01*
X0129000Y0149500D01*
X0119000Y0142654D02*
X0119000Y0114000D01*
X0119002Y0113861D01*
X0119008Y0113722D01*
X0119018Y0113583D01*
X0119032Y0113445D01*
X0119049Y0113307D01*
X0119071Y0113169D01*
X0119097Y0113032D01*
X0119126Y0112896D01*
X0119159Y0112761D01*
X0119196Y0112627D01*
X0119237Y0112494D01*
X0119282Y0112362D01*
X0119330Y0112232D01*
X0119382Y0112103D01*
X0119438Y0111975D01*
X0119497Y0111849D01*
X0119560Y0111725D01*
X0119626Y0111603D01*
X0119696Y0111482D01*
X0119769Y0111364D01*
X0119846Y0111248D01*
X0119926Y0111134D01*
X0120009Y0111022D01*
X0120095Y0110913D01*
X0120184Y0110806D01*
X0120276Y0110702D01*
X0120371Y0110600D01*
X0120469Y0110501D01*
X0120570Y0110405D01*
X0120674Y0110312D01*
X0120780Y0110222D01*
X0120888Y0110135D01*
X0120999Y0110051D01*
X0121112Y0109970D01*
X0121228Y0109893D01*
X0121346Y0109818D01*
X0121465Y0109748D01*
X0121587Y0109680D01*
X0121711Y0109616D01*
X0121836Y0109556D01*
X0121963Y0109499D01*
X0122092Y0109446D01*
X0122222Y0109396D01*
X0122353Y0109351D01*
X0122486Y0109308D01*
X0122620Y0109270D01*
X0122755Y0109236D01*
X0122890Y0109205D01*
X0123027Y0109178D01*
X0123164Y0109156D01*
X0123302Y0109137D01*
X0123440Y0109122D01*
X0123579Y0109111D01*
X0123718Y0109103D01*
X0123857Y0109100D01*
X0123996Y0109101D01*
X0124135Y0109106D01*
X0124274Y0109114D01*
X0124413Y0109127D01*
X0124551Y0109143D01*
X0124689Y0109164D01*
X0124826Y0109188D01*
X0124962Y0109216D01*
X0125097Y0109249D01*
X0125232Y0109284D01*
X0125365Y0109324D01*
X0125497Y0109368D01*
X0125628Y0109415D01*
X0125758Y0109466D01*
X0125886Y0109520D01*
X0126012Y0109579D01*
X0126137Y0109640D01*
X0126260Y0109706D01*
X0126381Y0109774D01*
X0126500Y0109847D01*
X0126500Y0109846D02*
X0133500Y0109846D01*
X0133500Y0103154D02*
X0126500Y0103154D01*
X0126498Y0103209D01*
X0126493Y0103264D01*
X0126484Y0103319D01*
X0126471Y0103373D01*
X0126455Y0103426D01*
X0126436Y0103478D01*
X0126413Y0103528D01*
X0126387Y0103577D01*
X0126357Y0103624D01*
X0126325Y0103669D01*
X0126290Y0103712D01*
X0126252Y0103752D01*
X0126212Y0103790D01*
X0126169Y0103825D01*
X0126124Y0103857D01*
X0126077Y0103887D01*
X0126028Y0103913D01*
X0125978Y0103936D01*
X0125926Y0103955D01*
X0125873Y0103971D01*
X0125819Y0103984D01*
X0125764Y0103993D01*
X0125709Y0103998D01*
X0125654Y0104000D01*
X0123300Y0104000D01*
X0133500Y0103154D02*
X0134846Y0103154D01*
X0144000Y0107500D02*
X0144000Y0124000D01*
X0144002Y0124098D01*
X0144008Y0124196D01*
X0144017Y0124294D01*
X0144031Y0124391D01*
X0144048Y0124488D01*
X0144069Y0124584D01*
X0144094Y0124679D01*
X0144122Y0124773D01*
X0144155Y0124865D01*
X0144190Y0124957D01*
X0144230Y0125047D01*
X0144272Y0125135D01*
X0144319Y0125222D01*
X0144368Y0125306D01*
X0144421Y0125389D01*
X0144477Y0125469D01*
X0144537Y0125548D01*
X0144599Y0125624D01*
X0144664Y0125697D01*
X0144732Y0125768D01*
X0144803Y0125836D01*
X0144876Y0125901D01*
X0144952Y0125963D01*
X0145031Y0126023D01*
X0145111Y0126079D01*
X0145194Y0126132D01*
X0145278Y0126181D01*
X0145365Y0126228D01*
X0145453Y0126270D01*
X0145543Y0126310D01*
X0145635Y0126345D01*
X0145727Y0126378D01*
X0145821Y0126406D01*
X0145916Y0126431D01*
X0146012Y0126452D01*
X0146109Y0126469D01*
X0146206Y0126483D01*
X0146304Y0126492D01*
X0146402Y0126498D01*
X0146500Y0126500D01*
X0146640Y0126502D01*
X0146780Y0126508D01*
X0146920Y0126518D01*
X0147060Y0126531D01*
X0147199Y0126549D01*
X0147338Y0126571D01*
X0147475Y0126596D01*
X0147613Y0126625D01*
X0147749Y0126658D01*
X0147884Y0126695D01*
X0148018Y0126736D01*
X0148151Y0126781D01*
X0148283Y0126829D01*
X0148413Y0126881D01*
X0148542Y0126936D01*
X0148669Y0126995D01*
X0148795Y0127058D01*
X0148919Y0127124D01*
X0149040Y0127193D01*
X0149160Y0127266D01*
X0149278Y0127343D01*
X0149393Y0127422D01*
X0149507Y0127505D01*
X0149617Y0127591D01*
X0149726Y0127680D01*
X0149832Y0127772D01*
X0149935Y0127867D01*
X0150036Y0127964D01*
X0150133Y0128065D01*
X0150228Y0128168D01*
X0150320Y0128274D01*
X0150409Y0128383D01*
X0150495Y0128493D01*
X0150578Y0128607D01*
X0150657Y0128722D01*
X0150734Y0128840D01*
X0150807Y0128960D01*
X0150876Y0129081D01*
X0150942Y0129205D01*
X0151005Y0129331D01*
X0151064Y0129458D01*
X0151119Y0129587D01*
X0151171Y0129717D01*
X0151219Y0129849D01*
X0151264Y0129982D01*
X0151305Y0130116D01*
X0151342Y0130251D01*
X0151375Y0130387D01*
X0151404Y0130525D01*
X0151429Y0130662D01*
X0151451Y0130801D01*
X0151469Y0130940D01*
X0151482Y0131080D01*
X0151492Y0131220D01*
X0151498Y0131360D01*
X0151500Y0131500D01*
X0151500Y0152354D01*
X0151500Y0159046D02*
X0159346Y0159046D01*
X0159368Y0159048D01*
X0159389Y0159052D01*
X0159410Y0159060D01*
X0159429Y0159070D01*
X0159447Y0159084D01*
X0159462Y0159099D01*
X0159476Y0159117D01*
X0159486Y0159136D01*
X0159494Y0159157D01*
X0159498Y0159178D01*
X0159500Y0159200D01*
X0159600Y0139000D02*
X0159600Y0129846D01*
X0159600Y0123154D02*
X0159600Y0113112D01*
X0159712Y0113000D01*
X0157000Y0104846D02*
X0149000Y0104846D01*
X0149000Y0104847D02*
X0148906Y0104785D01*
X0148810Y0104728D01*
X0148712Y0104673D01*
X0148613Y0104622D01*
X0148511Y0104575D01*
X0148408Y0104531D01*
X0148304Y0104491D01*
X0148198Y0104454D01*
X0148091Y0104421D01*
X0147983Y0104392D01*
X0147874Y0104367D01*
X0147764Y0104345D01*
X0147654Y0104328D01*
X0147543Y0104314D01*
X0147431Y0104304D01*
X0147320Y0104298D01*
X0147208Y0104296D01*
X0147096Y0104298D01*
X0146984Y0104304D01*
X0146872Y0104313D01*
X0146761Y0104327D01*
X0146651Y0104344D01*
X0146541Y0104365D01*
X0146432Y0104390D01*
X0146324Y0104419D01*
X0146217Y0104452D01*
X0146111Y0104488D01*
X0146006Y0104528D01*
X0145903Y0104572D01*
X0145802Y0104619D01*
X0145702Y0104670D01*
X0145604Y0104724D01*
X0145508Y0104782D01*
X0145414Y0104843D01*
X0145322Y0104907D01*
X0145233Y0104974D01*
X0145146Y0105044D01*
X0145062Y0105118D01*
X0144980Y0105194D01*
X0144900Y0105273D01*
X0144824Y0105355D01*
X0144751Y0105439D01*
X0144680Y0105526D01*
X0144613Y0105616D01*
X0144549Y0105707D01*
X0144488Y0105801D01*
X0144430Y0105897D01*
X0144376Y0105995D01*
X0144325Y0106095D01*
X0144277Y0106196D01*
X0144234Y0106299D01*
X0144194Y0106403D01*
X0144157Y0106509D01*
X0144124Y0106616D01*
X0144095Y0106724D01*
X0144070Y0106833D01*
X0144049Y0106943D01*
X0144031Y0107054D01*
X0144018Y0107165D01*
X0144008Y0107276D01*
X0144002Y0107388D01*
X0144000Y0107500D01*
X0145800Y0099000D02*
X0148154Y0099000D01*
X0148209Y0098998D01*
X0148264Y0098993D01*
X0148319Y0098984D01*
X0148373Y0098971D01*
X0148426Y0098955D01*
X0148478Y0098936D01*
X0148528Y0098913D01*
X0148577Y0098887D01*
X0148624Y0098857D01*
X0148669Y0098825D01*
X0148712Y0098790D01*
X0148752Y0098752D01*
X0148790Y0098712D01*
X0148825Y0098669D01*
X0148857Y0098624D01*
X0148887Y0098577D01*
X0148913Y0098528D01*
X0148936Y0098478D01*
X0148955Y0098426D01*
X0148971Y0098373D01*
X0148984Y0098319D01*
X0148993Y0098264D01*
X0148998Y0098209D01*
X0149000Y0098154D01*
X0157000Y0098154D01*
X0130700Y0083800D02*
X0130700Y0071500D01*
X0130700Y0070700D01*
X0130700Y0070621D02*
X0130698Y0070493D01*
X0130692Y0070365D01*
X0130683Y0070237D01*
X0130669Y0070110D01*
X0130652Y0069983D01*
X0130631Y0069857D01*
X0130606Y0069731D01*
X0130577Y0069607D01*
X0130544Y0069483D01*
X0130508Y0069360D01*
X0130468Y0069238D01*
X0130425Y0069118D01*
X0130377Y0068999D01*
X0130327Y0068881D01*
X0130272Y0068765D01*
X0130214Y0068651D01*
X0130153Y0068539D01*
X0130089Y0068428D01*
X0130021Y0068319D01*
X0129950Y0068213D01*
X0129875Y0068109D01*
X0129798Y0068007D01*
X0129717Y0067907D01*
X0129634Y0067810D01*
X0129548Y0067715D01*
X0129458Y0067624D01*
X0129367Y0067534D01*
X0129272Y0067448D01*
X0129175Y0067365D01*
X0129075Y0067284D01*
X0128973Y0067207D01*
X0128869Y0067132D01*
X0128763Y0067061D01*
X0128654Y0066993D01*
X0128543Y0066929D01*
X0128431Y0066868D01*
X0128317Y0066810D01*
X0128201Y0066755D01*
X0128083Y0066705D01*
X0127964Y0066657D01*
X0127844Y0066614D01*
X0127722Y0066574D01*
X0127599Y0066538D01*
X0127475Y0066505D01*
X0127351Y0066476D01*
X0127225Y0066451D01*
X0127099Y0066430D01*
X0126972Y0066413D01*
X0126845Y0066399D01*
X0126717Y0066390D01*
X0126589Y0066384D01*
X0126461Y0066382D01*
X0126579Y0056500D02*
X0141500Y0056500D01*
X0141641Y0056502D01*
X0141781Y0056508D01*
X0141921Y0056517D01*
X0142061Y0056531D01*
X0142201Y0056548D01*
X0142339Y0056570D01*
X0142478Y0056595D01*
X0142615Y0056623D01*
X0142752Y0056656D01*
X0142888Y0056692D01*
X0143022Y0056733D01*
X0143156Y0056776D01*
X0143288Y0056824D01*
X0143419Y0056875D01*
X0143549Y0056930D01*
X0143677Y0056988D01*
X0143803Y0057050D01*
X0143927Y0057115D01*
X0144050Y0057183D01*
X0144171Y0057255D01*
X0144289Y0057330D01*
X0144406Y0057409D01*
X0144520Y0057491D01*
X0144632Y0057575D01*
X0144742Y0057663D01*
X0144849Y0057754D01*
X0144954Y0057848D01*
X0145056Y0057944D01*
X0145156Y0058044D01*
X0145252Y0058146D01*
X0145346Y0058251D01*
X0145437Y0058358D01*
X0145525Y0058468D01*
X0145609Y0058580D01*
X0145691Y0058694D01*
X0145770Y0058811D01*
X0145845Y0058929D01*
X0145917Y0059050D01*
X0145985Y0059173D01*
X0146050Y0059297D01*
X0146112Y0059423D01*
X0146170Y0059551D01*
X0146225Y0059681D01*
X0146276Y0059812D01*
X0146324Y0059944D01*
X0146367Y0060078D01*
X0146408Y0060212D01*
X0146444Y0060348D01*
X0146477Y0060485D01*
X0146505Y0060622D01*
X0146530Y0060761D01*
X0146552Y0060899D01*
X0146569Y0061039D01*
X0146583Y0061179D01*
X0146592Y0061319D01*
X0146598Y0061459D01*
X0146600Y0061600D01*
X0146600Y0068800D01*
X0126579Y0056500D02*
X0126559Y0056498D01*
X0126539Y0056493D01*
X0126520Y0056484D01*
X0126503Y0056472D01*
X0126489Y0056458D01*
X0126477Y0056441D01*
X0126468Y0056422D01*
X0126463Y0056402D01*
X0126461Y0056382D01*
X0123500Y0116500D02*
X0123500Y0122654D01*
X0123500Y0129346D02*
X0128654Y0129346D01*
X0129000Y0129000D01*
D30*
X0090918Y0128218D02*
X0076500Y0142636D01*
X0076500Y0147300D01*
X0075398Y0045476D02*
X0071024Y0045476D01*
X0071000Y0045500D01*
X0075398Y0045476D02*
X0076500Y0044374D01*
X0076500Y0039846D01*
X0075398Y0040949D01*
X0076500Y0033154D02*
X0076500Y0028626D01*
X0075398Y0027524D01*
D31*
X0046657Y0036500D02*
X0040000Y0036500D01*
X0037500Y0039000D01*
X0037500Y0081500D02*
X0033563Y0081500D01*
X0037500Y0081500D02*
X0041500Y0081500D01*
X0037524Y0081524D02*
X0037524Y0092398D01*
X0037524Y0081524D02*
X0037500Y0081500D01*
D32*
X0117441Y0103959D02*
X0118500Y0102900D01*
X0118500Y0098046D01*
D33*
X0066500Y0056343D02*
X0066500Y0031500D01*
X0070476Y0027524D01*
X0075398Y0027524D01*
X0066500Y0056343D02*
X0066499Y0056353D01*
X0066495Y0056363D01*
X0066489Y0056371D01*
X0066481Y0056377D01*
X0066471Y0056381D01*
X0066461Y0056382D01*
M02*
