%
M48
M72
T01C0.01378
T02C0.03200
T03C0.03600
T04C0.04000
%
T01
X26500Y21500
X25400Y31500
X25400Y41400
X25500Y51300
X31500Y51500
X31500Y56500
X25600Y61500
X37500Y43500
X37500Y39000
X37500Y34500
X37500Y30000
X41500Y21500
X56500Y21500
X71500Y21500
X86500Y21500
X86500Y31500
X86500Y41500
X101500Y41500
X101500Y31500
X101500Y21500
X116500Y21500
X116500Y31500
X116500Y41500
X131500Y41500
X131500Y31500
X131500Y21500
X146500Y21500
X146500Y31500
X146500Y41500
X161500Y41500
X161500Y31500
X161500Y21500
X141500Y71500
X141500Y76500
X146500Y76500
X151500Y76500
X136500Y76500
X136500Y71500
X126500Y76500
X121500Y76500
X121500Y71500
X103500Y94800
X107000Y96600
X110200Y99400
X123300Y104000
X119000Y114000
X123500Y116500
X111500Y116500
X111500Y121500
X94000Y133700
X81500Y131500
X81500Y126500
X76500Y126500
X76500Y131500
X71500Y129600
X66600Y124700
X73300Y121900
X62100Y133100
X65100Y135700
X64673Y141100
X71500Y136500
X76500Y136500
X76500Y147300
X61400Y161700
X41500Y176500
X41500Y181500
X41500Y186500
X29300Y166900
X39600Y155000
X42000Y115900
X40700Y110900
X33700Y99600
X45300Y87300
X41500Y81500
X37500Y81500
X33563Y81500
X54600Y108200
X54000Y114200
X59700Y103300
X68400Y94800
X77500Y98400
X81500Y101500
X89400Y104100
X93300Y106800
X86500Y79300
X71000Y45500
X144000Y107500
X145800Y99000
X159712Y113000
X151500Y121500
X146200Y168400
X123600Y167000
X111900Y170700
X106500Y176500
X106500Y181500
X106500Y186500
X91100Y169900
T02
X109000Y149500
X109000Y129000
X111784Y109616
X117441Y103959
X130700Y83800
X138700Y83800
X146600Y68800
X154600Y68800
X129000Y129000
X139600Y139000
X129000Y149500
X139500Y159200
X159500Y159200
X159600Y139000
T03
X126461Y66382
X126461Y56382
X116461Y56382
X116461Y66382
X106461Y66382
X106461Y56382
X96461Y56382
X96461Y66382
X86461Y66382
X86461Y56382
X76461Y56382
X76461Y66382
X66461Y66382
X66461Y56382
T04
X33800Y109700
X33800Y119700
X33800Y129700
X33800Y139700
X33800Y149700
X33800Y159700
X33900Y174900
X33900Y184900
X118700Y184500
X118700Y174500
X128700Y174500
X128700Y184500
X138700Y184500
X138700Y174500
M30
